<?xml version="1.0" encoding="utf-8"?>
<!-- Generator: Adobe Illustrator 25.0.0, SVG Export Plug-In . SVG Version: 6.00 Build 0)  -->
<svg version="1.1" id="Calque_1" xmlns="http://www.w3.org/2000/svg" xmlns:xlink="http://www.w3.org/1999/xlink" x="0px" y="0px"
	 viewBox="0 0 44 44" style="enable-background:new 0 0 44 44;" xml:space="preserve">
<style type="text/css">
	.st0{fill:none;}
	.st1{fill-rule:evenodd;clip-rule:evenodd;fill:#FDCD01;}
	.st2{fill-rule:evenodd;clip-rule:evenodd;fill:#FFFFFF;}
	.st3{fill-rule:evenodd;clip-rule:evenodd;fill:#4878C0;}
	.st4{fill-rule:evenodd;clip-rule:evenodd;fill:#2E4661;fill-opacity:0.2;}
</style>
<g id="Icon-About-selected">
	<rect id="Rectangle" class="st0" width="44" height="44"/>
	<g id="Group-12" transform="translate(11.000000, 4.000000)">
		<g id="Group-9">
			<path id="Fill-1" class="st1" d="M14,0.5c9.3,2.8,10.5,15.5,1.9,20.1c-1.5,0.8-2.7,2.2-3.3,3.8L10.4,30c-0.6,1.5-2.3,2.4-3.9,1.9
				l-3.5-1c-1.6-0.5-2.5-2.1-2.2-3.7c1.3-5.9,2.1-8,0.5-10.9C-3.3,7.7,4.7-2.3,14,0.5"/>
			<path id="Fill-3" class="st2" d="M5.2,7.2C4.6,7.3,4.3,8,4.4,8.6c0.2,0.8,1,1.5,1.7,2c0.2-1,0.4-1.8,0.2-2.6
				C6.2,7.6,5.2,7.2,5.2,7.2L5.2,7.2z M13.5,11.2c-0.7,0.5-1.1,1.2-1.4,2.1c1.2,0.2,2,0.1,2.6-0.4C15.6,12.1,15,10.1,13.5,11.2
				L13.5,11.2z M8.1,25.5c1.2-4.7,2.7-9.9,3.3-11.8c-1.8-0.4-3.4-1.1-4.9-2.1c-0.8,4-1.7,7.9-2.7,11.8l-0.5-0.1c1-4,1.9-8,2.7-12
				c-0.9-0.6-1.9-1.4-2.1-2.5c-0.1-0.5,0-1.1,0.3-1.5C5,6.2,6.5,6.7,6.8,8c0.2,0.9,0,1.8-0.2,3c1.5,1,3.2,1.8,5,2.2
				c0.3-1,0.8-1.8,1.6-2.4c2.8-2,4.1,4-1.3,3c-0.5,1.5-2,6.8-3.3,11.8L8.1,25.5z"/>
			<path id="Fill-5" class="st3" d="M12.6,24.2c0,0,0,0.1-0.1,0.1L10.4,30c-0.6,1.5-2.3,2.4-3.9,1.9l-3.5-1
				c-1.6-0.5-2.5-2.1-2.2-3.7c0.6-2.6,1-4.5,1.3-6L12.6,24.2z"/>
		</g>
		<path id="Path" class="st4" d="M14.1,0.5c9.2,2.7,10.5,15.3,2.2,20L16,20.6c-1.5,0.8-2.6,2.1-3.3,3.7l0,0l-0.1,0.1L10.5,30
			c-0.5,1.2-1.6,2-2.8,2H7.6c-0.2,0-0.5,0-0.7-0.1H6.8H6.7l-1.9-0.6h0.1H5c1.5,0,3.4-0.7,4-1.9v-0.1l1.1-2.8l0.7-1.8
			c0.2-0.5-0.1-1.1-0.6-1.3h-0.1l0,0l0,0c0.6-1,1.7-3,2.8-3.7l0.4-0.2l0.4-0.2l0.4-0.2l0.3-0.2c8.3-4.5,5.9-15.8-3.1-18.5
			C10.7,0.2,10.2,0.1,9.6,0C11-0.1,12.5,0,14.1,0.5z"/>
	</g>
</g>
</svg>
