<?xml version="1.0" encoding="utf-8"?>
<!-- Generator: Adobe Illustrator 25.0.0, SVG Export Plug-In . SVG Version: 6.00 Build 0)  -->
<svg version="1.1" id="Calque_1" xmlns="http://www.w3.org/2000/svg" xmlns:xlink="http://www.w3.org/1999/xlink" x="0px" y="0px"
	 viewBox="0 0 44 44" style="enable-background:new 0 0 44 44;" xml:space="preserve">
<style type="text/css">
	.st0{fill:none;}
	.st1{fill-rule:evenodd;clip-rule:evenodd;fill:#4878C0;}
</style>
<g id="Icon-Discover-default">
	<rect id="Rectangle" class="st0" width="44" height="44"/>
	<path id="Combined-Shape" class="st1" d="M22,7c8.3,0,15,6.7,15,15s-6.7,15-15,15S7,30.3,7,22S13.7,7,22,7z M22,8.9
		c-7.2,0-13,5.8-13,13s5.8,13,13,13s13-5.8,13-13S29.2,8.9,22,8.9z M22.2,33.3c0.3,0,0.5,0.2,0.5,0.5s-0.2,0.5-0.5,0.5
		s-0.5-0.2-0.5-0.5S21.9,33.3,22.2,33.3z M19.6,21l4.2,2.9l-7.8,7L19.6,21z M27.7,13.6l-3.6,9.9l-4.2-2.9L27.7,13.6z M34,21.5
		c0.3,0,0.5,0.2,0.5,0.5s-0.2,0.5-0.5,0.5s-0.5-0.2-0.5-0.5S33.7,21.5,34,21.5z M10.4,21.5c0.3,0,0.5,0.2,0.5,0.5s-0.2,0.5-0.5,0.5
		S9.9,22.3,9.9,22S10.1,21.5,10.4,21.5z M22.2,9.7c0.3,0,0.5,0.2,0.5,0.5s-0.2,0.5-0.5,0.5s-0.5-0.2-0.5-0.5S21.9,9.7,22.2,9.7z"/>
</g>
</svg>
