<?xml version="1.0" encoding="utf-8"?>
<!-- Generator: Adobe Illustrator 25.0.0, SVG Export Plug-In . SVG Version: 6.00 Build 0)  -->
<svg version="1.1" id="Calque_1" xmlns="http://www.w3.org/2000/svg" xmlns:xlink="http://www.w3.org/1999/xlink" x="0px" y="0px"
	 viewBox="0 0 44 44" style="enable-background:new 0 0 44 44;" xml:space="preserve">
<style type="text/css">
	.st0{fill:none;}
	.st1{fill-rule:evenodd;clip-rule:evenodd;fill:#062172;}
	.st2{fill-rule:evenodd;clip-rule:evenodd;fill:#FFFFFF;}
	.st3{fill-rule:evenodd;clip-rule:evenodd;fill:#4878C0;}
	.st4{fill-rule:evenodd;clip-rule:evenodd;fill:#E40001;}
	.st5{fill-rule:evenodd;clip-rule:evenodd;fill:#2E4661;fill-opacity:0.2;}
</style>
<g id="Icon-Discover-selected">
	<rect id="Rectangle" class="st0" width="44" height="44"/>
	<g id="Group-20" transform="translate(6.999982, 7.000000)">
		<path id="Fill-1" class="st1" d="M30,15c0,8.3-6.7,15-15,15S0,23.3,0,15S6.7,0,15,0S30,6.7,30,15"/>
		<path id="Fill-4" class="st2" d="M28,14.9c0,7.2-5.8,13-13,13s-13-5.8-13-13s5.8-13,13-13S28,7.7,28,14.9"/>
		<polygon id="Fill-6" class="st3" points="12.6,14 16.9,16.8 9,23.9 		"/>
		<polygon id="Fill-8" class="st4" points="12.8,13.7 17.1,16.6 20.7,6.6 		"/>
		<path id="Fill-10" class="st1" d="M27.5,15c0,0.3-0.2,0.5-0.5,0.5s-0.5-0.2-0.5-0.5s0.2-0.5,0.5-0.5S27.5,14.7,27.5,15"/>
		<path id="Fill-12" class="st1" d="M3.9,15c0,0.3-0.2,0.5-0.5,0.5S2.9,15.3,2.9,15s0.2-0.5,0.5-0.5S3.9,14.7,3.9,15"/>
		<path id="Fill-14" class="st1" d="M15.2,2.7c0.3,0,0.5,0.2,0.5,0.5s-0.2,0.5-0.5,0.5s-0.5-0.2-0.5-0.5S14.9,2.7,15.2,2.7"/>
		<path id="Fill-16" class="st1" d="M15.2,26.3c0.3,0,0.5,0.2,0.5,0.5s-0.2,0.5-0.5,0.5s-0.5-0.2-0.5-0.5S14.9,26.3,15.2,26.3"/>
		<path id="Fill-18" class="st5" d="M20.4,2.9L20.4,2.9c2.1,2.3,3.5,5.4,3.5,8.7c0,7-5.7,12.6-12.6,12.6c-2.7,0-5.3-0.9-7.4-2.4l0,0
			c2.4,4.4,7.5,6.1,11.5,6.1c7.2,0,13-5.8,13-13C28.4,11.3,26.4,5.9,20.4,2.9"/>
	</g>
</g>
</svg>
