<?xml version="1.0" encoding="utf-8"?>
<!-- Generator: Adobe Illustrator 25.0.0, SVG Export Plug-In . SVG Version: 6.00 Build 0)  -->
<svg version="1.1" id="Calque_1" xmlns="http://www.w3.org/2000/svg" xmlns:xlink="http://www.w3.org/1999/xlink" x="0px" y="0px"
	 viewBox="0 0 44 44" style="enable-background:new 0 0 44 44;" xml:space="preserve">
<style type="text/css">
	.st0{fill:none;}
	.st1{fill-rule:evenodd;clip-rule:evenodd;fill:#4878C0;stroke:#FFFFFF;}
	.st2{fill-rule:evenodd;clip-rule:evenodd;fill:#FFFFFF;}
	.st3{fill-rule:evenodd;clip-rule:evenodd;fill:#0098E9;stroke:#FFFFFF;}
	.st4{fill-rule:evenodd;clip-rule:evenodd;fill:#0098E9;}
</style>
<g id="Icon-Figures-default">
	<rect id="Rectangle" class="st0" width="44" height="44"/>
	<g id="Group" transform="translate(7.413673, 7.413530)">
		<path id="Combined-Shape" class="st1" d="M24.9,4.3L24.6,4c2.8,2.7,4.5,6.4,4.5,10.6v-0.4c0.1,3.9-1.3,7.7-4.3,10.7L14.6,14.6
			L24.9,4.3z"/>
		<path id="Combined-Shape_1_" class="st1" d="M4.3,4.3L4,4.5C6.7,1.7,10.4,0,14.6,0h-0.4c3.9-0.1,7.7,1.3,10.7,4.3L14.6,14.6
			L4.3,4.3z"/>
		<path id="Combined-Shape_2_" class="st1" d="M14.6,29.2c-0.1,0-0.2,0-0.4,0h0.1c-4.1-0.1-7.7-1.8-10.3-4.5L4.3,25l10.3-10.3
			L24.9,25c-2.9,2.9-6.8,4.4-10.7,4.3L14.6,29.2L14.6,29.2z"/>
		<path id="Combined-Shape_3_" class="st1" d="M4.3,4.3l10.3,10.3L4.3,24.9l0,0H4.2C1.6,22.3,0,18.6,0,14.6V15
			C-0.1,11.1,1.3,7.2,4.3,4.3z"/>
		<path id="Fill-54" class="st2" d="M23.2,14.6c0,4.8-3.9,8.6-8.6,8.6S6,19.3,6,14.6C6,9.8,9.8,6,14.6,6S23.2,9.8,23.2,14.6"/>
		<path id="Fill-55" class="st3" d="M16.4,17.5c-1.6,1-3.7,0.4-4.7-1.2s-0.4-3.7,1.2-4.7s3.7-0.4,4.7,1.2
			C18.5,14.4,18,16.6,16.4,17.5"/>
		<path id="Fill-59" class="st4" d="M26,7.8l-11.8,6c-0.5,0.2-0.7,0.8-0.4,1.3s0.9,0.6,1.3,0.3L26,7.8"/>
		<line id="Fill-60" class="st0" x1="11.2" y1="24.8" x2="18.1" y2="24.8"/>
	</g>
</g>
</svg>
