<?xml version="1.0" encoding="utf-8"?>
<!-- Generator: Adobe Illustrator 25.0.0, SVG Export Plug-In . SVG Version: 6.00 Build 0)  -->
<svg version="1.1" id="Calque_1" xmlns="http://www.w3.org/2000/svg" xmlns:xlink="http://www.w3.org/1999/xlink" x="0px" y="0px"
	 viewBox="0 0 44 44" style="enable-background:new 0 0 44 44;" xml:space="preserve">
<style type="text/css">
	.st0{fill:none;}
	.st1{fill-rule:evenodd;clip-rule:evenodd;fill:#FFFFFF;}
	.st2{fill-rule:evenodd;clip-rule:evenodd;fill:#4878C0;}
	.st3{fill-rule:evenodd;clip-rule:evenodd;fill:#FFB74D;}
	.st4{fill-rule:evenodd;clip-rule:evenodd;fill:#6E2585;}
	.st5{fill-rule:evenodd;clip-rule:evenodd;fill:#E40001;}
	.st6{fill-rule:evenodd;clip-rule:evenodd;fill:#8DDAFC;}
	.st7{fill-rule:evenodd;clip-rule:evenodd;fill:#062172;}
</style>
<g id="Icon-Figures-selected">
	<rect id="Rectangle" class="st0" width="44" height="44"/>
	<g id="Group-11" transform="translate(6.000000, 6.000000)">
		<path id="Fill-47" class="st1" d="M32,16c0,8.8-7.2,16-16,16S0,24.8,0,16S7.2,0,16,0S32,7.2,32,16"/>
		<path id="Fill-48" class="st2" d="M26.1,5.4c2.8,2.7,4.5,6.4,4.5,10.6H16L26.3,5.7C26.2,5.6,26.1,5.5,26.1,5.4"/>
		<path id="Fill-49" class="st3" d="M15.6,1.4c3.9-0.1,7.7,1.3,10.7,4.3L16,16V1.4C15.9,1.4,15.8,1.4,15.6,1.4"/>
		<path id="Fill-49_1_" class="st4" d="M15.6,30.6c3.9,0.1,7.7-1.3,10.7-4.3L16,16v14.6C15.9,30.6,15.8,30.6,15.6,30.6"/>
		<path id="Fill-50" class="st3" d="M5.4,5.9C8.1,3.2,11.8,1.4,16,1.4V16L5.7,5.7C5.6,5.8,5.5,5.9,5.4,5.9"/>
		<path id="Fill-50_1_" class="st4" d="M5.4,26.1c2.7,2.8,6.4,4.5,10.6,4.5V16L5.7,26.3C5.6,26.2,5.5,26.1,5.4,26.1"/>
		<path id="Fill-51" class="st5" d="M1.4,16.4C1.3,12.5,2.7,8.6,5.7,5.7L16,16H1.4C1.4,16.1,1.4,16.2,1.4,16.4"/>
		<path id="Fill-52" class="st5" d="M5.9,26.6C3.2,23.9,1.4,20.2,1.4,16H16L5.7,26.3C5.8,26.4,5.9,26.5,5.9,26.6"/>
		<path id="Fill-53" class="st2" d="M30.6,15.6c0.1,3.9-1.3,7.7-4.3,10.7L16,16h14.6C30.6,15.9,30.6,15.8,30.6,15.6"/>
		<path id="Fill-54" class="st1" d="M24.6,16c0,4.8-3.9,8.6-8.6,8.6S7.4,20.8,7.4,16s3.9-8.6,8.6-8.6S24.6,11.2,24.6,16"/>
		<path id="Fill-55" class="st6" d="M17.8,19c-1.6,1-3.7,0.4-4.7-1.2s-0.4-3.7,1.2-4.7s3.7-0.4,4.7,1.2C19.9,15.9,19.4,18,17.8,19"
			/>
		<path id="Fill-59" class="st7" d="M27.4,9.2l-11.8,6c-0.5,0.2-0.7,0.8-0.4,1.3s0.9,0.6,1.3,0.3L27.4,9.2"/>
		<line id="Fill-60" class="st0" x1="12.6" y1="26.2" x2="19.5" y2="26.2"/>
	</g>
</g>
</svg>
