<?xml version="1.0" encoding="utf-8"?>
<!-- Generator: Adobe Illustrator 25.0.0, SVG Export Plug-In . SVG Version: 6.00 Build 0)  -->
<svg version="1.1" id="Calque_1" xmlns="http://www.w3.org/2000/svg" xmlns:xlink="http://www.w3.org/1999/xlink" x="0px" y="0px"
	 viewBox="0 0 44 44" style="enable-background:new 0 0 44 44;" xml:space="preserve">
<style type="text/css">
	.st0{fill:none;}
	.st1{fill-rule:evenodd;clip-rule:evenodd;fill:#4878C0;}
</style>
<g id="Icon-Partner-default">
	<rect id="Rectangle" class="st0" width="44" height="44"/>
	<path id="Combined-Shape" class="st1" d="M35,18.5c0.3,1.1,0.5,2.3,0.5,3.5c0,0.3,0,0.6,0,0.9c0,0,0,0,0,0.1s0,0.2,0,0.3
		c0,0.1,0,0.1,0,0.2s0,0.2,0,0.2c0,0.1,0,0.1,0,0.2s0,0.1,0,0.2s0,0.1,0,0.2s0,0.2,0,0.3v0.1c0,0.2-0.1,0.4-0.1,0.6
		c0,0.1,0,0.1-0.1,0.2l-0.1,0.3c-0.5,1.7-1.3,3.3-2.4,4.6l0,0c1.1,0,2.1,0.9,2.1,2.1c0,1.1-0.9,2.1-2.1,2.1s-2.1-0.9-2.1-2.1l0,0
		c-1.5,1.2-3.4,2.1-5.3,2.6l0.4-0.1c-0.2,0-0.3,0.1-0.5,0.1c-0.1,0-0.2,0-0.3,0.1h-0.1c-0.1,0-0.2,0-0.3,0.1c-0.1,0-0.1,0-0.2,0
		s-0.1,0-0.2,0s-0.1,0-0.2,0s-0.2,0-0.2,0c-0.1,0-0.1,0-0.2,0s-0.2,0-0.3,0h-0.1c-0.1,0-0.3,0-0.4,0l0,0c-0.1,0-0.3,0-0.4,0
		c-1.2,0-2.4-0.2-3.5-0.5l0.1-0.3l0.5-2l0.7-2.5c0.7,0.2,1.4,0.3,2.2,0.3c2.3,0,4.4-0.9,6-2.5c1.5-1.5,2.5-3.6,2.5-6
		c0-0.8-0.1-1.5-0.3-2.2l2.5-0.7l0,0L35,18.5z M22,8.6c0.6,0,1.2,0,1.8,0.1l0.4,0.1c0.4,0.1,0.9,0.2,1.3,0.3l-0.6,2.3l-0.7,2.5
		c-0.7-0.2-1.4-0.3-2.2-0.3c-2.3,0-4.4,0.9-6,2.5c-1.5,1.5-2.5,3.6-2.5,6c0,0.8,0.1,1.5,0.3,2.2L11.3,25l0,0L9,25.5
		c-0.3-1.1-0.5-2.3-0.5-3.5c0-0.3,0-0.6,0-0.9V21c0-0.1,0-0.2,0-0.3c0-0.1,0-0.1,0-0.2s0-0.2,0-0.3v-0.1c0-0.1,0-0.2,0-0.3v-0.1
		c0-0.1,0-0.2,0-0.3v-0.1c0.4-2.1,1.4-4.1,2.7-5.7l0,0c-1.1,0-2.1-0.9-2.1-2.1s0.9-2.1,2.1-2.1c1.1,0,2.1,0.9,2.1,2.1l0,0
		c1.5-1.2,3.4-2.1,5.3-2.6L18.5,9c0.2,0,0.3-0.1,0.5-0.1c0.1,0,0.2,0,0.3-0.1h0.1c0.1,0,0.2,0,0.3-0.1h0.1c0.1,0,0.2,0,0.3,0h0.1
		c0.1,0,0.2,0,0.3,0c0.1,0,0.1,0,0.2,0s0.2,0,0.3,0h0.1c0.1,0,0.3,0,0.4,0l0,0C21.7,8.6,21.9,8.6,22,8.6z"/>
</g>
</svg>
