<?xml version="1.0" encoding="utf-8"?>
<!-- Generator: Adobe Illustrator 25.0.0, SVG Export Plug-In . SVG Version: 6.00 Build 0)  -->
<svg version="1.1" id="Calque_1" xmlns="http://www.w3.org/2000/svg" xmlns:xlink="http://www.w3.org/1999/xlink" x="0px" y="0px"
	 viewBox="0 0 44 44" style="enable-background:new 0 0 44 44;" xml:space="preserve">
<style type="text/css">
	.st0{fill:none;}
	.st1{fill-rule:evenodd;clip-rule:evenodd;fill:#FFFFFF;}
	.st2{fill-rule:evenodd;clip-rule:evenodd;fill:#FFB74D;}
	.st3{fill-rule:evenodd;clip-rule:evenodd;fill:#6E2585;}
	.st4{fill-rule:evenodd;clip-rule:evenodd;fill:#4878C0;}
	.st5{fill-rule:evenodd;clip-rule:evenodd;fill:#062172;}
	.st6{fill-rule:evenodd;clip-rule:evenodd;fill:#E40001;}
	.st7{fill-rule:evenodd;clip-rule:evenodd;fill:#DC3B2A;}
	.st8{fill-rule:evenodd;clip-rule:evenodd;fill:#76265B;}
</style>
<g id="Icon-Partner-selected">
	<rect id="Rectangle" class="st0" width="44" height="44"/>
	<path id="Fill-47" class="st1" d="M35,22c0,7.2-5.8,13-13,13S9,29.2,9,22S14.8,9,22,9S35,14.8,35,22"/>
	<g id="_x39_52" transform="translate(6.000000, 6.000000)">
		<path id="Fill-3" class="st2" d="M29,12.5c0.3,1.1,0.5,2.3,0.5,3.5c0,3.2-1.1,6.1-3,8.4l0,0c1.1,0,2.1,0.9,2.1,2.1
			c0,1.1-0.9,2.1-2.1,2.1c-1.1,0-2.1-0.9-2.1-2.1l0,0c-2.3,1.9-5.2,3-8.4,3c-1.2,0-2.4-0.2-3.5-0.5l1.3-4.8c0.7,0.2,1.4,0.3,2.2,0.3
			c2.3,0,4.4-0.9,6-2.5c1.5-1.5,2.5-3.6,2.5-6c0-0.8-0.1-1.5-0.3-2.2L29,12.5"/>
		<path id="Fill-4" class="st3" d="M16,2.6c1.2,0,2.4,0.2,3.5,0.5l-1.3,4.8c-0.7-0.2-1.4-0.3-2.2-0.3c-2.3,0-4.4,0.9-6,2.5
			c-1.5,1.5-2.5,3.6-2.5,6c0,0.8,0.1,1.5,0.3,2.2L3,19.5c-0.3-1.1-0.5-2.3-0.5-3.5c0-3.2,1.1-6.1,3-8.4l0,0c-1.1,0-2.1-0.9-2.1-2.1
			s0.9-2.1,2.1-2.1c1.1,0,2.1,0.9,2.1,2.1l0,0C9.9,3.7,12.8,2.6,16,2.6"/>
		<path id="Fill-5" class="st4" d="M22.5,7.2C20.7,5.8,18.5,5,16,5c-1,0-1.9,0.1-2.8,0.4l-1.3-4.8C13.2,0.2,14.6,0,16,0
			c4.4,0,8.4,1.8,11.3,4.7S32,11.6,32,16c0,1.4-0.2,2.8-0.5,4.1l-4.8-1.3C26.9,17.9,27,17,27,16c0-2.5-0.8-4.7-2.2-6.5
			c-0.1,1-1,1.8-2,1.8c-1.1,0-2.1-0.9-2.1-2.1C20.7,8.1,21.5,7.3,22.5,7.2"/>
		<path id="Fill-6" class="st5" d="M18.8,5.4C17.9,5.1,17,5,16,5s-1.9,0.1-2.8,0.4L12.5,3c1.1-0.3,2.3-0.5,3.5-0.5s2.4,0.2,3.5,0.5
			L18.8,5.4"/>
		<path id="Fill-7" class="st5" d="M29,19.5l-2.3-0.6c0.2-1,0.3-1.9,0.3-2.9s-0.1-1.9-0.4-2.8l2.3-0.6c0.3,1.1,0.5,2.3,0.5,3.5
			S29.3,18.4,29,19.5"/>
		<path id="Fill-8" class="st6" d="M10.8,23.3c1.1,0,2.1-0.9,2.1-2.1c0-1.1-0.9-2.1-2.1-2.1c-1.1,0-2.1,0.9-2.1,2.1
			C8.7,22.4,9.6,23.3,10.8,23.3z M5,16c0,1.9,0.5,3.7,1.3,5.2v4.4h4.5c1.6,0.9,3.4,1.3,5.2,1.3c1,0,1.9-0.1,2.8-0.4l1.3,4.8
			C18.8,31.8,17.4,32,16,32c-3.1,0-5.3-0.6-8-2.1H2.2v-5.7C0.8,21.7,0,19,0,16c0-1.4,0.2-2.8,0.5-4.1l4.8,1.3C5.1,14.1,5,15,5,16
			L5,16z"/>
		<path id="Fill-9" class="st7" d="M13.2,26.6C14.1,26.9,15,27,16,27s1.9-0.1,2.8-0.4l0.6,2.3c-1.1,0.3-2.3,0.5-3.5,0.5
			s-2.4-0.2-3.5-0.5L13.2,26.6"/>
		<path id="Fill-10" class="st8" d="M5,16c0,1,0.1,1.9,0.4,2.8L3,19.5c-0.3-1.1-0.5-2.3-0.5-3.5s0.2-2.4,0.5-3.5l2.3,0.6
			C5.1,14.1,5,15,5,16"/>
	</g>
</g>
</svg>
