<?xml version="1.0" encoding="utf-8"?>
<!-- Generator: Adobe Illustrator 25.0.0, SVG Export Plug-In . SVG Version: 6.00 Build 0)  -->
<svg version="1.1" id="Calque_1" xmlns="http://www.w3.org/2000/svg" xmlns:xlink="http://www.w3.org/1999/xlink" x="0px" y="0px"
	 viewBox="0 0 16 16" style="enable-background:new 0 0 16 16;" xml:space="preserve">
<style type="text/css">
	.st0{fill-rule:evenodd;clip-rule:evenodd;fill:#062172;}
</style>
<g id="map_x2F_pin-star-green">
	<path id="Fill-1" class="st0" d="M7.8,1C7.6,1,7.4,1.1,7.3,1.2C7.2,1.3,7.1,1.5,7,1.7C6.7,2,6.5,2.5,6.3,2.9
		c-0.2,0.5-0.4,1-0.6,1.4C5.5,4.6,5.3,4.9,5.2,5c0,0-0.4,0.2-0.8,0.3C4,5.4,3.5,5.4,3,5.5S2,5.8,1.6,5.9C1.4,6,1.2,6,1.1,6.1
		S0.8,6.3,0.8,6.5c-0.1,0.2,0,0.4,0,0.5C0.9,7.2,1,7.4,1.2,7.5c0.3,0.3,0.6,0.7,1,1s0.8,0.7,1.1,1s0.5,0.6,0.6,0.7
		c0,0.1,0,0.4,0,0.9c0,0.4-0.1,0.9-0.2,1.4c-0.1,0.5-0.1,1-0.1,1.4c0,0.2,0,0.4,0.1,0.6c0,0.2,0.1,0.3,0.3,0.4C4,15,4.2,15,4.4,15
		c0.2,0,0.4-0.1,0.5-0.2c0.4-0.2,0.8-0.4,1.3-0.6c0.4-0.2,0.9-0.5,1.3-0.7s0.7-0.3,0.8-0.3s0.4,0.1,0.8,0.3c0.4,0.2,0.9,0.4,1.3,0.6
		c0.5,0.2,0.9,0.4,1.3,0.5c0.2,0.1,0.4,0.1,0.6,0.1c0.2,0,0.4,0,0.5-0.1s0.2-0.3,0.2-0.5s0-0.4,0-0.6c0-0.4-0.1-0.9-0.2-1.4
		c-0.1-0.5-0.2-1-0.3-1.4s-0.1-0.8-0.1-0.9c0-0.1,0.2-0.4,0.5-0.7s0.6-0.7,1-1.1c0.3-0.4,0.7-0.8,0.9-1.1c0.1-0.2,0.2-0.3,0.3-0.5
		s0.1-0.3,0-0.5s-0.2-0.3-0.4-0.4s-0.3-0.1-0.5-0.2c-0.4-0.1-0.9-0.2-1.4-0.2c-0.5-0.1-1-0.1-1.4-0.2s-0.8-0.2-0.8-0.2
		c-0.1,0-0.3-0.3-0.5-0.7C9.9,3.7,9.7,3.3,9.4,2.8C9.2,2.4,8.9,1.9,8.6,1.6C8.5,1.4,8.4,1.3,8.3,1.2C8.1,1.1,8,1,7.8,1L7.8,1z"/>
</g>
</svg>
