<?xml version="1.0" encoding="utf-8"?>
<!-- Generator: Adobe Illustrator 25.0.0, SVG Export Plug-In . SVG Version: 6.00 Build 0)  -->
<svg version="1.1" id="Calque_1" xmlns="http://www.w3.org/2000/svg" xmlns:xlink="http://www.w3.org/1999/xlink" x="0px" y="0px"
	 viewBox="0 0 35 39.9" style="enable-background:new 0 0 35 39.9;" xml:space="preserve">
<style type="text/css">
	.st0{fill:#4878C0;}
	.st1{fill:#FFFFFF;}
</style>
<g id="Group_3" transform="translate(-232.5 -232)">
	<g transform="matrix(1, 0, 0, 1, 232.5, 232)">
		<path id="Path_1-2" class="st0" d="M17.5,0c8.8,0,16,7.1,16,16c0,7.1-4.7,13.4-11.6,15.4l-2.7,4.1c-0.6,0.9-1.9,1.2-2.8,0.6
			c-0.2-0.1-0.4-0.3-0.6-0.6l0,0l-2.7-4.1C4.6,29-0.3,20.1,2.1,11.6C4.1,4.7,10.4,0,17.5,0z"/>
	</g>
	<path id="Icon_awesome-star" class="st1" d="M249.4,241.1l-1.3,2.8l-3,0.5c-0.4,0.1-0.6,0.4-0.5,0.8c0,0.1,0.1,0.3,0.2,0.3l2.2,2.2
		l-0.5,3.1c-0.1,0.4,0.2,0.7,0.5,0.8c0.1,0,0.3,0,0.4-0.1l2.7-1.5l2.7,1.5c0.3,0.2,0.7,0,0.9-0.3c0.1-0.1,0.1-0.3,0.1-0.4l-0.5-3.1
		l2.2-2.2c0.3-0.3,0.3-0.7,0-1c-0.1-0.1-0.2-0.2-0.3-0.2l-3-0.5l-1.3-2.8c-0.1-0.3-0.5-0.5-0.9-0.3
		C249.6,240.8,249.5,240.9,249.4,241.1z"/>
</g>
</svg>
