<?xml version="1.0" encoding="utf-8"?>
<!-- Generator: Adobe Illustrator 25.0.0, SVG Export Plug-In . SVG Version: 6.00 Build 0)  -->
<svg version="1.1" id="Calque_1" xmlns="http://www.w3.org/2000/svg" xmlns:xlink="http://www.w3.org/1999/xlink" x="0px" y="0px"
	 viewBox="0 0 24 24" style="enable-background:new 0 0 24 24;" xml:space="preserve">
<style type="text/css">
	.st0{fill-rule:evenodd;clip-rule:evenodd;fill:#062172;stroke:#062172;stroke-width:0.25;}
</style>
<g id="icon_x2F_action-vignette-mail">
	<path id="Combined-Shape" class="st0" d="M18,5c0.8,0,1.6,0.3,2.1,0.9C20.7,6.4,21,7.2,21,8v7.2c0,0.8-0.3,1.6-0.9,2.1
		c-0.6,0.6-1.3,0.9-2.1,0.9H6c-0.8,0-1.6-0.3-2.1-0.9C3.3,16.8,3,16,3,15.2V8c0-0.8,0.3-1.6,0.9-2.1C4.4,5.3,5.2,5,6,5H18z M19.8,9
		l-6.5,3.2l0,0l0,0c-0.4,0.2-0.9,0.3-1.3,0.3c-0.5,0-0.9-0.1-1.3-0.3l0,0l0,0L4.2,9l0,6.2c0,0.4,0.2,0.8,0.4,1.2l0.1,0.1
		C5.1,16.8,5.5,17,6,17l0,0h12c0.5,0,0.9-0.2,1.3-0.5s0.5-0.8,0.5-1.3l0,0L19.8,9z M18,6.2H6c-0.5,0-0.9,0.2-1.3,0.5
		C4.5,7,4.3,7.3,4.2,7.6l7,3.5c0.3,0.1,0.5,0.2,0.8,0.2c0.3,0,0.6,0,0.8-0.2l7-3.5c-0.1-0.3-0.2-0.7-0.5-0.9
		C18.9,6.4,18.5,6.2,18,6.2L18,6.2z"/>
</g>
</svg>
