<?xml version="1.0" encoding="utf-8"?>
<!-- Generator: Adobe Illustrator 25.0.0, SVG Export Plug-In . SVG Version: 6.00 Build 0)  -->
<svg version="1.1" id="Calque_1" xmlns="http://www.w3.org/2000/svg" xmlns:xlink="http://www.w3.org/1999/xlink" x="0px" y="0px"
	 viewBox="0 0 24 24" style="enable-background:new 0 0 24 24;" xml:space="preserve">
<style type="text/css">
	.st0{fill:none;stroke:#062172;stroke-width:1.5;}
</style>
<g id="icon_x2F_action-vignette-appeler">
	<path id="Fill-1" class="st0" d="M19.8,16.9c0.4,0.4,0.6,0.9,0.5,1.4c-0.1,0.5-0.4,1-0.9,1.2c-1.3,0.7-2.9,0.9-4.4,0.5
		c-3.9-1-9.5-6.6-10.5-10.5C4.1,8.1,4.3,6.6,5,5.2c0.2-0.5,0.7-0.8,1.2-0.9c0.5-0.1,1.1,0.1,1.4,0.5l1.7,1.7C9.9,7,10,7.7,9.7,8.3
		C9.6,8.7,9.4,9,9.1,9.3c-1.9,1.9,4.3,8.1,6.2,6.2c0.3-0.3,0.6-0.5,0.9-0.6c0.6-0.3,1.4-0.1,1.9,0.4L19.8,16.9z"/>
</g>
</svg>
