<?xml version="1.0" encoding="utf-8"?>
<!-- Generator: Adobe Illustrator 25.0.0, SVG Export Plug-In . SVG Version: 6.00 Build 0)  -->
<svg version="1.1" id="Calque_1" xmlns="http://www.w3.org/2000/svg" xmlns:xlink="http://www.w3.org/1999/xlink" x="0px" y="0px"
	 viewBox="0 0 24 24" style="enable-background:new 0 0 24 24;" xml:space="preserve">
<style type="text/css">
	.st0{fill-rule:evenodd;clip-rule:evenodd;fill:#062172;}
</style>
<g id="icon_x2F_action-vignette-télécharger">
	<path id="Combined-Shape" class="st0" d="M19.2,14.9c0.2,0,0.4,0.1,0.5,0.2c0.1,0.1,0.2,0.3,0.2,0.5v3.5c0,0.1,0,0.1,0,0.2
		c-0.1,0.3-0.4,0.6-0.7,0.6H4.8c-0.4,0-0.7-0.3-0.8-0.7c0,0,0-0.1,0-0.1v-3.5c0-0.4,0.3-0.8,0.8-0.8c0.2,0,0.4,0.1,0.5,0.2
		c0.1,0.1,0.2,0.3,0.2,0.5v2.8h13v-2.8C18.5,15.2,18.8,14.9,19.2,14.9z M12,4c0.2,0,0.5,0.1,0.6,0.3c0.2,0.2,0.3,0.4,0.3,0.6v8.2
		l2.2-2.2c0.3-0.3,0.9-0.3,1.2,0c0.3,0.3,0.3,0.9,0,1.2l-3.7,3.7c0,0,0,0,0,0c-0.1,0.1-0.3,0.2-0.5,0.2l0,0l0,0l0,0c0,0-0.1,0-0.1,0
		l-0.1,0c0,0,0,0,0,0c-0.2,0-0.4-0.1-0.5-0.2c0,0,0,0,0,0l-3.7-3.7c-0.2-0.2-0.3-0.4-0.3-0.6c0-0.2,0.1-0.5,0.3-0.6
		c0.3-0.3,0.9-0.3,1.2,0l2.2,2.2l0-8.2C11.1,4.4,11.5,4,12,4z"/>
</g>
</svg>
