<?xml version="1.0" encoding="utf-8"?>
<!-- Generator: Adobe Illustrator 25.0.0, SVG Export Plug-In . SVG Version: 6.00 Build 0)  -->
<svg version="1.1" id="Calque_1" xmlns="http://www.w3.org/2000/svg" xmlns:xlink="http://www.w3.org/1999/xlink" x="0px" y="0px"
	 viewBox="0 0 24 24" style="enable-background:new 0 0 24 24;" xml:space="preserve">
<style type="text/css">
	.st0{fill-rule:evenodd;clip-rule:evenodd;fill:#062172;stroke:#062172;stroke-width:0.25;}
</style>
<g id="icon_x2F_action-vignette-partager">
	<path id="Fill-1" class="st0" d="M17.3,9.3c-0.8,0-1.6-0.4-2.1-1.1l-5.9,3.5c0,0.1,0,0.1,0,0.2c0,0.1,0,0.2,0,0.2l5.9,3.5h0
		c0.5-0.7,1.3-1.1,2.2-1.1c0.9,0,1.6,0.4,2.1,1.1c0.5,0.7,0.6,1.6,0.4,2.4c-0.3,0.8-0.9,1.4-1.7,1.7c-0.8,0.3-1.7,0.1-2.4-0.4
		c-0.7-0.5-1.1-1.3-1.1-2.2c0-0.1,0-0.2,0-0.3l-5.9-3.5l0,0c-0.4,0.6-1.1,1-1.9,1.1c-0.7,0.1-1.5-0.2-2.1-0.7C4.3,13.5,4,12.8,4,12
		c0-0.8,0.3-1.5,0.8-2c0.6-0.5,1.3-0.8,2-0.7c0.7,0.1,1.4,0.4,1.9,1l5.9-3.5c0-0.1,0-0.2,0-0.3h0c0-0.7,0.3-1.4,0.8-1.9
		S16.6,4,17.3,4c0.7,0,1.4,0.3,1.9,0.8C19.7,5.3,20,6,20,6.7c0,0.7-0.3,1.4-0.8,1.9C18.7,9.1,18,9.3,17.3,9.3L17.3,9.3z M17.3,18.7
		L17.3,18.7c0.5,0,1-0.3,1.2-0.8c0.2-0.5,0.1-1.1-0.3-1.5c-0.4-0.4-1-0.5-1.5-0.3c-0.5,0.2-0.8,0.7-0.8,1.2c0,0.4,0.1,0.7,0.4,0.9
		S17,18.7,17.3,18.7L17.3,18.7z M6.7,10.7L6.7,10.7c-0.5,0-1,0.3-1.2,0.8c-0.2,0.5-0.1,1.1,0.3,1.5c0.4,0.4,1,0.5,1.5,0.3
		C7.7,13,8,12.5,8,12c0-0.4-0.1-0.7-0.4-0.9C7.4,10.8,7,10.7,6.7,10.7L6.7,10.7z M17.3,5.3c-0.5,0-1,0.3-1.2,0.8
		c-0.2,0.5-0.1,1.1,0.3,1.5c0.4,0.4,1,0.5,1.5,0.3c0.5-0.2,0.8-0.7,0.8-1.2c0-0.4-0.1-0.7-0.4-0.9S17.7,5.3,17.3,5.3z"/>
</g>
</svg>
