<?xml version="1.0" encoding="utf-8"?>
<!-- Generator: Adobe Illustrator 25.0.0, SVG Export Plug-In . SVG Version: 6.00 Build 0)  -->
<svg version="1.1" id="Calque_1" xmlns="http://www.w3.org/2000/svg" xmlns:xlink="http://www.w3.org/1999/xlink" x="0px" y="0px"
	 viewBox="0 0 24 24" style="enable-background:new 0 0 24 24;" xml:space="preserve">
<style type="text/css">
	.st0{fill:#062172;stroke:#FFFFFF;stroke-width:0.5;stroke-linejoin:round;}
</style>
<g id="icon_x2F_action-vignette-website">
	<g id="icon_x2F_social_x2F_publicon_x2F_social_x2F_24px">
		<path id="path-1_1_" class="st0" d="M12,3c-5,0-9,4-9,9s4,9,9,9s9-4,9-9S17,3,12,3z M11.1,19.1c-3.6-0.4-6.3-3.5-6.3-7.1
			c0-0.6,0.1-1.1,0.2-1.6l4.3,4.3v0.9c0,1,0.8,1.8,1.8,1.8V19.1z M17.3,16.9c-0.2-0.7-0.9-1.3-1.7-1.3h-0.9v-2.7
			c0-0.5-0.4-0.9-0.9-0.9H8.4v-1.8h1.8c0.5,0,0.9-0.4,0.9-0.9V7.5h1.8c1,0,1.8-0.8,1.8-1.8V5.3c2.6,1.1,4.5,3.7,4.5,6.7
			C19.2,13.9,18.5,15.6,17.3,16.9z"/>
	</g>
</g>
</svg>
