<?xml version="1.0" encoding="UTF-8"?>
<svg width="44px" height="44px" viewBox="0 0 44 44" version="1.1" xmlns="http://www.w3.org/2000/svg" xmlns:xlink="http://www.w3.org/1999/xlink">
    <title>Icon-About-selected</title>
    <g id="Icon-About-selected" stroke="none" stroke-width="1" fill="none" fill-rule="evenodd">
        <rect id="Rectangle" x="0" y="0" width="44" height="44"></rect>
        <g id="Group-12" transform="translate(11.000000, 4.000000)">
            <g id="Group-9">
                <path d="M13.9771079,0.465860964 C23.2418545,3.22209413 24.4781705,15.9974862 15.9076186,20.5552708 C14.3684121,21.3738895 13.2001277,22.7504214 12.5712322,24.3766209 L10.4069553,29.9720365 C9.81062756,31.5139752 8.12956576,32.3390965 6.54511419,31.8675752 L3.03501519,30.8234961 C1.4502904,30.3519202 0.493696074,28.7421685 0.837460207,27.12504 C2.09071571,21.2238923 2.98015281,19.1386303 1.37843381,16.2328371 C-3.30590577,7.73261179 4.71012081,-2.29119186 13.9771079,0.465860964" id="Fill-1" fill="#FDCD01"></path>
                <path d="M5.17849712,7.19892221 C4.58298901,7.27340171 4.25157437,8.04513607 4.38403094,8.63747484 C4.57315312,9.48259582 5.40352028,10.1481026 6.12219551,10.6873276 C6.31661814,9.69778309 6.53929162,8.84386446 6.32935015,8.12857715 C6.18213976,7.62678315 5.24292216,7.19088957 5.17849712,7.19892221 L5.17849712,7.19892221 Z M13.4620597,11.2205965 C12.7941486,11.6994401 12.3935003,12.4421586 12.0798995,13.284602 C13.2515172,13.4879862 14.0879498,13.3620323 14.6355353,12.9036801 C15.5544254,12.1346233 14.9672232,10.1399061 13.4620597,11.2205965 L13.4620597,11.2205965 Z M8.10237746,25.4648139 C9.28863967,20.7408575 10.7756613,15.5865266 11.3944477,13.677327 C9.64120146,13.2852031 7.96953839,12.5691507 6.47661518,11.5750161 C5.68586478,15.5364183 4.78462462,19.5132846 3.79212932,23.41742 L3.28814957,23.289171 C4.29665551,19.3207745 5.21101018,15.2774067 6.01088609,11.2513609 C5.12325224,10.6091324 4.11201411,9.80477565 3.87666328,8.75097001 C3.76579101,8.25737258 3.87917689,7.69251964 4.17157585,7.27673498 C4.95008604,6.16954235 6.45136975,6.69680035 6.82835731,7.98207713 C7.07813411,8.83315428 6.8328381,9.77220795 6.58661315,11.0213105 C8.08674933,12.0538597 9.78240103,12.7913871 11.5633517,13.1818717 C11.9105037,12.2257145 12.3613697,11.3698833 13.1585134,10.7978174 C15.9561666,8.79036819 17.2929178,14.7686729 11.9070612,13.7820791 C11.4188735,15.274893 9.87037754,20.559768 8.60652114,25.5914782 L8.10237746,25.4648139 Z" id="Fill-3" fill="#FFFFFF"></path>
                <path d="M12.6311874,24.2391972 C12.6122807,24.2855898 12.589221,24.3297966 12.5712432,24.3766263 L10.4069663,29.972042 C9.81063849,31.5139806 8.12957669,32.339102 6.54512512,31.8677446 L3.03502612,30.8235016 C1.45030133,30.3519256 0.493707003,28.742174 0.837471136,27.1250454 C1.39494716,24.4999027 1.87963765,22.6309209 2.10586297,21.1079436 L12.6311874,24.2391972 Z" id="Fill-5" fill="#96D9C9"></path>
            </g>
            <path d="M14.1029016,0.465967941 C23.2750008,3.19463878 24.578435,15.7430873 16.2875886,20.4161972 L16.0334123,20.5553778 C14.5382379,21.3505783 13.3930671,22.6722282 12.7523186,24.2377861 L12.7569811,24.2393042 L12.6970369,24.3767333 L10.53276,29.9721489 C10.0727357,31.1616445 8.967184,31.9245606 7.75843486,31.994787 L7.62372135,31.9996365 C7.39860108,32.0030568 7.17063063,31.9823818 6.94325416,31.9359208 L6.80693804,31.9050921 L6.67091886,31.8678516 L4.81749863,31.3170609 L4.91828356,31.3201857 L5.01873397,31.3200002 C6.52198675,31.3376841 8.43965877,30.6196613 8.99011544,29.4500442 L9.03905753,29.3354552 L10.1410422,26.5539646 L10.8161959,24.7524735 C11.0093652,24.2370461 10.7481233,23.6626149 10.2326959,23.4694456 C10.2026357,23.4581799 10.1720489,23.448373 10.1410422,23.4400593 L10.1410422,23.4400593 L10.1410422,23.4400593 C10.6978074,22.482453 11.8302715,20.4243096 12.926702,19.7465972 L13.3111852,19.5148216 L13.6866993,19.2983469 L14.0472678,19.097874 L14.386914,18.9141037 C22.7193949,14.4531398 20.3128011,3.15375442 11.3054085,0.456071694 C10.7317923,0.284266102 10.1631061,0.16316769 9.60222259,0.0891632115 C11.0313205,-0.0992139082 12.5495365,0.00382101576 14.1029016,0.465967941 Z" id="Path" fill-opacity="0.2" fill="#2E4661"></path>
        </g>
    </g>
</svg>