<?xml version="1.0" encoding="UTF-8"?>
<svg width="44px" height="44px" viewBox="0 0 44 44" version="1.1" xmlns="http://www.w3.org/2000/svg" xmlns:xlink="http://www.w3.org/1999/xlink">
    <title>Icon-Discover-selected</title>
    <g id="Icon-Discover-selected" stroke="none" stroke-width="1" fill="none" fill-rule="evenodd">
        <rect id="Rectangle" x="0" y="0" width="44" height="44"></rect>
        <g id="Group-20" transform="translate(6.999982, 7.000000)">
            <path d="M30,15 C30,23.2842727 23.2842727,30 15,30 C6.71572727,30 0,23.2842727 0,15 C0,6.71572727 6.71572727,0 15,0 C23.2842727,0 30,6.71572727 30,15" id="Fill-1" fill="#255033"></path>
            <path d="M28.0454545,14.9241 C28.0454545,22.1038273 22.2251818,27.9241 15.0454545,27.9241 C7.86572727,27.9241 2.04545455,22.1038273 2.04545455,14.9241 C2.04545455,7.74437273 7.86572727,1.9241 15.0454545,1.9241 C22.2251818,1.9241 28.0454545,7.74437273 28.0454545,14.9241" id="Fill-4" fill="#FFFFFF"></path>
            <polygon id="Fill-6" fill="#21A194" points="12.6421364 13.9654636 16.8845909 16.8303727 9.02231818 23.8996455"></polygon>
            <polygon id="Fill-8" fill="#E40001" points="12.8264455 13.6924727 17.0689 16.5573818 20.6887182 6.62310909"></polygon>
            <path d="M27.5131455,14.9920091 C27.5131455,15.2853727 27.2754182,15.5231909 26.9820545,15.5231909 C26.6887818,15.5231909 26.4508727,15.2853727 26.4508727,14.9920091 C26.4508727,14.6986455 26.6887818,14.4609182 26.9820545,14.4609182 C27.2754182,14.4609182 27.5131455,14.6986455 27.5131455,14.9920091" id="Fill-10" fill="#2E4661"></path>
            <path d="M3.92756364,14.9920091 C3.92756364,15.2853727 3.68974545,15.5231909 3.39647273,15.5231909 C3.10310909,15.5231909 2.86529091,15.2853727 2.86529091,14.9920091 C2.86529091,14.6986455 3.10310909,14.4609182 3.39647273,14.4609182 C3.68974545,14.4609182 3.92756364,14.6986455 3.92756364,14.9920091" id="Fill-12" fill="#2E4661"></path>
            <path d="M15.1831545,2.66814535 C15.4765182,2.66796364 15.7144273,2.9056 15.7145183,3.19896364 C15.7147,3.49223636 15.4769727,3.73023636 15.1837,3.73032738 C14.8903364,3.73050909 14.6524273,3.49278182 14.6523363,3.19950909 C14.6521545,2.90614545 14.8897909,2.66823636 15.1831545,2.66814535" id="Fill-14" fill="#2E4661"></path>
            <path d="M15.1947818,26.2537272 C15.4881455,26.2536364 15.7260545,26.4912727 15.7262364,26.7846364 C15.7263273,27.0779091 15.4886,27.3158182 15.1953273,27.3160001 C14.9019636,27.3161818 14.6641455,27.0783636 14.6639635,26.7850909 C14.6637818,26.4918182 14.9014182,26.2539091 15.1947818,26.2537272" id="Fill-16" fill="#2E4661"></path>
            <path d="M20.4407909,2.8679 C20.4330636,2.87444545 20.4247909,2.8819 20.4169727,2.88862727 C22.5723364,5.15508182 23.8953364,8.22053636 23.8953364,11.5951727 C23.8953364,18.5740818 18.2378818,24.2315364 11.2589727,24.2315364 C8.51206364,24.2315364 5.97024545,23.3546273 3.89724545,21.8660818 C3.89660909,21.8666273 3.89597273,21.8673545 3.89533636,21.8679 C6.25897273,26.2315364 11.4315182,28.0074455 15.4090636,28.0074455 C22.5887909,28.0074455 28.4090636,22.1871727 28.4090636,15.0074455 C28.4090636,11.2820818 26.4407909,5.8679 20.4407909,2.8679" id="Fill-18" fill-opacity="0.2" fill="#2E4661"></path>
        </g>
    </g>
</svg>