<?xml version="1.0" encoding="UTF-8"?>
<svg width="44px" height="44px" viewBox="0 0 44 44" version="1.1" xmlns="http://www.w3.org/2000/svg" xmlns:xlink="http://www.w3.org/1999/xlink">
    <title>Icon-Discover-default</title>
    <g id="Icon-Discover-default" stroke="none" stroke-width="1" fill="none" fill-rule="evenodd">
        <rect id="Rectangle" x="0" y="0" width="44" height="44"></rect>
        <path d="M21.9999792,7 C30.2842519,7 36.9999792,13.7157273 36.9999792,22 C36.9999792,30.2842727 30.2842519,37 21.9999792,37 C13.7157065,37 6.99997922,30.2842727 6.99997922,22 C6.99997922,13.7157273 13.7157065,7 21.9999792,7 Z M22.0454338,8.9241 C14.8657065,8.9241 9.04543377,14.7443727 9.04543377,21.9241 C9.04543377,29.1038273 14.8657065,34.9241 22.0454338,34.9241 C29.225161,34.9241 35.0454338,29.1038273 35.0454338,21.9241 C35.0454338,14.7443727 29.225161,8.9241 22.0454338,8.9241 Z M22.194761,33.2537272 C22.4881247,33.2536364 22.7260338,33.4912727 22.7262156,33.7846364 C22.7263065,34.0779091 22.4885792,34.3158182 22.1953065,34.3160001 C21.9019429,34.3161818 21.6641247,34.0783636 21.6639428,33.7850909 C21.663761,33.4918182 21.9013974,33.2539091 22.194761,33.2537272 Z M19.6421156,20.9654636 L23.8845701,23.8303727 L16.0222974,30.8996455 L19.6421156,20.9654636 Z M27.6886974,13.6231091 L24.0688792,23.5573818 L19.8264247,20.6924727 L27.6886974,13.6231091 Z M33.9820338,21.4609182 C34.2753974,21.4609182 34.5131247,21.6986455 34.5131247,21.9920091 C34.5131247,22.2853727 34.2753974,22.5231909 33.9820338,22.5231909 C33.688761,22.5231909 33.4508519,22.2853727 33.4508519,21.9920091 C33.4508519,21.6986455 33.688761,21.4609182 33.9820338,21.4609182 Z M10.3964519,21.4609182 C10.6897247,21.4609182 10.9275429,21.6986455 10.9275429,21.9920091 C10.9275429,22.2853727 10.6897247,22.5231909 10.3964519,22.5231909 C10.1030883,22.5231909 9.86527013,22.2853727 9.86527013,21.9920091 C9.86527013,21.6986455 10.1030883,21.4609182 10.3964519,21.4609182 Z M22.1831338,9.66814535 C22.4764974,9.66796364 22.7144065,9.9056 22.7144975,10.1989636 C22.7146792,10.4922364 22.4769519,10.7302364 22.1836792,10.7303274 C21.8903156,10.7305091 21.6524065,10.4927818 21.6523155,10.1995091 C21.6521338,9.90614545 21.8897701,9.66823636 22.1831338,9.66814535 Z" id="Combined-Shape" fill="#70AF85"></path>
    </g>
</svg>