<?xml version="1.0" encoding="UTF-8"?>
<svg width="44px" height="44px" viewBox="0 0 44 44" version="1.1" xmlns="http://www.w3.org/2000/svg" xmlns:xlink="http://www.w3.org/1999/xlink">
    <title>Icon-Figures-selected</title>
    <g id="Icon-Figures-selected" stroke="none" stroke-width="1" fill="none" fill-rule="evenodd">
        <rect id="Rectangle" x="0" y="0" width="44" height="44"></rect>
        <g id="Group-11" transform="translate(6.000000, 6.000000)">
            <path d="M32,15.9997609 C32,24.836713 24.8365218,32 16,32 C7.16347823,32 0,24.836713 0,15.9997609 C0,7.16328696 7.16347823,0 16,0 C24.8365218,0 32,7.16328696 32,15.9997609" id="Fill-47" fill="#FFFFFF"></path>
            <path d="M26.0556195,5.43367355 C28.8466713,8.09097566 30.5863268,11.8423766 30.5863268,15.9997609 L16,15.9997609 L26.314129,5.6856797 C26.2287721,5.60056187 26.1425066,5.51640042 26.0556195,5.43367355" id="Fill-48" fill="#21A194"></path>
            <path d="M15.6390143,1.41831169 C19.4913612,1.32315187 23.374121,2.74576727 26.314129,5.6856797 L16,15.9997609 L16,1.41352979 C15.8793527,1.41352979 15.75904,1.41544255 15.6390143,1.41831169" id="Fill-49" fill="#FFB74D"></path>
            <path d="M15.6390143,16.0047819 C19.4913612,15.9096221 23.374121,17.3322375 26.314129,20.2721499 L16,30.5862311 L16,16 C15.8793527,16 15.75904,16.0019128 15.6390143,16.0047819" id="Fill-49" fill="#6E2585" transform="translate(20.976572, 23.293116) scale(1, -1) translate(-20.976572, -23.293116) "></path>
            <path d="M5.43386482,5.94438052 C8.0908322,3.15318519 11.8422331,1.41352979 16,1.41352979 L16,15.9997609 L5.68587098,5.6856797 C5.60051405,5.77127572 5.51668734,5.85734993 5.43386482,5.94438052" id="Fill-50" fill="#FFB74D"></path>
            <path d="M5.43386482,20.5308507 C8.0908322,17.7396554 11.8422331,16 16,16 L16,30.5862311 L5.68587098,20.2721499 C5.60051405,20.3577459 5.51668734,20.4438201 5.43386482,20.5308507" id="Fill-50" fill="#6E2585" transform="translate(10.716932, 23.293116) scale(1, -1) translate(-10.716932, -23.293116) "></path>
            <path d="M1.41821605,16.3607944 C1.32343878,12.5084953 2.74591073,8.62559213 5.68587098,5.6856797 L16,15.9997609 L1.41367325,15.9997609 C1.41367325,16.120743 1.41529909,16.2407687 1.41821605,16.3607944" id="Fill-51" fill="#E40001"></path>
            <path d="M5.94438052,26.5663265 C3.15332865,23.9090243 1.41367325,20.1576234 1.41367325,15.9997609 L16,15.9997609 L5.68587098,26.3143203 C5.7712279,26.3994381 5.85744557,26.4831214 5.94438052,26.5663265" id="Fill-52" fill="#E40001"></path>
            <path d="M30.5817839,15.6387274 C30.676609,19.4915047 29.2540893,23.3739297 26.314129,26.3143203 L16,15.9997609 L30.5863268,15.9997609 C30.5863268,15.879257 30.5847009,15.7587531 30.5817839,15.6387274" id="Fill-53" fill="#21A194"></path>
            <path d="M24.6127766,15.9997609 C24.6127766,20.7567955 20.7566999,24.6129201 16,24.6129201 C11.2433001,24.6129201 7.38727118,20.7567955 7.38727118,15.9997609 C7.38727118,11.2432045 11.2433001,7.3870799 16,7.3870799 C20.7566999,7.3870799 24.6127766,11.2432045 24.6127766,15.9997609" id="Fill-54" fill="#FFFFFF"></path>
            <path d="M17.7702117,18.9544972 C16.1385317,19.9319177 14.0233058,19.4020831 13.0455984,17.7700205 C12.0679389,16.138436 12.5981082,14.0234014 14.2297883,13.0455028 C15.8614683,12.0680823 17.9766942,12.5979169 18.9543538,14.2299795 C19.9320133,15.861564 19.401844,17.9765986 17.7702117,18.9544972" id="Fill-55" fill="#70AF85"></path>
            <path d="M27.3988553,9.16977241 L15.5551876,15.1834905 C15.0736981,15.4278456 14.9003542,16.0294087 15.1778957,16.4927748 C15.455485,16.9556628 16.0676161,17.0866869 16.5103244,16.7772979 L27.3988553,9.16977241" id="Fill-59" fill="#255033"></path>
            <line x1="12.5758245" y1="26.2123742" x2="19.4909308" y2="26.2123742" id="Fill-60" fill="#2E2E2E"></line>
        </g>
    </g>
</svg>