<?xml version="1.0" encoding="UTF-8"?>
<svg width="44px" height="44px" viewBox="0 0 44 44" version="1.1" xmlns="http://www.w3.org/2000/svg" xmlns:xlink="http://www.w3.org/1999/xlink">
    <title>Icon-Partner-default</title>
    <g id="Icon-Partner-default" stroke="none" stroke-width="1" fill="none" fill-rule="evenodd">
        <rect id="Rectangle" x="0" y="0" width="44" height="44"></rect>
        <path d="M34.9703144,18.5249206 C35.2667324,19.6332567 35.4246905,20.798335 35.4246905,22.0002191 C35.4246905,22.291972 35.4153814,22.5815514 35.397044,22.8686766 C35.3955139,22.89227 35.3939384,22.9159486 35.3923015,22.9396103 C35.3851446,23.0434675 35.3768004,23.1467887 35.3672927,23.2497729 C35.3613435,23.3138069 35.3549352,23.3781478 35.3480744,23.4423536 C35.3399957,23.5183586 35.3313044,23.5936454 35.3219929,23.66874 C35.3131873,23.7393546 35.3038488,23.8100436 35.2939628,23.8805567 C35.2856415,23.9402908 35.2768629,23.9999742 35.2676928,24.0595286 C35.2572995,24.1266794 35.2464741,24.1935962 35.2351565,24.2603447 C35.2198354,24.3509924 35.2035893,24.441146 35.1864478,24.530982 C35.177423,24.5780606 35.1681373,24.6253478 35.1586044,24.6725448 C35.1172188,24.8775615 35.0712047,25.0805585 35.020649,25.2817528 C35.0043096,25.3468091 34.9875455,25.4114792 34.9703144,25.4759557 L34.8725607,25.8226594 C34.3696051,27.5187163 33.5405484,29.074634 32.4581006,30.4177895 L32.4758462,30.4175704 C33.612882,30.4175704 34.5345602,31.3392485 34.5345602,32.4760653 C34.5345602,33.6131011 33.612882,34.5347793 32.4758462,34.5347793 C31.3388104,34.5347793 30.4173513,33.6131011 30.4173513,32.4760653 L30.4175704,32.4583196 C28.8781746,33.6987709 27.0592063,34.6065749 25.0701935,35.0720728 L25.4752985,34.9703144 C25.3029876,35.0163888 25.1293164,35.0591232 24.9543572,35.0984428 C24.8609937,35.1196155 24.7669572,35.1396813 24.672562,35.1587566 C24.6260697,35.1679816 24.5801956,35.1770033 24.5342385,35.1857907 C24.4408708,35.2037971 24.3467228,35.220751 24.2522397,35.2367175 C24.2017015,35.2451313 24.1507289,35.2534485 24.0996608,35.2614777 C24.0257915,35.2732013 23.9520847,35.2841532 23.8781851,35.2945032 C23.8090776,35.3040906 23.7397357,35.3132579 23.6702291,35.3218934 C23.5927011,35.3316 23.5147518,35.3405886 23.4366024,35.3489064 C23.3787908,35.3550035 23.320805,35.3608001 23.2627117,35.3662263 C23.1688186,35.3750362 23.0748374,35.382817 22.9805869,35.3896243 C22.94316,35.3922998 22.9057317,35.3948488 22.8682616,35.3972439 C22.7421679,35.4053222 22.6154541,35.4116407 22.4882903,35.4161896 C22.4717356,35.4167744 22.4553587,35.4173309 22.4389742,35.4178581 C22.2933425,35.4225473 22.1469465,35.4249096 22,35.4249096 C20.798335,35.4249096 19.6332567,35.2667324 18.5249206,34.9703144 L18.6135248,34.6367476 L19.1523716,32.6283273 L19.8179428,30.144156 C20.5137474,30.3301566 21.2452624,30.4294008 22,30.4294008 C24.3279658,30.4294008 26.4357542,29.4858144 27.9607843,27.9607843 C29.4855954,26.4357542 30.4294008,24.3281849 30.4294008,22.0002191 C30.4294008,21.2454814 30.3299376,20.5141856 30.144156,19.8181619 L32.6322708,19.1512762 L32.6322708,19.1512762 L34.9703144,18.5249206 Z M22,8.57574762 C22.6009421,8.57574762 23.1926827,8.61518239 23.7727298,8.69169679 L24.2055336,8.7560945 C24.6360671,8.82728119 25.0596725,8.91896703 25.4752985,9.03012378 L24.8489429,11.3679483 L24.1822763,13.8560631 C23.4862526,13.6702815 22.7547376,13.5710374 22,13.5710374 C19.6722533,13.5710374 17.564684,14.5146237 16.0394348,16.0394348 C14.5146237,17.5644649 13.5708183,19.6724723 13.5708183,22.0002191 C13.5708183,22.7549567 13.6700624,23.4862526 13.8562822,24.1824953 L11.3679483,24.849162 L11.3679483,24.849162 L9.0299047,25.4757367 C8.73370577,24.3674006 8.57552854,23.2021032 8.57552854,22.0002191 C8.57530945,21.7084862 8.58461862,21.4189213 8.60295598,21.1318062 C8.60559291,21.093845 8.6081828,21.0558112 8.61093081,21.017821 C8.61740754,20.9253883 8.62501408,20.8334095 8.63354338,20.7416979 C8.63894571,20.6858168 8.64454014,20.6294871 8.65048178,20.5732606 C8.66056016,20.4759954 8.67179869,20.3797038 8.68405084,20.2837284 C8.68981711,20.240127 8.69565783,20.1961 8.70171146,20.1521406 C8.71518315,20.0528779 8.72990483,19.9541856 8.74569471,19.8558499 C8.75203822,19.8175614 8.75841946,19.7788964 8.76496561,19.7402874 C8.78016459,19.6495073 8.79641068,19.5593528 8.8135522,19.4695155 C8.8227017,19.4225664 8.83198885,19.3752761 8.84152372,19.3280753 C9.2746987,17.1832292 10.2190899,15.2239008 11.5418994,13.5826487 L11.5243729,13.5828678 C10.3875561,13.5828678 9.46587797,12.6614087 9.46587797,11.5243729 C9.46587797,10.3873371 10.3875561,9.46565889 11.5243729,9.46565889 C12.6614087,9.46565889 13.5830869,10.3873371 13.5830869,11.5243729 L13.5826487,11.5421185 C15.1220445,10.3013743 16.9410127,9.39376697 18.9299601,8.92843162 L18.5249206,9.03012378 C18.6971974,8.98404935 18.8708399,8.94132022 19.0457748,8.90200961 C19.1391529,8.88090588 19.2331861,8.86084758 19.3275777,8.84177961 C19.3740218,8.83249128 19.4198911,8.82347297 19.4658436,8.81468914 C19.5592601,8.79675673 19.6534043,8.77980973 19.7478835,8.76384984 C19.791716,8.75649811 19.8360256,8.7492373 19.8804076,8.74219418 C19.976784,8.72686163 20.0731141,8.7126554 20.169771,8.69947811 C20.2076429,8.69434431 20.2453126,8.68937032 20.2830312,8.68455297 C20.3805805,8.67207045 20.4788639,8.66061709 20.5774648,8.65023122 C20.6305801,8.64464844 20.6838936,8.63935169 20.7372981,8.63436794 C20.831253,8.62559437 20.9252291,8.61781758 21.0194744,8.6110138 C21.056844,8.60831978 21.0942718,8.60577344 21.1317415,8.60338087 C21.2578796,8.59532409 21.3845859,8.58900906 21.5117418,8.58446267 C21.5279332,8.58388432 21.5439781,8.58333917 21.5600302,8.58282221 C21.7060058,8.57811941 21.8527266,8.57574762 22,8.57574762 Z" id="Combined-Shape" fill="#70AF85"></path>
    </g>
</svg>