<?xml version="1.0" encoding="UTF-8"?>
<svg width="44px" height="44px" viewBox="0 0 44 44" version="1.1" xmlns="http://www.w3.org/2000/svg" xmlns:xlink="http://www.w3.org/1999/xlink">
    <title>Icon-Partner-selected</title>
    <g id="Icon-Partner-selected" stroke="none" stroke-width="1" fill="none" fill-rule="evenodd">
        <rect id="Rectangle" x="0" y="0" width="44" height="44"></rect>
        <path d="M35,21.9998057 C35,29.1798293 29.1796739,35 22,35 C14.8203261,35 9,29.1798293 9,21.9998057 C9,14.8201707 14.8203261,9 22,9 C29.1796739,9 35,14.8201707 35,21.9998057" id="Fill-47" fill="#FFFFFF"></path>
        <g id="952" transform="translate(6.000000, 6.000000)">
            <path d="M28.9703144,12.5249206 C29.2667324,13.6332567 29.4246905,14.798335 29.4246905,16.0002191 C29.4246905,19.1874247 28.3137255,22.1152372 26.4581006,24.4177895 L26.4758462,24.4175704 C27.612882,24.4175704 28.5345602,25.3392485 28.5345602,26.4760653 C28.5345602,27.6131011 27.612882,28.5347793 26.4758462,28.5347793 C25.3388104,28.5347793 24.4173513,27.6131011 24.4173513,26.4760653 L24.4175704,26.4583196 C22.1150181,28.3137255 19.1869865,29.4249096 16,29.4249096 C14.798335,29.4249096 13.6332567,29.2667324 12.5249206,28.9703144 L13.8179428,24.144156 C14.5137474,24.3301566 15.2452624,24.4294008 16,24.4294008 C18.3279658,24.4294008 20.4357542,23.4858144 21.9607843,21.9607843 C23.4855954,20.4357542 24.4294008,18.3281849 24.4294008,16.0002191 C24.4294008,15.2454814 24.3299376,14.5141856 24.144156,13.8181619 L28.9703144,12.5249206" id="Fill-3" fill="#FFB74D"></path>
            <path d="M16,2.57574762 C17.2018841,2.57574762 18.3669624,2.73348669 19.4752985,3.03012378 L18.1822763,7.8560631 C17.4862526,7.67028152 16.7547376,7.57103735 16,7.57103735 C13.6722533,7.57103735 11.564684,8.51462373 10.0394348,10.0394348 C8.51462373,11.5644649 7.57081827,13.6724723 7.57081827,16.0002191 C7.57081827,16.7549567 7.67006244,17.4862526 7.85628218,18.1824953 L3.0299047,19.4755176 C2.73392485,18.3674006 2.57530945,17.2021032 2.57530945,16.0002191 C2.57530945,12.8132326 3.68627451,9.88498193 5.54189944,7.5826487 L5.52437288,7.58286778 C4.38755614,7.58286778 3.46587797,6.6614087 3.46587797,5.52437288 C3.46587797,4.38733706 4.38755614,3.46565889 5.52437288,3.46565889 C6.6614087,3.46565889 7.58308687,4.38733706 7.58308687,5.52437288 L7.5826487,5.54211852 C9.88520101,3.68627451 12.8132326,2.57574762 16,2.57574762" id="Fill-4" fill="#6E2585"></path>
            <path d="M22.544857,7.15237156 C20.715522,5.79734911 18.451309,4.99550882 16,4.99550882 C15.014788,4.99550882 14.0600285,5.12520539 13.1510571,5.36816738 L11.8580348,0.541570818 C13.1790996,0.188629642 14.5676416,0 16,0 C20.4177895,0 24.4182276,1.79121481 27.3136159,4.68682221 C30.2087852,7.58221054 32,11.5819915 32,16.0002191 C32,17.4327966 31.8118085,18.8213386 31.4586483,20.1426224 L26.6322708,18.8493811 C26.8752328,17.9406288 27.0044912,16.985431 27.0044912,16.0002191 C27.0044912,13.5489101 26.20287,11.2846971 24.8480666,9.45558112 C24.7194654,10.4692737 23.8543104,11.2529302 22.8057838,11.2529302 C21.668967,11.2529302 20.7472889,10.3314711 20.7472889,9.19443532 C20.7472889,8.14568956 21.5309453,7.28075364 22.544857,7.15237156" id="Fill-5" fill="#21A194"></path>
            <path d="M18.8489429,5.3679483 C17.9401906,5.12520539 16.985212,4.99550882 16,4.99550882 C15.014788,4.99550882 14.0600285,5.12520539 13.1512762,5.3679483 L12.5249206,3.03012378 C13.6332567,2.73370577 14.7981159,2.57574762 16,2.57574762 C17.2018841,2.57574762 18.3669624,2.73370577 19.4752985,3.03012378 L18.8489429,5.3679483" id="Fill-6" fill="#142E39"></path>
            <path d="M28.9703144,19.4759557 L26.6322708,18.8493811 C26.8752328,17.9406288 27.0047103,16.985431 27.0047103,16.0002191 C27.0047103,15.0150071 26.8752328,14.0602476 26.6322708,13.1512762 L28.9703144,12.5249206 C29.2667324,13.6332567 29.4246905,14.798335 29.4246905,16.0002191 C29.4246905,17.2021032 29.2665133,18.3676197 28.9703144,19.4759557" id="Fill-7" fill="#139A47"></path>
            <path d="M10.7602147,23.2984993 C11.8972505,23.2984993 12.8189287,22.3768211 12.8189287,21.2400044 C12.8189287,20.1029686 11.8972505,19.1815095 10.7602147,19.1815095 C9.62339796,19.1815095 8.70193888,20.1029686 8.70193888,21.2400044 C8.70193888,22.3768211 9.62339796,23.2984993 10.7602147,23.2984993 Z M4.99550882,16.0002191 C4.99550882,17.8948406 5.47464125,19.6781685 6.31788805,21.2349655 L6.31788805,25.6825501 L10.7851901,25.6825501 C12.4024537,26.5630409 14.2105378,27.0047103 16,27.0047103 C16.985212,27.0047103 17.9401906,26.8752328 18.8489429,26.6324899 L20.1421842,31.4590864 C18.8209004,31.8120276 17.4325775,32.0002191 16,32.0002191 C12.9337277,32.0002191 10.6695147,31.3773688 8.01555483,29.8683317 L2.21294775,29.8683317 L2.21294775,24.1233432 C0.80731734,21.7427977 0,18.9650564 0,16.0002191 C0,14.5676416 0.18841056,13.1793187 0.541570818,11.8578158 L5.3679483,13.1512762 C5.12498631,14.0600285 4.99550882,15.0150071 4.99550882,16.0002191 L4.99550882,16.0002191 Z" id="Fill-8" fill="#E40001"></path>
            <path d="M13.1523716,26.6283273 C14.0856611,26.8789572 15.0454595,27.0047103 16,27.0047103 C16.985212,27.0047103 17.9401906,26.8752328 18.8489429,26.6324899 L19.4752985,28.9703144 C18.3667433,29.2667324 17.2018841,29.4249096 16,29.4249096 C14.7981159,29.4249096 13.6332567,29.2667324 12.5249206,28.9703144 L13.1523716,26.6283273" id="Fill-9" fill="#DC3B2A"></path>
            <path d="M4.99550882,16.0002191 C4.99550882,16.985431 5.12498631,17.9401906 5.3679483,18.849162 L3.0299047,19.4757367 C2.73370577,18.3674006 2.57552854,17.2021032 2.57552854,16.0002191 C2.57552854,14.798335 2.73348669,13.6332567 3.0299047,12.5244824 L5.3679483,13.1512762 C5.12498631,14.0600285 4.99550882,15.0150071 4.99550882,16.0002191" id="Fill-10" fill="#76265B"></path>
        </g>
    </g>
</svg>