<svg width="223" height="58" viewBox="0 0 223 58" fill="none" xmlns="http://www.w3.org/2000/svg">
<g clip-path="url(#clip0)">
<path d="M25.3205 32.9809C25.3205 32.9809 11.4797 25.6394 8.95581 8.81163C8.95581 8.81163 15.3877 21.2675 19.2143 12.4411C23.0409 3.61481 26.786 1.14014 26.786 1.14014C26.786 1.14014 18.8886 16.6481 25.3205 32.9809Z" fill="#FDCD01"/>
<path d="M18.0745 10.2964C18.4816 11.7812 17.8303 13.266 16.609 13.5959C15.3878 13.9259 14.1665 12.936 13.7595 11.4512C13.3524 9.96642 14.0037 8.48161 15.225 8.15166C16.4462 7.8217 17.6675 8.72908 18.0745 10.2964Z" fill="#FDCD01"/>
<path d="M23.9365 28.6089C23.9365 28.6089 26.5419 13.0184 41.5225 5.42944C41.5225 5.42944 31.8339 15.4931 41.2783 16.483C50.7226 17.4729 54.2235 20.2775 54.2235 20.2775C54.2235 20.2775 37.2074 17.3079 23.9365 28.6089Z" fill="#7EB301"/>
<path d="M42.988 14.5859C41.6853 15.4108 40.1384 15.2458 39.4871 14.2559C38.8357 13.1836 39.3242 11.6988 40.6269 10.8739C41.9296 10.049 43.4765 10.2139 44.1278 11.2038C44.7791 12.1937 44.2906 13.761 42.988 14.5859Z" fill="#7EB301"/>
<path d="M27.6002 25.8869C27.6002 25.8869 43.0694 23.5773 54.7934 35.7032C54.7934 35.7032 42.3366 29.434 44.372 38.8377C46.4074 48.2415 44.8605 52.5309 44.8605 52.5309C44.8605 52.5309 42.2552 35.2907 27.6002 25.8869Z" fill="#6E2585"/>
<path d="M46.5703 39.9925C45.349 39.0027 45.0233 37.4354 45.8375 36.528C46.5703 35.6206 48.1986 35.6206 49.3384 36.6105C50.4783 37.6003 50.8853 39.1676 50.0712 40.075C49.257 40.9824 47.7915 40.9824 46.5703 39.9925Z" fill="#6E2585"/>
<path d="M31.1825 28.6091C31.1825 28.6091 38.103 42.7973 30.3684 57.8928C30.3684 57.8928 32.4038 43.9521 24.1807 48.819C15.9576 53.6858 11.4797 53.5209 11.4797 53.5209C11.4797 53.5209 26.9489 45.6844 31.1825 28.6091Z" fill="#E40001"/>
<path d="M23.9365 51.2109C24.5064 49.7261 25.8905 48.9837 27.0303 49.3961C28.1702 49.8086 28.5773 51.3759 28.0888 52.8607C27.6003 54.3455 26.1348 55.0879 24.9949 54.6755C23.7737 54.263 23.3666 52.6957 23.9365 51.2109Z" fill="#E40001"/>
<path d="M29.7985 32.981C29.7985 32.981 18.6444 44.0345 2.11685 41.2299C2.11685 41.2299 15.7948 38.9202 8.7116 32.486C1.62835 26.0519 0.407104 21.7625 0.407104 21.7625C0.407104 21.7625 12.5382 34.1358 29.7985 32.981Z" fill="#0198E9"/>
<path d="M6.3505 32.8985C7.89742 32.981 9.03725 34.0534 8.95583 35.2907C8.87442 36.528 7.57175 37.4354 6.02484 37.3529C4.47792 37.2704 3.33809 36.1981 3.41951 34.9607C3.50092 33.7234 4.80359 32.816 6.3505 32.8985Z" fill="#0198E9"/>
<path d="M61.8767 17.7205H61.1439V23.2472H61.8767V17.7205Z" fill="#2F292D"/>
<path d="M64.8076 17.7205L67.6572 22.2574V17.7205H68.3085V23.2472H67.4943L64.6447 18.7928V23.2472H63.9934V17.7205H64.8076Z" fill="#2F292D"/>
<path d="M73.1936 18.4628C72.9493 18.2978 72.6237 18.2153 72.298 18.2153C72.1352 18.2153 71.9723 18.2153 71.8095 18.2978C71.6466 18.2978 71.5652 18.3803 71.4024 18.4628C71.321 18.5453 71.1582 18.6278 71.1582 18.7928C71.0767 18.9577 71.0767 19.1227 71.0767 19.2052C71.0767 19.3702 71.1582 19.5352 71.2396 19.6176C71.321 19.7001 71.4838 19.7826 71.6467 19.8651C71.8095 19.9476 72.0537 20.0301 72.2166 20.0301L72.8679 20.1951C73.1121 20.2776 73.275 20.2776 73.5192 20.36C73.6821 20.4425 73.9263 20.525 74.0891 20.6075C74.252 20.69 74.4148 20.855 74.4962 21.02C74.7405 21.5149 74.6591 22.0098 74.4148 22.4223C74.252 22.5873 74.0891 22.8347 73.9263 22.9172C73.6821 23.0822 73.5192 23.1647 73.275 23.1647C73.0307 23.2472 72.7865 23.2472 72.5422 23.2472C72.2166 23.2472 71.9723 23.2472 71.6467 23.1647C71.4024 23.0822 71.1582 22.9997 70.9139 22.8347C70.6697 22.6697 70.5068 22.5048 70.4254 22.2573C70.2626 22.0098 70.2626 21.6799 70.2626 21.3499H70.8325C70.8325 21.5974 70.9139 21.7624 70.9953 21.9273C71.0767 22.0923 71.1582 22.2573 71.321 22.3398C71.4838 22.4223 71.6466 22.5048 71.8095 22.5873C71.9723 22.6697 72.2166 22.6697 72.3794 22.6697C72.5422 22.6697 72.7051 22.6697 72.8679 22.5873C73.0307 22.5873 73.1936 22.5048 73.275 22.4223C73.4378 22.3398 73.5192 22.2573 73.6006 22.0923C73.6821 21.9273 73.7635 21.7624 73.6821 21.5974C73.6821 21.4324 73.6007 21.2674 73.5192 21.1025C73.4378 20.9375 73.275 20.855 73.1122 20.855C72.9493 20.7725 72.7051 20.69 72.5422 20.69H72.0537C71.8095 20.6075 71.6466 20.6075 71.4024 20.525C71.2396 20.4425 70.9953 20.36 70.8325 20.2776C70.6697 20.1951 70.5068 20.0301 70.4254 19.8651C70.344 19.7001 70.2626 19.4527 70.2626 19.2052C70.2626 18.7103 70.5068 18.2153 70.9139 17.9679C71.0767 17.8029 71.321 17.7204 71.5652 17.6379C71.8095 17.5554 72.0537 17.5554 72.298 17.5554C72.5422 17.5554 72.7865 17.5554 73.1122 17.6379C73.3564 17.7204 73.5192 17.8029 73.7635 17.9679C73.9263 18.1328 74.0891 18.2978 74.1706 18.5453C74.252 18.7928 74.3334 19.0402 74.3334 19.3702H73.6821C73.6006 19.0402 73.4378 18.7103 73.1936 18.4628Z" fill="#2F292D"/>
<path d="M75.7174 18.3804V17.7205H80.1139V18.3804H78.3227V23.3297H77.59V18.4629H75.7174V18.3804Z" fill="#2F292D"/>
<path d="M82.3936 17.7205H81.6609V23.2472H82.3936V17.7205Z" fill="#2F292D"/>
<path d="M83.9406 18.3804V17.7205H88.337V18.3804H86.5459V23.3297H85.8131V18.4629H83.9406V18.3804Z" fill="#2F292D"/>
<path d="M93.5476 22.8348C93.1405 23.2472 92.5706 23.4122 92.0007 23.3297C91.4308 23.3297 90.8609 23.1647 90.3724 22.8348C89.9653 22.4223 89.721 21.8449 89.8025 21.185V17.6379H90.5352V21.185C90.5352 21.5974 90.6166 22.0099 90.9423 22.3398C91.268 22.5873 91.675 22.7523 92.0821 22.7523C92.4892 22.7523 92.8149 22.6698 93.1405 22.3398C93.3848 22.0099 93.5476 21.5974 93.4662 21.185V17.6379H94.199V21.185C94.199 21.8449 93.9547 22.4223 93.5476 22.8348Z" fill="#2F292D"/>
<path d="M95.6646 18.3804V17.7205H99.9796V18.3804H98.1885V23.3297H97.4557V18.4629C97.4557 18.3804 95.6646 18.3804 95.6646 18.3804Z" fill="#2F292D"/>
<path d="M106.412 17.7205C107.144 17.638 107.796 17.8854 108.366 18.3804C108.854 18.8753 109.098 19.6177 109.017 20.3601C109.017 20.7726 108.935 21.185 108.854 21.5975C108.773 21.9274 108.61 22.2574 108.366 22.5048C108.121 22.7523 107.877 22.9173 107.551 23.0823C107.144 23.2472 106.737 23.2472 106.412 23.2472H104.539V17.7205H106.412ZM106.493 22.5873C106.574 22.5873 106.656 22.5873 106.819 22.5873C106.981 22.5873 107.063 22.5048 107.226 22.5048C107.389 22.4224 107.47 22.3399 107.633 22.2574C107.796 22.1749 107.877 22.0099 107.958 21.8449C108.04 21.6799 108.203 21.4325 108.203 21.2675C108.284 21.02 108.284 20.6901 108.284 20.3601C108.284 20.0302 108.284 19.7827 108.203 19.4527C108.121 19.2053 108.04 18.9578 107.877 18.7928C107.714 18.6278 107.551 18.4629 107.307 18.3804C107.063 18.2979 106.737 18.2154 106.493 18.2154H105.272V22.5048C105.272 22.6698 106.493 22.5873 106.493 22.5873Z" fill="#2F292D"/>
<path d="M114.635 17.7205V18.3804H111.541V20.1126H114.39V20.6901H111.541V22.5873H114.635V23.2472H110.808V17.7205H114.635Z" fill="#2F292D"/>
<path d="M120.171 17.7205V22.6698H123.02V23.3297H119.438V17.8029H120.171V17.7205Z" fill="#2F292D"/>
<path d="M126.928 17.7205L129.045 23.2472H128.231L127.661 21.5974H125.382L124.73 23.2472H123.997L126.114 17.7205H126.928ZM127.417 20.9375L126.521 18.3804L125.626 20.9375H127.417Z" fill="#2F292D"/>
<path d="M137.106 17.7205V18.3804H134.256V20.1126H136.78V20.6901H134.256V23.2472H133.523V17.7205H137.106Z" fill="#2F292D"/>
<path d="M141.339 17.7205C141.746 17.7205 142.235 17.8029 142.56 18.1329C142.886 18.3804 143.049 18.7928 142.968 19.2053C142.968 19.5352 142.886 19.7827 142.723 20.1126C142.56 20.3601 142.316 20.5251 141.991 20.6076C142.153 20.6076 142.235 20.6901 142.398 20.7726C142.479 20.855 142.56 20.9375 142.642 21.02C142.723 21.1025 142.723 21.2675 142.805 21.35C142.805 21.515 142.886 21.5974 142.886 21.7624C142.886 21.9274 142.886 22.0099 142.886 22.1749C142.886 22.3399 142.886 22.4223 142.886 22.5873C142.886 22.7523 142.968 22.8348 142.968 22.9998C142.968 23.0823 143.049 23.2472 143.13 23.3297H142.316C142.235 23.2472 142.235 23.1647 142.235 23.0823C142.235 22.9998 142.235 22.8348 142.235 22.7523C142.235 22.5873 142.235 22.5048 142.235 22.3399C142.235 22.1749 142.235 22.0924 142.153 21.9274C142.153 21.7624 142.072 21.6799 142.072 21.515C142.072 21.4325 141.991 21.2675 141.909 21.185C141.828 21.1025 141.746 21.02 141.665 20.9375C141.502 20.855 141.421 20.855 141.258 20.855H139.467V23.2472H138.734V17.7205H141.339ZM141.502 20.1951C141.665 20.1951 141.746 20.1126 141.909 20.0302C141.991 19.9477 142.153 19.8652 142.153 19.7002C142.316 19.2878 142.316 18.8753 141.991 18.5454C141.828 18.3804 141.502 18.2154 141.258 18.2979H139.467V20.1951H141.014C141.176 20.2776 141.339 20.2776 141.502 20.1951Z" fill="#2F292D"/>
<path d="M147.201 17.7205L149.318 23.2472H148.504L147.934 21.5974H145.654L145.003 23.2472H144.27L146.387 17.7205H147.201ZM147.771 20.9375L146.876 18.3804L145.98 20.9375H147.771Z" fill="#2F292D"/>
<path d="M151.598 17.7205L154.447 22.2574V17.7205H155.099V23.2472H154.366L151.516 18.7928V23.2472H150.865V17.7205H151.598Z" fill="#2F292D"/>
<path d="M160.554 18.5453C160.228 18.3803 159.902 18.2153 159.577 18.2153C159.251 18.2153 159.007 18.2978 158.762 18.3803C158.518 18.4628 158.355 18.7103 158.192 18.8752C158.03 19.1227 157.948 19.3702 157.867 19.6176C157.785 19.8651 157.785 20.1951 157.785 20.4425C157.785 20.7725 157.785 21.02 157.867 21.3499C157.948 21.5974 158.03 21.8449 158.192 22.0923C158.355 22.3398 158.518 22.5048 158.762 22.5873C159.007 22.7522 159.332 22.7522 159.577 22.7522C159.821 22.7522 159.984 22.7522 160.228 22.6697C160.391 22.5873 160.554 22.5048 160.716 22.3398C160.879 22.1748 160.961 22.0098 161.042 21.8449C161.123 21.6799 161.205 21.4324 161.205 21.1849H161.938C161.938 21.7624 161.612 22.3398 161.205 22.8347C160.716 23.2472 160.146 23.4946 159.577 23.4121C159.169 23.4121 158.844 23.3297 158.437 23.1647C158.111 22.9997 157.867 22.8347 157.623 22.5873C157.378 22.3398 157.215 22.0098 157.134 21.6799C157.053 21.3499 156.971 20.9375 156.971 20.525C156.971 20.1126 157.053 19.7826 157.134 19.3702C157.215 19.0402 157.378 18.7103 157.623 18.4628C157.867 18.2153 158.111 17.9679 158.437 17.8029C158.762 17.6379 159.169 17.5554 159.577 17.5554C159.821 17.5554 160.146 17.5554 160.391 17.6379C160.635 17.7204 160.879 17.8029 161.042 17.9679C161.205 18.1328 161.368 18.2978 161.531 18.5453C161.693 18.7928 161.775 19.0402 161.775 19.2877H161.042C161.042 19.0402 160.798 18.7103 160.554 18.5453Z" fill="#2F292D"/>
<path d="M163.566 19.3702C163.647 19.0402 163.81 18.7103 164.054 18.4628C164.299 18.2153 164.543 17.9679 164.869 17.8029C165.601 17.4729 166.415 17.4729 167.148 17.8029C167.474 17.9679 167.718 18.1328 167.962 18.4628C168.207 18.7103 168.369 19.0402 168.451 19.3702C168.695 20.1126 168.695 20.855 168.451 21.5149C168.369 21.8449 168.207 22.1748 167.962 22.4223C167.718 22.6697 167.474 22.9172 167.148 23.0822C166.415 23.4121 165.601 23.4121 164.869 23.0822C164.543 22.9172 164.299 22.7522 164.054 22.4223C163.81 22.1748 163.647 21.8449 163.566 21.5149C163.322 20.855 163.322 20.1126 163.566 19.3702ZM164.217 21.3499C164.299 21.5974 164.38 21.8449 164.543 22.0923C164.706 22.3398 164.869 22.5048 165.113 22.5873C165.357 22.7522 165.683 22.7522 165.927 22.7522C166.253 22.7522 166.497 22.6697 166.823 22.5873C167.067 22.4223 167.23 22.2573 167.392 22.0923C167.555 21.8449 167.637 21.5974 167.718 21.3499C167.881 20.7725 167.881 20.2776 167.718 19.7001C167.637 19.4527 167.555 19.2052 167.392 18.9577C167.23 18.7103 167.067 18.5453 166.823 18.4628C166.578 18.2978 166.253 18.2978 165.927 18.2978C165.601 18.2978 165.357 18.3803 165.113 18.4628C164.869 18.6278 164.706 18.7928 164.543 18.9577C164.38 19.2052 164.299 19.4527 164.217 19.7001C164.054 20.1951 164.054 20.7725 164.217 21.3499Z" fill="#2F292D"/>
<path d="M172.766 17.7205C173.254 17.7205 173.662 17.8029 173.987 18.1329C174.557 18.7928 174.557 19.8652 173.987 20.5251C173.662 20.855 173.173 21.02 172.766 20.9375H171.056V23.2472H170.323V17.7205H172.766ZM172.522 20.3601C172.847 20.3601 173.173 20.2776 173.417 20.1126C173.58 19.9477 173.743 19.6177 173.743 19.3702C173.743 19.1228 173.662 18.7928 173.417 18.6278C173.173 18.4629 172.847 18.3804 172.522 18.3804H171.056V20.4426C171.056 20.3601 172.522 20.3601 172.522 20.3601Z" fill="#2F292D"/>
<path d="M177 17.7205V20.1126H179.849V17.7205H180.582V23.2472H179.849V20.6901H177V23.2472H176.267V17.7205H177Z" fill="#2F292D"/>
<path d="M182.536 19.3702C182.617 19.0402 182.78 18.7103 183.024 18.4628C183.269 18.2153 183.513 17.9679 183.839 17.8029C184.571 17.4729 185.386 17.4729 186.118 17.8029C186.444 17.9679 186.688 18.2153 186.932 18.4628C187.177 18.7103 187.34 19.0402 187.421 19.3702C187.665 20.1126 187.665 20.855 187.421 21.5149C187.34 21.8449 187.177 22.1748 186.932 22.4223C186.688 22.6697 186.444 22.9172 186.118 23.0822C185.386 23.4121 184.571 23.4121 183.839 23.0822C183.513 22.9172 183.269 22.7522 183.024 22.4223C182.78 22.1748 182.617 21.8449 182.536 21.5149C182.292 20.855 182.292 20.1126 182.536 19.3702ZM183.187 21.3499C183.269 21.5974 183.35 21.8449 183.513 22.0923C183.676 22.3398 183.839 22.5048 184.083 22.5873C184.653 22.8347 185.223 22.8347 185.793 22.5873C186.037 22.4223 186.2 22.2573 186.363 22.0923C186.525 21.8449 186.607 21.5974 186.688 21.3499C186.851 20.7725 186.851 20.2776 186.688 19.7001C186.607 19.4527 186.525 19.2052 186.363 18.9577C186.2 18.7103 186.037 18.5453 185.793 18.4628C185.223 18.2153 184.653 18.2153 184.083 18.4628C183.839 18.6278 183.676 18.7928 183.513 18.9577C183.35 19.2052 183.269 19.4527 183.187 19.7001C183.024 20.1951 183.024 20.7725 183.187 21.3499Z" fill="#2F292D"/>
<path d="M190.189 17.7205L193.039 22.2574V17.7205H193.69V23.2472H192.957L190.108 18.7928V23.2472H189.456V17.7205H190.189Z" fill="#2F292D"/>
<path d="M196.54 17.7205H195.807V23.2472H196.54V17.7205Z" fill="#2F292D"/>
<path d="M202.483 17.7205V18.3804H199.471V20.1126H202.32V20.6901H199.471V22.5873H202.564V23.2472H198.738V17.7205C198.738 17.7205 202.483 17.7205 202.483 17.7205Z" fill="#2F292D"/>
<path d="M63.505 28.8565C63.9935 28.8565 64.4006 28.939 64.7262 29.2689C65.0519 29.5989 65.2147 30.0113 65.1333 30.5063C65.1333 30.9187 64.9705 31.4137 64.7262 31.7436C64.4006 32.0736 63.9121 32.2385 63.505 32.1561H61.8767V34.3833H61.1439V28.8565C61.1439 28.774 63.505 28.8565 63.505 28.8565ZM63.2607 31.4961C63.5864 31.4961 63.9121 31.4136 64.1563 31.2487C64.3192 31.0837 64.482 30.7537 64.482 30.5063C64.482 30.2588 64.4006 29.9288 64.1563 29.7639C63.9121 29.5989 63.5864 29.5164 63.2607 29.5164H61.8767V31.5786L63.2607 31.4961Z" fill="#2F292D"/>
<path d="M66.843 30.5062C66.9244 30.1762 67.0872 29.8463 67.3315 29.5988C67.5757 29.3513 67.82 29.1039 68.1456 28.9389C68.8784 28.6089 69.6926 28.6089 70.4253 28.9389C70.751 29.1039 70.9952 29.2688 71.2395 29.5988C71.4837 29.8463 71.6466 30.1762 71.728 30.5062C71.9722 31.2486 71.9722 31.991 71.728 32.6509C71.6466 32.9808 71.4837 33.3108 71.2395 33.5583C70.9952 33.8057 70.751 34.0532 70.4253 34.2182C69.6926 34.5481 68.8784 34.5481 68.1456 34.2182C67.82 34.0532 67.5757 33.8882 67.3315 33.5583C67.0872 33.3108 66.9244 32.9808 66.843 32.6509C66.5987 31.991 66.5987 31.1661 66.843 30.5062ZM67.4943 32.4034C67.5757 32.6509 67.6571 32.8984 67.82 33.1458C67.9828 33.3933 68.1456 33.5583 68.3899 33.6408C68.9598 33.8882 69.5297 33.8882 70.0996 33.6408C70.3439 33.4758 70.5067 33.3108 70.6696 33.1458C70.8324 32.8984 70.9138 32.6509 70.9952 32.4034C71.1581 31.826 71.1581 31.3311 70.9952 30.7536C70.9138 30.5062 70.8324 30.2587 70.6696 30.0112C70.5067 29.7638 70.3439 29.5988 70.0996 29.5163C69.5297 29.2688 68.9598 29.2688 68.3899 29.5163C68.1456 29.6813 67.9828 29.8463 67.82 30.0112C67.6571 30.2587 67.5757 30.5062 67.4943 30.7536C67.3315 31.3311 67.3315 31.826 67.4943 32.4034Z" fill="#2F292D"/>
<path d="M77.5086 33.9707C77.1015 34.3832 76.5316 34.5482 75.9617 34.4657C75.3917 34.4657 74.8218 34.3007 74.3333 33.9707C73.9262 33.5583 73.682 32.9809 73.7634 32.321V28.7739H74.4962V32.321C74.4962 32.7334 74.5776 33.1459 74.9032 33.4758C75.2289 33.7233 75.636 33.8883 76.0431 33.8883C76.4502 33.8883 76.8572 33.8058 77.1015 33.4758C77.3457 33.1459 77.5086 32.7334 77.4271 32.321V28.7739H78.1599V32.321C78.0785 32.8984 77.9156 33.4758 77.5086 33.9707Z" fill="#2F292D"/>
<path d="M82.7192 28.8564C83.1263 28.8564 83.6148 28.9389 83.9405 29.2689C84.2661 29.5164 84.429 29.9288 84.3476 30.3412C84.3476 30.6712 84.2661 30.9187 84.1033 31.2486C83.9405 31.4961 83.6962 31.6611 83.3706 31.7436C83.5334 31.7436 83.6148 31.8261 83.7776 31.9085C83.8591 31.991 83.9405 32.0735 84.0219 32.156C84.1033 32.2385 84.1033 32.4035 84.1847 32.486C84.1847 32.5685 84.2661 32.7334 84.2661 32.8984C84.2661 33.0634 84.2661 33.1459 84.2661 33.3109C84.2661 33.4758 84.2661 33.5583 84.2661 33.7233C84.2661 33.8883 84.3476 33.9708 84.3476 34.1357C84.3476 34.2182 84.429 34.3832 84.5104 34.4657H83.6962C83.6148 34.3832 83.6148 34.3007 83.6148 34.2182C83.6148 34.1357 83.6148 33.9708 83.6148 33.8883C83.6148 33.7233 83.6148 33.6408 83.6148 33.4758C83.6148 33.3109 83.6148 33.2284 83.5334 33.0634C83.5334 32.8984 83.452 32.8159 83.452 32.6509C83.452 32.5685 83.3706 32.4035 83.2891 32.321C83.2077 32.2385 83.1263 32.156 83.0449 32.0735C82.8821 31.991 82.8006 31.991 82.6378 31.991H80.8466V34.3832H80.1139V28.8564H82.7192ZM82.8006 31.3311C82.9635 31.3311 83.0449 31.2486 83.2077 31.1661C83.2891 31.0837 83.452 31.0012 83.452 30.8362C83.5334 30.6712 83.5334 30.5062 83.5334 30.3412C83.5334 30.0938 83.452 29.8463 83.2891 29.6813C83.1263 29.5164 82.8006 29.3514 82.5564 29.4339H80.7652V31.3311H82.3121C82.475 31.3311 82.6378 31.3311 82.8006 31.3311Z" fill="#2F292D"/>
<path d="M90.0468 28.8564V33.7233H92.9778V34.3007H89.3955V28.7739C89.3141 28.7739 90.0468 28.8564 90.0468 28.8564Z" fill="#2F292D"/>
<path d="M98.1884 28.8564V29.4338H95.176V31.1661H98.0256V31.826H95.176V33.7233H98.2698V34.3007H94.4432V28.7739L98.1884 28.8564Z" fill="#2F292D"/>
<path d="M104.946 28.8565C105.679 28.774 106.33 29.0214 106.9 29.5164C107.388 30.0113 107.633 30.7537 107.551 31.4961C107.551 31.9085 107.47 32.321 107.388 32.7334C107.307 33.0634 107.144 33.3934 106.9 33.6408C106.656 33.8883 106.411 34.0533 106.086 34.2182C105.679 34.3832 105.272 34.3832 104.946 34.3832H103.073V28.8565H104.946ZM105.027 33.7233H105.353C105.516 33.7233 105.597 33.6408 105.76 33.6408C105.923 33.5583 106.004 33.4758 106.167 33.3934C106.33 33.3109 106.411 33.1459 106.493 32.9809C106.574 32.8159 106.737 32.5685 106.737 32.4035C106.819 32.156 106.819 31.8261 106.819 31.4961C106.819 31.1661 106.819 30.9187 106.737 30.5887C106.656 30.3413 106.574 30.0938 106.411 29.9288C106.249 29.7638 106.086 29.5989 105.842 29.5164C105.597 29.4339 105.272 29.3514 105.027 29.3514H103.806V33.6408C103.806 33.7233 105.027 33.7233 105.027 33.7233Z" fill="#2F292D"/>
<path d="M113.169 28.8564V29.4338H110.157V31.1661H113.006V31.826H110.157V33.7232H113.251V34.3006H109.424V28.7739L113.169 28.8564ZM112.111 27.2891L111.134 28.3614H110.645L111.297 27.2891H112.111Z" fill="#2F292D"/>
<path d="M116.263 34.3007L114.309 28.7739H115.123L116.67 33.5583L118.217 28.7739H118.95L116.996 34.3007H116.263Z" fill="#2F292D"/>
<path d="M124.323 28.8564V29.4338H121.311V31.1661H124.16V31.826H121.311V33.7233H124.405V34.3007H120.497V28.7739L124.323 28.8564Z" fill="#2F292D"/>
<path d="M126.847 28.8564V33.7233H129.697V34.3007H126.114V28.7739L126.847 28.8564Z" fill="#2F292D"/>
<path d="M131.162 30.5062C131.243 30.1762 131.406 29.8463 131.651 29.5988C131.895 29.3513 132.139 29.1039 132.465 28.9389C133.197 28.6089 134.012 28.6089 134.744 28.9389C135.07 29.1039 135.314 29.2688 135.559 29.5988C135.803 29.8463 135.966 30.1762 136.047 30.5062C136.291 31.2486 136.291 31.991 136.047 32.6509C135.966 32.9808 135.803 33.3108 135.559 33.5583C135.314 33.8057 135.07 34.0532 134.744 34.2182C134.012 34.5481 133.197 34.5481 132.465 34.2182C132.139 34.0532 131.895 33.8882 131.651 33.5583C131.406 33.3108 131.243 32.9808 131.162 32.6509C130.918 31.991 130.918 31.1661 131.162 30.5062ZM131.813 32.4034C131.895 32.6509 131.976 32.8984 132.139 33.1458C132.302 33.3933 132.465 33.5583 132.709 33.6408C132.953 33.8057 133.279 33.8057 133.523 33.8057C133.849 33.8057 134.093 33.7233 134.419 33.6408C134.663 33.4758 134.826 33.3108 134.989 33.1458C135.151 32.8984 135.233 32.6509 135.314 32.4034C135.477 31.826 135.477 31.3311 135.314 30.7536C135.233 30.5062 135.151 30.2587 134.989 30.0112C134.826 29.7638 134.663 29.5988 134.419 29.5163C134.174 29.3513 133.849 29.3513 133.523 29.3513C133.197 29.3513 132.953 29.4338 132.709 29.5163C132.465 29.6813 132.302 29.8463 132.139 30.0112C131.976 30.2587 131.895 30.5062 131.813 30.7536C131.651 31.3311 131.651 31.826 131.813 32.4034Z" fill="#2F292D"/>
<path d="M140.362 28.8564C140.851 28.8564 141.258 28.9389 141.583 29.2689C141.909 29.5988 142.072 30.0113 141.991 30.5062C141.991 30.9187 141.828 31.4136 141.583 31.7436C141.258 32.0735 140.769 32.2385 140.362 32.156H138.734V34.3832H138.001V28.8564H140.362ZM140.118 31.4961C140.444 31.4961 140.769 31.4136 141.014 31.2486C141.176 31.0837 141.339 30.7537 141.258 30.5062C141.258 30.2588 141.176 29.9288 141.014 29.7638C140.769 29.5988 140.444 29.5164 140.118 29.5164H138.734V31.5786L140.118 31.4961Z" fill="#2F292D"/>
<path d="M146.224 28.8564C146.713 28.8564 147.12 28.9389 147.445 29.2689C147.771 29.5988 147.934 30.0113 147.852 30.5062C147.852 30.9187 147.69 31.4136 147.445 31.7436C147.12 32.0735 146.631 32.2385 146.224 32.156H144.596V34.3832H143.863V28.8564H146.224ZM145.98 31.4961C146.306 31.4961 146.631 31.4136 146.875 31.2486C147.038 31.0837 147.201 30.7537 147.201 30.5062C147.201 30.2588 147.12 29.9288 146.875 29.7638C146.631 29.5988 146.306 29.5164 145.98 29.5164H144.596V31.5786L145.98 31.4961Z" fill="#2F292D"/>
<path d="M153.47 28.8564V29.4338H150.458V31.1661H153.307V31.826H150.458V33.7233H153.552V34.3007H149.725V28.7739L153.47 28.8564Z" fill="#2F292D"/>
<path d="M156.32 28.8564L158.03 33.4758L159.739 28.8564H160.716V34.3832H160.065V29.7638L158.355 34.3832H157.704L155.994 29.7638V34.3832H155.343V28.8564H156.32Z" fill="#2F292D"/>
<path d="M166.578 28.8564V29.4338H163.566V31.1661H166.415V31.826H163.566V33.7233H166.66V34.3007H162.833V28.7739L166.578 28.8564Z" fill="#2F292D"/>
<path d="M169.184 28.8564L172.033 33.3109V28.8564H172.685V34.3832H171.87L169.021 29.9288V34.3832H168.37V28.8564H169.184Z" fill="#2F292D"/>
<path d="M174.313 29.4339V28.8564H178.709V29.4339H176.918V34.3007H176.185V29.4339H174.313Z" fill="#2F292D"/>
<path d="M185.06 28.8565C185.793 28.774 186.444 29.0214 187.014 29.5164C187.502 30.0113 187.747 30.7537 187.665 31.4961C187.665 31.9085 187.584 32.321 187.502 32.7334C187.421 33.0634 187.258 33.3934 187.014 33.6408C186.77 33.8883 186.525 34.0533 186.2 34.2182C185.793 34.3832 185.386 34.3832 185.06 34.3832H183.187V28.8565H185.06ZM185.141 33.7233H185.467C185.63 33.7233 185.711 33.6408 185.874 33.6408C186.037 33.5583 186.118 33.4758 186.281 33.3934C186.444 33.3109 186.525 33.1459 186.607 32.9809C186.688 32.8159 186.851 32.5685 186.851 32.4035C186.932 32.156 186.932 31.8261 186.932 31.4961C186.932 31.1661 186.932 30.9187 186.851 30.5887C186.77 30.3413 186.688 30.0938 186.525 29.9288C186.363 29.7638 186.2 29.5989 185.955 29.5164C185.711 29.4339 185.385 29.3514 185.141 29.3514H183.92V33.6408L185.141 33.7233Z" fill="#2F292D"/>
<path d="M193.283 33.9707C192.876 34.3832 192.306 34.5482 191.736 34.4657C191.166 34.4657 190.596 34.3007 190.108 33.9707C189.701 33.5583 189.456 32.9809 189.538 32.321V28.7739H190.271V32.321C190.271 32.7334 190.352 33.1459 190.678 33.4758C191.003 33.7233 191.41 33.8883 191.817 33.8883C192.225 33.8883 192.632 33.8058 192.876 33.4758C193.12 33.1459 193.283 32.7334 193.202 32.321V28.7739H193.934V32.321C193.853 32.8984 193.69 33.4758 193.283 33.9707Z" fill="#2F292D"/>
<path d="M198.494 28.8564C198.901 28.8564 199.389 28.9389 199.715 29.2689C200.041 29.5164 200.203 29.9288 200.122 30.3412C200.122 30.6712 200.041 30.9187 199.878 31.2486C199.715 31.4961 199.471 31.6611 199.145 31.7436C199.308 31.7436 199.389 31.8261 199.552 31.9085C199.633 31.991 199.715 32.0735 199.796 32.156C199.878 32.2385 199.878 32.4035 199.959 32.486C199.959 32.5685 200.041 32.7334 200.041 32.8984C200.041 33.0634 200.041 33.1459 200.041 33.3109C200.041 33.4758 200.041 33.5583 200.122 33.7233C200.122 33.8883 200.203 33.9708 200.203 34.1357C200.203 34.2182 200.285 34.3832 200.366 34.4657H199.552C199.471 34.3832 199.471 34.3007 199.471 34.2182C199.471 34.1357 199.471 33.9708 199.471 33.8883V33.4758C199.471 33.3109 199.471 33.2284 199.389 33.0634C199.389 32.8984 199.308 32.8159 199.308 32.6509C199.308 32.5685 199.226 32.4035 199.145 32.321C199.064 32.2385 198.982 32.156 198.901 32.0735C198.738 31.991 198.656 31.991 198.494 31.991H196.702V34.3832H195.97V28.8564H198.494ZM198.656 31.3311C198.819 31.3311 198.901 31.2486 199.064 31.1661C199.145 31.0837 199.308 31.0012 199.308 30.8362C199.389 30.6712 199.389 30.5062 199.389 30.3412C199.389 30.0938 199.308 29.8463 199.145 29.6813C198.982 29.5164 198.656 29.3514 198.412 29.4339H196.621V31.3311H198.168C198.331 31.3311 198.494 31.3311 198.656 31.3311Z" fill="#2F292D"/>
<path d="M204.356 28.8565L206.472 34.3833H205.658L205.088 32.7335H202.727L202.157 34.3833H201.425L203.541 28.8565C203.541 28.774 204.356 28.8565 204.356 28.8565ZM204.844 32.0736L203.948 29.5164L203.053 32.0736H204.844Z" fill="#2F292D"/>
<path d="M209.892 28.8564H210.299C210.462 28.8564 210.543 28.8564 210.706 28.8564C210.869 28.8564 210.95 28.8564 211.113 28.9389C211.195 28.9389 211.276 29.0214 211.439 29.0214C211.602 29.1039 211.765 29.2689 211.927 29.5164C212.09 29.7638 212.09 29.9288 212.09 30.1763C212.09 30.4237 212.009 30.6712 211.846 30.9187C211.683 31.1661 211.52 31.3311 211.276 31.4136C211.602 31.4961 211.846 31.6611 212.009 31.9085C212.172 32.156 212.253 32.486 212.253 32.8159C212.253 32.9809 212.253 33.2284 212.172 33.3933C212.09 33.5583 212.009 33.7233 211.846 33.8883C211.683 34.0533 211.52 34.1358 211.357 34.2182C211.113 34.3007 210.869 34.3832 210.625 34.3832H208.019V28.8564H209.892ZM210.055 31.1661C210.38 31.1661 210.706 31.0837 210.95 30.9187C211.113 30.7537 211.276 30.5062 211.195 30.2588C211.195 30.0938 211.195 29.9288 211.113 29.7638C211.032 29.6813 210.95 29.5988 210.869 29.5164C210.788 29.4339 210.625 29.4339 210.462 29.4339C210.299 29.4339 210.136 29.4339 210.055 29.4339H208.589V31.1661H210.055ZM210.462 33.7233C210.706 33.7233 211.032 33.6408 211.195 33.4758C211.357 33.3109 211.52 32.9809 211.439 32.7334C211.439 32.5685 211.439 32.4035 211.357 32.321C211.276 32.2385 211.195 32.0735 211.113 32.0735C211.032 31.991 210.869 31.991 210.706 31.9085C210.543 31.9085 210.38 31.8261 210.299 31.9085H208.671V33.8058L210.462 33.7233Z" fill="#2F292D"/>
<path d="M214.777 28.8564V33.7233H217.627V34.3007H214.044V28.7739C214.044 28.7739 214.777 28.8564 214.777 28.8564Z" fill="#2F292D"/>
<path d="M223 28.8564V29.4338H219.988V31.1661H222.837V31.826H219.988V33.7233H223.081V34.3007H219.255V28.7739L223 28.8564Z" fill="#2F292D"/>
<path d="M61.8767 53.1908V41.6423C61.8767 41.1473 61.4696 40.7349 60.9811 40.7349V40.1575H63.8307V53.1083H61.8767V53.1908Z" fill="#2F292D"/>
<path d="M73.4377 41.9723C73.4377 41.4773 73.0306 41.0649 72.5421 41.0649H68.9598V46.2617H72.705V47.0866H68.9598V53.1908H67.0058V41.6423C67.0058 41.1474 66.5987 40.8174 66.1917 40.8174V40.24H74.0891V41.9723C74.0076 41.9723 73.4377 41.9723 73.4377 41.9723Z" fill="#2F292D"/>
<path d="M80.114 53.1908H76.2874V41.6423C76.2874 41.1473 75.7989 40.7349 75.1476 40.7349V40.1575H80.114C82.4751 40.1575 84.3476 42.1372 84.3476 44.5294V48.8188C84.3476 51.2935 82.4751 53.1908 80.114 53.1908ZM82.3937 43.3745C82.3937 42.1372 81.3352 41.0649 80.114 41.0649H78.3228V52.4484H80.114C81.3352 52.4484 82.3937 51.376 82.3937 50.1387V43.3745Z" fill="#2F292D"/>
<path d="M90.6167 53.1908H86.7901V41.6423C86.7901 41.1473 86.3016 40.7349 85.6503 40.7349V40.1575H90.6167C92.9778 40.1575 94.9318 42.1372 94.9318 44.5294V48.8188C94.8503 51.2935 92.9778 53.1908 90.6167 53.1908ZM92.8963 43.3745C92.8963 42.1372 91.8379 41.0649 90.6167 41.0649H88.8255V52.4484H90.6167C91.8379 52.4484 92.8963 51.376 92.8963 50.1387V43.3745Z" fill="#2F292D"/>
</g>
<defs>
<clipPath id="clip0">
<rect width="223" height="57" fill="white" transform="translate(0 0.892578)"/>
</clipPath>
</defs>
</svg>
