<svg xmlns="http://www.w3.org/2000/svg" xmlns:xlink="http://www.w3.org/1999/xlink" width="178.952" height="75" viewBox="0 0 178.952 75">
  <defs>
    <clipPath id="clip-path">
      <path id="path44" d="M485.432-801.083H664.385v-75H485.432Z" transform="translate(-485.432 876.083)"/>
    </clipPath>
  </defs>
  <g id="g38" transform="translate(-485.432 876.083)">
    <g id="g40" transform="translate(485.432 -876.083)" clip-path="url(#clip-path)">
      <g id="g46" transform="translate(56.905 29.495)">
        <path id="path48" d="M-.536-.293a2.216,2.216,0,0,1-2.2,2.4,2.216,2.216,0,0,1-2.2-2.4,2.216,2.216,0,0,1,2.2-2.4,2.216,2.216,0,0,1,2.2,2.4m-3.591,0c0,.881.411,1.748,1.394,1.748S-1.339.588-1.339-.293-1.751-2.04-2.733-2.04s-1.394.868-1.394,1.747" transform="translate(4.93 2.695)" fill="#464141"/>
      </g>
      <g id="g50" transform="translate(62.673 29.603)">
        <path id="path52" d="M0,0H2.19c1,0,1.515.463,1.515,1.24A1.114,1.114,0,0,1,2.948,2.4V2.41c.276.039.682.245.682.969a2.085,2.085,0,0,0,.25,1.209h-.86A1.277,1.277,0,0,1,2.9,3.914c0-.842-.174-1.215-.912-1.215H.8V4.588H0ZM.8,2.088H2.119c.509,0,.784-.248.784-.732,0-.585-.379-.7-.8-.7H.8V2.088" fill="#464141"/>
      </g>
      <g id="g54" transform="translate(67.625 29.494)">
        <path id="path56" d="M-.514-.573h-.514l-.123-.539a1.655,1.655,0,0,1-1.381.648,2.216,2.216,0,0,1-2.2-2.4,2.216,2.216,0,0,1,2.2-2.4A1.807,1.807,0,0,1-.565-3.7h-.783a1.1,1.1,0,0,0-1.183-.914c-.983,0-1.394.868-1.394,1.747s.411,1.748,1.394,1.748A1.165,1.165,0,0,0-1.247-2.378h-1.22v-.609H-.514V-.573" transform="translate(4.728 5.269)" fill="#464141"/>
      </g>
      <g id="g58" transform="translate(72.821 29.603)">
        <path id="path60" d="M-.215,0H.64L2.405,4.588H1.544l-.43-1.214H-.716l-.43,1.214h-.829ZM-.5,2.763H.9L.215.792H.2L-.5,2.763Z" transform="translate(1.975)" fill="#464141"/>
      </g>
      <g id="g62" transform="translate(78.249 29.603)">
        <path id="path64" d="M0,0H.848L2.942,3.379h.013V0h.763V4.588H2.872L.783,1.215H.764V4.588H0Z" fill="#464141"/>
      </g>
      <path id="path66" d="M579.193-842.866h.8v4.588h-.8Z" transform="translate(-495.631 872.469)" fill="#464141"/>
      <g id="g68" transform="translate(85.713 29.495)">
        <path id="path70" d="M-.1-.386C-.1.32.422.6,1.064.6c.707,0,.97-.348.97-.694a.546.546,0,0,0-.378-.566c-.322-.123-.74-.2-1.369-.379A1.163,1.163,0,0,1-.727-2.2c0-.918.848-1.348,1.677-1.348.957,0,1.76.507,1.76,1.464h-.8C1.867-2.68,1.468-2.9.917-2.9c-.372,0-.841.134-.841.6,0,.323.218.5.545.593.071.02,1.086.281,1.323.352a1.215,1.215,0,0,1,.893,1.17c0,1.028-.912,1.439-1.824,1.439C-.033,1.252-.881.75-.9-.386h.8" transform="translate(0.9 3.553)" fill="#464141"/>
      </g>
      <g id="g72" transform="translate(90.26 29.603)">
        <path id="path74" d="M-.215,0H.639L2.405,4.588h-.86L1.114,3.373H-.716l-.43,1.214h-.829ZM-.5,2.763H.9L.215.792H.2L-.5,2.763Z" transform="translate(1.975)" fill="#464141"/>
      </g>
      <g id="g76" transform="translate(94.693 29.603)">
        <path id="path78" d="M0,0H3.713V.694H2.255V4.588h-.8V.694H0Z" fill="#464141"/>
      </g>
      <path id="path80" d="M597.167-842.866h.8v4.588h-.8Z" transform="translate(-497.586 872.469)" fill="#464141"/>
      <g id="g82" transform="translate(101.765 29.495)">
        <path id="path84" d="M-.536-.293a2.216,2.216,0,0,1-2.2,2.4,2.216,2.216,0,0,1-2.2-2.4,2.216,2.216,0,0,1,2.2-2.4,2.216,2.216,0,0,1,2.2,2.4m-3.591,0c0,.881.41,1.748,1.394,1.748S-1.339.588-1.339-.293-1.751-2.04-2.733-2.04s-1.394.868-1.394,1.747" transform="translate(4.93 2.695)" fill="#464141"/>
      </g>
      <g id="g86" transform="translate(107.501 29.603)">
        <path id="path88" d="M0,0H.848L2.942,3.379h.012V0h.764V4.588H2.871L.783,1.215H.764V4.588H0Z" fill="#464141"/>
      </g>
      <path id="path90" d="M527.129-834.01h.8v4.586h-.8Z" transform="translate(-489.968 871.506)" fill="#464141"/>
      <g id="g92" transform="translate(39.555 37.496)">
        <path id="path94" d="M0,0H.848L2.942,3.38h.013V0h.763V4.586H2.872L.784,1.214H.765V4.586H0Z" fill="#464141"/>
      </g>
      <g id="g96" transform="translate(44.431 37.496)">
        <path id="path98" d="M0,0H3.712V.694H2.254V4.586h-.8V.694H0Z" fill="#464141"/>
      </g>
      <g id="g100" transform="translate(49.319 37.496)">
        <path id="path102" d="M0,0H3.3V.694H.8v1.2H3.116v.656H.8V3.892H3.345v.694H0Z" fill="#464141"/>
      </g>
      <g id="g104" transform="translate(54.008 37.496)">
        <path id="path106" d="M0,0H2.19c1,0,1.516.462,1.516,1.24A1.113,1.113,0,0,1,2.949,2.4v.012c.276.039.681.244.681.971a2.088,2.088,0,0,0,.25,1.206H3.018A1.283,1.283,0,0,1,2.9,3.914c0-.842-.174-1.215-.911-1.215H.8V4.586H0ZM.8,2.088H2.12c.507,0,.784-.25.784-.731,0-.586-.38-.7-.8-.7H.8V2.088" fill="#464141"/>
      </g>
      <g id="g108" transform="translate(59.14 37.496)">
        <path id="path110" d="M0,0H.848L2.942,3.38h.012V0h.764V4.586H2.871L.783,1.214H.764V4.586H0Z" fill="#464141"/>
      </g>
      <g id="g112" transform="translate(63.918 37.496)">
        <path id="path114" d="M-.215,0H.64L2.406,4.586H1.545L1.114,3.374H-.715l-.431,1.212h-.829ZM-.5,2.762H.9L.215.79H.2L-.5,2.762Z" transform="translate(1.975)" fill="#464141"/>
      </g>
      <g id="g116" transform="translate(68.353 37.496)">
        <path id="path118" d="M0,0H3.713V.694H2.254V4.586h-.8V.694H0Z" fill="#464141"/>
      </g>
      <path id="path120" d="M567.612-834.01h.8v4.586h-.8Z" transform="translate(-494.372 871.506)" fill="#464141"/>
      <g id="g122" transform="translate(75.424 37.388)">
        <path id="path124" d="M-.536-.293a2.218,2.218,0,0,1-2.2,2.4,2.217,2.217,0,0,1-2.2-2.4,2.215,2.215,0,0,1,2.2-2.4,2.216,2.216,0,0,1,2.2,2.4m-3.592,0c0,.88.412,1.748,1.395,1.748S-1.341.587-1.341-.293-1.752-2.04-2.733-2.04s-1.395.868-1.395,1.747" transform="translate(4.93 2.694)" fill="#464141"/>
      </g>
      <g id="g126" transform="translate(81.16 37.496)">
        <path id="path128" d="M0,0H.848L2.942,3.38h.012V0h.764V4.586H2.871L.783,1.214H.763V4.586H0Z" fill="#464141"/>
      </g>
      <g id="g130" transform="translate(85.939 37.496)">
        <path id="path132" d="M-.215,0H.64L2.406,4.586h-.86L1.117,3.374H-.715l-.43,1.212h-.829ZM-.5,2.762H.9L.216.79H.2Z" transform="translate(1.974)" fill="#464141"/>
      </g>
      <g id="g134" transform="translate(91.399 37.496)">
        <path id="path136" d="M0,0H.8V3.892H3.135v.694H0Z" fill="#464141"/>
      </g>
      <g id="g138" transform="translate(95.727 37.496)">
        <path id="path140" d="M0,0H3.3V.694H.8v1.2H3.115v.656H.8V3.892H3.347v.694H0Z" fill="#464141"/>
      </g>
      <g id="g142" transform="translate(102.619 37.496)">
        <path id="path144" d="M0,0H1.9C3.314,0,3.925,1.028,3.925,2.294S3.314,4.586,1.9,4.586H0ZM.8,3.931h.789c1.259,0,1.528-.719,1.528-1.638S2.852.655,1.593.655H.8V3.931" fill="#464141"/>
      </g>
      <g id="g146" transform="translate(107.899 37.496)">
        <path id="path148" d="M0,0H3.3V.694H.8v1.2H3.115v.656H.8V3.892H3.347v.694H0Z" fill="#464141"/>
      </g>
      <g id="g150" transform="translate(14.019 45.029)">
        <path id="path152" d="M-.116-1.184V-9.3a.945.945,0,0,0-.949-.95v-.632H2.1V.08A2.527,2.527,0,0,0,4.631,2.614v.947A4.739,4.739,0,0,1-.116-1.184" transform="translate(1.065 10.886)" fill="#464141"/>
      </g>
      <g id="g154" transform="translate(20.748 49.477)">
        <path id="path156" d="M-.579-1.192A4.821,4.821,0,0,1-5.324-6.066a4.846,4.846,0,0,1,4.767-4.9,2.767,2.767,0,0,1,2.215.823v-.548H3.894v7.932a.923.923,0,0,0,.928.928v.634ZM1.8-7.607A2.355,2.355,0,0,0-.557-9.966a2.388,2.388,0,0,0-2.384,2.36v3.083A2.4,2.4,0,0,0-.557-2.141H1.8V-7.607" transform="translate(5.324 10.961)" fill="#464141"/>
      </g>
      <g id="g158" transform="translate(36.211 44.796)">
        <path id="path160" d="M-.754-.3a1.519,1.519,0,0,0-1.5-1.5A1.509,1.509,0,0,0-3.77-.3V2.209h2.595v.95H-3.77V11.7H-5.986V3.791a.964.964,0,0,0-.949-.969V2.209h.949V.67A3.449,3.449,0,0,1-2.547-2.746,3.565,3.565,0,0,1-.12-1.758V-.3H-.754" transform="translate(6.935 2.746)" fill="#464141"/>
      </g>
      <g id="g162" transform="translate(44.396 49.521)">
        <path id="path164" d="M-.8-.263a2.259,2.259,0,0,0-1.836-.864A1.671,1.671,0,0,0-4.2.561v6.75H-6.437V-.578a.944.944,0,0,0-.948-.95v-.655h3.163v.634a3.9,3.9,0,0,1,2.553-.864,4.277,4.277,0,0,1,1.562.253l-.7,1.9" transform="translate(7.385 2.414)" fill="#464141"/>
      </g>
      <g id="g166" transform="translate(51.724 49.477)">
        <path id="path168" d="M-.579-1.192A4.822,4.822,0,0,1-5.325-6.066a4.845,4.845,0,0,1,4.767-4.9,2.763,2.763,0,0,1,2.214.823v-.548H3.893v7.932a.923.923,0,0,0,.929.928v.634ZM1.8-7.607A2.355,2.355,0,0,0-.558-9.966a2.387,2.387,0,0,0-2.384,2.36v3.083A2.394,2.394,0,0,0-.558-2.141H1.8V-7.607" transform="translate(5.325 10.961)" fill="#464141"/>
      </g>
      <g id="g170" transform="translate(63.572 49.521)">
        <path id="path172" d="M-.909-1.187v-6.6A2.2,2.2,0,0,0-3.124-9.961,2.178,2.178,0,0,0-5.338-7.79v6.6H-7.4V-9.1a.946.946,0,0,0-.95-.948v-.634h3.164v.465a3.432,3.432,0,0,1,2.068-.7c2.722,0,4.408,1.9,4.408,4.85v3.27a.945.945,0,0,0,.95.949v.655H-.909" transform="translate(8.355 10.911)" fill="#464141"/>
      </g>
      <g id="g174" transform="translate(75.596 49.477)">
        <path id="path176" d="M-.579-1.192A4.81,4.81,0,0,1-5.328-6.066a4.816,4.816,0,0,1,4.748-4.9,4.846,4.846,0,0,1,2.995,1.14v2.215H1.782A2.37,2.37,0,0,0-.579-9.966a2.36,2.36,0,0,0-2.384,2.36v3.083A2.367,2.367,0,0,0-.579-2.141H2.415v.949H-.579" transform="translate(5.328 10.961)" fill="#464141"/>
      </g>
      <g id="g178" transform="translate(85.194 49.478)">
        <path id="path180" d="M-.579-1.22a4.879,4.879,0,0,1-4.746-5,4.894,4.894,0,0,1,4.746-5,4.894,4.894,0,0,1,4.746,5,4.879,4.879,0,0,1-4.746,5M1.8-7.864A2.361,2.361,0,0,0-.579-10.225,2.355,2.355,0,0,0-2.94-7.864v3.418A2.356,2.356,0,0,0-.579-2.085,2.362,2.362,0,0,0,1.8-4.447V-7.864" transform="translate(5.325 11.219)" fill="#464141"/>
      </g>
      <g id="g182" transform="translate(96.289 49.752)">
        <path id="path184" d="M-.654-1.192A2.77,2.77,0,0,1-2.87-2.013v3.69a.946.946,0,0,0,.95.949v.653H-5.085V-9.378a.91.91,0,0,0-.928-.927v-.655H-.634A4.81,4.81,0,0,1,4.113-6.086,4.832,4.832,0,0,1-.654-1.192M1.708-7.647A2.371,2.371,0,0,0-.654-10.01H-3.038v5.569A2.376,2.376,0,0,0-.654-2.079,2.372,2.372,0,0,0,1.708-4.441V-7.647" transform="translate(6.012 10.96)" fill="#464141"/>
      </g>
      <g id="g186" transform="translate(108.081 45.028)">
        <path id="path188" d="M-.906-1.735V-8.3a2.213,2.213,0,0,0-2.215-2.212A2.213,2.213,0,0,0-5.336-8.3v6.562H-7.382V-14.371a.945.945,0,0,0-.949-.95v-.632h3.165v5.188a3.363,3.363,0,0,1,2.045-.7c2.723,0,4.408,1.9,4.408,4.872v3.249a.945.945,0,0,0,.949.949v.655H-.906" transform="translate(8.331 15.953)" fill="#464141"/>
      </g>
      <g id="g190" transform="translate(120.105 49.478)">
        <path id="path192" d="M-.579-1.22a4.879,4.879,0,0,1-4.747-5,4.895,4.895,0,0,1,4.747-5,4.894,4.894,0,0,1,4.746,5,4.879,4.879,0,0,1-4.746,5M1.8-7.864A2.362,2.362,0,0,0-.579-10.225,2.358,2.358,0,0,0-2.943-7.864v3.418A2.359,2.359,0,0,0-.579-2.085,2.363,2.363,0,0,0,1.8-4.447V-7.864" transform="translate(5.326 11.219)" fill="#464141"/>
      </g>
      <g id="g194" transform="translate(131.2 49.521)">
        <path id="path196" d="M-.909-1.187v-6.6A2.207,2.207,0,0,0-3.126-9.961,2.178,2.178,0,0,0-5.341-7.79v6.6H-7.407V-9.1a.946.946,0,0,0-.95-.948v-.634h3.164v.465a3.435,3.435,0,0,1,2.068-.7c2.722,0,4.41,1.9,4.41,4.85v3.27a.944.944,0,0,0,.948.949v.655H-.909" transform="translate(8.358 10.911)" fill="#464141"/>
      </g>
      <g id="g198" transform="translate(143.098 49.752)">
        <path id="path200" d="M-.113-1.159V-9.071a.927.927,0,0,0-.928-.948v-.634H2.1v9.494H-.113" transform="translate(1.041 10.653)" fill="#464141"/>
      </g>
      <g id="g202" transform="translate(148.519 49.521)">
        <path id="path204" d="M-.288-.592V.95A2.372,2.372,0,0,0,2.052,3.333H6.23v.949H2.095A4.823,4.823,0,0,1-2.651-.592a4.79,4.79,0,0,1,4.746-4.85A4.8,4.8,0,0,1,6.843-.592ZM4.459-2.133a2.371,2.371,0,0,0-2.364-2.36A2.374,2.374,0,0,0-.288-2.133v.593H4.459v-.593" transform="translate(2.651 5.443)" fill="#464141"/>
      </g>
      <path id="path206" d="M649.251-821.987h-2.218v-2.218h2.218Z" transform="translate(-503.01 870.44)" fill="#464141"/>
      <g id="g208" transform="translate(126.063 34.921)">
        <path id="path210" d="M-2.825-.5-5.243-3.82a15.707,15.707,0,0,1-17.744-.739L-25.974-.445A20.788,20.788,0,0,0,.33-1.679l-.653-.91A20.752,20.752,0,0,1-2.825-.5" transform="translate(25.974 4.559)" fill="#ee2631"/>
      </g>
      <g id="g212" transform="translate(146.222 13.586)">
        <path id="path214" d="M-1.214,0-2.281.339A20.715,20.715,0,0,1-1.063,3.365L-4.972,4.638a15.71,15.71,0,0,1-6.184,16.648L-8.167,25.4A20.785,20.785,0,0,0-1.214,0" transform="translate(11.156)" fill="#672290"/>
      </g>
      <g id="g216" transform="translate(134.303 2.375)">
        <path id="path218" d="M0-.014-.008,1.1A21,21,0,0,1,3.247.883l0,4.112A15.7,15.7,0,0,1,17.171,16.019L22,14.447A20.782,20.782,0,0,0,0-.014" transform="translate(0.008 0.131)" fill="#78ca2a"/>
      </g>
      <g id="g220" transform="translate(117.003 3.386)">
        <path id="path222" d="M-.7-1.821a15.707,15.707,0,0,1,14.789-9.835l0-5.083A20.787,20.787,0,0,0-6.471-.279l1.064.353A20.325,20.325,0,0,1-4.613-3.09L-.7-1.821" transform="translate(6.471 16.74)" fill="#fcd205"/>
      </g>
      <g id="g224" transform="translate(117.771 17.037)">
        <path id="path226" d="M-1.307-2.279a15.709,15.709,0,0,1-4.783-17.1l-4.834-1.569a20.786,20.786,0,0,0,9.3,24.633l.664-.9A20.44,20.44,0,0,1-3.721,1.046l2.414-3.325" transform="translate(12.014 20.951)" fill="#00adef"/>
      </g>
    </g>
  </g>
</svg>
