<svg id="Calque_1" data-name="Calque 1" xmlns="http://www.w3.org/2000/svg" viewBox="0 0 828.76 437.85"><defs><style>.cls-1{fill:#0075b5;}.cls-2{fill:#c00;}.cls-3{fill:#a9a9a9;}.cls-4{fill:#182672;}.cls-5{fill:#005ba7;}.cls-6{fill:#c60000;}.cls-7{fill:#fede00;}.cls-8{fill:#056e28;}.cls-9{fill:#feb901;}.cls-10{fill:#15226d;}.cls-11{fill:#06762f;}.cls-12{fill:#12206c;}.cls-13{fill:#fed500;}.cls-14{fill:#0066ad;}.cls-15{fill:#fed900;}.cls-16{fill:#febc00;}.cls-17{fill:#fec101;}.cls-18{fill:#17256f;}.cls-19{fill:#14226d;}.cls-20{fill:#15236d;}.cls-21{fill:#28b77b;}.cls-22{fill:#263888;}.cls-23{fill:#c30101;}.cls-24{fill:#fecf00;}.cls-25{fill:#33499a;}.cls-26{fill:#16246e;}.cls-27{fill:#22b172;}.cls-28{fill:#15a15a;}.cls-29{fill:#fec900;}.cls-30{fill:#d60000;}.cls-31{fill:#15236e;}.cls-32{fill:#19a662;}.cls-33{fill:#1eab6a;}.cls-34{fill:#3e53a2;}.cls-35{fill:#0e1b64;}.cls-36{fill:#01c1dd;}.cls-37{fill:#fee301;}.cls-38{fill:#30bf87;}.cls-39{fill:#e30000;}.cls-40{fill:#109c53;}.cls-41{fill:#16236e;}.cls-42{fill:#e80101;}.cls-43{fill:#192670;}.cls-44{fill:#ed0101;}.cls-45{fill:#d10000;}.cls-46{fill:#18256f;}.cls-47{fill:#0e974d;}.cls-48{fill:#f10101;}.cls-49{fill:#2c4092;}.cls-50{fill:#fec400;}.cls-51{fill:#da0101;}.cls-52{fill:#de0101;}.cls-53{fill:#d10101;}.cls-54{fill:#fec901;}.cls-55{fill:#0a853c;}.cls-56{fill:#d70202;}.cls-57{fill:#06732c;}.cls-58{fill:#077b33;}.cls-59{fill:#1e2b73;}.cls-60{fill:#627abc;}.cls-61{fill:#00a0cc;}.cls-62{fill:#fee601;}.cls-63{fill:#046923;}.cls-64{fill:#465da8;}.cls-65{fill:#014ea0;}.cls-66{fill:#01b0d4;}.cls-67{fill:#192770;}.cls-68{fill:#0d9249;}.cls-69{fill:#087b33;}.cls-70{fill:#536ab1;}.cls-71{fill:#0c8a41;}.cls-72{fill:#213381;}.cls-73{fill:#f60201;}.cls-74{fill:#0b853d;}.cls-75{fill:#098038;}.cls-76{fill:#1b2a78;}.cls-77{fill:#5a71b7;}.cls-78{fill:#0e924a;}.cls-79{fill:#4c63ad;}.cls-80{fill:#04651f;}.cls-81{fill:#0194c5;}.cls-82{fill:#006db1;}.cls-83{fill:#01a9d0;}.cls-84{fill:#017fba;}.cls-85{fill:#0175b6;}.cls-86{fill:#019ac8;}.cls-87{fill:#0d8e44;}.cls-88{fill:#1a2871;}.cls-89{fill:#1a2770;}.cls-90{fill:#1b2871;}.cls-91{fill:#233077;}.cls-92{fill:#01b7d8;}.cls-93{fill:#01cde4;}.cls-94{fill:#0280bb;}.cls-95{fill:#028ac1;}.cls-96{fill:#17246f;}.cls-97{fill:#0179b7;}.cls-98{fill:#0085bd;}.cls-99{fill:#1e2e7d;}.cls-100{fill:#027bb8;}.cls-101{fill:#fed003;}.cls-102{fill:#1d2f7d;}.cls-103{fill:#203280;}.cls-104{fill:#018fc3;}.cls-105{fill:#0c8a42;}.cls-106{fill:#182670;}.cls-107{fill:#212e75;}.cls-108{fill:#253278;}.cls-109{fill:#263278;}.cls-110{fill:#02d5e8;}.cls-111{fill:#0d8e45;}.cls-112{fill:#6d83c2;}.cls-113{fill:#2e4292;}.cls-114{fill:#119950;}.cls-115{fill:#08dced;}.cls-116{fill:#0587bf;}.cls-117{fill:#068ec3;}.cls-118{fill:#2d3a7d;}.cls-119{fill:#32834a;}.cls-120{fill:#29357a;}.cls-121{fill:#2f3b7e;}.cls-122{fill:#323e7f;}.cls-123{fill:#fedc03;}.cls-124{fill:#b3b8d0;}.cls-125{fill:#989ebf;}.cls-126{fill:#fede25;}.cls-127{fill:#828ab2;}.cls-128{fill:#465aa3;}.cls-129{fill:#b2b2b2;}.cls-130{fill:#fefefe;}.cls-131{fill:#fdfefe;}.cls-132{fill:#fbfbfc;}.cls-133{fill:#fcfcfd;}.cls-134{fill:#fdfdfd;}.cls-135{fill:#fcfcfc;}.cls-136{fill:#fdfdfe;}.cls-137{fill:#b9b9b9;}.cls-138{fill:silver;}.cls-139{fill:#cacaca;}.cls-140{fill:#d1d1d1;}.cls-141{fill:#d7d7d7;}.cls-142{fill:#ddd;}.cls-143{fill:#e4e4e4;}.cls-144{fill:#ececec;}.cls-145{fill:#f3f3f3;}</style></defs><path class="cls-1" d="M545.08,457c6,0,12,.2,18-.08,3.34-.15,4.11,1,4.09,4.16-.13,22.14-.07,44.27-.07,66.4,0,28-.07,55.92.09,83.88,0,3.68-.79,4.91-4.61,4.67-5.81-.35-11.65-.09-17.47-.09Z" transform="translate(-545.08 -324.12)"/><path class="cls-1" d="M699.05,536.45c0-25,.1-50-.1-74.93,0-3.86,1.1-4.6,4.72-4.57q39,.24,78,0c3.32,0,4.78.57,4.5,4.27a91.76,91.76,0,0,0,0,13.47c.25,3.51-.84,4.45-4.37,4.41-18.65-.19-37.31.05-56-.19-4.06-.06-4.85,1.2-4.82,5q.27,31,0,62c0,4,.69,5.38,5,5.27,13.65-.32,27.31,0,41-.19,3.24,0,4.34.8,4.14,4.12a108.69,108.69,0,0,0,0,14c.24,3.44-1.09,4.07-4.21,4-13.83-.15-27.65.05-41.47-.14-3.4,0-4.75.67-4.46,4.31a90.7,90.7,0,0,1,0,13c-.2,3.15.87,3.87,3.91,3.85,18.65-.14,37.31.12,56-.21,4.64-.08,5.61,1.38,5.27,5.55a118.85,118.85,0,0,0,0,13.48c.08,2.35-.61,3.15-3.06,3.15q-40.47-.12-80.94,0c-3.58,0-3-2-3-4.15Z" transform="translate(-545.08 -324.12)"/><path class="cls-1" d="M587.07,536.51c0-25,.09-50-.1-75,0-3.8,1-4.63,4.69-4.61q41,.26,82,0c3.31,0,4.79.55,4.5,4.26a93.31,93.31,0,0,0,0,13.48c.25,3.51-.83,4.44-4.37,4.41-19.65-.18-39.32.05-59-.19-4.1-.05-4.84,1.24-4.81,5q.27,31.23,0,62.46c0,3.61.69,4.81,4.57,4.73,12.82-.28,25.66,0,38.48-.18,3.33-.06,4.3.94,4.09,4.17a83.85,83.85,0,0,0,0,12.48c.36,4.17-.61,5.7-5.27,5.55-12.48-.39-25,0-37.48-.22-3.51-.06-4.48.86-4.4,4.39.23,11.32-.13,22.65.2,34,.11,4.13-1.28,5-5,4.78a96.26,96.26,0,0,0-13.48,0c-3.68.27-4.74-.76-4.71-4.59C587.16,586.48,587.07,561.49,587.07,536.51Z" transform="translate(-545.08 -324.12)"/><path class="cls-1" d="M806,536c0-24.82.09-49.64-.1-74.46,0-3.82,1-4.62,4.7-4.6q41,.26,82,0c3.33,0,4.77.58,4.5,4.27a106.91,106.91,0,0,0,0,14c.18,3.1-.77,3.91-3.87,3.89-20-.15-40,.1-60-.21-4.62-.07-5.36,1.35-5.31,5.53q.33,31,0,62c0,3.64.73,4.79,4.59,4.72,13.82-.26,27.65,0,41.48-.19,3.35,0,4.27,1,4.07,4.19a100.39,100.39,0,0,0,0,13c.26,3.74-.65,5.11-4.78,5-13.66-.3-27.32,0-41-.2-3.52-.06-4.46.89-4.39,4.4.24,11.15-.19,22.33.22,33.47.17,4.66-1.37,5.65-5.55,5.28a68.47,68.47,0,0,0-12,0c-3.71.31-4.73-.79-4.7-4.6C806.12,586.3,806,561.15,806,536Z" transform="translate(-545.08 -324.12)"/><path class="cls-2" d="M1304.11,457a225.5,225.5,0,0,1,18,17c1.52,12.25,0,24.53.35,36.8.06,2.34-.77,3.69-3.53,3.6-3.13-.11-6.27.38-7.83.13,2.78-.23,7.08.09,11.47-.5,3.11-.42,6.93-2.06,9.39,1.83l-1.25.26c-1.19,1.25-2.77,1.2-4.32,1.29-6.4-.5-12.95,1.28-19.21-1.25l-4.19-.21c-2.55-3.78-1.2-8-1.38-12.08-.27-6.43-.13-6.44-6.27-7.53-2.42-.43-2.42-.43-2.83-2.89a19.45,19.45,0,0,1,13.79.43l10.9,1.39-14.29-20c-2.41-5.08-1.56-10.43-1.15-15.71C1301.81,458.29,1302.23,456.8,1304.11,457Z" transform="translate(-545.08 -324.12)"/><path class="cls-3" d="M1171,395.06a36,36,0,0,1,35.59,36.11c-.24,19.47-16.47,35.76-35.61,35.77-19.49,0-36-16.51-35.9-36S1151.43,395,1171,395.06Z" transform="translate(-545.08 -324.12)"/><path class="cls-4" d="M940.9,473.73a113.24,113.24,0,0,1,12.26-11.63c1.58,0,2,1.25,2,2.34.28,7.2,1.57,14.47-1.21,21.51,0,1-1.54,1.4-1.05,2.67l8.71-.73c3.05-.79,6.1-1.56,9.3-1.23,1.63.17,3.4,0,4.24,1.93-.85,1.65-2.44,1.69-4,1.81-6.66.42-6.56.42-6.74,7.27-.11,3.89.91,7.93-1.27,11.6v.09c-5.07,1.75-10.26,1.25-15.44.83-9.37-3.25-7.46-4.26-7.27-12.64.13-5.87-.71-11.67-.41-17.53C940.18,477.87,940.09,475.77,940.9,473.73Z" transform="translate(-545.08 -324.12)"/><path class="cls-5" d="M946,543.91l-26,2a69.94,69.94,0,0,0-.26-14.1,6.84,6.84,0,0,1,1.12-4.17c4.57-4.48,9.19-8.91,13.69-13.46,1.22-1.24,3.09-2,3.35-4.06a1.91,1.91,0,0,1,1.25-.55c1.48.12,3,.25,4.45.4,2,.2,3,1.24,2.8,3.3-1,9.64.67,19.25.3,28.88A2.47,2.47,0,0,1,946,543.91Z" transform="translate(-545.08 -324.12)"/><path class="cls-6" d="M1331.91,515.83c-5.67-1.77-11.48-.41-17.22-.8a25.47,25.47,0,0,1-6.48-.73c3.54-.24,7.08-.66,10.62-.64,2,0,2.38-.38,2.39-2.48,0-6.52-.74-13,.67-19.64.63-3-.58-7.28-.81-11-.14-2.19-1-4.66,1-6.59a248.13,248.13,0,0,1,19,18c1,7.09.4,14.22.4,21.33,0,1.18-.2,2.34-1.53,2.84Z" transform="translate(-545.08 -324.12)"/><path class="cls-7" d="M1197.88,563.79a137.9,137.9,0,0,1,26-16.13c2,1.82,1.45,4.24,1.6,6.5.3,4.61-.71,9.27.52,13.84l-28,13C1195.33,575.28,1195.79,569.54,1197.88,563.79Z" transform="translate(-545.08 -324.12)"/><path class="cls-8" d="M1161.08,571.29a79.37,79.37,0,0,1-7.06,13.83c-5-1.21-10.16-.53-15.23-.4-3.09.09-5-.67-5.84-3.73-1.18-3.53-1-7.2-1-10.84-.8-5.83-.37-6.49,5.18-6.65,7.43-.2,14.86,0,22.29-.09,2.9,0,5.21.35,2.94,4.14C1161.68,568.65,1161.63,570.08,1161.08,571.29Z" transform="translate(-545.08 -324.12)"/><path class="cls-9" d="M1337.79,524.05c7,5.27,13,11.8,19.42,17.71,5.25,4.79,10.33,9.79,16.62,15.79-13-3.62-25-5-36.89-6.62a5.86,5.86,0,0,1-1.49-4.11c-.15-6.3-.23-12.61.06-18.9C1335.58,526.36,1335.59,524.48,1337.79,524.05Z" transform="translate(-545.08 -324.12)"/><path class="cls-10" d="M1207.42,723.78c2.38-2.65,4.69-4.85,8.37-5.21,7.13-.68,11.43,2.33,11.86,9.42.42,6.79.1,13.63.17,20.45,0,1.58-.34,2.51-2.18,2.49-2.17,0-1.76-1.54-1.77-2.77,0-6.16,0-12.31,0-18.46,0-4-1-7.27-5.76-7.83-5.11-.61-8.07,1.16-9.34,6-1.67,6.38-.39,12.91-.84,19.36-.09,1.36,1.14,3.63-1.79,3.67s-2-2.14-2-3.59c-.08-5.82,0-11.64,0-17.46,0-3.68-.66-7.09-5.11-7.93s-8.18,1.17-10,5.51a16.12,16.12,0,0,0-1,6.35c0,5,0,10,0,15,0,1.29-.19,2.24-1.86,2.19-1.48,0-2.1-.6-2.09-2.07q0-13.73,0-27.44c0-1.32.22-2.3,1.84-2.3,3.33,0,1.2,2.85,2.48,4.24,2.45-2.86,5.41-5,9.53-4.94A10.23,10.23,0,0,1,1207.42,723.78Z" transform="translate(-545.08 -324.12)"/><path class="cls-11" d="M1172.05,548.15a1.84,1.84,0,0,0,.14.83,13.34,13.34,0,0,1-7,13.14c-1.82-2.3-4.26-2.7-7.06-2.73-9.07-.07-18.16.45-27.23-.27-1.22-2.57-1-5.32-1-8-.62-5.1-.27-5.57,4.53-5.68,2.49-.06,5.08.41,7.46-.11,3.11-.69,4.55,2.07,7,2.59l.93-.92a5.54,5.54,0,0,1,4.06-1.57c5,0,10,0,15,.16C1170.46,545.6,1172.51,545.48,1172.05,548.15Z" transform="translate(-545.08 -324.12)"/><path class="cls-12" d="M938.93,509.92l-1,.18c-5.34-.71-10.58.66-15.89.71,2.81-3,5.16-5.92,5.06-10.5-.06-2.58.11-4.87-1.69-6.91a3.61,3.61,0,0,1-.47-4.58,194.47,194.47,0,0,1,16-15.09c-.22,4.46,1.48,8.86.24,13.43-.22.81-1.59,3.73,1.41,4.37a1,1,0,0,1,.5,1.86c-3.33,3.09-.9,7.1-1.68,10.62-.69,3.12,3.3,3.05,4.63,4.95C943.83,510.64,941.35,510.07,938.93,509.92Z" transform="translate(-545.08 -324.12)"/><path class="cls-13" d="M1261,556.91l-15.79,4.21a1.68,1.68,0,0,1-2.13-1.5c-.72-6.91-2-13.87.9-20.63a85.46,85.46,0,0,1,19-5.79c2.86,6.85,1.3,14,1.16,21C1264.08,555.92,1262.35,556.37,1261,556.91Z" transform="translate(-545.08 -324.12)"/><path class="cls-14" d="M938.93,509.92c2.25-1.1,4.71-.7,7.07-1l17.18.4c-3.12,4-6.23,8.09-9.4,12.1-.64.83-.7,1.37.29,1.85,3.61.46,5.11,2.5,4.71,6.09-.55,4.82,1.17,9.76-.78,14.51H946c-1-6.24-.27-12.52-.46-18.74-.13-4.21-1.48-8.36-.16-12.65.42-1.37-.75-1.48-1.84-1.53C942,510.91,940.16,511.58,938.93,509.92Z" transform="translate(-545.08 -324.12)"/><path class="cls-15" d="M1244,539c0,5.88,0,11.76,0,17.65,0,1.57-.47,3.33,1.21,4.48L1226,568c-2.75-.74-2-3.19-1.91-4.82a123.63,123.63,0,0,0-.21-15.52A93.81,93.81,0,0,1,1244,539Z" transform="translate(-545.08 -324.12)"/><path class="cls-16" d="M1337.79,524.05c-1.82,5.43-.5,11-.82,16.53-.19,3.44,0,6.9,0,10.35l-3.06-.13c-3.77-1.21-7.9.93-11.57-1.26-1.92-9.72-1.12-19.52-.47-29.26.24-3.69,3.89-4.31,9.91-2.22C1334,519.82,1336.42,521.41,1337.79,524.05Z" transform="translate(-545.08 -324.12)"/><path class="cls-17" d="M1331.75,518.06c-10.62-.08-8.65-.9-8.79,8.46-.11,7.77,0,15.54,0,23.32-4,1.38-8.2.32-12.3.61a2.4,2.4,0,0,1-2.78-2.28c-.41-6.38-1.94-12.85,1.07-19l8.12.86L1308,517c4.51-1,9.09-.19,13.63-.49,1.77-.11,3.6.43,5.31-.44l3.76,0Z" transform="translate(-545.08 -324.12)"/><path class="cls-18" d="M550,761.8c-3.13.73-3.5-.92-3.47-3.56.11-11.64,0-23.29.1-34.93,0-1.54-1.2-4.21,1.9-4.13s.95,2.92,2.12,4.7c3.35-3.87,7.45-6,12.79-5.33a12.31,12.31,0,0,1,10.23,6.94,20.49,20.49,0,0,1,.41,18.28c-4.15,9.21-15.1,10.77-22.11,3.29-2.22.07-1.21,1.79-1.32,2.8C550.14,753.82,551.32,757.88,550,761.8Z" transform="translate(-545.08 -324.12)"/><path class="cls-19" d="M1067,682.43c0,4.38,0,8.48,0,12.57,0,1.53.65,3.61-2.16,3.43S1063,696,1063,694.64c-.07-11.81-.09-23.63,0-35.44,0-1.44-1.37-4.15,1.91-4,3.13.13,1.08,2.88,2.07,4.66a13.53,13.53,0,0,1,10.3-5.63,13.06,13.06,0,0,1,10.75,4.33c5.69,6.27,5.44,19.41-.45,25.3C1082.1,689.37,1074.74,689,1067,682.43Z" transform="translate(-545.08 -324.12)"/><path class="cls-20" d="M761.33,660.44c0-5.32,0-9.77,0-14.21,0-1.45-.4-3.15,2-3.17s1.87,1.84,1.88,3.17c0,12.13.06,24.25,0,36.37,0,1.41,1.14,3.8-1.38,4-3.5.35-1.36-2.86-2.39-4.71-3.44,3.8-7.42,6.3-12.56,5.69a13,13,0,0,1-9.33-5.13c-5.47-7.32-4.3-20.31,2.35-25.48C747.83,652.36,755.54,653.44,761.33,660.44Z" transform="translate(-545.08 -324.12)"/><path class="cls-21" d="M1074.88,370.12A205.27,205.27,0,0,1,1096.17,396c-5.84-.79-11.33,3.34-17.26,1.21l-16.11-26.78c-.47-1.51.63-1.55,1.6-1.74s2.33.9,2.84.12c2.39-3.61,4-1.23,5.85.49A4.73,4.73,0,0,0,1074.88,370.12Z" transform="translate(-545.08 -324.12)"/><path class="cls-22" d="M991.75,512.11a65.09,65.09,0,0,1-14.76-2,109.49,109.49,0,0,1-.24-21.11,5.3,5.3,0,0,1,3-1.44,3.71,3.71,0,0,1,1.92.24L994,489.22c1.57.36,2.66.9,2.58,2.94-.2,5.16.13,10.33,0,15.49C996.5,510.66,995.48,512.93,991.75,512.11Z" transform="translate(-545.08 -324.12)"/><path class="cls-23" d="M1339.89,516.15c1.22-7.35.3-14.75.45-22.13,0-.84-.26-1.59.68-2l31.19,29-.69,1.12C1361.16,519.05,1350.41,518.28,1339.89,516.15Z" transform="translate(-545.08 -324.12)"/><path class="cls-24" d="M1261,556.91a5.91,5.91,0,0,0,2.37-5.09c-.21-6.21-.27-12.41-.39-18.62a67.89,67.89,0,0,1,17-3.13,4.06,4.06,0,0,1,1.46,3c0,5.65,0,11.3,0,17a5.07,5.07,0,0,1-1.42,3.11Z" transform="translate(-545.08 -324.12)"/><path class="cls-25" d="M1007,492.06a71.19,71.19,0,0,1,17,5c2.37,1.35,2.58,3.62,2.46,6-.27,5.2-1,10.39-.33,15.61.08.67-.53,1.15-1.16,1.43l-18-5c-.49-7,.64-14.15-1.1-21.12A1.64,1.64,0,0,1,1007,492.06Z" transform="translate(-545.08 -324.12)"/><path class="cls-20" d="M769.28,707.11c2-.26,3,.32,3,2.65-.09,12.8,0,25.6,0,38.4,0,1.27.33,3-1.78,2.69-3.12-.45-.5-3.12-2.08-4.55-3.12,3.22-7,5.82-12.11,5.39-10-.85-15.86-12.12-12.08-23.39,3.53-10.54,14.88-13.22,22.92-5.4,2.82,0,1.25-2.18,1.4-3.27C769.05,715.49,767.71,711.21,769.28,707.11Z" transform="translate(-545.08 -324.12)"/><path class="cls-26" d="M852.63,681.74c-4.35,5.5-9.39,7.09-15.47,5.26-3.95-1.19-6.08-3.78-6.33-8-.26-4.45,1.7-7.52,5.85-8.73a79.23,79.23,0,0,1,11.26-2.11c2.55-.35,4.61-.89,4.59-4,0-3-1.1-5.11-4.1-6.1-5.27-1.74-9.9,0-12.25,5.11-.77,1.7-1.7,2-3,1.61-2.21-.62-.79-2.11-.46-3.19,1.57-5.13,7.15-8.1,13.72-7.39s9.64,3.52,10,9.64c.28,5.15.08,10.32.12,15.48,0,1.45-.41,3.21,1.4,3.86,1.43.51,2.68,1,1.81,2.69-.76,1.48-2.36,1-3.6.77C853.73,686.3,853.19,684.3,852.63,681.74Z" transform="translate(-545.08 -324.12)"/><path class="cls-27" d="M1078.91,397.2c5.77-.21,11.3-3.79,17.26-1.21a127.81,127.81,0,0,1,13.1,18.95c-.83,1-1.76.43-2.72.27s-2.22-1.59-2.37,1.12c-.11,2.09-1.72,2.46-3.41.58-2.3-2.55-2.82-2.47-4.62.1-1,1.39-2.16,1.53-3.37.61-1.47-1.12-3.34-1.43-4.76-2.58Q1083.46,406.11,1078.91,397.2Z" transform="translate(-545.08 -324.12)"/><path class="cls-28" d="M1107.77,463.39,1102,448c-1.36-2.8,1.37-2.89,2.47-2.9,7.13,0,14.34-1.31,21.36,1a88.85,88.85,0,0,1,6.1,16c-3.18,1.62-6.53.38-9.8.55C1117.34,462.82,1112.51,462.14,1107.77,463.39Z" transform="translate(-545.08 -324.12)"/><path class="cls-29" d="M1280,553.18l-.06-23.11c5.58-1.61,11.3-1.25,17-1.11,2.14,7.36,2.5,14.72,0,22.08Z" transform="translate(-545.08 -324.12)"/><path class="cls-30" d="M1288,517.15l-17,2.77c-.42-7.87-1.89-15.79,1-23.52,5.89-1.72,12-1.69,18-2.58a1.07,1.07,0,0,1,1.21.36c-3,4.88-1.3,10.28-1.74,15.44C1289.23,512.18,1290.2,515,1288,517.15Z" transform="translate(-545.08 -324.12)"/><path class="cls-31" d="M953.91,680.72c-4.66,6.38-9.75,8.15-16,6.31a8.41,8.41,0,0,1-6.57-8.35c-.19-4.43,2.21-7.33,6.28-8.49a79.6,79.6,0,0,1,10.78-2c2.47-.34,4.69-.7,4.79-3.87s-1.22-5.42-4.42-6.36c-5.26-1.56-9.54.14-11.79,5-.71,1.54-1.57,2.21-3,1.79-2-.58-1.05-2.19-.73-3.31,1.4-5,7.84-8.15,14.39-7.22s9.29,3.91,9.37,10.09c.06,4.49,0,9,0,13.47,0,2.38-.81,5.19,2.85,5.86a1.25,1.25,0,0,1,.79,1.62,1.81,1.81,0,0,1-1.79,1.44C955.52,687,953.44,685.74,953.91,680.72Z" transform="translate(-545.08 -324.12)"/><path class="cls-32" d="M1125.83,446c-6.45,0-12.91.08-19.37-.07-2-.05-3.62-.1-4.46,2l-6.17-15.66c-.47-1.78.65-2.56,2.06-2.67,6.44-.5,12.87.12,19.31.27.54,0,1.11.69,1.62,1.12C1121.49,435.89,1124.17,440.73,1125.83,446Z" transform="translate(-545.08 -324.12)"/><path class="cls-20" d="M864.28,745.09c-4.39,6.55-9.68,7.49-15.59,6-4.18-1-6.47-3.93-6.65-8.26-.16-4.15,1.91-6.93,5.72-8.42,3.61-1.42,7.47-1.49,11.25-2,2.56-.33,5.08-1,5-4.38s-1.75-5.75-5.29-6.11c-4.75-.48-9.59-.8-11.17,5.38-.46,1.81-1.72,1.84-3.08,1.51-2-.48-.83-1.83-.57-2.78,1.52-5.7,6.9-8.34,15-7.42,6,.69,8.74,3.58,9,9.82.15,4.32-.08,8.66.08,13,.1,2.39-1.35,5.61,2.74,6.44.29.06.55,1.13.52,1.71-.07,1-.9,1.25-1.8,1.28C866.19,751,864.3,749.68,864.28,745.09Z" transform="translate(-545.08 -324.12)"/><path class="cls-31" d="M1086.56,745.77c-4.2,5.83-9.45,6.88-15.41,5.32-4-1.05-6.1-3.8-6.34-7.93s1.46-7.07,5.34-8.62c3.6-1.44,7.43-1.6,11.23-2,2.73-.3,5.46-.95,5.27-4.63-.18-3.45-2-5.6-5.51-5.94-4.82-.47-9.6-.53-11,5.59-.5,2.13-2,1.48-3.09,1.32-1.53-.22-.84-1.45-.65-2.36,1.14-5.32,6.12-8.36,13.19-8.08s10.39,2.9,10.81,9.11c.34,5.12.13,10.29.15,15.44,0,1.8-.49,3.93,1.88,4.57,1.53.42,1.94,1.16,1.45,2.45s-1.62.9-2.58.9C1088.33,750.89,1087.11,748.92,1086.56,745.77Z" transform="translate(-545.08 -324.12)"/><path class="cls-19" d="M1255.15,745.58c-4.29,5.93-9.37,6.94-15.19,5.59-4.32-1-6.49-4-6.76-8.19s2-7.25,6.06-8.69c3.49-1.23,7.16-1.37,10.8-1.79,2.77-.31,5.28-1.08,5-4.82-.25-3.32-2-5.13-5.16-5.71-6-1.08-8.59.07-11.08,5.38a2.43,2.43,0,0,1-3.15,1.55c-1.89-.41-.87-1.89-.65-2.82,1.29-5.47,6.74-8.23,14.5-7.45,6.22.62,9.16,3.45,9.39,9.42.17,4.65,0,9.31.07,14,0,2.34-.92,5.23,2.81,5.89.74.14.92.87.73,1.59a1.86,1.86,0,0,1-1.83,1.39C1257.45,751.22,1255.76,749.59,1255.15,745.58Z" transform="translate(-545.08 -324.12)"/><path class="cls-20" d="M786.64,672a71.75,71.75,0,0,1-7.48,0c-4.83-.5-4.72,1.68-3.37,5.23,1.56,4.13,4.16,6.83,8.64,7.14,4.31.3,7.86-1.18,9.71-5.41.75-1.69,1.81-3.25,3.67-2.23,2.32,1.27.13,2.84-.46,4-2.53,5.1-7.33,7.57-13.15,7-6-.54-10.52-4-12.11-9.56a23.78,23.78,0,0,1-.21-13.25c2-7.31,8.33-11.77,15.23-10.6a15,15,0,0,1,12,15.54c-.14,1.92-1,2.13-2.48,2.11C793.29,671.92,790,672,786.64,672Z" transform="translate(-545.08 -324.12)"/><path class="cls-20" d="M1223.05,672a64.34,64.34,0,0,1-7.48-.05c-3.92-.45-5,.83-3.72,4.61,1.42,4.08,3.72,7.06,8.22,7.66s8.25-.79,10.33-5.13c.77-1.6,1.59-3.36,3.53-2.49,2.54,1.14.35,3-.18,4.12-3,6.54-12,9-18.94,5.47-5.43-2.8-8.51-10.44-7.35-18.26,1.14-7.64,5.2-12.54,11.94-13.47,10.36-1.43,15.8,6.64,16.06,15.87,0,1.73-1.23,1.67-2.42,1.67Z" transform="translate(-545.08 -324.12)"/><path class="cls-33" d="M1118.82,431.05c-7.14-.16-14.27-.36-21.41-.4-.52,0-1.05,1.1-1.58,1.68A129.73,129.73,0,0,1,1088,415c3-1.35,4.47,1,6,2.53,2.82-.38.16-4.28,2.92-4.05,3.44.3,4.29,1.18,5.83,4.93.23-6.31,3.42-4.78,6.51-3.51A101.66,101.66,0,0,1,1118.82,431.05Z" transform="translate(-545.08 -324.12)"/><path class="cls-34" d="M1025,520.08c0-5.65-.11-11.31.25-16.94a12.26,12.26,0,0,0-1.22-6.07,70.15,70.15,0,0,1,17,7.06c1.23,2.33.31,4.8.49,7.2.28,3.69-.63,7.5,1.66,11A2.45,2.45,0,0,1,1042,526Z" transform="translate(-545.08 -324.12)"/><path class="cls-19" d="M1014.71,741.09c-2.48,7.82-6.67,11-14.05,10.63-7-.33-11.17-4.06-13-11.49a22,22,0,0,1,.7-12.76c2.34-6.87,8.9-10.2,16.47-8.63,5.8,1.21,10.67,8.47,10.29,14.84-.13,2.29-1.28,2.26-2.87,2.26-6,0-12,.16-18-.08-3.3-.14-3.74,1.43-3,3.87,1.29,4.11,3.26,7.78,8.11,8.47,4.69.66,8.71-.44,10.76-5.17C1011.12,740.7,1012.43,740,1014.71,741.09Z" transform="translate(-545.08 -324.12)"/><path class="cls-18" d="M1102,660.05c3-3.93,6.11-5.63,9.91-5.9,6.62-.47,11.26,3.27,11.73,10.11.45,6.63.14,13.31.21,20,0,1.54-.26,2.56-2.13,2.56-2.06,0-1.91-1.38-1.92-2.71,0-5.49.06-11,0-16.47-.11-7-2.45-10-7.68-10.07-5.47-.13-9.55,3.57-10,9.66-.36,5.31-.06,10.65-.18,16,0,1.4,1,3.69-1.94,3.58s-1.83-2.3-1.84-3.74q-.09-18.22,0-36.44c0-1.54-.67-3.6,2.12-3.49,2.54.1,1.65,2.06,1.68,3.34C1102.05,650.56,1102,654.72,1102,660.05Z" transform="translate(-545.08 -324.12)"/><path class="cls-19" d="M726.73,735.93h-6.49c-5.69,0-6.14.64-4,5.77,1.56,3.8,4.12,6.39,8.49,6.64s7.93-1.12,9.7-5.4c.76-1.82,1.93-3,3.7-2.16,2.18,1.08.17,2.64-.3,3.75-2.15,5-6.4,7-11.58,7.16s-9.6-1.33-12.27-6.1a20.77,20.77,0,0,1-.85-19.17c2.84-6.59,9.48-9.46,16.6-7.49,5.42,1.5,10.06,9,9.57,14.94-.16,2-1.08,2.08-2.55,2.07C733.39,735.9,730.06,735.93,726.73,735.93Z" transform="translate(-545.08 -324.12)"/><path class="cls-35" d="M924.94,488.82c.16,1,0,2.34.55,2.82,5.37,4.55,2.23,10.1,1.83,15.23-.22,2.84-3.77,2.25-5.28,3.94l-25.86,4.88C906.41,506.13,915.67,497.47,924.94,488.82Z" transform="translate(-545.08 -324.12)"/><path class="cls-36" d="M1088,584l-23.12-12.93c.82-5.89-.78-11.92,1.11-17.75a140.92,140.92,0,0,1,21.14,16.31C1088.41,574.34,1089.28,579.09,1088,584Z" transform="translate(-545.08 -324.12)"/><path class="cls-37" d="M1197.88,563.79q0,8.61.08,17.21l-22,13c-2.85-.48-2.1-2.87-2.4-4.65s.12-3.63.17-5.45A160,160,0,0,1,1197.88,563.79Z" transform="translate(-545.08 -324.12)"/><path class="cls-26" d="M895.68,643.05c3.66,0,7.32,0,11,0,1.38,0,2.81-.1,2.77,1.88s-1.59,1.74-2.89,1.74c-5.82,0-11.64.11-17.46,0-2.38-.06-3,.71-3.11,3.09-.54,12.53-.62,12.53,12.08,12.53h6.49c1.2,0,2.34.07,2.43,1.73.12,2-1.25,2-2.62,2-5,0-10,.12-15-.05-2.53-.09-3.54.55-3.42,3.29.23,4.81.09,9.64,0,14.46,0,1.4.46,3.09-2,3.14s-2.11-1.56-2.11-3c0-12.63,0-25.26,0-37.9,0-2.11.61-3,2.83-2.87C888.36,643.15,892,643.05,895.68,643.05Z" transform="translate(-545.08 -324.12)"/><path class="cls-38" d="M1074.88,370.12c-3.56,2.92-2.62-3.44-5.6-1.76.32,5.56-4.81-.39-6.48,2.06-9.54-12.76-18.68-25.82-29.33-37.72a56.12,56.12,0,0,1-6.65-8.58A347.27,347.27,0,0,1,1074.88,370.12Z" transform="translate(-545.08 -324.12)"/><path class="cls-39" d="M1248,525.66l-13.88,4.4c-1.55.16-2.15-1-2.23-2.09-.44-6.49-1.69-13,1-19.38a62.56,62.56,0,0,1,15.07-5.82,4.22,4.22,0,0,1,1.55,4C1249,513.05,1250.78,519.54,1248,525.66Z" transform="translate(-545.08 -324.12)"/><path class="cls-40" d="M1107.77,463.39c.48-1.44,1.43-1.91,3-1.86,7.06.22,14.14-.48,21.18.5a56,56,0,0,1,4.3,12.91,4.69,4.69,0,0,1-4.08,1.5c-6.76-.3-13.66,1.35-20.25-1.38A53.66,53.66,0,0,1,1107.77,463.39Z" transform="translate(-545.08 -324.12)"/><path class="cls-41" d="M1057.49,671.52c-.35,9.73-6.7,16.52-15.21,16.24-9-.28-14.85-7.54-14.45-17.87.37-9.4,6.64-15.95,15.09-15.75C1051.58,654.35,1057.85,661.82,1057.49,671.52Z" transform="translate(-545.08 -324.12)"/><path class="cls-42" d="M1232.81,508.59c0,5.63.07,11.25.16,16.87,0,1.59-.52,3.37,1.1,4.6L1218,536.62a29.39,29.39,0,0,1,0-20.56A64,64,0,0,1,1232.81,508.59Z" transform="translate(-545.08 -324.12)"/><path class="cls-31" d="M1159.15,671.14c-.06,9.64-6.24,16.58-14.79,16.63-8.74,0-15-7.1-14.9-17s6.17-16.59,14.78-16.64S1159.21,661.23,1159.15,671.14Z" transform="translate(-545.08 -324.12)"/><path class="cls-31" d="M933,735.06c0,9.82-5.84,16.55-14.54,16.68s-15.29-6.92-15.29-16.67,6.4-16.74,15.28-16.63S933,725.17,933,735.06Z" transform="translate(-545.08 -324.12)"/><path class="cls-10" d="M1324.12,734.81c.06,10-5.63,16.73-14.39,16.92-9,.2-15.3-6.69-15.3-16.67,0-9.81,6-16.52,14.81-16.62S1324.05,724.92,1324.12,734.81Z" transform="translate(-545.08 -324.12)"/><path class="cls-43" d="M637.09,745.91a12,12,0,0,1-9.66,5.8c-6.45.55-10.95-2.62-11.48-9-.58-7.11-.33-14.28-.47-21.42,0-1.39.45-2.18,2-2.24,1.79-.07,2.23.89,2.21,2.49,0,6,0,12,0,17.95,0,4.33,1,8,6.14,8.69s8.68-1.29,10.38-6.32c2.09-6.15.62-12.54,1.09-18.8.11-1.58-1.06-4.1,2.12-4,2.82.13,1.64,2.46,1.66,3.82.11,7.81.14,15.63,0,23.44,0,1.5,1.39,4.17-1.43,4.4C636.06,751.09,638.55,747.78,637.09,745.91Z" transform="translate(-545.08 -324.12)"/><path class="cls-20" d="M595.27,718.47c8.79.23,14.75,7,14.63,16.77-.11,10-6.62,16.86-15.49,16.48s-14.53-7.29-14.34-17.09S586.46,718.25,595.27,718.47Z" transform="translate(-545.08 -324.12)"/><path class="cls-26" d="M604.56,654.14c4.27.38,8.43,1.78,10.35,6.59.41,1,1.38,2.73-.25,3.55s-2.55-.27-3.38-1.84a8.87,8.87,0,0,0-11.72-4.17c-2,.85-3.36,2.24-3.44,4.47a4.12,4.12,0,0,0,3,4.14c3.13,1.07,6.35,1.9,9.55,2.75,5.34,1.41,8.32,4.42,8.06,8.67-.31,5.05-3.55,7.58-8.17,8.74-8.21,2.06-14.87-.84-16.77-7.36-.33-1.15-1.48-2.62.73-3.16,1.53-.37,2.2.34,2.91,1.83,2.63,5.49,7.62,7.35,13.13,5.24,2.35-.9,4.11-2.44,4.23-5s-1.63-4.28-4-5-4.81-1.28-7.22-1.9c-7.16-1.85-9.94-4.75-9.23-9.64C593,657.36,597.87,654.11,604.56,654.14Z" transform="translate(-545.08 -324.12)"/><path class="cls-19" d="M1159.14,735.3c-.09,9.8-6.22,16.53-15,16.43s-14.72-6.81-14.72-16.66c0-10.06,6.17-16.81,15.22-16.62C1153.41,718.62,1159.24,725.42,1159.14,735.3Z" transform="translate(-545.08 -324.12)"/><path class="cls-44" d="M1218,516.06q0,10.28,0,20.56L1202,544a22.63,22.63,0,0,1,0-17.95A79,79,0,0,1,1218,516.06Z" transform="translate(-545.08 -324.12)"/><path class="cls-45" d="M1288,517.15c.14-6.25.71-12.53.23-18.74-.23-2.82,1.16-3.26,2.72-4.25a.67.67,0,0,1,1-.09c1.67,1.65,3.83,1.11,5.67.86,4.17-.57,5.24,1.68,5.29,5.08.07,5.3,0,10.61,0,15.91Z" transform="translate(-545.08 -324.12)"/><path class="cls-46" d="M800.72,746.05a11.56,11.56,0,0,1-8.34,5.48c-7.18,1.16-12.32-2.25-12.93-9.56-.57-6.78-.19-13.63-.29-20.45,0-1.69.55-2.46,2.28-2.42,2.11,0,1.76,1.58,1.77,2.84,0,5.66-.07,11.32,0,17,.12,6.31,2,8.83,6.68,9.35,5.51.62,8.79-1.79,10.35-7.7,1.52-5.74.33-11.6.79-17.38.12-1.49-1.31-4.17,1.95-4,3.08.14,1.77,2.71,1.8,4.23.12,7.49.17,15,0,22.47,0,1.64,1.64,4.5-1.43,4.91C799.52,751.3,802.46,747.38,800.72,746.05Z" transform="translate(-545.08 -324.12)"/><path class="cls-26" d="M564.5,659.33a13.33,13.33,0,0,1,7.79-4.94c7.11-1.49,12.79,2.52,13.14,9.73.33,6.64.14,13.3.2,19.94,0,1.44,0,2.71-2,2.7-2.14,0-1.74-1.58-1.75-2.82,0-5.66.09-11.31,0-17-.16-6.39-2.74-9.37-7.82-9.44a9.34,9.34,0,0,0-9.78,9.23c-.33,5.63-.12,11.3-.17,17,0,1.43.39,3.11-2.05,3.07s-1.95-1.77-1.95-3.15c0-8.32-.06-16.63,0-24.94,0-1.4-1-3.55,2-3.59S563.72,657.35,564.5,659.33Z" transform="translate(-545.08 -324.12)"/><path class="cls-47" d="M1111.9,475.06l24.33-.12a54.79,54.79,0,0,1,3.63,12.08c-8,1.8-16,3.06-24,0A51.35,51.35,0,0,1,1111.9,475.06Z" transform="translate(-545.08 -324.12)"/><path class="cls-46" d="M1169,659.42c4-4.48,8.28-6.11,13.68-4.75,4.42,1.12,7.09,3.81,7.27,8.32.28,7.14.18,14.29.24,21.44,0,1.2,0,2.35-1.76,2.34-2,0-2-1.25-2-2.69,0-5.49.09-11,0-16.46-.1-7-2.42-9.92-7.67-10.07-5.66-.17-9.75,3.85-10,10.11-.19,5.32-.06,10.64-.06,16,0,1.49.31,3.15-2,3.14-2.5,0-1.84-1.89-1.85-3.21,0-8.32-.06-16.64,0-24.95,0-1.27-.89-3.2,1.57-3.46C1169.59,654.81,1168.3,657.45,1169,659.42Z" transform="translate(-545.08 -324.12)"/><path class="cls-26" d="M1334.16,723.51c3.6-4.75,8.08-5.61,13.16-4.73,4.64.81,7.56,3.91,7.7,8.93.2,6.81.09,13.63.09,20.44,0,1.27.35,2.77-1.78,2.77s-1.95-1.35-1.95-2.72c0-5.82.13-11.64,0-17.46-.19-6.35-2.43-8.84-7.59-9-5.57-.12-9.5,3.25-9.81,9s-.12,11.3-.18,17c0,1.41.49,3.1-1.93,3.2s-2-1.68-2-3c0-8.31-.07-16.62,0-24.94,0-1.35-1.16-3.57,1.67-3.82C1334.77,718.83,1333.38,721.51,1334.16,723.51Z" transform="translate(-545.08 -324.12)"/><path class="cls-46" d="M969.13,659.33c4.22-4.94,9-6.16,14.64-4.35,3.5,1.13,5.87,3.55,6,7.16.36,7.47.28,15,.37,22.44,0,1.28-.24,2.28-1.9,2.19s-1.86-1-1.86-2.34c0-5.49.07-11,0-16.46-.08-7.29-2.43-10.36-7.83-10.43-5.81-.08-9.69,4.07-9.85,10.77-.12,5.15,0,10.31,0,15.46,0,1.6.06,3.06-2.2,3s-1.7-1.65-1.71-2.87c0-8.32-.07-16.63,0-24.95,0-1.37-1.12-3.59,1.71-3.81C969.79,654.89,968.15,657.71,969.13,659.33Z" transform="translate(-545.08 -324.12)"/><path class="cls-18" d="M691.16,681.92a12.43,12.43,0,0,1-10.38,5.82c-6.32.2-10.47-3.48-10.76-9.91-.29-6.65-.13-13.31-.14-20,0-1.29-.24-2.79,1.87-2.71s1.87,1.44,1.86,2.81c0,5.49-.07,11,0,16.48.1,6.94,2.38,9.75,7.84,9.93,5,.16,9.2-3.68,9.58-9.49.35-5.31.09-10.66.2-16,0-1.46-.91-3.65,1.87-3.73,3.24-.1,2,2.45,2.08,4q.16,11.75,0,23.48c0,1.41,1.14,3.79-1.39,4.07C690.26,687.05,692.52,683.75,691.16,681.92Z" transform="translate(-545.08 -324.12)"/><path class="cls-48" d="M1202,526.09q0,9,0,17.95l-18,10.07a18.48,18.48,0,0,1,0-14.14A102.8,102.8,0,0,1,1202,526.09Z" transform="translate(-545.08 -324.12)"/><path class="cls-49" d="M1007,492.06c1.5,6.36.65,12.82,1.08,19.21.13,1.84-.89,2.56-1.12,3.86a87.39,87.39,0,0,1-15.2-3c1.82-.37,3.64-.79,3.69-3.17.11-6,.22-12,.18-18,0-.58-1-1.15-1.59-1.73C998.41,489.89,1002.83,490.36,1007,492.06Z" transform="translate(-545.08 -324.12)"/><path class="cls-50" d="M1297,551V529a61.59,61.59,0,0,1,12,.17c0,5.48.19,11-.06,16.45-.17,3.59,1.19,4.73,4.6,4.46,3.14-.26,6.31-.15,9.47-.2,3.61.74,7.42-.83,10.93,1Z" transform="translate(-545.08 -324.12)"/><path class="cls-26" d="M1000,671.36a13.37,13.37,0,0,0,1.8,7.25c2,3.77,5.09,5.77,9.23,5.68a8.41,8.41,0,0,0,8.25-6.1c.67-2,1.58-3.65,3.8-2.51s.16,2.73-.28,3.83c-3,7.66-11.75,10.49-19.09,6.34-5.48-3.09-8.67-10.57-7.58-17.75,1.16-7.61,5.5-12.36,12.5-13.71,6.12-1.18,12.27,2,14.21,7.43.31.88,1.74,2.19.13,3-1.1.52-2.83.8-3.44-.87-2.15-5.83-6.39-7.38-11.95-5.74C1002.86,659.56,1000,664.67,1000,671.36Z" transform="translate(-545.08 -324.12)"/><path class="cls-51" d="M1272,496.4c0,6.09,0,12.19,0,18.28,0,1.82,0,3.63-1,5.24l-9.9,2.15c-2.21.1-2.34-1.71-2.38-3-.22-6.58-.82-13.16.31-19.71A54.93,54.93,0,0,1,1272,496.4Z" transform="translate(-545.08 -324.12)"/><path class="cls-31" d="M826.13,718.47c5.79.21,10.16,3.16,11.48,7.84.27,1,1.31,2.35-.62,2.74a2.55,2.55,0,0,1-3-1.09c-4.21-5.91-7.35-7.32-12-5.77-4.29,1.44-7.35,6.53-7.48,12.46-.13,6.13,2.8,11.48,7.2,13.14,5.06,1.91,10.12-.24,12.19-5.51.66-1.66.94-3.49,3.12-2.79,2.69.87.8,2.79.34,4-2.54,7-9.89,10-17.24,7.33-7-2.53-10.92-11.12-9.17-20C812.55,723,818.46,718.19,826.13,718.47Z" transform="translate(-545.08 -324.12)"/><path class="cls-52" d="M1259,499.32c2.08,5.62.42,11.45,1,17.16.19,1.89-.75,4,1.1,5.59L1248,525.66c0-7.63.72-15.26-.07-22.89A42,42,0,0,1,1259,499.32Z" transform="translate(-545.08 -324.12)"/><path class="cls-53" d="M1304.11,457c-2.45,3.77-.66,7.95-1.13,11.91a61.59,61.59,0,0,0-.12,6.38,193.34,193.34,0,0,1-15-20c-1.28-4.52-3-9.05.21-13.51A193.66,193.66,0,0,1,1304.11,457Z" transform="translate(-545.08 -324.12)"/><path class="cls-54" d="M1292,494.07l-1,.09-1-.34-10.13-14.5a15.26,15.26,0,0,1,.15-10.45c9,8.09,17.85,16.29,26.26,25Z" transform="translate(-545.08 -324.12)"/><path class="cls-55" d="M1125.89,527.16a44.22,44.22,0,0,1-2.05-10.76c-.74-2.22.15-3.8,2.37-3.81,6.07-.05,12.14-.26,18.21.11.67,0,1.07.69,1.37,1.29.94,6,2.1,11.9,2,18-2.93-6.86-9-5.27-14.48-5.45A53.68,53.68,0,0,0,1125.89,527.16Z" transform="translate(-545.08 -324.12)"/><path class="cls-56" d="M1288.07,441.74l-.21,13.51-31.22-41.16,1.42-1.29Z" transform="translate(-545.08 -324.12)"/><path class="cls-57" d="M1130.9,559.12c1.23-1.63,3-1.1,4.59-1.11,8.61,0,17.23.22,25.82-.13,3.46-.14,4.45,1.16,4.49,4.11,1,2-.32,3.12-1.55,4.28l-3.17,5c-.5-2.24.26-4.19,1.79-6.29-9.46,0-18.57.08-27.68,0-4.23-.06-2.92,3-3.27,5.19C1130.87,566.54,1131,562.82,1130.9,559.12Z" transform="translate(-545.08 -324.12)"/><path class="cls-58" d="M1172.05,548.15c-.43-.92-.87-1.69-2.15-1.65-6.68.21-13.38-.48-20,.45,2.12-4.09,5.19-7.47,8.16-10.93a29.81,29.81,0,0,1,21.21.08C1177.33,540.41,1175.93,545,1172.05,548.15Z" transform="translate(-545.08 -324.12)"/><path class="cls-59" d="M1022.42,734.59c0-2.16,0-4.32,0-6.48-.06-2.75,1.17-6.4-4-5.69-1,.13-1.46-.61-1.45-1.59s.38-1.82,1.38-1.66c5.12.83,3.89-2.8,4.06-5.56.1-1.59-.94-4,2.24-3.86,2.82.13,1.82,2.33,1.84,3.74.06,3.1-.74,6.63,4.47,5.63a1.53,1.53,0,0,1,2,1.61c.06,1.72-1.19,1.91-2.35,1.74-3.81-.59-4.28,1.34-4.12,4.56.26,5.31.09,10.64.06,16,0,2.94.37,5.46,4.29,5,1.06-.12,2,0,2.09,1.4.15,1.82-1.18,1.63-2.31,1.78-5.38.73-7.91-1.24-8.17-6.64C1022.3,741.25,1022.43,737.92,1022.42,734.59Z" transform="translate(-545.08 -324.12)"/><path class="cls-60" d="M1086,533.82a176.69,176.69,0,0,1,23,22c1.18,2.56,2.22,5.12-.17,7.6L1086,548A54.93,54.93,0,0,1,1086,533.82Z" transform="translate(-545.08 -324.12)"/><path class="cls-59" d="M624.49,670.54c0-2.16,0-4.32,0-6.47-.05-2.78,1.13-6.41-4-5.66-.93.13-1.43-.64-1.4-1.62s.48-1.76,1.44-1.61c4.55.75,4-2.26,4-5.1.05-1.63-1.32-4.49,2.24-4.27,3.1.19,1.8,2.76,1.76,4.24-.07,3.29,0,6,4.53,5.11,1.09-.22,1.89.47,1.88,1.73a1.55,1.55,0,0,1-2,1.58c-4.81-.89-4.39,2.23-4.33,5.32q.15,7.71,0,15.43c-.06,2.93.65,4.95,4.12,4.67,1-.08,2.07-.23,2.19,1.25.13,1.64-1,1.74-2.23,1.94-5.27.86-7.87-1.13-8.15-6.58-.17-3.32,0-6.64,0-10Z" transform="translate(-545.08 -324.12)"/><path class="cls-61" d="M1037,559c-3.73-1.15-7.6-1.89-11-3.87-2.39-7.52-2.74-15,.17-22.51,4.16,1,7.93,3,11.8,4.68.52,6.5,1,13-.08,19.5A3.22,3.22,0,0,1,1037,559Z" transform="translate(-545.08 -324.12)"/><path class="cls-62" d="M1173.74,583.88c3,2.87-.44,7.16,2.23,10.1-12.09,8.83-24.5,17.25-35.64,27.4A221.92,221.92,0,0,1,1173.74,583.88Z" transform="translate(-545.08 -324.12)"/><path class="cls-63" d="M1133,581a5.52,5.52,0,0,0,5.66,2.63,123.86,123.86,0,0,1,12.64-.14c1.1,0,2.87-.6,2.77,1.64a73,73,0,0,1-6.85,13.3c-2.86-1.26-5.89-.69-8.85-.85-1.59-.09-3.35.76-4.7-.76-.4-1.59.26-3.29-.48-4.85C1133.08,588.31,1133,584.65,1133,581Z" transform="translate(-545.08 -324.12)"/><path class="cls-64" d="M1042,526c2-2.69-1.42-4.15-1.42-6.38,0-5.17-.52-10.36.41-15.51a43.76,43.76,0,0,1,11.08,5.71,28.23,28.23,0,0,1-.11,20.31A45.42,45.42,0,0,1,1042,526Z" transform="translate(-545.08 -324.12)"/><path class="cls-65" d="M920.89,527.62c.18,4.29.25,8.59.58,12.88a6.74,6.74,0,0,1-1.44,5.39l-22.29,4.36-.49-.81Z" transform="translate(-545.08 -324.12)"/><path class="cls-66" d="M1046,541.24l11.13,6.38c1.7,6.55,2.82,13.09-.21,19.59l-12-5.2c-.43-6.25.23-12.51-.23-18.76A2.35,2.35,0,0,1,1046,541.24Z" transform="translate(-545.08 -324.12)"/><path class="cls-67" d="M1117.13,736.54c0-3.16-.05-6.32,0-9.48,0-2.56.44-5.22-3.6-4.62-1.24.18-1.73-.75-1.65-1.91.11-1.38,1.16-1.56,2.17-1.41,3,.47,3-1.25,3.15-3.5.44-6.36,3.42-9.16,8.54-8.51,1.25.15,2.33.34,2.37,1.91,0,1.8-1.14,1.6-2.37,1.55-3-.12-4.61,1.3-4.76,4.42-.13,2.53-.2,4.73,3.44,4.14,1.28-.2,2.87-.23,2.71,1.84-.12,1.68-1.5,1.65-2.61,1.48-3.48-.53-3.63,1.45-3.58,4.12.13,7.15.06,14.31,0,21.46,0,1.19.58,2.8-1.62,2.9s-2.26-1.3-2.24-2.91C1117.15,744.19,1117.13,740.37,1117.13,736.54Z" transform="translate(-545.08 -324.12)"/><path class="cls-68" d="M1115.86,487.06c8,1.38,16-.28,24,0a37.73,37.73,0,0,1,2.35,9.93,5.2,5.2,0,0,1-4.49,1.58c-6.29-.42-12.78,1.61-18.86-1.48C1117.64,493.79,1116.25,490.58,1115.86,487.06Z" transform="translate(-545.08 -324.12)"/><path class="cls-69" d="M1148.93,547.87c-.36,2.52-3.21,2.29-3,1.15,1-4.8-2.51-2.14-3.63-2.33-2.52-.42-5.2.16-7.73-.21-3.85-.56-5.08,1-4.65,4.59a48.54,48.54,0,0,1-2-13c-1.13-2.32.56-3.29,2.18-3.41,5.61-.42,11.26-.77,16.86.21.42.07.67.69.93,1.12C1149.09,539.88,1147.09,544,1148.93,547.87Z" transform="translate(-545.08 -324.12)"/><path class="cls-46" d="M877.83,735c0-2.32,0-4.65,0-7-.05-2.78,1.07-6.4-4-5.67a1.38,1.38,0,0,1-1.58-1.49c0-1,.51-1.82,1.39-1.68,4.95.83,4.21-2.47,4.3-5.47,0-1.47-1.29-4.06,2-4s1.89,2.63,1.89,4.11c0,3.17-.27,6.15,4.44,5.24,1.12-.22,1.89.4,1.87,1.69a1.52,1.52,0,0,1-2,1.61c-4.91-.89-4.33,2.37-4.29,5.42q.12,7.73,0,15.46c-.05,2.9.56,5,4.07,4.71,1.34-.12,2.33,0,2.18,1.74-.13,1.45-1.23,1.26-2.18,1.4-5.32.82-7.86-1.27-8.07-6.65V735Z" transform="translate(-545.08 -324.12)"/><path class="cls-46" d="M704.86,671.2c0-2.66-.13-5.32,0-8,.19-2.92.15-5.37-3.9-4.8a1.43,1.43,0,0,1-1.74-1.35c-.11-1.21.59-2.06,1.72-1.89,4.72.73,3.76-2.51,4-5.23.11-1.47-1.38-4.07,1.81-4.13,3.56-.07,2,2.8,2.07,4.39,0,3-.2,5.8,4.23,4.94,1-.2,2,.13,2.08,1.47.11,1.65-1,2-2.24,1.84-4-.65-4.14,1.66-4,4.68.18,5.3.11,10.62,0,15.93-.05,2.81.38,5,3.93,4.82,1.17-.07,2.4-.28,2.35,1.55s-1.41,1.49-2.5,1.61c-5.4.64-7.64-1.33-7.77-6.9C704.81,677.17,704.86,674.18,704.86,671.2Z" transform="translate(-545.08 -324.12)"/><path class="cls-26" d="M1268.94,734.66c0-2.66-.08-5.32,0-8,.1-2.49.22-4.8-3.44-4.23a1.56,1.56,0,0,1-2-1.61c0-.89.43-1.82,1.4-1.66,5.13.82,3.88-2.82,4-5.56.08-1.26-.72-3.07.7-3.64,1.89-.76,3.49-.37,3.35,2.46-.16,3.35-1.41,7.75,4.81,6.76,1-.15,1.33.81,1.27,1.73-.09,1.31-1,1.67-2.08,1.5-3.85-.61-4.25,1.46-4.11,4.61.22,5.31.15,10.63,0,16-.07,3.06.42,5.39,4.23,5,1.15-.11,1.92.13,2,1.49s-.94,1.44-2,1.63c-5.11,1-8-1.27-8.2-6.53,0-.16,0-.33,0-.5Z" transform="translate(-545.08 -324.12)"/><path class="cls-46" d="M654,671.11c0-2.49,0-5,0-7.49.06-2.82.61-5.91-4-5.2a1.41,1.41,0,0,1-1.72-1.36c-.1-1.23.64-2.06,1.75-1.87,4.72.8,3.83-2.4,4-5.15.1-1.48-1.38-4.09,1.73-4.19,3.58-.13,2.07,2.82,2.06,4.4,0,3.11-.07,5.76,4.3,4.91,1-.21,2,.15,2.1,1.47.12,1.67-1,2-2.27,1.84-4-.63-4.21,1.57-4.09,4.66.19,5.32.11,10.66,0,16,0,2.89.56,5,4,4.77,1.23-.09,2.41-.2,2.31,1.6s-1.47,1.45-2.56,1.57c-5.45.62-7.63-1.33-7.71-6.95C653.92,677.11,654,674.11,654,671.11Z" transform="translate(-545.08 -324.12)"/><path class="cls-70" d="M1072.64,540.18l-12-6a58,58,0,0,0-.07-12.35c-.31-2-.74-4.36,1.4-5.93a64.08,64.08,0,0,1,11.9,8.3c1.77,4.94,3.07,9.89.63,15C1074.15,540,1073.63,540.56,1072.64,540.18Z" transform="translate(-545.08 -324.12)"/><path class="cls-71" d="M1145.79,514c-6.43-.08-12.87,0-19.3-.31-2.3-.1-2.35,1.25-2.65,2.72A40.72,40.72,0,0,1,1121,505c.11-.32.26-.76.52-.79,7.52-1.06,15-2.12,22.43.79Q1144.9,509.51,1145.79,514Z" transform="translate(-545.08 -324.12)"/><path class="cls-72" d="M970,446.05,983.87,433c3,.37,1.67,2.92,2.16,4.49a11.63,11.63,0,0,1-.09,5.31c-5.53,7-9.84,14.86-15.85,21.48C968.64,458.19,969.59,452.12,970,446.05Z" transform="translate(-545.08 -324.12)"/><path class="cls-73" d="M1164.25,566.27c.52-1.42,1-2.85,1.55-4.28,2.55-4.13,5.29-8.17,6.39-13,4.88-1.76,7.3-6.71,11.76-9q0,7.06,0,14.14-8.79,5.91-17.56,11.84C1165.73,566.44,1165.08,566.85,1164.25,566.27Z" transform="translate(-545.08 -324.12)"/><path class="cls-74" d="M1165.72,525.92a83.75,83.75,0,0,1,9-12c4.66-2.72,9.67-1.32,14.55-1.12,1.19,0,1.35,1.23.67,2.27a58.3,58.3,0,0,1-6.06,11.81,92.7,92.7,0,0,0-13.64-.21C1168.72,526.72,1167,527.45,1165.72,525.92Z" transform="translate(-545.08 -324.12)"/><path class="cls-75" d="M1147.91,536c-5.63-1.12-11.32-.24-17-.46a2.57,2.57,0,0,0-3,2.54c-1.36-3.51-1.41-7.27-2-10.92,1.25-2.07,3.28-1.8,5.26-1.79a52.37,52.37,0,0,0,7.31-.13c5.35-.72,8.88.77,9.31,6.72Z" transform="translate(-545.08 -324.12)"/><path class="cls-76" d="M954,486c-.46-7.95,1.06-15.95-.82-23.85a57.11,57.11,0,0,1,8.64-8.17c2.35.05,2.51,2,2.59,3.48.27,5.4,1,10.86-1.23,16.08A78.77,78.77,0,0,1,954,486Z" transform="translate(-545.08 -324.12)"/><path class="cls-75" d="M1165.72,525.92c4.79-.18,9.57-.38,14.36-.5,1.44,0,3.26-.81,3.85,1.47a40,40,0,0,1-4.7,9.21c-7.06-1.16-14.14-.71-21.21-.08A58.11,58.11,0,0,1,1165.72,525.92Z" transform="translate(-545.08 -324.12)"/><path class="cls-77" d="M1072.64,540.18c4.62-5,0-10.71,1.28-16a73,73,0,0,1,12.12,9.61,22.52,22.52,0,0,1,0,14.15Z" transform="translate(-545.08 -324.12)"/><path class="cls-78" d="M1187.7,496.92A271.36,271.36,0,0,1,1204.16,475c2.17-1,4.38-2.17,5.81,1q-5.34,10.53-10.69,21.07A12.28,12.28,0,0,1,1187.7,496.92Z" transform="translate(-545.08 -324.12)"/><path class="cls-79" d="M1062,515.91c-1,4.15.36,8.27.22,12.42-.07,2.13.27,4.24-1.55,5.86l-8.74-4q.06-10.15.11-20.31A45.94,45.94,0,0,1,1062,515.91Z" transform="translate(-545.08 -324.12)"/><path class="cls-80" d="M1134.12,597c3.62-.93,7.31-.35,11-.5,1.41-.06,2.09.53,2.08,1.93-3.46,8.48-8.19,16.34-12.29,24.5-.42-.13-1.13.13-1.15-.59C1133.59,613.88,1132.82,605.42,1134.12,597Z" transform="translate(-545.08 -324.12)"/><path class="cls-81" d="M1018,553l-11.16-2.88c3.13-6.48,1.47-13.29,1.38-20,0-1-.52-1.92-.2-2.92a32.22,32.22,0,0,1,10,2.8A37.09,37.09,0,0,1,1018,553Z" transform="translate(-545.08 -324.12)"/><path class="cls-82" d="M958,543.91c-.14-4.51-.76-9.07-.27-13.5.39-3.59-.79-5.58-3.66-7.1l7.63-.41c1.69-.68,3.46-.26,5.19-.38,1.56.14,2.63.88,2,2.54a23.46,23.46,0,0,0,.16,17.19c.35.89-.32,1.52-1.13,1.89Z" transform="translate(-545.08 -324.12)"/><path class="cls-83" d="M1046,541.24c-.62,6.22.86,12.48-.35,18.7-.15.76.26,1.6-.69,2.07a28.45,28.45,0,0,1-8-3c-.58-6.55,1.38-13.14-.36-19.69-.14-.52.83-1.33,1.29-2Z" transform="translate(-545.08 -324.12)"/><path class="cls-84" d="M982,522.92a14.37,14.37,0,0,1,6,.31c1.54.32,3.25,1,3.21,2.64-.15,7,1.65,14.17-1.26,21l-12.28-1.76c2.45-2.39,2.73-5.38,2.86-8.63C980.76,532,979.22,527.19,982,522.92Z" transform="translate(-545.08 -324.12)"/><path class="cls-85" d="M968,544.14c-.09-3-1.84-5.58-1.58-8.86.34-4.12.08-8.26,1.61-12.21.64-.74,1.5-.52,2.3-.54,6.29-.17,6.47-.16,6.27,6.3-.17,5.37,1,10.79-.55,16.12C973.28,545.05,970.56,545.14,968,544.14Z" transform="translate(-545.08 -324.12)"/><path class="cls-86" d="M1018,553c.61-7.66.2-15.32,0-23a26.34,26.34,0,0,1,8.1,2.67q-.09,11.25-.17,22.51C1023.12,555.05,1020.58,553.92,1018,553Z" transform="translate(-545.08 -324.12)"/><path class="cls-87" d="M1144,505a110,110,0,0,0-23,0,23,23,0,0,1-2.17-8l23.35-.1A22.79,22.79,0,0,1,1144,505Z" transform="translate(-545.08 -324.12)"/><path class="cls-67" d="M652.16,725.47c2.62-3.59,5.1-6,8.74-6.5,1.12-.15,2.8-.92,3.11,1.25.22,1.56-.36,2.19-2,2.68-8,2.34-9.72,4.86-9.74,13.15,0,3.65.11,7.3,0,11-.07,1.49,1.23,4-2.08,3.91-2.79-.1-1.87-2.26-1.88-3.69q-.11-12.19,0-24.4c0-1.43-1-3.66,1.87-3.69s1.61,2.25,1.88,3.66C652.08,723.27,652.06,723.78,652.16,725.47Z" transform="translate(-545.08 -324.12)"/><path class="cls-88" d="M943,723.1c3.65-3.46,7.73-5.31,13-4.44,4.82.79,7.72,3.5,8,8.07.44,7.27.18,14.58.22,21.88,0,1.22,0,2.31-1.74,2.32-1.94,0-2-1.19-2-2.63,0-5.31.06-10.61,0-15.92,0-4,.26-8.44-4.46-10.09s-8.77-.13-11.85,3.84C942.28,725.67,940.77,725.08,943,723.1Z" transform="translate(-545.08 -324.12)"/><path class="cls-89" d="M825.05,664.85q0,9.48,0,19c0,1.49.27,3.12-2.15,3-2-.14-1.79-1.51-1.79-2.84q0-19,0-38c0-1.58-.14-3,2.19-3,2.13.09,1.75,1.57,1.76,2.83C825.06,652.19,825.05,658.52,825.05,664.85Z" transform="translate(-545.08 -324.12)"/><path class="cls-46" d="M552,665.3q0,9.23,0,18.43c0,1.51.27,3.07-2.08,3.06s-2-1.7-2-3.11q0-18.93,0-37.86c0-1.29-.27-2.71,1.83-2.79s2.31,1.15,2.3,2.84C552,652.35,552,658.83,552,665.3Z" transform="translate(-545.08 -324.12)"/><path class="cls-90" d="M1055.13,728.43c0-6,0-12,0-17.95,0-1.65-.39-3.52,2.28-3.38,2.47.13,1.74,2,1.75,3.34q.08,18.7,0,37.4c0,1.38.52,3.11-2,3.11s-2.08-1.59-2.08-3.08Z" transform="translate(-545.08 -324.12)"/><path class="cls-91" d="M688.27,729.43c0,6.16,0,12.31,0,18.46,0,1.41.48,3.2-2,3.05-2-.12-1.8-1.54-1.8-2.86q0-19,0-37.92c0-1.54-.18-3.17,2.12-3.06,2.48.12,1.66,2.09,1.68,3.38C688.32,716.79,688.27,723.11,688.27,729.43Z" transform="translate(-545.08 -324.12)"/><path class="cls-92" d="M1056.91,567.21c.69-5.43,1.18-10.84-.18-16.27-.25-1,.24-2.2.39-3.32l8.86,5.68c-.22,5.93,1.76,12-1.11,17.75A29.71,29.71,0,0,1,1056.91,567.21Z" transform="translate(-545.08 -324.12)"/><path class="cls-93" d="M1088,584a72.75,72.75,0,0,1-.87-14.37,97.3,97.3,0,0,1,14,13c.91,2.28.64,4.73,1,7.1.21,1.36-.15,2.62-2.06,2.24Z" transform="translate(-545.08 -324.12)"/><path class="cls-94" d="M997.06,462.18a162.14,162.14,0,0,1-15,20.95c-2.78-4.44-1.86-8.91-.14-13.39,5-4.73,9.16-10.28,15-14.13C999.05,457.73,998.07,460,997.06,462.18Z" transform="translate(-545.08 -324.12)"/><path class="cls-95" d="M1002.86,549.07c-2-.09-4,0-5.86-1.08-1.93-2.26-1.41-5-1.47-7.62-.12-5.42.53-10.91-1.5-16.16,3.81-.25,7.28,1.36,10.93,2,1.14,6.59.54,13.22.31,19.83C1005.23,547.36,1005.08,549.18,1002.86,549.07Z" transform="translate(-545.08 -324.12)"/><path class="cls-96" d="M917.32,660.54c2.93-3.08,5.73-5.26,9.64-5.69,1.13-.12,2.41-.39,2.49,1.46.06,1.34-.34,2-1.77,2.44-8.75,2.9-9.82,4.47-9.83,13.46,0,4,0,8,0,12,0,1.51-.2,2.58-2.09,2.6s-2-1.31-2-2.67c0-8.47,0-17,0-25.43,0-1.28-.85-3.37,1.53-3.49,2.79-.13,1.79,2.14,1.92,3.62A16.62,16.62,0,0,1,917.32,660.54Z" transform="translate(-545.08 -324.12)"/><path class="cls-97" d="M981.9,469.74q.06,6.69.14,13.39c.45,1.6-4.4,2.79-.38,4.67l-1.8.27c-5.33-.7-10.75-.09-16.05-1.14A201.19,201.19,0,0,1,981.9,469.74Z" transform="translate(-545.08 -324.12)"/><path class="cls-67" d="M1169.78,724.72c1.48-3.6,4.54-5.08,8.06-5.79,1-.2,2.45-.54,2.78,1.15.29,1.52-.25,2.26-1.91,2.79-8.35,2.69-9.88,4.88-9.89,13.48,0,4,0,7.95,0,11.93,0,1.41,0,2.62-2,2.66s-1.9-1.31-1.9-2.64q0-14.16.07-28.33c1.79-.91,3-.89,3.5,1.54C1168.74,722.57,1167.11,724.59,1169.78,724.72Z" transform="translate(-545.08 -324.12)"/><path class="cls-98" d="M994,524.21c2.21.89,3.13,2.31,3,4.89-.23,6.29-.07,12.59-.07,18.89l-7-1.11c.13-6.55.17-13.12.43-19.67.08-2-1.2-2.89-2.38-4Z" transform="translate(-545.08 -324.12)"/><path class="cls-99" d="M963.16,473.49c0-5-.07-10-.17-15,0-1.59.51-3.39-1.19-4.58a48.41,48.41,0,0,1,8.24-7.88c1.91,6.07,1,12.14.05,18.21A43.39,43.39,0,0,1,963.16,473.49Z" transform="translate(-545.08 -324.12)"/><path class="cls-100" d="M976,545c-.9-5.69-.61-11.44-.42-17.13.13-3.67-.55-5.58-4.62-4.83a19.64,19.64,0,0,1-3,.08l-6.28-.17a55.2,55.2,0,0,1,20.3,0c0,6-.18,12,.07,17.94.14,3.38-1.27,4.5-4.35,4.26Z" transform="translate(-545.08 -324.12)"/><path class="cls-101" d="M1280,468.87a35.88,35.88,0,0,1-.15,10.45c-7.72-9.43-14.87-19.27-21.95-29.18-.24-1,.15-1.45,1.2-1.19Z" transform="translate(-545.08 -324.12)"/><path class="cls-102" d="M963.18,509.27c-.06-5,.17-9.95-.26-14.88-.4-4.53,1.34-6,5.6-5.39a17.09,17.09,0,0,0,2.48,0c1.91,6.08,1.39,12.35.49,18.4-.57,3.89-4.43,1.72-6.94,1.71Z" transform="translate(-545.08 -324.12)"/><path class="cls-103" d="M964.55,509.13c5.27.87,6.74-1.48,6.27-6.53-.42-4.48.09-9.05.18-13.58h4a1.39,1.39,0,0,1,2,0,90.08,90.08,0,0,1,0,21.08C972.81,510.16,968.63,510.31,964.55,509.13Z" transform="translate(-545.08 -324.12)"/><path class="cls-104" d="M1002.86,549.07c2.25-2.62.77-5.73,1.11-8.6.56-4.74-1-9.63,1-14.28a4.51,4.51,0,0,1,3.06,1c1.09,1,2.06,2,2,3.72q-.19,7.95,0,15.9c.05,2.35-.91,3.37-3.19,3.29C1005.44,550.05,1004,550.05,1002.86,549.07Z" transform="translate(-545.08 -324.12)"/><path class="cls-105" d="M1190,515.08c.15-1.38-.68-1.57-1.79-1.54-4.48.15-9,.27-13.43.39a52.85,52.85,0,0,1,6.84-9c4.53-2.11,9-2.52,13.5.18A41.58,41.58,0,0,1,1190,515.08Z" transform="translate(-545.08 -324.12)"/><path class="cls-106" d="M943,723.1c-1.24,1.61.81,2,1.12,3-2.32,6.65-.76,13.53-1.31,20.28-.14,1.62,1.48,4.52-2.07,4.45-3.12-.06-1.74-2.69-1.76-4.15q-.21-11.73,0-23.45c0-1.48-1.29-3.92,1.84-4.16C944.45,718.83,941.65,722.1,943,723.1Z" transform="translate(-545.08 -324.12)"/><path class="cls-107" d="M644.28,671.32c0,3.82.11,7.64-.06,11.45-.06,1.5,1.19,4.13-2,4-3-.16-1.82-2.68-1.84-4.22-.11-7.8-.09-15.6,0-23.39,0-1.58-1-4.06,2.11-4,2.8.06,1.73,2.35,1.78,3.74C644.36,663,644.28,667.18,644.28,671.32Z" transform="translate(-545.08 -324.12)"/><path class="cls-108" d="M1288.56,735.2v13c0,1.35.11,2.71-1.89,2.78s-2-1.27-2-2.63q0-13.22,0-26.44c0-1.26-.31-2.8,1.79-2.8,2.35,0,2,1.67,2,3.15Z" transform="translate(-545.08 -324.12)"/><path class="cls-108" d="M893.79,735.17c0-4.33,0-8.65,0-13,0-1.38-.51-3.22,2-3.12,2,.09,1.85,1.47,1.85,2.84q0,13.22,0,26.43c0,1.49-.19,2.63-2.09,2.6-2.13,0-1.75-1.55-1.75-2.81C893.77,743.81,893.79,739.49,893.79,735.17Z" transform="translate(-545.08 -324.12)"/><path class="cls-109" d="M1201.33,671.26c0,4.31,0,8.62,0,12.93,0,1.43-.1,2.67-2,2.61s-2-1.32-2-2.73q0-13.19,0-26.36c0-1.5.22-2.63,2.09-2.62s1.92,1.38,1.92,2.74Q1201.32,664.55,1201.33,671.26Z" transform="translate(-545.08 -324.12)"/><path class="cls-22" d="M985.94,442.78c-1.94-3-.18-6.79-2.07-9.8a104.61,104.61,0,0,1,12-11.33c1.88,2.52.07,5.17.28,7.75C993,434.07,990,438.8,985.94,442.78Z" transform="translate(-545.08 -324.12)"/><path class="cls-110" d="M1100.07,591.94c2.86-1,.23-2.69.47-4,.3-1.75.4-3.54.58-5.31A101,101,0,0,1,1114,596c1.16,2.07,1.9,4.13,0,6.17Z" transform="translate(-545.08 -324.12)"/><path class="cls-111" d="M1195.11,505.06c-4.49-.95-9-.6-13.5-.18a39.92,39.92,0,0,1,6.09-8l11.58.21C1198.08,499.87,1197.06,502.71,1195.11,505.06Z" transform="translate(-545.08 -324.12)"/><path class="cls-112" d="M1108.87,563.44q.09-3.8.17-7.6c7.86,7.17,13.89,15.91,20.25,24.52Z" transform="translate(-545.08 -324.12)"/><path class="cls-113" d="M996.16,429.4c-3-2.48.39-5.19-.28-7.75l15.11-14.6c1-.18,1.42.1,1.08,1.14C1006.57,415.11,1002.19,422.87,996.16,429.4Z" transform="translate(-545.08 -324.12)"/><path class="cls-114" d="M1210,476.06a11.72,11.72,0,0,0-5.81-1l15.68-21.24,1.14.7C1217.24,461.64,1214.54,469.3,1210,476.06Z" transform="translate(-545.08 -324.12)"/><path class="cls-115" d="M1113.93,602.15c0-2.06,0-4.11,0-6.17a75,75,0,0,1,13.46,17.8Z" transform="translate(-545.08 -324.12)"/><path class="cls-107" d="M698.45,721.89c-.88-1.6-.08-2.34.56-3.37,1-1.6,3.75-3.34-.27-5.24-1.4-.67-1-3.74-.17-5.54.5-1.15,2.13-.81,3.2-.59,2.52.52,1.4,2.66,1.44,4.08C703.41,718,703.05,718.67,698.45,721.89Z" transform="translate(-545.08 -324.12)"/><path class="cls-116" d="M997.06,462.18c-.07-2.19-.13-4.38-.2-6.57l7.06-6.83c1.59,1.62.86,3.28.07,4.94C1001.56,456.44,1000.3,460.13,997.06,462.18Z" transform="translate(-545.08 -324.12)"/><path class="cls-117" d="M1004,453.72c0-1.65,0-3.29-.07-4.94l7.92-9.14,1.65,1.47A88.39,88.39,0,0,1,1004,453.72Z" transform="translate(-545.08 -324.12)"/><path class="cls-118" d="M734.08,706.24c-5.17,6.76-6.12,7.55-10,7.84C727.14,711.34,727.35,705.44,734.08,706.24Z" transform="translate(-545.08 -324.12)"/><path class="cls-119" d="M1134.12,597c.45,8.64-1,17.33.76,25.93,0,1-.35,1.86-2.06,2.35,1-11.25.07-22.27.32-33.31C1134.51,593.44,1133.73,595.32,1134.12,597Z" transform="translate(-545.08 -324.12)"/><path class="cls-120" d="M644.3,646c-.17,1.32.6,3.12-1.89,3.17-2.29,0-2.19-1.43-2.13-3s-.37-3.09,2-3.2S644.23,644.59,644.3,646Z" transform="translate(-545.08 -324.12)"/><path class="cls-121" d="M1201.35,645.77c0,1.94.25,3.52-2.09,3.42s-1.9-1.76-1.94-3.18-.12-3.07,2.15-3C1201.89,643.06,1201.18,644.89,1201.35,645.77Z" transform="translate(-545.08 -324.12)"/><path class="cls-122" d="M897.67,710c-.06,1.43.39,3.13-2,3.18-2,0-2-1.33-1.9-2.67s-.82-3.26,1.64-3.45C897.61,706.89,897.8,708.34,897.67,710Z" transform="translate(-545.08 -324.12)"/><path class="cls-122" d="M1288.6,710.32c.12,1.54,0,2.95-2.23,2.85s-1.68-1.68-1.65-2.9-.6-3.23,1.86-3.21S1288.62,708.73,1288.6,710.32Z" transform="translate(-545.08 -324.12)"/><path class="cls-102" d="M977,489l-2,0c-4.29-2.23-8.93-.3-13.35-1.12l2.17-1c5.32.75,10.82-.95,16.05,1.14C979.21,489.3,978,489,977,489Z" transform="translate(-545.08 -324.12)"/><path class="cls-123" d="M1326.91,516.07c-6.23,2-12.64.42-18.94.93l-.84-.87A136,136,0,0,1,1326.91,516.07Z" transform="translate(-545.08 -324.12)"/><path class="cls-124" d="M769.28,707.11c-.89,5.06-.29,10.17-.34,15.25,0,.76.37,1.79-.81,1.9-.74.08-1-.64-1-1.36,1.83-3.58.31-7.4.86-11.06C768.19,710.22,766.87,708.12,769.28,707.11Z" transform="translate(-545.08 -324.12)"/><path class="cls-125" d="M550,761.8c.06-4.57.09-9.15.19-13.73,0-1.18-.3-3.31,1.78-1-1.68,3.38-.31,7-.81,10.44C550.9,759,552,760.83,550,761.8Z" transform="translate(-545.08 -324.12)"/><path class="cls-126" d="M1259.09,449l-1.2,1.19-5.4-6.32C1256.13,444.8,1257.35,447.2,1259.09,449Z" transform="translate(-545.08 -324.12)"/><path class="cls-127" d="M1169.78,724.72c-.2.24-.39.67-.62.69-1.76.16-1.13-1.2-1.14-2,0-2,.35-4.34-3-3.43,2-1.83,3.46-1.82,4,1.24C1169.21,722.39,1168.38,723.81,1169.78,724.72Z" transform="translate(-545.08 -324.12)"/><path class="cls-128" d="M1012.07,408.19l-1.08-1.14c.72-.68,1.32-2.39,2.42-1.29C1014.25,406.6,1013,407.6,1012.07,408.19Z" transform="translate(-545.08 -324.12)"/><path class="cls-129" d="M1139,431c-1.08-17.23,13.3-32.92,32.07-32.6a32.53,32.53,0,0,1,32.08,32.58c.13,17.06-15.82,33.15-33.21,32.44C1155.66,462.79,1137.29,448.75,1139,431Z" transform="translate(-545.08 -324.12)"/><path class="cls-130" d="M550.64,734.9c0-8.07,3.13-12.48,9.27-13,7.28-.66,11.82,4,12.05,12.48s-3.74,13.82-10.13,14C554.8,748.55,550.65,743.56,550.64,734.9Z" transform="translate(-545.08 -324.12)"/><path class="cls-130" d="M1088.09,670.89A13.51,13.51,0,0,1,1085.2,681c-3.09,3.68-7.08,4.13-11.34,2.62-4.9-1.73-7.18-6.84-6.82-14.71.26-5.63,2.82-9.62,7.21-10.8,4.55-1.23,8.62-.53,11.52,3.62A13.33,13.33,0,0,1,1088.09,670.89Z" transform="translate(-545.08 -324.12)"/><path class="cls-131" d="M761.42,670.83a16.19,16.19,0,0,1-2.1,8.58c-2.05,3.54-5.29,5-9.17,4.92A9.11,9.11,0,0,1,741.8,679c-2.12-4-2.16-8.35-1.3-12.62,1.1-5.53,5.06-8.85,9.91-8.85,5.18,0,9.22,3.36,10.52,8.86A38.33,38.33,0,0,1,761.42,670.83Z" transform="translate(-545.08 -324.12)"/><path class="cls-130" d="M768.52,734.94c-.31,4.61-1,9-5.2,11.85-3.91,2.64-9.76,2-12.79-1.28-4.46-4.82-4.67-15.25-.42-20.39A10.27,10.27,0,0,1,762.77,723C767.31,725.7,768.19,730.22,768.52,734.94Z" transform="translate(-545.08 -324.12)"/><path class="cls-132" d="M852.11,670.34c.94,8.82-2.14,13.43-9.32,13.94-3.85.28-7.17-.93-8-5.07s2.16-5.89,5.7-6.65C844.34,671.74,848.23,671.08,852.11,670.34Z" transform="translate(-545.08 -324.12)"/><path class="cls-133" d="M952.94,670.28c.56,9.25-2.66,13.72-9.87,14-3.9.16-7.11-1.27-7.73-5.44-.58-4,2.31-5.57,5.66-6.3C944.88,671.72,948.8,671.06,952.94,670.28Z" transform="translate(-545.08 -324.12)"/><path class="cls-134" d="M863.68,734.34c2.08,9.17-4.11,14.6-11.37,14-3.29-.28-5.7-1.78-6.2-5.3s1.62-5.3,4.61-6C855,735.94,859.36,735.21,863.68,734.34Z" transform="translate(-545.08 -324.12)"/><path class="cls-133" d="M1075.64,748.38c-3,0-6.08-1.11-6.84-5.08s1.89-5.7,5.22-6.54c2.23-.56,4.52-.87,6.8-1.21,1.87-.28,4.66-1.91,5.4-.67,1.28,2.16.74,5.15-.43,7.61C1083.89,746.48,1080.53,748.23,1075.64,748.38Z" transform="translate(-545.08 -324.12)"/><path class="cls-134" d="M1254.65,734.39c2.4,9.84-4.81,14.61-11.46,13.92-3.18-.33-5.36-1.93-6-5.09-.64-3.43,1.42-5.42,4.44-6.18C1246,736,1250.33,735.25,1254.65,734.39Z" transform="translate(-545.08 -324.12)"/><path class="cls-132" d="M785.3,657.52c4.72,0,9.27,4.33,9.73,9,.18,1.82-.5,2.31-2.17,2.29-5.29,0-10.57,0-15.86,0-1.46,0-2-.44-1.88-2C775.63,662,780.58,657.47,785.3,657.52Z" transform="translate(-545.08 -324.12)"/><path class="cls-132" d="M1221,668.78h-5c-5.29,0-5.65-.71-3.09-5.6,2.06-3.95,5.25-6,9.7-5.53s7,3.43,8.4,7.49c.77,2.26.63,3.91-2.53,3.67C1226,668.63,1223.46,668.78,1221,668.78Z" transform="translate(-545.08 -324.12)"/><path class="cls-135" d="M1001,732.83c-1.5,0-3,.11-4.49,0-1.74-.16-4.11,1-5.1-.65-1.1-1.81.61-3.79,1.54-5.47,2.16-3.92,5.63-5.47,10-4.77s6.39,3.73,7.71,7.55c.91,2.66,0,3.62-2.73,3.41C1005.65,732.69,1003.32,732.83,1001,732.83Z" transform="translate(-545.08 -324.12)"/><path class="cls-132" d="M724.86,732.83h-4.5c-5.92,0-6.29-.68-3.3-6,2.33-4.12,5.9-5.74,10.5-4.89,4.3.8,6.31,3.94,7.47,7.83.58,2,.35,3.2-2.18,3.07S727.52,732.83,724.86,732.83Z" transform="translate(-545.08 -324.12)"/><path class="cls-131" d="M1053.8,671.14c-.12,7.55-5.11,13.36-11.37,13.22s-11-5.94-10.88-13.59,4.89-13.33,11.26-13.23S1053.91,663.68,1053.8,671.14Z" transform="translate(-545.08 -324.12)"/><path class="cls-131" d="M1155.17,671.08a13.4,13.4,0,0,1-2.86,9.27,10.08,10.08,0,0,1-15.93.2c-4.25-5.25-4.19-14.23.2-19.38a9.53,9.53,0,0,1,10.28-3.24c5,1.29,7.08,5.09,8.11,9.68A21,21,0,0,1,1155.17,671.08Z" transform="translate(-545.08 -324.12)"/><path class="cls-130" d="M929.17,735.1c0,7.93-4.55,13.35-11.11,13.26s-11-5.82-10.86-13.6,4.63-13,10.94-13C924.75,721.76,929.19,727.11,929.17,735.1Z" transform="translate(-545.08 -324.12)"/><path class="cls-136" d="M1320.39,735c0,7.81-4.5,13.36-11,13.39s-11.13-5.48-11.17-13.23,4.56-13.32,11-13.36S1320.35,727.15,1320.39,735Z" transform="translate(-545.08 -324.12)"/><path class="cls-130" d="M584,735c0-7.89,4.53-13.23,11.08-13.19s11.05,5.66,11,13.38-4.69,13.23-11.18,13.21S583.94,742.82,584,735Z" transform="translate(-545.08 -324.12)"/><path class="cls-131" d="M1155.06,734.36c.28,4.12-.56,7.24-2.67,10a10,10,0,0,1-16.47-.4,15.3,15.3,0,0,1-2-13.27c1.78-6.17,5.61-9.26,11.37-8.86,5.14.36,9.24,4.85,9.79,10.75A12.87,12.87,0,0,1,1155.06,734.36Z" transform="translate(-545.08 -324.12)"/><path class="cls-137" d="M1170.5,401.06a29.24,29.24,0,0,1,30.28,30.15c-.23,17.05-12.8,29.43-29.77,29.75-16.59.32-29.83-13.41-30.1-30C1140.65,415.56,1154.54,400.08,1170.5,401.06Z" transform="translate(-545.08 -324.12)"/><path class="cls-138" d="M1198,431c1.25,14.24-12,28.08-26.58,27.69-17.76-.48-28.24-11.76-28.06-28.36.17-16.18,11.85-26.94,27.32-27.16C1185.78,403,1198.74,415,1198,431Z" transform="translate(-545.08 -324.12)"/><path class="cls-139" d="M1195,431.32c1.6,11.07-10.72,24.67-24.77,24.06-12.08-.53-24.09-10.47-24-24.29.13-14.19,10.92-24.74,24.9-25.08C1182,405.75,1196.91,417.24,1195,431.32Z" transform="translate(-545.08 -324.12)"/><path class="cls-140" d="M1150,430.61c-1.06-10.32,9.17-21.46,21.65-20.7,11.35.69,20.37,9.51,20.34,21.27s-9.42,20.6-21.36,21C1161.5,452.42,1148.41,442.43,1150,430.61Z" transform="translate(-545.08 -324.12)"/><path class="cls-141" d="M1152,431c0-11,8.12-19.4,18.57-19.36a19.29,19.29,0,0,1,19.46,19.6c0,8.27-8.35,19.38-19.27,18.92C1160.35,449.7,1152,441.58,1152,431Z" transform="translate(-545.08 -324.12)"/><path class="cls-142" d="M1171.21,414.05c8.73,0,17,7.8,16.66,16.36-.36,9.15-6.14,17.61-18.13,17.61-8.09,0-15.71-8.2-15.77-16.82C1153.9,421.07,1161,414,1171.21,414.05Z" transform="translate(-545.08 -324.12)"/><path class="cls-143" d="M1171.45,416.05c7.13,0,14.76,7.47,14.3,14.56-.6,9.35-6.76,14.65-14.22,15-8.22.43-15.7-7-15.55-14.8A15.34,15.34,0,0,1,1171.45,416.05Z" transform="translate(-545.08 -324.12)"/><path class="cls-144" d="M1182.51,430.31a12.44,12.44,0,0,1-11.84,12.17c-5.68.13-11.54-5.58-11.64-11.34a12.1,12.1,0,0,1,12.13-12.08C1177,419,1182.41,424.31,1182.51,430.31Z" transform="translate(-545.08 -324.12)"/><path class="cls-145" d="M1179.37,431.08c-.13,3.82-4.4,8.23-8,8.2a8.84,8.84,0,0,1-8.87-8.73c.08-4.65,4.13-8.63,8.59-8.45C1175.26,422.26,1179.51,426.89,1179.37,431.08Z" transform="translate(-545.08 -324.12)"/><path class="cls-135" d="M1170.25,426c4.61.22,5.69,2.66,5.57,5.42-.14,3.07-2.31,4.78-5.34,4.57a4.92,4.92,0,0,1-4.7-5.19C1165.83,427.6,1167.88,425.66,1170.25,426Z" transform="translate(-545.08 -324.12)"/></svg>