<svg id="Calque_1" data-name="Calque 1" xmlns="http://www.w3.org/2000/svg" viewBox="0 0 29.16 14.96"><defs><style>.cls-1{fill:#0075b5;}.cls-2{fill:#c00;}.cls-3{fill:#a9a9a9;}.cls-4{fill:#182672;}.cls-5{fill:#005ba7;}.cls-6{fill:#c60000;}.cls-7{fill:#fede00;}.cls-8{fill:#056e28;}.cls-9{fill:#feb901;}.cls-10{fill:#15226d;}.cls-11{fill:#06762f;}.cls-12{fill:#12206c;}.cls-13{fill:#fed500;}.cls-14{fill:#0066ad;}.cls-15{fill:#fed900;}.cls-16{fill:#febc00;}.cls-17{fill:#fec101;}.cls-18{fill:#17256f;}.cls-19{fill:#14226d;}.cls-20{fill:#15236d;}.cls-21{fill:#28b77b;}.cls-22{fill:#263888;}.cls-23{fill:#c30101;}.cls-24{fill:#fecf00;}.cls-25{fill:#33499a;}.cls-26{fill:#16246e;}.cls-27{fill:#22b172;}.cls-28{fill:#15a15a;}.cls-29{fill:#fec900;}.cls-30{fill:#d60000;}.cls-31{fill:#15236e;}.cls-32{fill:#19a662;}.cls-33{fill:#1eab6a;}.cls-34{fill:#3e53a2;}.cls-35{fill:#0e1b64;}.cls-36{fill:#01c1dd;}.cls-37{fill:#fee301;}.cls-38{fill:#30bf87;}.cls-39{fill:#e30000;}.cls-40{fill:#109c53;}.cls-41{fill:#16236e;}.cls-42{fill:#e80101;}.cls-43{fill:#192670;}.cls-44{fill:#ed0101;}.cls-45{fill:#d10000;}.cls-46{fill:#18256f;}.cls-47{fill:#0e974d;}.cls-48{fill:#f10101;}.cls-49{fill:#2c4092;}.cls-50{fill:#fec400;}.cls-51{fill:#da0101;}.cls-52{fill:#de0101;}.cls-53{fill:#d10101;}.cls-54{fill:#fec901;}.cls-55{fill:#0a853c;}.cls-56{fill:#d70202;}.cls-57{fill:#06732c;}.cls-58{fill:#077b33;}.cls-59{fill:#1e2b73;}.cls-60{fill:#627abc;}.cls-61{fill:#00a0cc;}.cls-62{fill:#fee601;}.cls-63{fill:#046923;}.cls-64{fill:#465da8;}.cls-65{fill:#014ea0;}.cls-66{fill:#01b0d4;}.cls-67{fill:#192770;}.cls-68{fill:#0d9249;}.cls-69{fill:#087b33;}.cls-70{fill:#536ab1;}.cls-71{fill:#0c8a41;}.cls-72{fill:#213381;}.cls-73{fill:#f60201;}.cls-74{fill:#0b853d;}.cls-75{fill:#098038;}.cls-76{fill:#1b2a78;}.cls-77{fill:#5a71b7;}.cls-78{fill:#0e924a;}.cls-79{fill:#4c63ad;}.cls-80{fill:#04651f;}.cls-81{fill:#0194c5;}.cls-82{fill:#006db1;}.cls-83{fill:#01a9d0;}.cls-84{fill:#017fba;}.cls-85{fill:#0175b6;}.cls-86{fill:#019ac8;}.cls-87{fill:#0d8e44;}.cls-88{fill:#1a2871;}.cls-89{fill:#1a2770;}.cls-90{fill:#1b2871;}.cls-91{fill:#233077;}.cls-92{fill:#01b7d8;}.cls-93{fill:#01cde4;}.cls-94{fill:#0280bb;}.cls-95{fill:#028ac1;}.cls-96{fill:#17246f;}.cls-97{fill:#0179b7;}.cls-98{fill:#0085bd;}.cls-99{fill:#1e2e7d;}.cls-100{fill:#027bb8;}.cls-101{fill:#fed003;}.cls-102{fill:#1d2f7d;}.cls-103{fill:#203280;}.cls-104{fill:#018fc3;}.cls-105{fill:#0c8a42;}.cls-106{fill:#182670;}.cls-107{fill:#212e75;}.cls-108{fill:#253278;}.cls-109{fill:#263278;}.cls-110{fill:#02d5e8;}.cls-111{fill:#0d8e45;}.cls-112{fill:#6d83c2;}.cls-113{fill:#2e4292;}.cls-114{fill:#119950;}.cls-115{fill:#08dced;}.cls-116{fill:#0587bf;}.cls-117{fill:#068ec3;}.cls-118{fill:#2d3a7d;}.cls-119{fill:#32834a;}.cls-120{fill:#29357a;}.cls-121{fill:#2f3b7e;}.cls-122{fill:#323e7f;}.cls-123{fill:#fedc03;}.cls-124{fill:#b3b8d0;}.cls-125{fill:#989ebf;}.cls-126{fill:#fede25;}.cls-127{fill:#828ab2;}.cls-128{fill:#465aa3;}.cls-129{fill:#b2b2b2;}.cls-130{fill:#fefefe;}.cls-131{fill:#fdfefe;}.cls-132{fill:#fbfbfc;}.cls-133{fill:#fcfcfd;}.cls-134{fill:#fdfdfd;}.cls-135{fill:#fcfcfc;}.cls-136{fill:#fdfdfe;}.cls-137{fill:#b9b9b9;}.cls-138{fill:silver;}.cls-139{fill:#cacaca;}.cls-140{fill:#d1d1d1;}.cls-141{fill:#d7d7d7;}.cls-142{fill:#ddd;}.cls-143{fill:#e4e4e4;}.cls-144{fill:#ececec;}.cls-145{fill:#f3f3f3;}</style></defs><path class="cls-1" d="M47.79,28.64h.63c.12,0,.15,0,.15.14,0,.76,0,1.51,0,2.27,0,1,0,1.91,0,2.87,0,.12,0,.16-.16.16s-.41,0-.62,0Z" transform="translate(-47.79 -24.1)"/><path class="cls-1" d="M53.21,31.36V28.8c0-.13,0-.16.16-.16h2.75c.11,0,.17,0,.16.15a1.77,1.77,0,0,0,0,.46c0,.12,0,.15-.16.15h-2c-.14,0-.17,0-.17.17,0,.71,0,1.41,0,2.12,0,.14,0,.18.18.18H55.6c.11,0,.15,0,.15.15a3.68,3.68,0,0,0,0,.47c0,.12,0,.14-.15.14H54.14c-.12,0-.17,0-.16.14a3.38,3.38,0,0,1,0,.45c0,.1,0,.13.14.13h2c.16,0,.2,0,.19.19a3.53,3.53,0,0,0,0,.46c0,.08,0,.11-.11.11H53.32c-.13,0-.11-.07-.11-.14Z" transform="translate(-47.79 -24.1)"/><path class="cls-1" d="M49.27,31.36V28.8c0-.13,0-.16.16-.16h2.89c.11,0,.16,0,.15.14a3.69,3.69,0,0,0,0,.47c0,.12,0,.15-.15.15H50.24c-.14,0-.17,0-.16.17v2.13c0,.13,0,.17.16.17h1.35c.12,0,.15,0,.14.14a3.09,3.09,0,0,0,0,.43c0,.14,0,.19-.18.19H50.23c-.12,0-.16,0-.15.15,0,.39,0,.78,0,1.16,0,.14,0,.17-.17.17h-.48c-.13,0-.17,0-.16-.16Z" transform="translate(-47.79 -24.1)"/><path class="cls-1" d="M57,31.34c0-.85,0-1.69,0-2.54,0-.13,0-.16.17-.16H60c.12,0,.17,0,.16.15a3.84,3.84,0,0,0,0,.48c0,.1,0,.13-.14.13H57.93c-.16,0-.19.05-.19.19,0,.71,0,1.41,0,2.12,0,.12,0,.16.17.16h1.46c.11,0,.15,0,.14.15a3.23,3.23,0,0,0,0,.44c0,.13,0,.17-.17.17H57.9c-.13,0-.16,0-.16.15,0,.39,0,.77,0,1.15,0,.16,0,.19-.19.18h-.43c-.13,0-.16,0-.16-.16C57,33.06,57,32.2,57,31.34Z" transform="translate(-47.79 -24.1)"/><path class="cls-2" d="M74.5,28.64c.22.19.44.38.64.58,0,.42,0,.84,0,1.26,0,.08,0,.13-.13.12s-.22,0-.27,0,.25,0,.4,0,.25-.07.33.06h0c0,.05-.1,0-.15.05a2.21,2.21,0,0,1-.68-.05h-.15c-.09-.13,0-.28,0-.42s0-.22-.22-.25-.08,0-.1-.1a.75.75,0,0,1,.49,0L75,30l-.5-.68a1.11,1.11,0,0,1,0-.54A.08.08,0,0,1,74.5,28.64Z" transform="translate(-47.79 -24.1)"/><path class="cls-3" d="M69.82,26.53a1.24,1.24,0,0,1,1.25,1.23,1.26,1.26,0,1,1-1.25-1.23Z" transform="translate(-47.79 -24.1)"/><path class="cls-4" d="M61.72,29.21a4,4,0,0,1,.43-.39c.06,0,.07,0,.07.08a1.64,1.64,0,0,1,0,.73s0,.05,0,.09l.31,0a.73.73,0,0,1,.33,0s.12,0,.15.06-.09.06-.14.06c-.24,0-.24,0-.24.25s0,.27,0,.4h0a1.4,1.4,0,0,1-.54,0c-.33-.11-.26-.15-.26-.43s0-.4,0-.6A.83.83,0,0,1,61.72,29.21Z" transform="translate(-47.79 -24.1)"/><path class="cls-5" d="M61.9,31.61l-.91.07a2.57,2.57,0,0,0,0-.48.18.18,0,0,1,0-.14l.48-.46c0-.05.11-.07.12-.14l0,0h.16a.09.09,0,0,1,.09.12c0,.32,0,.65,0,1A0,0,0,0,1,61.9,31.61Z" transform="translate(-47.79 -24.1)"/><path class="cls-6" d="M75.48,30.65a2.48,2.48,0,0,0-.61,0,.83.83,0,0,1-.22,0l.37,0c.07,0,.08,0,.08-.09a3,3,0,0,1,0-.67,1.63,1.63,0,0,0,0-.37c0-.08,0-.16,0-.23a7.93,7.93,0,0,1,.67.62,4.42,4.42,0,0,1,0,.73s0,.08-.06.09Z" transform="translate(-47.79 -24.1)"/><path class="cls-7" d="M70.76,32.29a5.33,5.33,0,0,1,.92-.55c.07.06,0,.15.06.22a2.57,2.57,0,0,0,0,.48l-1,.44A.71.71,0,0,1,70.76,32.29Z" transform="translate(-47.79 -24.1)"/><path class="cls-8" d="M69.47,32.55a3,3,0,0,1-.25.47,2,2,0,0,0-.54,0,.18.18,0,0,1-.2-.13,1.17,1.17,0,0,1,0-.37c0-.2,0-.22.19-.23h.78c.1,0,.18,0,.1.14S69.49,32.51,69.47,32.55Z" transform="translate(-47.79 -24.1)"/><path class="cls-9" d="M75.69,30.93c.24.18.46.41.68.61s.36.33.59.54a9.38,9.38,0,0,0-1.3-.23.16.16,0,0,1,0-.14c0-.21,0-.43,0-.64C75.61,31,75.61,31,75.69,30.93Z" transform="translate(-47.79 -24.1)"/><path class="cls-10" d="M71.1,37.76a.43.43,0,0,1,.29-.18c.26,0,.41.08.42.32s0,.47,0,.7c0,0,0,.09-.08.09s-.06-.06-.06-.1V38c0-.14,0-.25-.2-.27s-.29,0-.33.21a2.92,2.92,0,0,0,0,.66s0,.12-.07.12-.07-.07-.07-.12V38c0-.13,0-.25-.18-.28a.32.32,0,0,0-.35.19.56.56,0,0,0,0,.22v.51s0,.08-.07.08-.07,0-.07-.07v-.94s0-.08.06-.08,0,.1.09.15a.41.41,0,0,1,.34-.17A.36.36,0,0,1,71.1,37.76Z" transform="translate(-47.79 -24.1)"/><path class="cls-11" d="M69.86,31.76s0,0,0,0a.44.44,0,0,1-.25.44.3.3,0,0,0-.24-.09c-.32,0-.64,0-1,0a.51.51,0,0,1,0-.27c0-.18,0-.19.16-.2a1.13,1.13,0,0,0,.26,0c.11,0,.16.07.25.09l0,0a.2.2,0,0,1,.15-.06h.52C69.8,31.67,69.87,31.67,69.86,31.76Z" transform="translate(-47.79 -24.1)"/><path class="cls-12" d="M61.65,30.45h0a3.46,3.46,0,0,0-.56,0,.49.49,0,0,0,.18-.36c0-.09,0-.16-.06-.23a.12.12,0,0,1,0-.16c.18-.18.36-.35.56-.52a2.37,2.37,0,0,1,0,.46s-.06.13.05.15a0,0,0,0,1,0,0l0,0c-.12.1,0,.24-.06.36s.11.1.16.17A.31.31,0,0,1,61.65,30.45Z" transform="translate(-47.79 -24.1)"/><path class="cls-13" d="M73,32.06l-.56.14a.06.06,0,0,1-.07,0h0a1.32,1.32,0,0,1,0-.71,3,3,0,0,1,.67-.19,1.7,1.7,0,0,1,0,.71C73.09,32,73,32,73,32.06Z" transform="translate(-47.79 -24.1)"/><path class="cls-14" d="M61.65,30.45a.72.72,0,0,1,.25,0h.6a4.23,4.23,0,0,1-.33.41s0,.05,0,.07.18.08.17.21,0,.33,0,.49H61.9c0-.21,0-.43,0-.64a1.24,1.24,0,0,1,0-.43c0-.05,0-.05-.07-.05S61.69,30.51,61.65,30.45Z" transform="translate(-47.79 -24.1)"/><path class="cls-15" d="M72.39,31.44v.61c0,.05,0,.11,0,.15l-.68.24c-.09,0-.07-.11-.06-.17a4.69,4.69,0,0,0,0-.53A4.09,4.09,0,0,1,72.39,31.44Z" transform="translate(-47.79 -24.1)"/><path class="cls-16" d="M75.69,30.93a1.82,1.82,0,0,0,0,.57c0,.12,0,.23,0,.35h-.11c-.13,0-.28,0-.41-.05a3.65,3.65,0,0,1,0-1c0-.13.13-.15.35-.08A.8.8,0,0,1,75.69,30.93Z" transform="translate(-47.79 -24.1)"/><path class="cls-17" d="M75.48,30.73c-.38,0-.31,0-.31.29s0,.53,0,.8a2.13,2.13,0,0,1-.44,0s-.09,0-.09-.07h0a1.2,1.2,0,0,1,0-.65l.29,0-.32-.45a3.85,3.85,0,0,1,.48,0c.06,0,.13,0,.19,0h.13Z" transform="translate(-47.79 -24.1)"/><path class="cls-18" d="M48,39.06c-.11,0-.12,0-.12-.12,0-.4,0-.8,0-1.2,0-.05-.05-.14.06-.14s0,.1.08.16a.5.5,0,0,1,.45-.18.44.44,0,0,1,.36.24.68.68,0,0,1,0,.62.46.46,0,0,1-.78.11c-.07,0,0,.06,0,.1A1.93,1.93,0,0,1,48,39.06Z" transform="translate(-47.79 -24.1)"/><path class="cls-19" d="M66.16,36.35v.42c0,.06,0,.13-.08.12s-.06-.08-.06-.13c0-.4,0-.8,0-1.21,0,0,0-.14.06-.13s0,.09.08.15a.49.49,0,0,1,.74,0,.68.68,0,0,1,0,.86C66.69,36.58,66.43,36.57,66.16,36.35Z" transform="translate(-47.79 -24.1)"/><path class="cls-20" d="M55.4,35.59v-.48s0-.11.07-.11.07.06.07.11v1.24s0,.13,0,.14-.05-.1-.08-.16a.53.53,0,0,1-.45.19.43.43,0,0,1-.32-.17.65.65,0,0,1,.08-.87A.47.47,0,0,1,55.4,35.59Z" transform="translate(-47.79 -24.1)"/><path class="cls-21" d="M66.44,25.67a7,7,0,0,1,.74.89c-.2,0-.39.11-.6,0L66,25.68c0-.05,0-.05.06-.05s.08,0,.1,0,.14,0,.2,0Z" transform="translate(-47.79 -24.1)"/><path class="cls-22" d="M63.51,30.53a3,3,0,0,1-.52-.07,3.47,3.47,0,0,1,0-.72.16.16,0,0,1,.11,0s0,0,.07,0l.43,0s.09,0,.09.1,0,.36,0,.53S63.64,30.55,63.51,30.53Z" transform="translate(-47.79 -24.1)"/><path class="cls-23" d="M75.76,30.66a6.26,6.26,0,0,0,0-.75s0-.06,0-.07l1.1,1,0,0C76.51,30.76,76.13,30.74,75.76,30.66Z" transform="translate(-47.79 -24.1)"/><path class="cls-24" d="M73,32.06a.23.23,0,0,0,.08-.18c0-.21,0-.42,0-.63a2.36,2.36,0,0,1,.59-.11.12.12,0,0,1,0,.1v.58a.16.16,0,0,1,0,.11Z" transform="translate(-47.79 -24.1)"/><path class="cls-25" d="M64.05,29.84a2.7,2.7,0,0,1,.6.17.2.2,0,0,1,.08.21,3.11,3.11,0,0,0,0,.53.07.07,0,0,1,0,.05l-.63-.17a4.29,4.29,0,0,0,0-.72A.06.06,0,0,1,64.05,29.84Z" transform="translate(-47.79 -24.1)"/><path class="cls-20" d="M55.68,37.19c.07,0,.11,0,.11.09,0,.44,0,.87,0,1.31,0,0,0,.1-.07.09s0-.1-.07-.15a.52.52,0,0,1-.43.18.57.57,0,0,1-.42-.8.47.47,0,0,1,.81-.18c.1,0,0-.08,0-.11A1.55,1.55,0,0,1,55.68,37.19Z" transform="translate(-47.79 -24.1)"/><path class="cls-26" d="M58.61,36.32a.47.47,0,0,1-.54.18.28.28,0,0,1-.22-.27.27.27,0,0,1,.2-.3,2.79,2.79,0,0,1,.4-.07c.09,0,.16,0,.16-.14a.2.2,0,0,0-.14-.21.32.32,0,0,0-.43.18c0,.06-.06.07-.11.05s0-.07,0-.11a.45.45,0,0,1,.49-.25c.23,0,.34.12.35.33s0,.35,0,.53,0,.11,0,.13.1,0,.07.09-.09,0-.13,0S58.63,36.41,58.61,36.32Z" transform="translate(-47.79 -24.1)"/><path class="cls-27" d="M66.58,26.6c.2,0,.4-.13.6,0a4.3,4.3,0,0,1,.47.65s-.07,0-.1,0-.08-.05-.08,0-.06.09-.12,0-.1-.08-.17,0a.07.07,0,0,1-.11,0c-.06,0-.12-.05-.17-.09Z" transform="translate(-47.79 -24.1)"/><path class="cls-28" d="M67.59,28.86l-.2-.52c0-.1,0-.1.09-.1a2.36,2.36,0,0,1,.75,0,2.83,2.83,0,0,1,.21.55,1,1,0,0,1-.34,0A2.18,2.18,0,0,0,67.59,28.86Z" transform="translate(-47.79 -24.1)"/><path class="cls-29" d="M73.65,31.93v-.79a2,2,0,0,1,.6,0,1.16,1.16,0,0,1,0,.76Z" transform="translate(-47.79 -24.1)"/><path class="cls-30" d="M73.94,30.7l-.6.09a1.8,1.8,0,0,1,0-.8A4.48,4.48,0,0,1,74,29.9h0c-.11.17,0,.35-.06.53S74,30.62,73.94,30.7Z" transform="translate(-47.79 -24.1)"/><path class="cls-31" d="M62.18,36.29a.48.48,0,0,1-.56.21.3.3,0,0,1-.24-.28.28.28,0,0,1,.23-.29,2.41,2.41,0,0,1,.37-.07c.09,0,.17,0,.17-.13a.19.19,0,0,0-.15-.22.32.32,0,0,0-.42.17s0,.08-.1.06,0-.07,0-.11a.46.46,0,0,1,.51-.25.33.33,0,0,1,.33.35v.46c0,.08,0,.17.1.2s0,0,0,0h0a.08.08,0,0,1-.07.05C62.24,36.5,62.16,36.46,62.18,36.29Z" transform="translate(-47.79 -24.1)"/><path class="cls-32" d="M68.23,28.27h-.68c-.07,0-.13,0-.16.07l-.22-.53a.07.07,0,0,1,.08-.09,5,5,0,0,1,.67,0l.06,0A2.76,2.76,0,0,1,68.23,28.27Z" transform="translate(-47.79 -24.1)"/><path class="cls-20" d="M59,38.49a.46.46,0,0,1-.54.2.28.28,0,0,1-.24-.28.29.29,0,0,1,.2-.29,1.87,1.87,0,0,1,.4-.07c.09,0,.18,0,.17-.15a.2.2,0,0,0-.18-.21c-.17,0-.34,0-.39.19,0,.06-.06.06-.11,0s0-.06,0-.09c0-.2.24-.29.53-.26a.31.31,0,0,1,.31.34c0,.14,0,.29,0,.44s0,.19.1.22,0,0,0,.06,0,0-.06,0S59,38.64,59,38.49Z" transform="translate(-47.79 -24.1)"/><path class="cls-31" d="M66.85,38.51a.48.48,0,0,1-.55.18.27.27,0,0,1-.22-.27.26.26,0,0,1,.19-.29,1.34,1.34,0,0,1,.39-.07c.1,0,.2,0,.19-.16a.19.19,0,0,0-.19-.2c-.17,0-.34,0-.39.19s-.07,0-.11,0,0,0,0-.08.21-.28.46-.27.37.09.38.31,0,.35,0,.52,0,.14.06.16.07,0,0,.08,0,0-.09,0S66.87,38.62,66.85,38.51Z" transform="translate(-47.79 -24.1)"/><path class="cls-19" d="M72.78,38.5a.45.45,0,0,1-.53.19.27.27,0,0,1-.24-.28.28.28,0,0,1,.21-.29,1.59,1.59,0,0,1,.38-.06c.1,0,.19,0,.18-.17a.2.2,0,0,0-.19-.19c-.21,0-.3,0-.39.18a.07.07,0,0,1-.1,0h0c-.06,0,0-.06,0-.09.05-.19.24-.28.51-.26s.32.12.33.32,0,.32,0,.48,0,.18.1.2a0,0,0,0,1,0,.06.08.08,0,0,1-.07,0C72.86,38.7,72.8,38.64,72.78,38.5Z" transform="translate(-47.79 -24.1)"/><path class="cls-20" d="M56.29,36H56c-.17,0-.17.06-.12.18a.34.34,0,0,0,.3.24.33.33,0,0,0,.35-.18c0-.06.06-.11.13-.08s0,.1,0,.14a.45.45,0,0,1-.46.24.48.48,0,0,1-.43-.33.77.77,0,0,1,0-.45.49.49,0,0,1,.54-.37.52.52,0,0,1,.42.54c0,.06,0,.07-.09.07Z" transform="translate(-47.79 -24.1)"/><path class="cls-20" d="M71.65,36h-.26c-.14,0-.18,0-.13.15a.35.35,0,0,0,.29.27.32.32,0,0,0,.36-.18s0-.11.12-.08,0,.1,0,.14a.51.51,0,0,1-.67.18.58.58,0,0,1-.26-.62.48.48,0,0,1,.42-.46.5.5,0,0,1,.57.54c0,.06,0,.06-.09.06Z" transform="translate(-47.79 -24.1)"/><path class="cls-33" d="M68,27.76l-.75,0s0,0-.06.06a4.47,4.47,0,0,1-.27-.59c.1-.05.15,0,.21.08s0-.14.1-.13.15,0,.21.16c0-.21.12-.16.23-.12A3.92,3.92,0,0,1,68,27.76Z" transform="translate(-47.79 -24.1)"/><path class="cls-34" d="M64.68,30.8c0-.19,0-.39,0-.58a.52.52,0,0,0,0-.21,2.81,2.81,0,0,1,.59.24c.05.08,0,.17,0,.25a.71.71,0,0,0,.06.38.07.07,0,0,1,0,.11h0Z" transform="translate(-47.79 -24.1)"/><path class="cls-19" d="M64.32,38.35a.44.44,0,0,1-.5.36.45.45,0,0,1-.45-.39.74.74,0,0,1,0-.44.48.48,0,0,1,.58-.29.51.51,0,0,1,.36.51c0,.07,0,.07-.1.07H63.6c-.12,0-.13,0-.11.13s.12.27.29.29a.32.32,0,0,0,.38-.17C64.19,38.34,64.24,38.31,64.32,38.35Z" transform="translate(-47.79 -24.1)"/><path class="cls-18" d="M67.39,35.58a.49.49,0,0,1,.35-.2.35.35,0,0,1,.41.34c0,.23,0,.46,0,.69,0,.05,0,.09-.08.09s-.06,0-.06-.1v-.56c0-.24-.09-.34-.27-.34a.33.33,0,0,0-.36.33c0,.18,0,.36,0,.54s0,.13-.07.13-.06-.08-.07-.13V35.12s0-.12.08-.12.06.07.06.12Z" transform="translate(-47.79 -24.1)"/><path class="cls-19" d="M54.18,38.17H54c-.2,0-.22,0-.15.2a.35.35,0,0,0,.3.23.3.3,0,0,0,.34-.19c0-.06.07-.1.14-.07s0,.09,0,.13a.4.4,0,0,1-.4.24.41.41,0,0,1-.43-.21.66.66,0,0,1,0-.65.47.47,0,0,1,.58-.26.55.55,0,0,1,.34.51c0,.07,0,.07-.09.07Z" transform="translate(-47.79 -24.1)"/><path class="cls-35" d="M61.16,29.73s0,.08,0,.1c.19.15.08.34.06.52s-.13.07-.18.13l-.91.17Z" transform="translate(-47.79 -24.1)"/><path class="cls-36" d="M66.9,33l-.82-.44a4.17,4.17,0,0,1,0-.61,5.23,5.23,0,0,1,.75.56A1,1,0,0,1,66.9,33Z" transform="translate(-47.79 -24.1)"/><path class="cls-37" d="M70.76,32.29c0,.2,0,.39,0,.59l-.78.44c-.1,0-.07-.09-.08-.15a1.2,1.2,0,0,1,0-.19A5.58,5.58,0,0,1,70.76,32.29Z" transform="translate(-47.79 -24.1)"/><path class="cls-26" d="M60.13,35h.39s.1,0,.09.06,0,.06-.1.06-.41,0-.61,0-.11,0-.11.11c0,.43,0,.43.42.43h.23s.08,0,.09.06-.05.06-.09.06h-.53c-.09,0-.13,0-.12.12s0,.32,0,.49,0,.11-.07.11-.08-.06-.08-.11V35.1c0-.07,0-.1.1-.1Z" transform="translate(-47.79 -24.1)"/><path class="cls-38" d="M66.44,25.67c-.13.1-.1-.11-.2-.06s-.17,0-.23.07c-.34-.43-.66-.88-1-1.28a1.76,1.76,0,0,1-.24-.3A12.08,12.08,0,0,1,66.44,25.67Z" transform="translate(-47.79 -24.1)"/><path class="cls-39" d="M72.53,31l-.49.15c-.06,0-.08,0-.08-.07a1.34,1.34,0,0,1,0-.66,1.87,1.87,0,0,1,.53-.2.13.13,0,0,1,0,.13A1.77,1.77,0,0,1,72.53,31Z" transform="translate(-47.79 -24.1)"/><path class="cls-40" d="M67.59,28.86c0-.05,0-.06.11-.06.25,0,.5,0,.74,0a2.41,2.41,0,0,1,.16.45.25.25,0,0,1-.15,0,2.11,2.11,0,0,1-.71,0A1.93,1.93,0,0,1,67.59,28.86Z" transform="translate(-47.79 -24.1)"/><path class="cls-41" d="M65.82,36a.52.52,0,0,1-.53.56.53.53,0,0,1-.51-.61.52.52,0,0,1,.53-.54A.53.53,0,0,1,65.82,36Z" transform="translate(-47.79 -24.1)"/><path class="cls-42" d="M72,30.41c0,.19,0,.38,0,.57s0,.12,0,.16l-.57.22a1.05,1.05,0,0,1,0-.7A2.08,2.08,0,0,1,72,30.41Z" transform="translate(-47.79 -24.1)"/><path class="cls-31" d="M69.4,36a.53.53,0,0,1-.52.57.58.58,0,0,1,0-1.15A.53.53,0,0,1,69.4,36Z" transform="translate(-47.79 -24.1)"/><path class="cls-31" d="M61.44,38.14a.51.51,0,0,1-.51.57.57.57,0,0,1,0-1.13A.51.51,0,0,1,61.44,38.14Z" transform="translate(-47.79 -24.1)"/><path class="cls-10" d="M75.21,38.14a.51.51,0,0,1-.51.57.52.52,0,0,1-.54-.57.53.53,0,1,1,1,0Z" transform="translate(-47.79 -24.1)"/><path class="cls-43" d="M51,38.51a.4.4,0,0,1-.34.2c-.23,0-.39-.09-.4-.3s0-.49,0-.74c0,0,0-.07.07-.07s.08,0,.08.08v.62c0,.14,0,.27.21.29a.3.3,0,0,0,.37-.21,2.81,2.81,0,0,0,0-.65s0-.14.07-.13.06.08.06.13v.8s0,.14-.05.15S51.08,38.58,51,38.51Z" transform="translate(-47.79 -24.1)"/><path class="cls-20" d="M49.56,37.58a.57.57,0,0,1,0,1.13.53.53,0,0,1-.51-.58A.52.52,0,0,1,49.56,37.58Z" transform="translate(-47.79 -24.1)"/><path class="cls-26" d="M49.88,35.38a.4.4,0,0,1,.37.22s0,.1,0,.13-.09,0-.12-.07a.31.31,0,0,0-.41-.14.17.17,0,0,0-.12.15.12.12,0,0,0,.1.14l.34.1c.19.05.29.15.28.29a.31.31,0,0,1-.28.3c-.29.07-.53,0-.59-.25,0,0-.06-.09,0-.11s.08,0,.1.07a.36.36,0,0,0,.47.18c.08,0,.14-.09.14-.18s-.05-.14-.14-.17L49.78,36c-.25-.06-.35-.16-.33-.33A.4.4,0,0,1,49.88,35.38Z" transform="translate(-47.79 -24.1)"/><path class="cls-19" d="M69.4,38.15a.51.51,0,0,1-.53.56.57.57,0,0,1,0-1.13A.51.51,0,0,1,69.4,38.15Z" transform="translate(-47.79 -24.1)"/><path class="cls-44" d="M71.47,30.66v.7l-.56.26a.75.75,0,0,1,0-.62A2.88,2.88,0,0,1,71.47,30.66Z" transform="translate(-47.79 -24.1)"/><path class="cls-45" d="M73.94,30.7c0-.22,0-.43,0-.64s0-.11.1-.15a0,0,0,0,1,0,0h0a.21.21,0,0,0,.2,0c.15,0,.19.06.19.17v.55Z" transform="translate(-47.79 -24.1)"/><path class="cls-46" d="M56.79,38.52a.44.44,0,0,1-.3.19.35.35,0,0,1-.45-.33c0-.23,0-.47,0-.7,0-.06,0-.08.08-.08s.06,0,.06.1v.58c0,.21.07.3.24.32a.31.31,0,0,0,.36-.27,3.82,3.82,0,0,0,0-.59c0-.05,0-.14.07-.14s.06.09.06.15c0,.25,0,.51,0,.76,0,.06.06.16,0,.17S56.85,38.56,56.79,38.52Z" transform="translate(-47.79 -24.1)"/><path class="cls-26" d="M48.47,35.56a.46.46,0,0,1,.28-.17.35.35,0,0,1,.46.33c0,.23,0,.45,0,.68,0,.05,0,.09-.07.09s-.06-.05-.06-.09v-.58c0-.22-.1-.32-.28-.33a.33.33,0,0,0-.34.31h0c0,.19,0,.39,0,.58s0,.11-.07.1-.07-.06-.07-.1v-.86s0-.12.07-.12S48.45,35.49,48.47,35.56Z" transform="translate(-47.79 -24.1)"/><path class="cls-47" d="M67.74,29.26h.85a1.51,1.51,0,0,1,.13.41,1.5,1.5,0,0,1-.84,0A1.53,1.53,0,0,1,67.74,29.26Z" transform="translate(-47.79 -24.1)"/><path class="cls-46" d="M69.75,35.56a.45.45,0,0,1,.48-.16.31.31,0,0,1,.26.28v.73s0,.08-.06.08-.07,0-.07-.09v-.56c0-.24-.08-.34-.27-.34a.33.33,0,0,0-.35.34c0,.18,0,.36,0,.55s0,.11-.07.1-.07-.06-.07-.1v-.86s0-.11.06-.12S69.72,35.49,69.75,35.56Z" transform="translate(-47.79 -24.1)"/><path class="cls-26" d="M75.56,37.75a.44.44,0,0,1,.46-.16.29.29,0,0,1,.27.3c0,.24,0,.47,0,.7,0,0,0,.1-.07.1s-.06,0-.06-.1V38c0-.22-.09-.31-.27-.31a.31.31,0,0,0-.35.31c0,.19,0,.38,0,.58s0,.1-.07.11-.07-.06-.07-.11v-.85s0-.12.06-.13S75.53,37.68,75.56,37.75Z" transform="translate(-47.79 -24.1)"/><path class="cls-46" d="M62.71,35.56a.46.46,0,0,1,.52-.15.26.26,0,0,1,.21.24c0,.26,0,.51,0,.77,0,0,0,.08-.06.07s-.07,0-.07-.08v-.56c0-.25-.08-.35-.27-.36a.34.34,0,0,0-.35.37c0,.18,0,.36,0,.53s0,.11-.08.1-.06-.05-.06-.09v-.86s0-.12.06-.13S62.68,35.5,62.71,35.56Z" transform="translate(-47.79 -24.1)"/><path class="cls-18" d="M52.93,36.33a.43.43,0,0,1-.36.2.34.34,0,0,1-.38-.34c0-.23,0-.46,0-.69,0,0,0-.09.07-.09s.06.05.06.1v.56c0,.24.09.33.28.34a.33.33,0,0,0,.34-.32c0-.19,0-.37,0-.55s0-.12.07-.13.07.09.07.14c0,.27,0,.53,0,.8,0,0,0,.13,0,.14S53,36.39,52.93,36.33Z" transform="translate(-47.79 -24.1)"/><path class="cls-48" d="M70.91,31v.62l-.63.34a.57.57,0,0,1,0-.48A3.74,3.74,0,0,1,70.91,31Z" transform="translate(-47.79 -24.1)"/><path class="cls-49" d="M64.05,29.84a3.65,3.65,0,0,1,0,.66c0,.06,0,.08,0,.13a3.22,3.22,0,0,1-.54-.1c.06,0,.13,0,.13-.11s0-.41,0-.62c0,0,0,0-.06-.06A2.52,2.52,0,0,1,64.05,29.84Z" transform="translate(-47.79 -24.1)"/><path class="cls-50" d="M74.25,31.85V31.1a2,2,0,0,1,.42,0c0,.19,0,.37,0,.56s0,.16.16.15.23,0,.34,0,.26,0,.38,0Z" transform="translate(-47.79 -24.1)"/><path class="cls-26" d="M63.8,36a.5.5,0,0,0,.06.24.35.35,0,0,0,.33.2.3.3,0,0,0,.29-.21c0-.07,0-.12.13-.09s0,.1,0,.14a.46.46,0,0,1-.67.21.61.61,0,0,1-.27-.6.53.53,0,0,1,.44-.47.44.44,0,0,1,.5.25s.07.08,0,.1-.1,0-.12,0a.3.3,0,0,0-.42-.19A.42.42,0,0,0,63.8,36Z" transform="translate(-47.79 -24.1)"/><path class="cls-51" d="M73.37,30v.62a.34.34,0,0,1,0,.18l-.35.08c-.08,0-.08-.06-.08-.11a3,3,0,0,1,0-.67A1.73,1.73,0,0,1,73.37,30Z" transform="translate(-47.79 -24.1)"/><path class="cls-31" d="M57.68,37.58a.4.4,0,0,1,.41.26s0,.09,0,.1a.08.08,0,0,1-.1,0c-.15-.2-.26-.25-.42-.2a.47.47,0,0,0-.27.43.46.46,0,0,0,.26.45.34.34,0,0,0,.43-.19c0-.06,0-.12.11-.09s0,.09,0,.13a.46.46,0,0,1-.61.25.57.57,0,0,1-.32-.68A.49.49,0,0,1,57.68,37.58Z" transform="translate(-47.79 -24.1)"/><path class="cls-52" d="M72.92,30.09a2.32,2.32,0,0,1,0,.59c0,.06,0,.13,0,.19l-.46.12c0-.26,0-.52,0-.78A1.27,1.27,0,0,1,72.92,30.09Z" transform="translate(-47.79 -24.1)"/><path class="cls-53" d="M74.5,28.64c-.08.13,0,.27,0,.41v.22a7,7,0,0,1-.53-.69.5.5,0,0,1,0-.46C74.14,28.29,74.32,28.46,74.5,28.64Z" transform="translate(-47.79 -24.1)"/><path class="cls-54" d="M74.08,29.91H74l-.36-.49a.55.55,0,0,1,0-.36c.32.27.63.56.93.85Z" transform="translate(-47.79 -24.1)"/><path class="cls-55" d="M68.23,31a1.51,1.51,0,0,1-.07-.37c0-.07,0-.13.08-.13s.43,0,.64,0c0,0,0,0,.05,0a4.36,4.36,0,0,1,.07.62c-.1-.24-.32-.18-.51-.19Z" transform="translate(-47.79 -24.1)"/><path class="cls-56" d="M73.94,28.12v.46l-1.1-1.4,0-.05Z" transform="translate(-47.79 -24.1)"/><path class="cls-57" d="M68.41,32.13c0-.05.1,0,.16,0h.91c.12,0,.15,0,.16.14s0,.11-.06.15l-.11.17a.26.26,0,0,1,.06-.22c-.33,0-.65,0-1,0-.15,0-.1.1-.12.18A1.58,1.58,0,0,1,68.41,32.13Z" transform="translate(-47.79 -24.1)"/><path class="cls-58" d="M69.86,31.76s0-.06-.08-.06a5.4,5.4,0,0,0-.7,0,2.07,2.07,0,0,1,.28-.38,1.08,1.08,0,0,1,.75,0A1.16,1.16,0,0,1,69.86,31.76Z" transform="translate(-47.79 -24.1)"/><path class="cls-59" d="M64.59,38.13v-.22c0-.1,0-.22-.14-.2s0,0,0-.05,0-.06,0-.06.13-.09.14-.19,0-.14.08-.13.06.08.06.13,0,.22.16.19a.05.05,0,0,1,.07,0v0c0,.06,0,.07-.08.06s-.15,0-.15.16a5,5,0,0,1,0,.55c0,.1,0,.18.16.17s.07,0,.07,0,0,.06-.08.07-.28-.05-.29-.23Z" transform="translate(-47.79 -24.1)"/><path class="cls-60" d="M66.83,31.27a6.37,6.37,0,0,1,.81.75c0,.09.07.17,0,.26l-.8-.53A1.93,1.93,0,0,1,66.83,31.27Z" transform="translate(-47.79 -24.1)"/><path class="cls-59" d="M50.59,35.94v-.22c0-.1,0-.22-.14-.2s-.06,0-.05-.05,0-.06.05-.06.14-.07.14-.17-.05-.15.08-.15.06.1.06.15,0,.2.16.17a.05.05,0,0,1,.06.06.05.05,0,0,1-.05.06h0c-.17,0-.15.07-.15.18v.53c0,.1,0,.16.15.16s.07,0,.07,0,0,.06-.08.06-.27,0-.28-.22,0-.23,0-.34Z" transform="translate(-47.79 -24.1)"/><path class="cls-61" d="M65.1,32.13a2.43,2.43,0,0,1-.38-.13,1.08,1.08,0,0,1,0-.77,2.14,2.14,0,0,1,.42.16,2.43,2.43,0,0,1,0,.66A.11.11,0,0,1,65.1,32.13Z" transform="translate(-47.79 -24.1)"/><path class="cls-62" d="M69.91,33c.11.1,0,.24.08.34a14.07,14.07,0,0,0-1.25.94A7.48,7.48,0,0,1,69.91,33Z" transform="translate(-47.79 -24.1)"/><path class="cls-63" d="M68.48,32.88a.2.2,0,0,0,.2.09h.44s.11,0,.1.06a2.25,2.25,0,0,1-.24.46.66.66,0,0,0-.31,0c-.06,0-.12,0-.17,0a1,1,0,0,0,0-.17C68.48,33.13,68.48,33,68.48,32.88Z" transform="translate(-47.79 -24.1)"/><path class="cls-64" d="M65.28,31c.07-.09,0-.14,0-.22a3.15,3.15,0,0,1,0-.53,1.44,1.44,0,0,1,.39.2.92.92,0,0,1,0,.69A1.51,1.51,0,0,1,65.28,31Z" transform="translate(-47.79 -24.1)"/><path class="cls-65" d="M61,31.06c0,.14,0,.29,0,.44a.24.24,0,0,1,0,.18l-.79.15,0,0Z" transform="translate(-47.79 -24.1)"/><path class="cls-66" d="M65.42,31.52l.39.22a.91.91,0,0,1,0,.67l-.42-.18c0-.21,0-.43,0-.64A.08.08,0,0,1,65.42,31.52Z" transform="translate(-47.79 -24.1)"/><path class="cls-67" d="M67.92,38.19v-.32c0-.09,0-.18-.12-.16s-.07,0-.06-.06a0,0,0,0,1,.07,0c.11,0,.11,0,.11-.12s.13-.31.31-.29.08,0,.08.06,0,.06-.08.06-.17,0-.17.15,0,.16.12.14.1,0,.09.06,0,.06-.09.05-.13,0-.12.14v.74s0,.09-.06.1-.08,0-.08-.1Z" transform="translate(-47.79 -24.1)"/><path class="cls-68" d="M67.88,29.67a5.89,5.89,0,0,0,.84,0,1.31,1.31,0,0,1,.09.34.19.19,0,0,1-.16,0A1.53,1.53,0,0,1,68,30,1.33,1.33,0,0,1,67.88,29.67Z" transform="translate(-47.79 -24.1)"/><path class="cls-69" d="M69,31.75c0,.08-.11.08-.1,0s-.09-.08-.13-.08a2.44,2.44,0,0,0-.27,0c-.14,0-.18,0-.17.16a1.76,1.76,0,0,1-.07-.45c0-.08,0-.11.08-.11a2.33,2.33,0,0,1,.59,0,.05.05,0,0,1,0,0C69.05,31.47,69,31.62,69,31.75Z" transform="translate(-47.79 -24.1)"/><path class="cls-46" d="M59.5,38.14V37.9c0-.09,0-.22-.14-.19a0,0,0,0,1,0,0h0s0-.06.05-.06.15-.08.16-.19,0-.14.07-.13.06.09.06.14,0,.21.16.18.06,0,.06,0a0,0,0,0,1,0,.06h0c-.17,0-.15.08-.15.18a4.68,4.68,0,0,1,0,.53c0,.1,0,.17.15.16s.08,0,.07.06,0,0-.07,0c-.19,0-.28,0-.29-.23v-.32Z" transform="translate(-47.79 -24.1)"/><path class="cls-46" d="M53.41,36v-.27c0-.1,0-.19-.13-.17s-.06,0-.06,0h0a.06.06,0,0,1,.06-.07c.16,0,.13-.08.14-.18s-.05-.13.06-.14.07.1.07.15,0,.2.15.17.07,0,.08.05,0,.07-.08.07-.15,0-.14.16v.54c0,.1,0,.17.13.16s.09,0,.09.06-.05,0-.09,0-.27,0-.27-.23S53.41,36.06,53.41,36Z" transform="translate(-47.79 -24.1)"/><path class="cls-26" d="M73.26,38.13v-.27c0-.09,0-.17-.12-.15s-.06,0-.06,0a0,0,0,0,1,0,0s0-.07.05-.06.14-.1.14-.19,0-.1,0-.12.12,0,.12.08,0,.26.17.23c0,0,0,0,0,.06a.05.05,0,0,1-.07.05c-.14,0-.15,0-.15.16a5,5,0,0,1,0,.55c0,.1,0,.18.15.17s.07,0,.07,0,0,0-.07,0a.21.21,0,0,1-.29-.22v-.34Z" transform="translate(-47.79 -24.1)"/><path class="cls-46" d="M51.62,36V35.7c0-.09,0-.2-.14-.17a.08.08,0,0,1-.06,0h0a.07.07,0,0,1,.06-.07c.17,0,.14-.08.15-.17s-.05-.14.06-.14.07.09.07.15,0,.19.15.16.07,0,.07.05,0,.07-.08.07-.14,0-.14.16,0,.36,0,.54,0,.17.14.17.09,0,.08.05,0,0-.09,0-.27,0-.27-.23Z" transform="translate(-47.79 -24.1)"/><path class="cls-70" d="M66.36,31.48l-.43-.2a1.48,1.48,0,0,0,0-.42c0-.07,0-.15,0-.2a1.92,1.92,0,0,1,.42.28.61.61,0,0,1,0,.51S66.39,31.5,66.36,31.48Z" transform="translate(-47.79 -24.1)"/><path class="cls-71" d="M68.93,30.59h-.68c-.08,0-.08,0-.09.09a1.24,1.24,0,0,1-.1-.39,0,0,0,0,1,0,0,1.52,1.52,0,0,1,.79,0Z" transform="translate(-47.79 -24.1)"/><path class="cls-72" d="M62.74,28.27l.49-.45c.11,0,.06.1.08.16a.54.54,0,0,1,0,.18c-.2.24-.35.51-.56.73A2.15,2.15,0,0,1,62.74,28.27Z" transform="translate(-47.79 -24.1)"/><path class="cls-73" d="M69.58,32.38l.06-.15a1.81,1.81,0,0,0,.22-.44c.17-.06.26-.23.41-.31V32l-.61.41S69.61,32.4,69.58,32.38Z" transform="translate(-47.79 -24.1)"/><path class="cls-74" d="M69.63,31a2.64,2.64,0,0,1,.32-.41.81.81,0,0,1,.51,0s.05,0,0,.08a1.71,1.71,0,0,1-.21.4,3.85,3.85,0,0,0-.48,0C69.74,31,69.68,31.05,69.63,31Z" transform="translate(-47.79 -24.1)"/><path class="cls-75" d="M69,31.34a3,3,0,0,0-.6,0,.09.09,0,0,0-.11.07h0a1.61,1.61,0,0,1-.07-.37c0-.07.12-.06.19-.06h.25c.19,0,.32,0,.33.23Z" transform="translate(-47.79 -24.1)"/><path class="cls-76" d="M62.18,29.63a3.66,3.66,0,0,0,0-.81,2.06,2.06,0,0,1,.31-.28c.08,0,.09.07.09.12a1.15,1.15,0,0,1,0,.55A2.59,2.59,0,0,1,62.18,29.63Z" transform="translate(-47.79 -24.1)"/><path class="cls-75" d="M69.63,31l.51,0s.11,0,.13.05a1.37,1.37,0,0,1-.16.32,3.14,3.14,0,0,0-.75,0A2.24,2.24,0,0,1,69.63,31Z" transform="translate(-47.79 -24.1)"/><path class="cls-77" d="M66.36,31.48c.16-.17,0-.36,0-.54a2,2,0,0,1,.43.33.79.79,0,0,1,0,.48Z" transform="translate(-47.79 -24.1)"/><path class="cls-78" d="M70.41,30a8.34,8.34,0,0,1,.58-.75c.07,0,.15-.08.2,0l-.38.72A.43.43,0,0,1,70.41,30Z" transform="translate(-47.79 -24.1)"/><path class="cls-79" d="M66,30.66a3,3,0,0,0,0,.42.24.24,0,0,1,0,.2l-.31-.14v-.69A1.13,1.13,0,0,1,66,30.66Z" transform="translate(-47.79 -24.1)"/><path class="cls-80" d="M68.52,33.43a1.28,1.28,0,0,1,.39,0s.07,0,.07.07c-.12.29-.29.55-.43.83,0,0,0,0,0,0A4.11,4.11,0,0,1,68.52,33.43Z" transform="translate(-47.79 -24.1)"/><path class="cls-81" d="M64.43,31.92l-.39-.1a1.42,1.42,0,0,0,0-.68s0-.06,0-.1a1.08,1.08,0,0,1,.35.1A1.16,1.16,0,0,1,64.43,31.92Z" transform="translate(-47.79 -24.1)"/><path class="cls-82" d="M62.32,31.61c0-.15,0-.31,0-.46a.2.2,0,0,0-.13-.24l.27,0a1.15,1.15,0,0,1,.19,0s.09,0,.07.09a.76.76,0,0,0,0,.59s0,.05,0,.06Z" transform="translate(-47.79 -24.1)"/><path class="cls-83" d="M65.42,31.52c0,.21,0,.43,0,.64,0,0,0,.05,0,.07a.94.94,0,0,1-.28-.1,3.74,3.74,0,0,0,0-.67s0-.05,0-.07Z" transform="translate(-47.79 -24.1)"/><path class="cls-84" d="M63.17,30.9a.38.38,0,0,1,.21,0s.11,0,.11.09a1.7,1.7,0,0,1,0,.71L63,31.65a.39.39,0,0,0,.11-.29C63.12,31.21,63.07,31,63.17,30.9Z" transform="translate(-47.79 -24.1)"/><path class="cls-85" d="M62.67,31.62c0-.1-.06-.19-.05-.3a1.22,1.22,0,0,1,.06-.42.11.11,0,0,1,.08,0c.22,0,.22,0,.22.22a2.53,2.53,0,0,1,0,.55A.92.92,0,0,1,62.67,31.62Z" transform="translate(-47.79 -24.1)"/><path class="cls-86" d="M64.43,31.92a5.08,5.08,0,0,0,0-.78.75.75,0,0,1,.29.09c0,.25,0,.51,0,.77A1.29,1.29,0,0,1,64.43,31.92Z" transform="translate(-47.79 -24.1)"/><path class="cls-87" d="M68.87,30.28a5.47,5.47,0,0,0-.81,0A.84.84,0,0,1,68,30h.82A.83.83,0,0,1,68.87,30.28Z" transform="translate(-47.79 -24.1)"/><path class="cls-67" d="M51.56,37.82a.46.46,0,0,1,.31-.23s.1,0,.11,0,0,.07-.07.09c-.29.08-.35.16-.35.45,0,.12,0,.25,0,.37s0,.14-.07.14-.07-.08-.07-.13v-.83s0-.13.07-.13.06.08.07.13Z" transform="translate(-47.79 -24.1)"/><path class="cls-88" d="M61.79,37.74a.53.53,0,0,1,.46-.16.29.29,0,0,1,.28.28c0,.25,0,.5,0,.75,0,0,0,.08-.06.08s-.07,0-.07-.09v-.55c0-.13,0-.29-.16-.34a.33.33,0,0,0-.41.13C61.77,37.82,61.72,37.8,61.79,37.74Z" transform="translate(-47.79 -24.1)"/><path class="cls-89" d="M57.64,35.74v.65s0,.11-.07.11-.06-.06-.06-.1V35.1c0-.05,0-.1.07-.1s.06,0,.06.1Z" transform="translate(-47.79 -24.1)"/><path class="cls-46" d="M48,35.76v.63s0,.1-.07.1-.07-.05-.07-.1v-1.3s0-.09.07-.09.08,0,.08.1C48,35.32,48,35.54,48,35.76Z" transform="translate(-47.79 -24.1)"/><path class="cls-90" d="M65.74,37.92V37.3s0-.12.08-.11.06.07.06.11v1.28c0,.05,0,.11-.07.11s-.07-.06-.07-.11Z" transform="translate(-47.79 -24.1)"/><path class="cls-91" d="M52.83,38v.63c0,.05,0,.11-.07.11s-.06-.06-.06-.1v-1.3s0-.11.07-.1.06.07.06.11Z" transform="translate(-47.79 -24.1)"/><path class="cls-92" d="M65.8,32.41a1.51,1.51,0,0,0,0-.56s0-.07,0-.11l.31.19c0,.21.06.41,0,.61A1,1,0,0,1,65.8,32.41Z" transform="translate(-47.79 -24.1)"/><path class="cls-93" d="M66.9,33a2,2,0,0,1,0-.49,3,3,0,0,1,.49.45.93.93,0,0,1,0,.24s0,.09-.07.07Z" transform="translate(-47.79 -24.1)"/><path class="cls-94" d="M63.7,28.82a7.4,7.4,0,0,1-.53.72.47.47,0,0,1,0-.46,4.79,4.79,0,0,1,.53-.48C63.77,28.67,63.73,28.75,63.7,28.82Z" transform="translate(-47.79 -24.1)"/><path class="cls-95" d="M63.9,31.79a.39.39,0,0,1-.21,0c-.06-.08,0-.17,0-.26a1.47,1.47,0,0,0,0-.55A1.78,1.78,0,0,1,64,31a3.85,3.85,0,0,1,0,.68S64,31.79,63.9,31.79Z" transform="translate(-47.79 -24.1)"/><path class="cls-96" d="M60.89,35.6a.55.55,0,0,1,.34-.2s.09,0,.09.05a.08.08,0,0,1-.06.09c-.31.1-.35.15-.35.46v.41c0,.05,0,.08-.07.09s-.07,0-.07-.1v-.87s0-.11,0-.11.06.07.07.12Z" transform="translate(-47.79 -24.1)"/><path class="cls-97" d="M63.16,29.08c0,.15,0,.3,0,.46s-.16.09,0,.16h-.07c-.19,0-.38,0-.56,0A7,7,0,0,1,63.16,29.08Z" transform="translate(-47.79 -24.1)"/><path class="cls-67" d="M69.78,37.79a.37.37,0,0,1,.28-.2s.09,0,.1,0,0,.08-.07.1c-.29.09-.35.16-.35.46v.41s0,.08-.07.09-.07,0-.07-.09c0-.33,0-.65,0-1,.06,0,.1,0,.12,0S69.68,37.79,69.78,37.79Z" transform="translate(-47.79 -24.1)"/><path class="cls-98" d="M63.59,30.94a.14.14,0,0,1,.1.17v.64l-.24,0c0-.22,0-.44,0-.67a.15.15,0,0,0-.08-.13Z" transform="translate(-47.79 -24.1)"/><path class="cls-99" d="M62.5,29.21v-.52c0-.05,0-.11,0-.15a1.5,1.5,0,0,1,.29-.27,1.44,1.44,0,0,1,0,.62A1.54,1.54,0,0,1,62.5,29.21Z" transform="translate(-47.79 -24.1)"/><path class="cls-100" d="M63,31.65a2.32,2.32,0,0,1,0-.59c0-.12,0-.19-.16-.16h-.33a1.75,1.75,0,0,1,.72,0c0,.2,0,.41,0,.61s-.05.15-.15.14Z" transform="translate(-47.79 -24.1)"/><path class="cls-101" d="M73.65,29.05a1.09,1.09,0,0,1,0,.36c-.27-.33-.52-.66-.77-1,0,0,0-.05,0,0Z" transform="translate(-47.79 -24.1)"/><path class="cls-102" d="M62.5,30.43c0-.17,0-.34,0-.51s0-.2.19-.18h.09a1.3,1.3,0,0,1,0,.62c0,.14-.16.06-.25.06Z" transform="translate(-47.79 -24.1)"/><path class="cls-103" d="M62.55,30.42c.19,0,.24-.05.22-.22s0-.31,0-.46h.14a0,0,0,0,1,.07,0h0a2.89,2.89,0,0,1,0,.72A1.64,1.64,0,0,1,62.55,30.42Z" transform="translate(-47.79 -24.1)"/><path class="cls-104" d="M63.9,31.79c.08-.09,0-.2,0-.3A1.56,1.56,0,0,1,64,31a.19.19,0,0,1,.1,0s.08.07.07.13v.54c0,.08,0,.12-.11.11A.22.22,0,0,1,63.9,31.79Z" transform="translate(-47.79 -24.1)"/><path class="cls-105" d="M70.49,30.63c0-.05,0-.06-.07-.06l-.47,0a1.83,1.83,0,0,1,.24-.31.48.48,0,0,1,.48,0A2.21,2.21,0,0,1,70.49,30.63Z" transform="translate(-47.79 -24.1)"/><path class="cls-106" d="M61.79,37.74s0,.06,0,.1a2.64,2.64,0,0,0,0,.69c0,.06.05.15-.07.15s-.07-.09-.07-.14v-.8c0-.05,0-.13.07-.14S61.75,37.7,61.79,37.74Z" transform="translate(-47.79 -24.1)"/><path class="cls-107" d="M51.28,36c0,.13,0,.26,0,.39s0,.14-.07.13-.06-.09-.06-.14c0-.27,0-.53,0-.8,0,0,0-.14.07-.14s.06.08.06.13S51.28,35.82,51.28,36Z" transform="translate(-47.79 -24.1)"/><path class="cls-108" d="M74,38.15v.44s0,.1-.07.1-.07,0-.07-.09v-.91s0-.09.06-.09.07.06.07.11Z" transform="translate(-47.79 -24.1)"/><path class="cls-108" d="M60.06,38.15V37.7s0-.11.07-.1.07,0,.07.09v.91s0,.09-.08.09-.06-.06-.06-.1Z" transform="translate(-47.79 -24.1)"/><path class="cls-109" d="M70.89,36v.45s0,.09-.07.08-.08,0-.08-.09v-.9s0-.09.08-.09.07.05.07.09Z" transform="translate(-47.79 -24.1)"/><path class="cls-22" d="M63.31,28.16c-.07-.11,0-.24-.08-.34a3.22,3.22,0,0,1,.43-.39c.06.09,0,.18,0,.27A4.06,4.06,0,0,1,63.31,28.16Z" transform="translate(-47.79 -24.1)"/><path class="cls-110" d="M67.32,33.25c.1,0,0-.09,0-.13s0-.12,0-.18a3.19,3.19,0,0,1,.45.45c0,.07.07.14,0,.21Z" transform="translate(-47.79 -24.1)"/><path class="cls-111" d="M70.67,30.28a1.55,1.55,0,0,0-.48,0,1.13,1.13,0,0,1,.22-.27h.4A.87.87,0,0,1,70.67,30.28Z" transform="translate(-47.79 -24.1)"/><path class="cls-112" d="M67.63,32.28c0-.09,0-.17,0-.26a5.74,5.74,0,0,1,.71.84Z" transform="translate(-47.79 -24.1)"/><path class="cls-113" d="M63.67,27.7c-.11-.08,0-.18,0-.27l.53-.49s0,0,0,0C64,27.21,63.88,27.48,63.67,27.7Z" transform="translate(-47.79 -24.1)"/><path class="cls-114" d="M71.19,29.29a.44.44,0,0,0-.2,0l.55-.73,0,0A7.33,7.33,0,0,1,71.19,29.29Z" transform="translate(-47.79 -24.1)"/><path class="cls-115" d="M67.81,33.6v-.21a2.49,2.49,0,0,1,.47.61Z" transform="translate(-47.79 -24.1)"/><path class="cls-107" d="M53.19,37.69s0-.08,0-.11.13-.12,0-.18,0-.13,0-.19.08,0,.12,0,0,.09,0,.14C53.36,37.56,53.35,37.58,53.19,37.69Z" transform="translate(-47.79 -24.1)"/><path class="cls-116" d="M63.7,28.82a1.7,1.7,0,0,1,0-.22l.25-.24c.05.06,0,.11,0,.17S63.81,28.75,63.7,28.82Z" transform="translate(-47.79 -24.1)"/><path class="cls-117" d="M63.94,28.53v-.17l.28-.31.06.05A2.79,2.79,0,0,1,63.94,28.53Z" transform="translate(-47.79 -24.1)"/><path class="cls-118" d="M54.44,37.16c-.18.23-.21.26-.35.27C54.2,37.33,54.21,37.13,54.44,37.16Z" transform="translate(-47.79 -24.1)"/><path class="cls-119" d="M68.52,33.43a6.47,6.47,0,0,0,0,.88s0,.07-.08.08c0-.38,0-.76,0-1.14C68.53,33.3,68.51,33.37,68.52,33.43Z" transform="translate(-47.79 -24.1)"/><path class="cls-120" d="M51.28,35.1s0,.11-.06.11-.08-.05-.08-.1,0-.11.07-.11S51.28,35.05,51.28,35.1Z" transform="translate(-47.79 -24.1)"/><path class="cls-121" d="M70.89,35.09c0,.07,0,.12-.08.12s-.06-.06-.07-.11,0-.1.08-.1S70.88,35.06,70.89,35.09Z" transform="translate(-47.79 -24.1)"/><path class="cls-122" d="M60.2,37.29c0,.05,0,.1-.07.11s-.07,0-.07-.1,0-.11.06-.11S60.2,37.23,60.2,37.29Z" transform="translate(-47.79 -24.1)"/><path class="cls-122" d="M74,37.3c0,.05,0,.1-.08.1s-.06-.06-.06-.1,0-.11.07-.11S74,37.24,74,37.3Z" transform="translate(-47.79 -24.1)"/><path class="cls-102" d="M63,29.74h-.07c-.15-.08-.31,0-.47,0l.08,0a2.64,2.64,0,0,1,.56,0C63.07,29.75,63,29.74,63,29.74Z" transform="translate(-47.79 -24.1)"/><path class="cls-123" d="M75.3,30.66a2.42,2.42,0,0,1-.66,0l0,0Q75,30.64,75.3,30.66Z" transform="translate(-47.79 -24.1)"/><path class="cls-124" d="M55.68,37.19a3,3,0,0,0,0,.52s0,.06,0,.06,0,0,0,0,0-.25,0-.38S55.6,37.22,55.68,37.19Z" transform="translate(-47.79 -24.1)"/><path class="cls-125" d="M48,39.06c0-.16,0-.32,0-.47s0-.11.06,0,0,.24,0,.36S48,39,48,39.06Z" transform="translate(-47.79 -24.1)"/><path class="cls-126" d="M72.92,28.37l0,0-.19-.22A.54.54,0,0,1,72.92,28.37Z" transform="translate(-47.79 -24.1)"/><path class="cls-127" d="M69.78,37.79l0,0c-.06,0,0,0,0-.06s0-.15-.1-.12c.07-.06.12-.06.14,0S69.73,37.76,69.78,37.79Z" transform="translate(-47.79 -24.1)"/><path class="cls-128" d="M64.23,27l0,0s0-.09.08-.05S64.26,27,64.23,27Z" transform="translate(-47.79 -24.1)"/><path class="cls-129" d="M68.69,27.75a1.09,1.09,0,0,1,1.13-1.11A1.13,1.13,0,0,1,71,27.75a1.16,1.16,0,0,1-1.17,1.11A1.14,1.14,0,0,1,68.69,27.75Z" transform="translate(-47.79 -24.1)"/><path class="cls-130" d="M48,38.14c0-.28.11-.43.32-.45s.42.14.43.43-.13.47-.36.48S48,38.43,48,38.14Z" transform="translate(-47.79 -24.1)"/><path class="cls-130" d="M66.9,36a.45.45,0,0,1-.1.35.35.35,0,0,1-.4.09c-.17-.06-.25-.24-.24-.51a.37.37,0,0,1,.25-.37.36.36,0,0,1,.41.13A.48.48,0,0,1,66.9,36Z" transform="translate(-47.79 -24.1)"/><path class="cls-131" d="M55.4,36a.5.5,0,0,1-.07.29.35.35,0,0,1-.32.17.34.34,0,0,1-.3-.18.64.64,0,0,1,0-.43.36.36,0,0,1,.35-.31.38.38,0,0,1,.37.31A.76.76,0,0,1,55.4,36Z" transform="translate(-47.79 -24.1)"/><path class="cls-130" d="M55.65,38.14a.44.44,0,0,1-.18.4.37.37,0,0,1-.45,0,.58.58,0,0,1,0-.7.36.36,0,0,1,.44-.07A.45.45,0,0,1,55.65,38.14Z" transform="translate(-47.79 -24.1)"/><path class="cls-132" d="M58.6,35.93q0,.45-.33.48c-.14,0-.25,0-.28-.17s.07-.21.2-.23Z" transform="translate(-47.79 -24.1)"/><path class="cls-133" d="M62.14,35.93c0,.32-.09.47-.34.48s-.25,0-.27-.19.08-.19.19-.21Z" transform="translate(-47.79 -24.1)"/><path class="cls-134" d="M59,38.12a.36.36,0,0,1-.4.48c-.11,0-.2-.06-.21-.18s0-.18.16-.21Z" transform="translate(-47.79 -24.1)"/><path class="cls-133" d="M66.46,38.6a.22.22,0,0,1-.24-.17c0-.14.07-.2.19-.23l.23,0c.07,0,.17-.06.19,0a.27.27,0,0,1,0,.26A.4.4,0,0,1,66.46,38.6Z" transform="translate(-47.79 -24.1)"/><path class="cls-134" d="M72.76,38.12a.36.36,0,0,1-.4.48.21.21,0,0,1-.21-.18.18.18,0,0,1,.15-.21Z" transform="translate(-47.79 -24.1)"/><path class="cls-132" d="M56.25,35.49a.37.37,0,0,1,.34.31c0,.06,0,.08-.08.08H56c-.05,0-.07,0-.06-.07A.38.38,0,0,1,56.25,35.49Z" transform="translate(-47.79 -24.1)"/><path class="cls-132" d="M71.58,35.88H71.4c-.18,0-.2,0-.11-.19a.32.32,0,0,1,.34-.19.34.34,0,0,1,.3.25c0,.08,0,.14-.09.13A2.25,2.25,0,0,0,71.58,35.88Z" transform="translate(-47.79 -24.1)"/><path class="cls-135" d="M63.84,38.07h-.16c-.06,0-.15,0-.18,0s0-.13,0-.19a.3.3,0,0,1,.35-.16.33.33,0,0,1,.28.25c0,.09,0,.13-.1.12Z" transform="translate(-47.79 -24.1)"/><path class="cls-132" d="M54.12,38.07H54c-.21,0-.22,0-.12-.21a.35.35,0,0,1,.64.1c0,.07,0,.11-.08.11Z" transform="translate(-47.79 -24.1)"/><path class="cls-131" d="M65.69,36a.39.39,0,1,1-.78,0,.43.43,0,0,1,.4-.46A.42.42,0,0,1,65.69,36Z" transform="translate(-47.79 -24.1)"/><path class="cls-131" d="M69.26,36a.45.45,0,0,1-.1.31.35.35,0,0,1-.5.07l-.06-.06a.53.53,0,0,1,0-.66.33.33,0,0,1,.36-.11.37.37,0,0,1,.28.33A.49.49,0,0,1,69.26,36Z" transform="translate(-47.79 -24.1)"/><path class="cls-130" d="M61.31,38.15a.4.4,0,0,1-.39.45.42.42,0,0,1-.39-.47.41.41,0,0,1,.39-.44C61.15,37.69,61.31,37.87,61.31,38.15Z" transform="translate(-47.79 -24.1)"/><path class="cls-136" d="M75.08,38.14a.39.39,0,1,1-.78,0,.4.4,0,0,1,.38-.46A.41.41,0,0,1,75.08,38.14Z" transform="translate(-47.79 -24.1)"/><path class="cls-130" d="M49.16,38.14a.4.4,0,0,1,.39-.45.46.46,0,1,1-.39.45Z" transform="translate(-47.79 -24.1)"/><path class="cls-131" d="M69.26,38.12a.43.43,0,0,1-.1.34.36.36,0,0,1-.49.08l-.09-.09a.53.53,0,0,1-.07-.46.38.38,0,0,1,.4-.3.4.4,0,0,1,.35.37Z" transform="translate(-47.79 -24.1)"/><path class="cls-137" d="M69.8,26.73a1,1,0,0,1,1.07,1v.07a1,1,0,0,1-1.05,1,1,1,0,1,1,0-2.05Z" transform="translate(-47.79 -24.1)"/><path class="cls-138" d="M70.77,27.75a.93.93,0,0,1-.94.95,1,1,0,1,1,0-1.9A.93.93,0,0,1,70.77,27.75Z" transform="translate(-47.79 -24.1)"/><path class="cls-139" d="M70.66,27.77a.83.83,0,0,1-.87.82.85.85,0,1,1,0-1.69A.85.85,0,0,1,70.66,27.77Z" transform="translate(-47.79 -24.1)"/><path class="cls-140" d="M69.08,27.74a.71.71,0,0,1,.76-.71.73.73,0,1,1,0,1.45C69.48,28.49,69,28.14,69.08,27.74Z" transform="translate(-47.79 -24.1)"/><path class="cls-141" d="M69.15,27.75a.65.65,0,0,1,.65-.66.68.68,0,0,1,.69.66h0a.7.7,0,0,1-.68.65A.67.67,0,0,1,69.15,27.75Z" transform="translate(-47.79 -24.1)"/><path class="cls-142" d="M69.83,27.18a.58.58,0,0,1,.58.55.6.6,0,1,1-1.19,0A.56.56,0,0,1,69.83,27.18Z" transform="translate(-47.79 -24.1)"/><path class="cls-143" d="M69.83,27.24a.55.55,0,0,1,.51.5.51.51,0,0,1-.5.51.51.51,0,1,1,0-1Z" transform="translate(-47.79 -24.1)"/><path class="cls-144" d="M70.22,27.73a.41.41,0,0,1-.82,0,.41.41,0,0,1,.42-.41h0A.4.4,0,0,1,70.22,27.73Z" transform="translate(-47.79 -24.1)"/><path class="cls-145" d="M70.11,27.76a.32.32,0,0,1-.28.28.31.31,0,0,1-.31-.3.29.29,0,0,1,.3-.29A.32.32,0,0,1,70.11,27.76Z" transform="translate(-47.79 -24.1)"/><path class="cls-135" d="M69.79,27.58c.16,0,.2.09.2.19a.16.16,0,0,1-.19.15.17.17,0,0,1-.17-.17h0C69.64,27.64,69.71,27.57,69.79,27.58Z" transform="translate(-47.79 -24.1)"/></svg>