<?xml version="1.0" encoding="UTF-8"?>
<svg width="16px" height="16px" viewBox="0 0 16 16" version="1.1" xmlns="http://www.w3.org/2000/svg" xmlns:xlink="http://www.w3.org/1999/xlink">
    <title>map/pin-star-green</title>
    <g id="map/pin-star-green" stroke="none" stroke-width="1" fill="none" fill-rule="evenodd">
        <path d="M7.77353105,1.00046615 C7.5853738,1.00801661 7.43623341,1.10618379 7.30850234,1.22573935 C7.18138988,1.34592963 7.06686204,1.4975847 6.95359717,1.6737727 C6.72706744,2.02616481 6.50807689,2.47735558 6.29538509,2.93987123 C6.08143677,3.40175862 5.87502762,3.87434262 5.68751475,4.25505497 C5.49935749,4.63513906 5.30114801,4.93151895 5.23443917,4.98374548 C5.16773679,5.03660349 4.83484666,5.16183438 4.42141621,5.25621908 C4.00798576,5.35060379 3.49952623,5.44184716 3.00052289,5.54253062 C2.50151955,5.64321408 2.01194019,5.75270936 1.61676163,5.89115315 C1.41916414,5.96037343 1.24611746,6.03588602 1.09950624,6.13153692 C0.953515218,6.22781608 0.821990401,6.34927094 0.771020406,6.53050117 C0.720678676,6.7117314 0.767244696,6.88414981 0.842128704,7.04210203 C0.917011423,7.20067767 1.02650026,7.35610555 1.15928966,7.51782735 C1.42483624,7.84189921 1.7866686,8.18989347 2.16045393,8.53598682 C2.53423926,8.88145191 2.91934947,9.22440394 3.22267249,9.52079994 C3.52599551,9.81719594 3.74496995,10.0965805 3.77454672,10.176499 C3.80412189,10.2564159 3.82111242,10.6113226 3.78272705,11.0335649 C3.74497156,11.4564354 3.67386326,11.9680363 3.61533476,12.4739666 C3.5568127,12.979897 3.50898725,13.4776599 3.51842733,13.8961165 C3.5234615,14.105667 3.54234006,14.295709 3.58827588,14.4643416 C3.63484158,14.6329904 3.70909603,14.7947122 3.86579171,14.8991652 C4.02248095,15.0036247 4.20118846,15.0124333 4.37487951,14.9897803 C4.54855445,14.9677556 4.72978468,14.9104917 4.92486895,14.8343509 C5.31502138,14.6820675 5.75865687,14.445455 6.20292063,14.1975322 C6.64718438,13.9495931 7.09144814,13.6903453 7.46713437,13.4927479 C7.84217623,13.2957789 8.17821735,13.1730739 8.26316197,13.1699326 C8.34811304,13.1661566 8.68980209,13.2599178 9.07995453,13.4266835 C9.47010696,13.5928031 9.93513567,13.8187207 10.3976513,14.0307842 C10.860167,14.2428478 11.3207978,14.4423299 11.7222751,14.5625216 C11.9230138,14.6229317 12.1080136,14.663835 12.2829612,14.6720153 C12.4578927,14.680825 12.6340968,14.657542 12.7819806,14.5411268 C12.9298597,14.4247111 12.9927876,14.2567002 13.0255057,14.0849101 C13.0582287,13.9124916 13.0613748,13.7230779 13.0494185,13.5141557 C13.0255057,13.0963112 12.9367786,12.602334 12.8379832,12.1033307 C12.7391878,11.6043274 12.629061,11.0996374 12.557326,10.6818091 C12.4855895,10.2639647 12.4736331,9.90905952 12.4962861,9.82725623 C12.5195689,9.74545132 12.7146484,9.44905693 12.9934046,9.12939903 C13.272177,8.80972502 13.628967,8.43719621 13.9738038,8.06278262 C14.3186406,7.68836902 14.6515243,7.31205452 14.8900233,6.96784596 C15.0089554,6.79542755 15.1045999,6.63307748 15.1662665,6.46945478 C15.2279331,6.30583207 15.2612859,6.12901581 15.1964715,5.95219954 C15.1310273,5.77599543 14.991335,5.6639871 14.8377806,5.57967074 C14.6842392,5.49534794 14.5042687,5.43493786 14.3016452,5.38207341 C13.8963983,5.2757259 13.399892,5.2058693 12.8945899,5.1461036 C12.3886595,5.08569352 11.8770586,5.03598167 11.4573294,4.97494171 C11.0382285,4.9132735 10.6946482,4.81510632 10.6235415,4.7679043 C10.5530631,4.72070873 10.3315595,4.44194764 10.1138255,4.07823065 C9.89609143,3.71451367 9.65193807,3.26018157 9.40211421,2.81717434 C9.15229036,2.37353885 8.89744038,1.94248477 8.64384694,1.60960109 C8.51673447,1.44283706 8.39088176,1.30062368 8.2536945,1.19112841 C8.11651369,1.07974673 7.9610842,0.992902811 7.77355522,1.0004581 L7.77353105,1.00046615 Z" id="Fill-1" fill="#255033"></path>
    </g>
</svg>