<svg xmlns="http://www.w3.org/2000/svg" xmlns:xlink="http://www.w3.org/1999/xlink" width="35" height="39.895" viewBox="0 0 35 39.895">
  <defs>
    <filter id="Path_1" x="0" y="0" width="35" height="39.895" filterUnits="userSpaceOnUse">
      <feOffset dy="2" input="SourceAlpha"/>
      <feGaussianBlur stdDeviation="0.5" result="blur"/>
      <feFlood flood-opacity="0.161"/>
      <feComposite operator="in" in2="blur"/>
      <feComposite in="SourceGraphic"/>
    </filter>
  </defs>
  <g id="Group_3" data-name="Group 3" transform="translate(-232.5 -232)">
    <g transform="matrix(1, 0, 0, 1, 232.5, 232)" filter="url(#Path_1)">
      <path id="Path_1-2" data-name="Path 1" d="M51,20a16,16,0,0,1,4.412,31.384L52.664,55.5a2,2,0,0,1-3.328,0h0l-2.748-4.12A16,16,0,0,1,51,20Z" transform="translate(-33.5 -20)" fill="#70af85"/>
    </g>
    <path id="Icon_awesome-star" data-name="Icon awesome-star" d="M6.351.382,5.009,3.226,2,3.683a.7.7,0,0,0-.364,1.173L3.814,7.069,3.3,10.195a.664.664,0,0,0,.954.724L6.941,9.443l2.687,1.476a.665.665,0,0,0,.954-.724l-.514-3.126,2.173-2.213a.7.7,0,0,0-.364-1.173l-3-.458L7.531.382a.646.646,0,0,0-1.18,0Z" transform="translate(243.059 240.698)" fill="#fff"/>
  </g>
</svg>
