<?xml version="1.0" encoding="UTF-8"?>
<svg width="24px" height="24px" viewBox="0 0 24 24" version="1.1" xmlns="http://www.w3.org/2000/svg" xmlns:xlink="http://www.w3.org/1999/xlink">
    <title>icon/list-star</title>
    <g id="icon/list-star" stroke="none" stroke-width="1" fill="none" fill-rule="evenodd">
        <path d="M12.0268926,4.00053275 C11.8118558,4.00916184 11.6414096,4.1213529 11.4954313,4.25798783 C11.3501599,4.39534815 11.2192709,4.56866822 11.0898253,4.77002594 C10.8309342,5.17275978 10.5806593,5.68840638 10.337583,6.2169957 C10.0930706,6.744867 9.85717442,7.28496299 9.64287399,7.72006283 C9.42783714,8.15444464 9.20131201,8.49316452 9.12507334,8.55285197 C9.04884204,8.61326113 8.66839618,8.75638215 8.19590424,8.86425038 C7.72341229,8.97211861 7.14231569,9.07639676 6.57202616,9.19146357 C6.00173663,9.30653038 5.44221736,9.43166784 4.99058472,9.58988931 C4.76475902,9.6689982 4.56699139,9.75529831 4.3994357,9.86461362 C4.23258882,9.97464695 4.08227474,10.1134525 4.02402332,10.3205728 C3.96648992,10.527693 4.01970822,10.7247426 4.10528995,10.9052595 C4.1908702,11.0864888 4.31600029,11.2641206 4.46775961,11.4489455 C4.77124142,11.8193134 5.18476411,12.2170211 5.61194735,12.6125564 C6.03913058,13.0073736 6.47925653,13.3993188 6.82591141,13.7380571 C7.17256629,14.0767954 7.4228228,14.3960919 7.45662483,14.4874274 C7.49042501,14.578761 7.50984277,14.9843687 7.46597377,15.4669313 C7.42282464,15.9502119 7.34155801,16.5348986 7.2746683,17.1131047 C7.20778594,17.6913109 7.15312829,18.2601828 7.16391695,18.7384188 C7.16967029,18.9779051 7.19124578,19.195096 7.24374386,19.3878189 C7.2969618,19.5805604 7.38182403,19.7653854 7.56090481,19.8847603 C7.73997823,20.0041425 7.94421538,20.0142095 8.14271944,19.9883204 C8.34120508,19.9631493 8.54832534,19.8977048 8.7712788,19.8106867 C9.2171673,19.6366486 9.72417928,19.3662342 10.2319093,19.0828939 C10.7396393,18.799535 11.2473693,18.5032517 11.676725,18.2774262 C12.1053443,18.0523187 12.4893913,17.9120845 12.5864708,17.9084944 C12.6835578,17.9041789 13.0740595,18.0113347 13.519948,18.201924 C13.9658365,18.391775 14.4972979,18.6499665 15.0258872,18.8923249 C15.5544765,19.1346832 16.0809118,19.3626627 16.539743,19.5000247 C16.7691586,19.5690648 16.980587,19.6158114 17.1805271,19.6251603 C17.3804488,19.6352286 17.5818249,19.6086194 17.750835,19.4755735 C17.9198396,19.342527 17.9917573,19.1505145 18.0291494,18.9541829 C18.0665471,18.7571333 18.0701427,18.5406604 18.0564782,18.3018922 C18.0291494,17.8243557 17.927747,17.2598103 17.8148379,16.6895208 C17.7019289,16.1192313 17.5760697,15.5424428 17.4940869,15.0649247 C17.4121023,14.5873882 17.3984379,14.1817823 17.424327,14.0882928 C17.4509359,13.9948015 17.6738839,13.6560651 17.9924624,13.2907417 C18.3110594,12.9254 18.7188194,12.4996528 19.1129186,12.0717516 C19.5070178,11.6438503 19.8874563,11.2137766 20.1600266,10.8203954 C20.295949,10.6233458 20.405257,10.4378028 20.4757331,10.2508055 C20.5462092,10.0638081 20.5843267,9.86173235 20.5102532,9.65965662 C20.4354597,9.45828049 20.2758114,9.33027097 20.1003207,9.23390942 C19.9248448,9.1375405 19.7191642,9.06850041 19.4875946,9.00808389 C19.0244552,8.88654388 18.4570194,8.80670777 17.8795313,8.73840411 C17.3013251,8.66936402 16.7166385,8.61255047 16.2369479,8.54279053 C15.7579754,8.47231257 15.3653122,8.36012151 15.2840474,8.30617634 C15.2035007,8.25223855 14.9503537,7.93365445 14.7015148,7.51797789 C14.4526759,7.10230133 14.1736435,6.58306465 13.8881305,6.07677068 C13.6026176,5.56975869 13.3113604,5.07712545 13.0215394,4.69668696 C12.876268,4.50609949 12.7324363,4.34356992 12.5756509,4.21843247 C12.4188728,4.09113911 12.2412391,3.99188893 12.0269203,4.00052354 L12.0268926,4.00053275 Z" id="Fill-1" fill="#70AF85"></path>
    </g>
</svg>