<?xml version="1.0" encoding="utf-8"?>
<!-- Generator: Adobe Illustrator 25.0.0, SVG Export Plug-In . SVG Version: 6.00 Build 0)  -->
<svg version="1.1" id="Calque_1" xmlns="http://www.w3.org/2000/svg" xmlns:xlink="http://www.w3.org/1999/xlink" x="0px" y="0px"
	 viewBox="0 0 24 24" style="enable-background:new 0 0 24 24;" xml:space="preserve">
<style type="text/css">
	.st0{fill-rule:evenodd;clip-rule:evenodd;fill:#4878C0;}
</style>
<g id="icon_x2F_list-star">
	<path id="Fill-1" class="st0" d="M12,4c-0.2,0-0.4,0.1-0.5,0.3c-0.1,0.1-0.3,0.3-0.4,0.5c-0.3,0.4-0.5,0.9-0.8,1.4
		c-0.2,0.5-0.5,1.1-0.7,1.5C9.4,8.2,9.2,8.5,9.1,8.6C9,8.6,8.7,8.8,8.2,8.9C7.7,9,7.1,9.1,6.6,9.2S5.4,9.4,5,9.6
		C4.8,9.7,4.6,9.8,4.4,9.9C4.2,10,4.1,10.1,4,10.3c-0.1,0.2,0,0.4,0.1,0.6c0.1,0.2,0.2,0.4,0.4,0.5c0.3,0.4,0.7,0.8,1.1,1.2
		C6,13,6.5,13.4,6.8,13.7s0.6,0.7,0.6,0.7c0,0.1,0.1,0.5,0,1c0,0.5-0.1,1.1-0.2,1.6c-0.1,0.6-0.1,1.1-0.1,1.6c0,0.2,0,0.5,0.1,0.6
		c0.1,0.2,0.1,0.4,0.3,0.5C7.7,20,7.9,20,8.1,20c0.2,0,0.4-0.1,0.6-0.2c0.4-0.2,1-0.4,1.5-0.7c0.5-0.3,1-0.6,1.4-0.8
		c0.4-0.2,0.8-0.4,0.9-0.4c0.1,0,0.5,0.1,0.9,0.3c0.4,0.2,1,0.4,1.5,0.7c0.5,0.2,1.1,0.5,1.5,0.6c0.2,0.1,0.4,0.1,0.6,0.1
		c0.2,0,0.4,0,0.6-0.1c0.2-0.1,0.2-0.3,0.3-0.5c0-0.2,0-0.4,0-0.7c0-0.5-0.1-1-0.2-1.6c-0.1-0.6-0.2-1.1-0.3-1.6
		c-0.1-0.5-0.1-0.9-0.1-1c0-0.1,0.2-0.4,0.6-0.8c0.3-0.4,0.7-0.8,1.1-1.2c0.4-0.4,0.8-0.9,1-1.3c0.1-0.2,0.2-0.4,0.3-0.6
		s0.1-0.4,0-0.6c-0.1-0.2-0.2-0.3-0.4-0.4c-0.2-0.1-0.4-0.2-0.6-0.2c-0.5-0.1-1-0.2-1.6-0.3c-0.6-0.1-1.2-0.1-1.6-0.2
		c-0.5-0.1-0.9-0.2-1-0.2c-0.1-0.1-0.3-0.4-0.6-0.8c-0.2-0.4-0.5-0.9-0.8-1.4c-0.3-0.5-0.6-1-0.9-1.4c-0.1-0.2-0.3-0.4-0.4-0.5
		C12.4,4.1,12.2,4,12,4L12,4z"/>
</g>
</svg>
