<?xml version="1.0" encoding="utf-8"?>
<!-- Generator: Adobe Illustrator 25.0.0, SVG Export Plug-In . SVG Version: 6.00 Build 0)  -->
<svg version="1.1" id="Calque_1" xmlns="http://www.w3.org/2000/svg" xmlns:xlink="http://www.w3.org/1999/xlink" x="0px" y="0px"
	 viewBox="0 0 44 44" style="enable-background:new 0 0 44 44;" xml:space="preserve">
<style type="text/css">
	.st0{display:none;}
	.st1{display:inline;fill:none;}
	.st2{display:inline;}
	.st3{fill:none;stroke:#4878C0;stroke-width:1.6;}
	.st4{fill-rule:evenodd;clip-rule:evenodd;fill:#4878C0;}
	.st5{fill:#FFFFFF;}
	.st6{fill:#575756;}
	.st7{fill:#3C3C3B;}
	.st8{fill:#B1B1B1;}
	.st9{fill:#2B96C7;}
	.st10{fill:#965CA0;}
	.st11{fill:#F7CB06;}
	.st12{fill:#003262;}
	.st13{fill:#001F43;}
	.st14{fill:none;stroke:#001F43;stroke-width:0.4003;stroke-miterlimit:10;}
</style>
<g id="Icon-About-default" class="st0">
	<rect id="Rectangle" class="st1" width="44" height="44"/>
	<g id="Group-9" transform="translate(11.000000, 4.000000)" class="st2">
		<path id="Fill-1" class="st3" d="M14,0.5c9.3,2.8,10.5,15.5,1.9,20.1c-1.5,0.8-2.7,2.2-3.3,3.8L10.4,30c-0.6,1.5-2.3,2.4-3.9,1.9
			l-3.5-1c-1.6-0.5-2.5-2.1-2.2-3.7c1.3-5.9,2.1-8,0.5-10.9C-3.3,7.7,4.7-2.3,14,0.5"/>
		<path id="Fill-3" class="st4" d="M5.2,7.2C4.6,7.3,4.3,8,4.4,8.6c0.2,0.8,1,1.5,1.7,2c0.2-1,0.4-1.8,0.2-2.6
			C6.2,7.6,5.2,7.2,5.2,7.2L5.2,7.2z M13.5,11.2c-0.7,0.5-1.1,1.2-1.4,2.1c1.2,0.2,2,0.1,2.6-0.4C15.6,12.1,15,10.1,13.5,11.2
			L13.5,11.2z M8.1,25.5c1.2-4.7,2.7-9.9,3.3-11.8c-1.8-0.4-3.4-1.1-4.9-2.1c-0.8,4-1.7,7.9-2.7,11.8l-0.5-0.1c1-4,1.9-8,2.7-12
			c-0.9-0.6-1.9-1.4-2.1-2.5c-0.1-0.5,0-1.1,0.3-1.5C5,6.2,6.5,6.7,6.8,8c0.2,0.9,0,1.8-0.2,3c1.5,1,3.2,1.8,5,2.2
			c0.3-1,0.8-1.8,1.6-2.4c2.8-2,4.1,4-1.3,3c-0.5,1.5-2,6.8-3.3,11.8L8.1,25.5z"/>
		<path id="Fill-5" class="st4" d="M12.6,24.2c0,0,0,0.1-0.1,0.1L10.4,30c-0.6,1.5-2.3,2.4-3.9,1.9l-3.5-1c-1.6-0.5-2.5-2.1-2.2-3.7
			c0.6-2.6,1-4.5,1.3-6L12.6,24.2z"/>
	</g>
</g>
<g>
	<path class="st5" d="M37.1,22c0,8.3-6.8,15.1-15.1,15.1c-8.3,0-15.1-6.8-15.1-15.1c0-8.3,6.8-15.1,15.1-15.1
		C30.3,6.9,37.1,13.7,37.1,22z"/>
	<g>
		<g>
			<path class="st6" d="M29.5,31.2c0,0.8-0.7,1.5-1.5,1.5H14.9c-0.8,0-1.5-0.7-1.5-1.5V13.8c0-0.8,0.7-1.5,1.5-1.5H28
				c0.8,0,1.5,0.7,1.5,1.5V31.2z"/>
			<path class="st5" d="M28.5,30.2c0,0.7-0.6,1.4-1.3,1.4H15.7c-0.7,0-1.3-0.6-1.3-1.4V14.5c0-0.7,0.6-1.4,1.3-1.4h11.6
				c0.7,0,1.3,0.6,1.3,1.4V30.2z"/>
			<g>
				<path class="st7" d="M23,11c0,0,0-0.1,0-0.1c0-0.9-0.7-1.6-1.6-1.6c-0.9,0-1.6,0.7-1.6,1.6c0,0,0,0.1,0,0.1
					c-1.7,0.1-2.6,1-2.6,1.9v1h8.4v-1C25.6,12,25,11.1,23,11z"/>
				<path class="st5" d="M22.2,10.6c0,0.4-0.3,0.8-0.8,0.8c-0.4,0-0.8-0.3-0.8-0.8c0-0.4,0.3-0.8,0.8-0.8
					C21.8,9.8,22.2,10.2,22.2,10.6z"/>
			</g>
		</g>
		<g>
			<g>
				<rect x="15.4" y="20.8" class="st8" width="12.2" height="0.5"/>
				<rect x="15.4" y="22.3" class="st8" width="12.2" height="0.5"/>
				<rect x="15.4" y="23.9" class="st8" width="12.2" height="0.5"/>
				<rect x="15.4" y="25.4" class="st8" width="12.2" height="0.5"/>
			</g>
			<g>
				<g>
					<rect x="16.5" y="16.4" class="st9" width="0.8" height="3.2"/>
					<rect x="17.5" y="17.5" class="st10" width="0.8" height="2.1"/>
					<rect x="18.5" y="16.8" class="st11" width="0.8" height="2.8"/>
					<rect x="19.5" y="18.6" class="st12" width="0.8" height="1.1"/>
					<polygon class="st13" points="16.1,19.5 16.1,14.8 15.8,14.8 15.8,19.7 20.8,19.7 20.8,19.5 					"/>
					<polyline class="st14" points="16.4,16.1 17.2,15.6 18,17 18.9,16 20,17.4 20.7,16.5 					"/>
					<path class="st11" d="M16.5,16.2c-0.1,0-0.1,0-0.2,0c0-0.1,0-0.1,0-0.2c0.1,0,0.1,0,0.2,0C16.5,16,16.5,16.1,16.5,16.2z"/>
					<path class="st11" d="M19,16.1c-0.1,0-0.1,0-0.2,0c0-0.1,0-0.1,0-0.2c0.1,0,0.1,0,0.2,0C19.1,16,19.1,16.1,19,16.1z"/>
					<path class="st11" d="M18.1,17.1c-0.1,0-0.1,0-0.2,0c0-0.1,0-0.1,0-0.2c0.1,0,0.1,0,0.2,0C18.1,17,18.1,17,18.1,17.1z"/>
					<path class="st11" d="M17.3,15.8c-0.1,0-0.1,0-0.2,0c0-0.1,0-0.1,0-0.2c0.1,0,0.1,0,0.2,0C17.4,15.6,17.4,15.7,17.3,15.8z"/>
					<path class="st11" d="M20,17.5c-0.1,0-0.1,0-0.2,0c0-0.1,0-0.1,0-0.2c0.1,0,0.1,0,0.2,0C20.1,17.3,20.1,17.4,20,17.5z"/>
					<path class="st11" d="M20.8,16.6c-0.1,0-0.1,0-0.2,0c0-0.1,0-0.1,0-0.2c0.1,0,0.1,0,0.2,0C20.9,16.5,20.9,16.5,20.8,16.6z"/>
				</g>
				<g>
					<polygon class="st10" points="26.7,18.8 25.4,16.4 23.3,16.4 21.9,18.8 					"/>
					<polygon class="st13" points="26.6,18.6 22,18.6 21.4,19.7 27.2,19.7 					"/>
					<polygon class="st9" points="25.5,16.5 24.3,14.4 23.2,16.5 					"/>
				</g>
			</g>
			<g>
				<g>
					<path class="st12" d="M19,28.9C19,28.9,19.1,28.9,19,28.9c0-0.9-0.8-1.7-1.7-1.7c-0.6,0-1.2,0.4-1.5,0.9l1.5,0.8H19z"/>
					<path class="st9" d="M17.4,28.9h-1.7c0,0,0,0,0,0c0,0.9,0.8,1.7,1.7,1.7c0,0,0,0,0,0V28.9z"/>
					<path class="st10" d="M19,28.9h-1.7v1.7c0,0,0,0,0,0C18.3,30.6,19.1,29.8,19,28.9C19.1,28.9,19.1,28.9,19,28.9z"/>
					<path class="st11" d="M17.4,28.9H19c0-0.6-0.3-1.1-0.8-1.4L17.4,28.9z"/>
					<path class="st13" d="M15.9,28.1c-0.1,0.2-0.2,0.5-0.2,0.8h1.7L15.9,28.1z"/>
				</g>
				<g>
					<path class="st12" d="M27.4,28.9c0-0.9-0.8-1.7-1.7-1.7S24,28,24,28.9H27.4z"/>
					<path class="st9" d="M24,28.9C24,28.9,24,28.9,24,28.9c0,0.9,0.8,1.7,1.7,1.7c0.9,0,1.7-0.8,1.7-1.7c0,0,0,0,0,0H24z"/>
					<path class="st10" d="M27.4,28.9h-1.7l1,1.3C27.1,29.9,27.4,29.4,27.4,28.9C27.4,28.9,27.4,28.9,27.4,28.9z"/>
					<path class="st11" d="M25.7,28.9h1.7c0-0.6-0.3-1.1-0.8-1.4L25.7,28.9z"/>
				</g>
				<g>
					<path class="st9" d="M20.3,30.1c-0.7-0.7-0.7-1.7,0-2.4c0.7-0.7,1.7-0.7,2.4,0c0.7,0.7,0.7,1.7,0,2.4
						C22.1,30.7,21,30.7,20.3,30.1z"/>
					<path class="st11" d="M22.7,27.7C22.7,27.7,22.7,27.7,22.7,27.7c-0.7-0.7-1.7-0.7-2.4,0c-0.7,0.7-0.7,1.7,0,2.4c0,0,0,0,0,0
						L22.7,27.7z"/>
					<path class="st12" d="M20.4,30.1l1.2-1.2l-1.2-1.2c0,0,0,0,0,0C19.7,28.4,19.7,29.4,20.4,30.1C20.3,30.1,20.3,30.1,20.4,30.1z"
						/>
				</g>
			</g>
		</g>
	</g>
</g>
</svg>
