<?xml version="1.0" encoding="utf-8"?>
<!-- Generator: Adobe Illustrator 25.0.0, SVG Export Plug-In . SVG Version: 6.00 Build 0)  -->
<svg version="1.1" id="Calque_1" xmlns="http://www.w3.org/2000/svg" xmlns:xlink="http://www.w3.org/1999/xlink" x="0px" y="0px"
	 viewBox="0 0 44 44" style="enable-background:new 0 0 44 44;" xml:space="preserve">
<style type="text/css">
	.st0{display:none;}
	.st1{display:inline;fill:none;}
	.st2{display:inline;fill-rule:evenodd;clip-rule:evenodd;fill:#4878C0;}
	.st3{display:inline;fill-rule:evenodd;clip-rule:evenodd;fill:#144793;}
	.st4{display:inline;}
	.st5{fill-rule:evenodd;clip-rule:evenodd;fill:#A6DAE8;}
	.st6{fill-rule:evenodd;clip-rule:evenodd;fill:#EBFCFF;}
	.st7{fill-rule:evenodd;clip-rule:evenodd;fill:#95C2D9;}
	.st8{fill-rule:evenodd;clip-rule:evenodd;fill:#D3ECF0;}
	.st9{fill-rule:evenodd;clip-rule:evenodd;fill:#0B95A1;}
	.st10{fill-rule:evenodd;clip-rule:evenodd;fill:#14B0BF;}
	.st11{fill-rule:evenodd;clip-rule:evenodd;fill:#FDC00F;}
	.st12{fill-rule:evenodd;clip-rule:evenodd;fill:#EC9801;}
	.st13{fill-rule:evenodd;clip-rule:evenodd;fill:#FC611F;}
	.st14{fill-rule:evenodd;clip-rule:evenodd;fill:#E65719;}
	.st15{fill-rule:evenodd;clip-rule:evenodd;fill:#CF4C14;}
	.st16{fill-rule:evenodd;clip-rule:evenodd;fill:#143143;}
</style>
<g id="Icon-Discover-default" class="st0">
	<rect id="Rectangle" class="st1" width="44" height="44"/>
	<path id="Combined-Shape" class="st2" d="M22,7c8.3,0,15,6.7,15,15s-6.7,15-15,15S7,30.3,7,22S13.7,7,22,7z M22,8.9
		c-7.2,0-13,5.8-13,13s5.8,13,13,13s13-5.8,13-13S29.2,8.9,22,8.9z M22.2,33.3c0.3,0,0.5,0.2,0.5,0.5s-0.2,0.5-0.5,0.5
		s-0.5-0.2-0.5-0.5S21.9,33.3,22.2,33.3z M19.6,21l4.2,2.9l-7.8,7L19.6,21z M27.7,13.6l-3.6,9.9l-4.2-2.9L27.7,13.6z M34,21.5
		c0.3,0,0.5,0.2,0.5,0.5s-0.2,0.5-0.5,0.5s-0.5-0.2-0.5-0.5S33.7,21.5,34,21.5z M10.4,21.5c0.3,0,0.5,0.2,0.5,0.5s-0.2,0.5-0.5,0.5
		S9.9,22.3,9.9,22S10.1,21.5,10.4,21.5z M22.2,9.7c0.3,0,0.5,0.2,0.5,0.5s-0.2,0.5-0.5,0.5s-0.5-0.2-0.5-0.5S21.9,9.7,22.2,9.7z"/>
</g>
<g class="st0">
	<path class="st2" d="M37.4,22L37.4,22c0,0.4,0,0.8-0.1,1.2c0,0.1,0,0.2,0,0.3v0.1c-0.8,7.7-7.3,13.7-15.2,13.7s-14.4-6-15.2-13.7
		v-0.1c0-0.1,0-0.2,0-0.3c0-0.4-0.1-0.8-0.1-1.2l0,0c0-8.5,6.9-15.3,15.3-15.3S37.4,13.6,37.4,22z"/>
	<path class="st3" d="M20.1,37.2l-8.4-8.4l3.6-13l1.3-0.6l1.8,0.6l1.7-0.6l1.9,0.6l1.9-0.6l1.7,0.6l1.8-0.6l1.3,0.6l8.4,8.4
		C36,31.6,29.7,37.3,22,37.3C21.4,37.3,20.8,37.3,20.1,37.2z"/>
	<g class="st4">
		<g>
			<polygon class="st5" points="15.4,15.9 16.7,15.3 18.4,15.9 20.1,15.3 22.1,15.9 24,15.3 25.7,15.9 27.5,15.3 28.8,15.9 
				32.5,28.8 30,28.1 27.3,28.8 24.7,28.1 22.1,28.8 19.4,28.1 16.9,28.8 14.2,28.1 11.7,28.8 			"/>
			<path class="st6" d="M15.4,15.9l1.3-0.6l1.8,0.6l1.7-0.6l1.9,0.6l1.9-0.6l1.7,0.6l1.8-0.6l1.3,0.6l3.6,13L30,28.1l-2.7,0.7
				l-2.6-0.7l-2.6,0.7l-2.7-0.7l-2.6,0.7l-2.7-0.7l-2.5,0.7L15.4,15.9L15.4,15.9z M15.6,16.1l-3.4,12.2l2-0.5l2.7,0.7l2.6-0.7
				l2.7,0.7l2.6-0.7l2.6,0.7l2.7-0.7l2,0.5l-3.4-12.2l-1-0.5L26,16.2l-2-0.6l-1.9,0.6l-1.9-0.6l-1.7,0.6l-1.7-0.6L15.6,16.1z"/>
			<g>
				<polygon class="st7" points="27.5,15.3 28.8,15.9 32.5,28.8 30,28.1 				"/>
				<polygon class="st7" points="24,15.3 25.7,15.9 27.3,28.8 24.7,28.1 				"/>
				<polygon class="st7" points="20.1,15.3 22.1,15.9 22.1,28.8 19.4,28.1 				"/>
				<polygon class="st7" points="16.7,15.3 18.4,15.9 16.9,28.8 14.2,28.1 				"/>
			</g>
			<g>
				<polygon class="st8" points="27.5,15.3 28.8,15.9 32.5,28.8 30,28.1 29.9,27.8 30,27.8 32,28.3 28.5,16.1 27.6,15.7 				"/>
				<path class="st8" d="M24,15.3l1.7,0.6v0.4l0,0L24,15.7V15.3L24,15.3z M27.3,28.4v0.4l-2.6-0.7v-0.4l0,0L27.3,28.4z"/>
				<path class="st8" d="M20.1,15.3l1.9,0.6v0.4l-1.9-0.6l0,0V15.3L20.1,15.3z M22.1,28.5v0.4l-2.7-0.7v-0.4L22.1,28.5L22.1,28.5z"
					/>
				<path class="st8" d="M16.7,15.3l1.8,0.6v0.4l-1.7-0.6h-0.1L16.7,15.3L16.7,15.3z M16.9,28.4v0.4l-2.7-0.7l0.1-0.3L16.9,28.4
					L16.9,28.4z"/>
			</g>
			<polygon class="st9" points="31.4,26.4 29.1,24.3 26.7,23.7 26.6,23.7 24.4,22.1 22.1,22.2 22,22.2 21.9,22.2 19.7,20.5 17.9,20 
				16.1,18.1 16.1,18 15.5,16.5 15.6,16.1 15.8,16 16.4,17.7 18,19.6 19.9,20 22.1,21.7 24.4,21.6 26.6,23.2 29.2,23.9 29.2,23.9 
				31.2,25.7 			"/>
			<path class="st10" d="M29.3,24.5l-0.2-0.2l-2.4-0.6l-0.1-0.5l0,0l2.5,0.7L29.3,24.5L29.3,24.5z M24.4,22.1L24.4,22.1l-2.3,0.1
				v-0.5l0,0l2.2-0.1L24.4,22.1L24.4,22.1z M19.9,20.6l-0.1-0.1L17.9,20l0.1-0.5l0,0l1.9,0.4V20.6L19.9,20.6z M16.1,18.1L16.1,18.1
				L16.1,18.1l-0.6-1.6l0.1-0.4l0.2-0.1l0.5,1.3L16.1,18.1z"/>
			<polygon class="st9" points="17.9,19.8 15,24 12.7,28.2 12.2,28.3 12.5,27.4 15.3,22.4 17.5,19.5 			"/>
			<polygon class="st10" points="15,24.1 12.7,28.2 12.2,28.3 12.5,27.4 15.3,22.4 			"/>
		</g>
		<g>
			<path class="st11" d="M22.1,15.8c2.4,0,4.3,1.9,4.3,4.3c0,2.2-2.4,4.7-3.8,6.3c-0.1,0.1-0.4,0.4-0.5,0.5c-0.1,0-0.4-0.4-0.5-0.5
				c-1.5-1.7-3.7-4.2-3.7-6.3C17.8,17.7,19.7,15.8,22.1,15.8L22.1,15.8z M22.1,17.4c-1.5,0-2.7,1.2-2.7,2.7s1.2,2.7,2.7,2.7
				s2.7-1.2,2.7-2.7C24.8,18.6,23.6,17.4,22.1,17.4z"/>
			<path class="st12" d="M22.1,15.8c2.4,0,4.3,1.9,4.3,4.3c0,2.2-2.4,4.7-3.8,6.3c-0.1,0.1-0.4,0.4-0.5,0.5v-4.1
				c1.5,0,2.7-1.2,2.7-2.7s-1.2-2.7-2.7-2.7C22.1,17.4,22.1,15.8,22.1,15.8z"/>
		</g>
	</g>
</g>
<g>
	<path class="st11" d="M37,21.8L37,21.8c0,0.4,0,0.8-0.1,1.2c0,0.1,0,0.2,0,0.3l0,0.1C36.1,31.1,29.7,37,21.8,37
		C14,37,7.5,31.1,6.7,23.4l0-0.1c0-0.1,0-0.2,0-0.3c0-0.4,0-0.8-0.1-1.2v0c0-8.4,6.8-15.2,15.2-15.2S37,13.4,37,21.8z"/>
	<path class="st12" d="M25.9,36.5l-8.7-8.7c-1.4-1.3-2.2-3.1-2.2-5.1c0-3.7,2.9-6.7,6.6-6.9v-0.1c-0.2,0-0.4-0.1-0.4-0.2
		c0,0,0,0,0,0c0,0,0,0,0,0v-0.2c-0.2,0-0.4-0.1-0.4-0.2h0v0v-0.9v0h0c0-0.1,0.6-0.2,1.2-0.2c0.7,0,1.2,0.1,1.2,0.2L36,27.2
		C34.3,31.7,30.5,35.2,25.9,36.5z"/>
	<g>
		<rect x="21.5" y="15.2" class="st13" width="0.9" height="1.2"/>
		<path class="st13" d="M21.8,15.9c3.8,0,6.9,3.1,6.9,6.9s-3.1,6.9-6.9,6.9c-3.8,0-6.9-3.1-6.9-6.9S18,15.9,21.8,15.9z"/>
		<path class="st14" d="M23.2,15.2c0,0.1-0.6,0.3-1.2,0.3c-0.7,0-1.2-0.1-1.2-0.3h0v0v-0.9h2.5L23.2,15.2L23.2,15.2L23.2,15.2z"/>
		<path class="st13" d="M22,14.1c0.7,0,1.2,0.1,1.2,0.3c0,0.1-0.6,0.3-1.2,0.3c-0.7,0-1.2-0.1-1.2-0.3C20.7,14.2,21.3,14.1,22,14.1z
			"/>
		
			<ellipse transform="matrix(0.9993 -3.678678e-02 3.678678e-02 0.9993 -0.8208 0.818)" class="st6" cx="21.8" cy="22.7" rx="5.7" ry="5.7"/>
		<g>
			<path class="st8" d="M22.5,20.9l-0.6-3.4l-0.6,3.4c0.2-0.1,0.4-0.1,0.6-0.1C22,20.8,22.3,20.9,22.5,20.9L22.5,20.9z M21.2,24.5
				l0.6,3.4l0.6-3.4c-0.2,0.1-0.4,0.1-0.6,0.1C21.6,24.6,21.4,24.6,21.2,24.5z"/>
			<path class="st8" d="M23.7,22.4l2.7-2.2l-3.3,1.1C23.4,21.6,23.6,22,23.7,22.4L23.7,22.4z M20,23l-2.7,2.2l3.3-1.1
				C20.3,23.9,20,23.5,20,23z"/>
			<path class="st8" d="M22.8,24.3l3.1,1.6l-2.3-2.6C23.5,23.7,23.2,24.1,22.8,24.3L22.8,24.3z M20.8,21.1l-3.1-1.6l2.3,2.6
				C20.2,21.7,20.4,21.4,20.8,21.1z"/>
		</g>
		<path class="st8" d="M21.8,17.4c3,0,5.3,2.4,5.3,5.3c0,3-2.4,5.3-5.3,5.3c-3,0-5.3-2.4-5.3-5.3C16.5,19.8,18.9,17.4,21.8,17.4
			L21.8,17.4z M21.8,17.7c-2.8,0-5,2.3-5,5c0,2.8,2.3,5,5,5c2.8,0,5-2.3,5-5C26.8,19.9,24.6,17.7,21.8,17.7z"/>
		<path class="st8" d="M21.8,21.1c0.9,0,1.6,0.7,1.6,1.6c0,0.9-0.7,1.6-1.6,1.6s-1.6-0.7-1.6-1.6C20.2,21.8,20.9,21.1,21.8,21.1z"/>
		<g>
			<rect x="21.8" y="15.2" class="st14" width="0.6" height="1.2"/>
			<path class="st14" d="M21.8,15.9c3.8,0,6.9,3.1,6.9,6.9s-3.1,6.9-6.9,6.9v-1.2l4.4-5.6l-4.4-5.7V15.9z"/>
			<path class="st15" d="M23.2,15.2c0,0.1-0.6,0.3-1.2,0.3c0,0-0.1,0-0.1,0v-1.1h1.4L23.2,15.2L23.2,15.2L23.2,15.2z"/>
			<path class="st14" d="M22,14.1c0.7,0,1.2,0.1,1.2,0.3c0,0.1-0.6,0.3-1.2,0.3c0,0-0.1,0-0.1,0v-0.5C21.9,14.1,21.9,14.1,22,14.1z"
				/>
			<path class="st6" d="M21.8,17c3.2,0,5.7,2.6,5.7,5.7c0,3.2-2.6,5.7-5.7,5.7V17z"/>
			<g>
				<path class="st8" d="M22.5,20.9l-0.6-3.4v3.3C22,20.8,22.3,20.9,22.5,20.9L22.5,20.9z M21.8,27.9l0.6-3.4
					c-0.2,0.1-0.4,0.1-0.6,0.1V27.9z"/>
				<path class="st8" d="M23.7,22.4l2.7-2.2l-3.3,1.1C23.4,21.6,23.6,22,23.7,22.4z"/>
				<path class="st8" d="M22.8,24.3l3.1,1.6l-2.3-2.6C23.5,23.7,23.2,24.1,22.8,24.3z"/>
			</g>
			<path class="st8" d="M21.8,17.4c3,0,5.3,2.4,5.3,5.3c0,3-2.4,5.3-5.3,5.3v-0.3c2.8,0,5-2.3,5-5c0-2.8-2.3-5-5-5V17.4z"/>
			<path class="st8" d="M21.8,21.1c0.9,0,1.6,0.7,1.6,1.6c0,0.9-0.7,1.6-1.6,1.6V21.1z"/>
		</g>
		<g>
			<g>
				<polygon class="st10" points="22.6,22 21.8,22.7 21.1,23.5 25.8,26.7 				"/>
				<polygon class="st13" points="22.6,22 17.9,18.8 21.1,23.5 				"/>
				<polygon class="st9" points="21.1,23.5 25.8,26.7 21.8,22.7 				"/>
				<polygon class="st14" points="17.9,18.8 21.1,23.5 21.8,22.7 				"/>
			</g>
			<g>
				<polygon class="st16" points="21.6,18.8 21.8,18.8 21.8,18.4 22,18.8 22.2,18.8 22.2,18 22,18 22,18.4 21.8,18 21.6,18 				"/>
				<polygon class="st16" points="17.1,22.4 17.3,23.1 17.5,23.1 17.6,22.9 17.7,23.1 17.9,23.1 18.1,22.4 17.9,22.4 17.8,22.9 
					17.7,22.5 17.7,22.4 17.5,22.4 17.4,22.9 17.3,22.4 				"/>
				<path class="st16" d="M25.9,22.9c0,0.2,0.2,0.2,0.3,0.2c0,0,0.3,0,0.4,0v-0.2h-0.3c0,0-0.1,0-0.1-0.1v-0.1l0.3,0v-0.2l-0.3,0
					v-0.1c0,0,0-0.1,0.1-0.1h0.3v-0.2c-0.1,0-0.4,0-0.4,0c-0.1,0-0.2,0-0.2,0.2V22.9z"/>
				<path class="st16" d="M21.6,26.9c0,0.1,0,0.3,0.2,0.3h0.1c0.1,0,0.1,0,0.1,0.1v0c0,0,0,0.1-0.1,0.1c-0.1,0-0.3,0-0.3,0v0.2
					c0.1,0,0.2,0,0.4,0c0.1,0,0.3,0,0.3-0.3v0c0-0.1,0-0.3-0.2-0.3h-0.1c-0.1,0-0.1,0-0.1-0.1v0c0-0.1,0-0.1,0.1-0.1
					c0.1,0,0.2,0,0.3,0v-0.2c-0.1,0-0.2-0.1-0.4,0C21.7,26.5,21.6,26.6,21.6,26.9L21.6,26.9z"/>
			</g>
		</g>
	</g>
</g>
</svg>
