<?xml version="1.0" encoding="utf-8"?>
<!-- Generator: Adobe Illustrator 25.0.0, SVG Export Plug-In . SVG Version: 6.00 Build 0)  -->
<svg version="1.1" id="Calque_1" xmlns="http://www.w3.org/2000/svg" xmlns:xlink="http://www.w3.org/1999/xlink" x="0px" y="0px"
	 viewBox="0 0 44 44" style="enable-background:new 0 0 44 44;" xml:space="preserve">
<style type="text/css">
	.st0{display:none;}
	.st1{display:inline;fill:none;}
	.st2{display:inline;}
	.st3{fill-rule:evenodd;clip-rule:evenodd;fill:#062172;}
	.st4{fill-rule:evenodd;clip-rule:evenodd;fill:#FFFFFF;}
	.st5{fill-rule:evenodd;clip-rule:evenodd;fill:#4878C0;}
	.st6{fill-rule:evenodd;clip-rule:evenodd;fill:#E40001;}
	.st7{fill-rule:evenodd;clip-rule:evenodd;fill:#2E4661;fill-opacity:0.2;}
	.st8{fill-rule:evenodd;clip-rule:evenodd;fill:#FC611F;}
	.st9{fill-rule:evenodd;clip-rule:evenodd;fill:#CF4C14;}
	.st10{fill-rule:evenodd;clip-rule:evenodd;fill:#14B0BF;}
	.st11{fill-rule:evenodd;clip-rule:evenodd;fill:#FDC00F;}
	.st12{fill-rule:evenodd;clip-rule:evenodd;fill:#0B95A1;}
	.st13{fill-rule:evenodd;clip-rule:evenodd;fill:#EC9801;}
</style>
<g id="Icon-Discover-selected" class="st0">
	<rect id="Rectangle" class="st1" width="44" height="44"/>
	<g id="Group-20" transform="translate(6.999982, 7.000000)" class="st2">
		<path id="Fill-1" class="st3" d="M30,15c0,8.3-6.7,15-15,15S0,23.3,0,15S6.7,0,15,0S30,6.7,30,15"/>
		<path id="Fill-4" class="st4" d="M28,14.9c0,7.2-5.8,13-13,13s-13-5.8-13-13s5.8-13,13-13S28,7.7,28,14.9"/>
		<polygon id="Fill-6" class="st5" points="12.6,14 16.9,16.8 9,23.9 		"/>
		<polygon id="Fill-8" class="st6" points="12.8,13.7 17.1,16.6 20.7,6.6 		"/>
		<path id="Fill-10" class="st3" d="M27.5,15c0,0.3-0.2,0.5-0.5,0.5s-0.5-0.2-0.5-0.5s0.2-0.5,0.5-0.5S27.5,14.7,27.5,15"/>
		<path id="Fill-12" class="st3" d="M3.9,15c0,0.3-0.2,0.5-0.5,0.5S2.9,15.3,2.9,15s0.2-0.5,0.5-0.5S3.9,14.7,3.9,15"/>
		<path id="Fill-14" class="st3" d="M15.2,2.7c0.3,0,0.5,0.2,0.5,0.5s-0.2,0.5-0.5,0.5s-0.5-0.2-0.5-0.5S14.9,2.7,15.2,2.7"/>
		<path id="Fill-16" class="st3" d="M15.2,26.3c0.3,0,0.5,0.2,0.5,0.5s-0.2,0.5-0.5,0.5s-0.5-0.2-0.5-0.5S14.9,26.3,15.2,26.3"/>
		<path id="Fill-18" class="st7" d="M20.4,2.9L20.4,2.9c2.1,2.3,3.5,5.4,3.5,8.7c0,7-5.7,12.6-12.6,12.6c-2.7,0-5.3-0.9-7.4-2.4l0,0
			c2.4,4.4,7.5,6.1,11.5,6.1c7.2,0,13-5.8,13-13C28.4,11.3,26.4,5.9,20.4,2.9"/>
	</g>
</g>
<g>
	<path class="st8" d="M37,21.9L37,21.9c0,0.4,0,0.8,0,1.2c0,0.1,0,0.2,0,0.3l0,0.1c-0.8,7.5-7.2,13.4-14.9,13.4S7.9,31.1,7.1,23.5
		l0-0.1c0-0.1,0-0.2,0-0.3c0-0.4,0-0.8,0-1.2v0c0-8.3,6.7-15,15-15S37,13.7,37,21.9z"/>
	<path class="st9" d="M27.7,16.7l8.8,8.8c-1.3,5.4-5.6,9.6-11,11l-8.8-8.8c-1.3-1.2,0.2-13.5,5.3-13.5
		C25.3,14.2,26.3,15.1,27.7,16.7z"/>
	<g>
		<circle class="st10" cx="22" cy="21.9" r="7.8"/>
		<path class="st11" d="M18.7,15.3c0,0,0.1-0.1,0.2-0.1c0-0.1,0-0.1,0-0.2c0.1-0.1,0.2-0.1,0.2-0.2c0-0.1-0.1-0.1-0.1-0.1
			c-0.3,0.1-0.5,0.2-0.8,0.4c0.1,0,0.1,0,0.1,0c0,0,0,0.1-0.1,0.1c-0.1,0-0.2,0-0.3,0c-0.1,0-0.1,0.1-0.2,0.1l0,0c0,0,0,0.1,0,0.1
			c0,0,0.1,0,0.1,0.1c-0.1,0.1-0.2,0.1-0.3,0.1c-0.1,0.1-0.1,0.1,0,0.1c0,0,0.1,0,0.2,0c0.1,0,0.2,0,0.3,0c0.1,0,0.3,0,0.4,0
			c0.1,0,0.1,0,0-0.1c0-0.1-0.1-0.2-0.1-0.2c0,0-0.2,0-0.1,0C18.4,15.3,18.7,15.3,18.7,15.3L18.7,15.3z M19.5,14.6
			C19.5,14.6,19.5,14.6,19.5,14.6c0.1,0,0.2,0,0.2-0.1C19.6,14.5,19.6,14.6,19.5,14.6L19.5,14.6z M29.7,21C29.7,21,29.7,21,29.7,21
			c-0.1,0-0.2,0-0.2,0.1c0,0,0,0.1,0.1,0.1c0,0,0.1,0.1,0.1,0.1c0,0.2,0,0.3,0,0.5h0c0,0.1,0,0.1,0,0.2c0,0.2,0,0.5,0,0.7l0,0
			c0,0,0,0-0.1,0c0,0-0.1,0-0.1,0.1c0,0-0.1,0-0.1,0c-0.1,0-0.2,0.1-0.3,0.1c0-0.1-0.1-0.2-0.1-0.3c0,0-0.1-0.1-0.1-0.1
			c0,0,0,0,0-0.1c0-0.1-0.1-0.1-0.1-0.1c0,0,0-0.1,0-0.1c-0.1-0.1-0.2-0.2-0.3-0.3c0,0,0-0.1,0-0.1c0,0,0-0.1-0.1-0.1
			c0,0-0.1,0-0.1-0.1c0,0,0-0.1,0-0.1c-0.1-0.1-0.2-0.2-0.3-0.3c-0.1,0-0.1,0-0.1,0c0,0.1,0.1,0.1,0.1,0.2c0,0.1,0.1,0.1,0.1,0.2
			c0,0,0,0.1,0,0.1c0,0.1,0.2,0.1,0.2,0.2c0,0.1,0,0.1,0,0.2c0,0.1,0.1,0.1,0.2,0.2c0,0.1,0,0.1,0.1,0.2c0,0.1,0.1,0.1,0.2,0.2
			c0.1,0,0.1,0.1,0.2,0.2c0,0,0.1,0,0.1,0.1c0,0,0,0.1,0,0.1c0,0,0.1,0.1,0.2,0.1c0,0,0.1,0,0.1,0c0,0,0.1,0,0.1,0c0,0,0.1,0,0.1,0
			c0,0,0.1,0,0.1,0c0,0.3-0.1,0.6-0.2,0.9c0,0-0.1,0.1-0.1,0.1c0,0-0.1,0.1-0.2,0.1c-0.1,0.1-0.2,0.2-0.3,0.3c0,0,0,0.1-0.1,0.1
			c0,0-0.1,0.1-0.1,0.1c0,0,0,0.1-0.1,0.2c0,0.1-0.1,0.1-0.1,0.2c0,0,0,0.1,0,0.1c0,0.1,0,0.1,0,0.2c0,0.1,0.1,0.2,0.1,0.2
			c0,0.1,0,0.2,0,0.3c0,0,0,0.1,0,0.1c0,0.1-0.1,0.1-0.1,0.2c0,0-0.1,0.1-0.1,0.1c-0.1,0-0.1,0.1-0.2,0.1c0,0-0.1,0.1-0.1,0.1
			c-0.1,0.1-0.2,0.1-0.2,0.2c0,0,0,0.1,0,0.1c0,0,0,0.1,0,0.2c-0.1,0.1-0.2,0.2-0.3,0.3c0,0-0.1,0.1-0.1,0.1
			c-0.4,0.5-0.9,0.9-1.5,1.3c-0.1,0-0.1-0.1-0.1-0.2c0,0,0-0.1,0-0.1c0,0,0-0.1-0.1-0.2c0-0.1,0-0.1-0.1-0.2c0-0.1-0.1-0.1-0.1-0.1
			c0-0.1,0-0.2-0.1-0.3c0,0,0-0.1,0-0.1c0-0.1,0-0.1,0-0.2c0,0,0-0.1-0.1-0.1c0-0.1-0.1-0.2-0.1-0.2c0-0.1-0.1-0.1-0.1-0.2
			c0,0,0-0.1,0-0.2c0,0,0-0.1,0.1-0.1c0,0,0-0.1,0-0.1c0-0.2,0.2-0.2,0.2-0.4c0-0.1-0.1-0.1-0.1-0.2c0,0,0-0.1,0-0.1
			c0-0.1,0-0.1-0.1-0.2c-0.1-0.1-0.1-0.3-0.2-0.4c0-0.1-0.1-0.1-0.2-0.1c0,0-0.1-0.1-0.1-0.2c0,0,0-0.1,0-0.1c0,0,0-0.1,0-0.2
			c0,0,0-0.1,0-0.2c0-0.1-0.1-0.2-0.1-0.2c-0.1,0-0.2,0-0.3,0c-0.1-0.1-0.1-0.2-0.2-0.2c-0.2,0-0.4,0.1-0.5,0.1
			c-0.1,0-0.1,0.1-0.2,0.1c-0.1,0-0.1,0-0.2,0c-0.1,0-0.2,0-0.2,0c-0.1,0-0.1,0.1-0.2,0.1c-0.1,0-0.2-0.1-0.3-0.2
			c0,0-0.1-0.1-0.1-0.1c0,0-0.1-0.1-0.1-0.1c0-0.1,0-0.1-0.1-0.2c0-0.1-0.1-0.1-0.2-0.2c-0.1-0.1-0.2-0.1-0.2-0.2c0,0,0-0.1,0-0.1
			c0-0.1,0-0.1,0-0.1c0-0.1,0.1-0.1,0.1-0.2c0,0,0-0.1,0-0.1c0-0.1,0.1-0.1,0-0.2c0,0,0-0.1,0-0.1c0,0,0-0.1,0-0.1
			c0-0.1-0.1-0.1-0.1-0.1c0-0.1,0.1-0.1,0.1-0.2c0,0,0-0.1,0-0.1c0-0.1,0.1-0.1,0.1-0.1c0,0,0-0.1,0-0.1c0,0,0.1-0.1,0.1-0.1
			c0,0,0-0.1,0.1-0.1c0,0,0.1,0,0.1,0c0.1-0.1,0.2-0.1,0.3-0.2c0-0.1,0-0.2,0-0.2c0-0.1,0.1-0.1,0.1-0.2c0.1,0,0.2,0,0.2-0.1
			c0,0,0.1-0.1,0.1-0.2c0-0.1-0.1-0.1-0.1-0.2c-0.1,0-0.1,0-0.2,0c0,0,0-0.1,0-0.1c0,0,0-0.1,0-0.1c0-0.1,0.1-0.1,0.1-0.2
			c0-0.1,0-0.2,0-0.3c0.1-0.1,0.3-0.1,0.5,0c0,0,0.1,0,0.1,0c0.1,0,0.2,0,0.2-0.1c0,0,0-0.2,0-0.2c0,0-0.1-0.2-0.1-0.2
			c-0.1,0-0.1,0-0.2-0.1c0-0.1,0.2,0,0.2,0c0,0,0-0.1,0.1-0.1c0,0,0.1,0,0.1,0c0,0,0.1-0.1,0.2-0.1c0,0,0-0.1,0.1-0.1
			c0,0,0.1,0,0.1,0c0.1,0,0.1-0.1,0.1-0.1c0-0.1,0.1-0.1,0.1-0.2c0.1,0,0.3,0,0.3-0.1c0-0.1-0.1-0.2-0.1-0.3c0-0.1,0.1-0.1,0.2-0.1
			c0,0,0,0.1,0,0.2c0.1,0,0.2,0,0.2-0.1c0-0.1-0.1-0.1-0.1-0.2c0,0,0-0.1-0.1-0.1c-0.1,0-0.2,0.1-0.3,0.1c-0.1,0-0.2-0.1-0.2-0.1
			c0,0,0-0.1,0-0.1c0-0.1,0-0.1,0-0.2c0-0.1,0.1-0.1,0.2-0.1c0,0,0,0,0.1-0.1c0.1,0,0.1,0,0.2,0c0,0,0-0.1,0-0.1c0,0,0,0,0.1-0.1
			c0,0,0-0.1,0-0.1c0-0.1,0.1-0.1,0.2-0.1c0,0,0,0,0-0.1c0,0,0.1,0,0.1,0c0.1,0,0.1-0.1,0.2-0.1c0.1,0,0.1,0,0.2,0c0,0,0.1,0,0.1,0
			c0,0,0,0,0.1,0c0,0,0,0,0.1,0c0,0,0.1,0,0.1,0c0.1,0,0.2,0,0.3,0c0,0,0,0.1,0.1,0.1c0,0,0.1,0,0.1,0c0.1,0,0.1,0.1,0.2,0.1
			c0,0,0.1,0,0.1,0c0.1,0,0.2,0.1,0.3,0.1c0.1,0,0.2,0.1,0.2,0.2c0,0.1-0.1,0.1-0.2,0.1c-0.1,0-0.2-0.1-0.3-0.1
			c0,0.1,0.2,0.3,0.3,0.3c0-0.1-0.1,0-0.1-0.1c0.1,0,0.1,0.1,0.2,0.1c0,0,0-0.1,0-0.1c0.1,0,0.1-0.1,0.3,0c0,0,0,0,0,0v0
			c0.5,0.7,1,1.4,1.3,2.2c0,0,0,0,0,0c0,0-0.1,0-0.1,0.1c0,0-0.1,0.1,0,0.1c0,0,0.1,0.1,0.1,0.1c0,0,0,0.1,0,0.1
			c0,0.1,0.1,0.1,0.2,0.2c0,0,0.1,0.1,0.2,0.2c0,0,0,0,0,0.1c0,0,0,0.1,0,0.1c0,0.1,0.1,0.1,0.1,0.1C29.6,20.5,29.7,20.7,29.7,21
			L29.7,21z M27.8,20.3c0,0.1,0.1,0,0.1,0C27.9,20.3,27.8,20.3,27.8,20.3L27.8,20.3z M25.7,19.9c0,0.1,0.1,0.1,0.2,0.1
			c0,0,0-0.1,0.1-0.1C25.9,19.9,25.7,19.8,25.7,19.9L25.7,19.9z M25.2,19.5c0,0.1,0,0.1,0,0.2c0,0.1,0.1,0,0.1,0
			C25.4,19.5,25.3,19.4,25.2,19.5L25.2,19.5z M25.3,19.3C25.3,19.2,25.2,19.4,25.3,19.3C25.3,19.4,25.3,19.4,25.3,19.3L25.3,19.3z
			 M24.6,18.1c0,0-0.1-0.1-0.1-0.1c0,0,0-0.1,0-0.1c0,0-0.1-0.1-0.1-0.1c0-0.1-0.1-0.1-0.1-0.2c0,0,0-0.1,0.1-0.1
			c0-0.1-0.1,0-0.1-0.1c0,0,0,0,0-0.1c0,0,0,0,0,0c0,0-0.1,0-0.1,0c0,0-0.1,0.1-0.1,0.1c0,0,0,0.1,0,0.2c0,0,0.1,0.1,0.1,0.1
			c0,0,0,0,0.1,0c0,0,0.1,0.1,0.1,0.1c0,0.1-0.1,0-0.1,0.1c0,0.1,0,0.1-0.1,0.1c0,0,0.1,0,0.1,0.1c0,0-0.1,0-0.1,0.1
			c0.1,0.1,0.1,0,0.2,0c0.1,0,0.3,0,0.4,0C24.5,18.2,24.6,18.2,24.6,18.1L24.6,18.1z M23.9,17.8c0-0.1-0.1-0.1-0.2-0.1
			c0,0-0.1,0.1-0.1,0.1c0,0-0.1,0-0.1,0.1c0,0,0,0.1,0,0.1c0,0-0.1,0.1-0.1,0.1c0.1,0.1,0.2,0,0.3,0c0,0,0.1,0,0.1,0
			c0,0,0-0.1,0-0.1C23.9,17.9,23.9,17.9,23.9,17.8L23.9,17.8z M19.7,16.3c0,0.1-0.2,0.1-0.2,0.1C19.5,16.3,19.7,16.3,19.7,16.3
			L19.7,16.3z M21.5,25.4c0,0.2-0.2,0.3-0.2,0.5c0,0,0,0.1-0.1,0.1c-0.1,0.1-0.1,0.1-0.1,0.3c0,0,0,0.1,0,0.1c0,0.1,0,0.1,0,0.2
			c0,0,0,0.1,0,0.1c0,0,0,0.1,0,0.1c0,0,0,0.1-0.1,0.1c-0.1,0.1-0.1,0.2-0.2,0.3c-0.1,0-0.2,0-0.2,0c0,0-0.1,0-0.1,0.1
			c-0.1,0-0.2,0.1-0.3,0.2c0,0.1,0,0.2,0,0.3c0,0,0,0.1-0.1,0.1c0,0,0,0.1-0.1,0.1c0,0-0.1,0.1-0.1,0.1c0,0,0,0.1,0,0.1
			c0,0,0,0,0,0.1c0,0,0,0,0,0.1c0,0.1-0.1,0.2-0.1,0.2c-0.1,0-0.3-0.1-0.3-0.1c0,0.1,0.1,0.1,0.1,0.1c0,0,0,0.1,0.1,0.1
			c0,0,0.1,0,0.1,0.1c0,0.1,0,0.2-0.1,0.2c0,0-0.1,0-0.2,0c0,0-0.1,0-0.2,0c0,0,0,0,0,0c-0.4-0.2-0.8-0.3-1.2-0.6c0,0,0,0,0,0
			c0,0,0-0.1,0-0.1c0-0.1,0-0.2,0-0.3c0-0.1-0.1-0.1-0.1-0.2c0,0,0-0.1,0-0.1c0,0,0-0.1,0-0.1c0,0,0-0.1,0-0.1c0-0.1,0-0.2,0-0.3
			c0,0,0,0,0-0.1c0-0.1,0-0.1,0-0.2c0-0.1,0-0.2,0-0.3c0-0.1-0.1-0.2-0.1-0.3c0-0.1-0.2-0.2-0.2-0.2c0,0-0.1,0-0.1-0.1
			c-0.1-0.1-0.3-0.2-0.4-0.3c0,0,0-0.1,0-0.1c0-0.1-0.1-0.1-0.1-0.2c-0.1-0.1-0.2-0.3-0.2-0.4c0-0.1-0.1-0.1-0.1-0.2
			c0,0-0.1-0.1-0.1-0.1c0-0.1-0.1-0.1-0.1-0.2c0-0.1,0.1-0.1,0.1-0.2c0,0-0.1-0.1-0.1-0.1c0-0.1,0-0.1,0-0.2c0,0,0-0.1,0-0.1
			c0,0,0.1,0,0.1-0.1c0,0,0-0.1,0-0.1c0-0.1,0.1-0.1,0.1-0.1c0,0,0-0.3,0-0.4c0,0-0.1-0.1-0.1-0.1c0-0.1,0-0.2-0.1-0.2
			c0,0-0.1,0.1-0.1,0.1c0,0,0,0.1,0,0.1c-0.1,0-0.1-0.1-0.2-0.1c0,0-0.1,0-0.1,0c-0.1,0-0.1-0.1-0.1-0.2c-0.1,0-0.1,0-0.1-0.1
			c0,0,0-0.1,0-0.1c-0.1,0-0.1-0.2-0.2-0.2c-0.1,0-0.1,0-0.2,0c0,0-0.1,0-0.1,0c0,0-0.1,0-0.1,0c-0.1-0.1-0.2-0.3-0.3-0.2
			c-0.1,0-0.1,0.1-0.2,0.1c-0.1,0-0.2,0-0.2-0.1c-0.1,0-0.1,0-0.2-0.1c0-0.1,0-0.3,0-0.4c0-0.1,0-0.1,0-0.2h0c0-0.1,0-0.3,0-0.4v0
			c0-0.1,0-0.1,0-0.2l0,0l0,0c0.1-1.6,0.8-3,1.7-4.1l0,0l0,0c0,0,0.1,0,0.1,0c0,0,0-0.1,0-0.1c0.1-0.1,0.2-0.2,0.3-0.3
			c0.1,0,0.2,0.1,0.3,0c0,0,0,0,0-0.1c0-0.1,0.1-0.1,0.1-0.2c-0.1,0-0.2,0.1-0.3,0.1c0.1-0.1,0.3-0.3,0.4-0.4c0.1,0,0.1,0,0.2,0
			c0.1,0,0.1,0,0.1,0c0.1,0,0.1,0.1,0.1,0.1c0,0,0.1,0,0.1,0c0,0,0.1,0,0.1,0c0,0,0,0.1,0.1,0.1c0,0,0.1-0.1,0.1-0.1c0,0,0,0,0.1,0
			c0,0,0.1-0.1,0.1,0c0,0-0.1,0.1-0.1,0.1c0,0-0.1,0.1-0.1,0.2c0,0.1,0.1,0,0.1,0.1c0,0-0.1,0-0.1,0.1c0,0-0.1,0.1-0.1,0.1
			c-0.1,0-0.2,0-0.3,0c0,0,0,0.1,0.1,0.1c0.1,0,0.1,0,0.3,0c0.1,0,0.1,0,0.2,0c0,0,0-0.1,0.1-0.1c0,0,0.1-0.1,0.2-0.1
			c0,0,0.1,0,0.1,0.1c0,0.1-0.1,0.1-0.1,0.1c0,0,0.2-0.1,0.2-0.1c0,0,0-0.1,0-0.1c0-0.1,0.1-0.1,0.1-0.1c0,0-0.1,0-0.1,0
			c-0.1,0-0.1-0.1-0.1-0.1c0,0,0.1,0,0.1,0c0.1-0.1,0.1-0.1,0.2-0.1c0,0,0.1,0,0.1,0c0,0.1-0.1,0.1-0.1,0.2c0.1,0,0.1-0.1,0.2-0.2
			c0,0,0.1,0,0.1-0.1c0,0,0.1-0.1,0.1-0.1c0,0,0,0,0.1,0c0,0,0.1,0,0.1,0c-0.1,0.1-0.3,0.1-0.4,0.2c0,0.1-0.1,0.2,0,0.2
			c0,0,0.1,0,0.1,0c0,0.1-0.1,0.1-0.1,0.1c0.1,0,0.1-0.1,0.2-0.1c0.1,0,0.1-0.1,0.2-0.2c0-0.1-0.1,0-0.2-0.1c0,0,0.1-0.1,0.1-0.1
			c0.1-0.1,0.3-0.2,0.4-0.2c0,0,0.1,0,0.1,0c0.1,0,0.2-0.1,0.3,0c0.1,0,0.1,0,0.2,0c0.1,0,0,0.1,0.1,0.2c0,0,0.1,0,0.1,0
			c0,0,0.1,0,0.1,0.1c0,0,0.1,0,0.1,0.1c0,0,0,0.1,0,0.1c0,0,0,0.1,0,0.1c0,0.1,0.1,0.1,0.1,0.1c0,0,0.1,0.1,0.1,0.1
			c0,0-0.1,0.1-0.1,0.1c0,0-0.1,0.1-0.2,0.1c-0.1,0-0.1-0.1-0.1-0.1c0,0-0.1,0-0.1,0.1c0,0.1,0.1,0.1,0.1,0.2c0,0.1-0.1,0.1-0.1,0.2
			c0,0-0.1,0-0.1-0.1c0,0.1,0.1,0.1,0,0.1c-0.1,0-0.2,0-0.2,0c0,0-0.1,0-0.1,0c0,0,0-0.1-0.1-0.1c0,0-0.1-0.1-0.1-0.1
			c-0.1,0-0.2,0.1-0.2,0c0.1-0.2,0.2-0.1,0.4-0.1c0,0,0.1-0.1,0.1-0.1c0.1-0.1,0.2-0.1,0.2-0.2c0,0-0.1,0-0.1-0.1
			c0,0-0.1-0.1-0.1-0.2c0,0-0.1,0-0.1,0c-0.1,0-0.2,0-0.2,0c0,0,0,0.1,0,0.1c0,0-0.1,0-0.1,0.1c0,0,0,0.1-0.1,0.1
			c-0.1,0.1-0.2,0.1-0.2,0.1c0,0-0.1,0.1-0.1,0.1c0,0-0.1-0.1-0.1,0c0,0.1,0.1,0.1,0.1,0.1c0,0,0.1,0.1,0.1,0.1
			c-0.1,0.1-0.1,0-0.2,0c-0.1,0-0.2,0.2-0.3,0.1c0-0.1,0.1-0.1,0.1-0.2c-0.1,0-0.2,0.1-0.3,0.1c0,0-0.1,0-0.1,0
			c-0.1,0-0.1,0.1-0.2,0.1c0,0-0.1,0-0.1,0c-0.1,0-0.2,0.1-0.2,0.1c-0.1,0.1-0.2,0.1-0.2,0.2c0,0-0.1,0.1-0.1,0.1c0,0,0.1,0,0.1,0.1
			c0,0,0,0.1,0,0.1c0,0,0.1,0,0.1,0c0.1,0,0.1,0.1,0.2,0.1c0,0,0.1,0.1,0.2,0.1c0.1,0,0.2,0,0.2,0c0,0.1-0.1,0.1-0.1,0.1
			c0,0.1,0,0.1,0,0.2c0,0,0,0.1,0.1,0.1c0.1,0,0.2-0.1,0.2-0.1c0-0.1,0-0.2,0.1-0.2c0.3,0,0.5-0.2,0.5-0.5c0,0,0-0.1,0-0.1
			c0-0.1,0.1-0.1,0.1-0.2c0.1,0,0.1-0.2,0.2-0.2c0.1,0,0.1,0,0.2,0c0,0,0.1,0,0.1,0c0.1,0,0.1,0.1,0.1,0.1c0,0,0.1,0,0.1,0.1
			c0,0.1-0.1,0.1-0.1,0.1c0,0.1,0.1,0.1,0.1,0.1c0,0,0.1,0,0.2,0c0.1,0,0.2-0.2,0.2-0.2c0.1,0,0.1,0.2,0.1,0.3c0,0.1,0,0.1,0,0.2
			c0,0.1,0.1,0.1,0.2,0.2c0,0,0,0.1,0,0.1c0,0,0.1,0,0.1,0.1c0,0.1-0.1,0.1-0.1,0.3c0,0-0.1,0-0.1,0.1c0,0.1,0.1,0,0.2,0.1
			c0,0,0,0.1,0,0.1c0,0.1,0,0.2,0,0.2c0,0-0.1-0.1-0.1-0.1c0,0-0.1,0-0.1,0c0,0-0.1,0-0.1,0c-0.1,0-0.2,0-0.2,0
			c0.1-0.1,0.2-0.2,0.3-0.3c0,0,0.1,0,0.1-0.1c0,0-0.1,0-0.2,0c-0.1,0-0.1,0.1-0.2,0.1c-0.1,0-0.2,0-0.3,0c0,0.1,0.1,0,0.1,0.1
			c0,0-0.1,0-0.1,0c0,0,0-0.1,0-0.1c0,0-0.1,0-0.2,0c-0.1,0-0.1,0.1-0.1,0.1c0.1,0,0.2-0.1,0.2,0c0,0.1-0.1,0.1-0.1,0.2
			c0,0,0,0.1,0.1,0.1c0,0,0.1,0,0.1,0c0,0,0,0,0.1,0c0.1,0,0.1-0.1,0.2-0.1c0.1,0.1-0.1,0.2-0.2,0.2c-0.1,0-0.2,0.1-0.3,0.1
			c0,0-0.2,0.2-0.2,0.1c0-0.1,0.1-0.1,0.1-0.1c-0.1,0-0.2,0.1-0.3,0.1c-0.1,0.1-0.3,0.1-0.4,0.2c0,0,0,0.1,0,0.1c0,0-0.1,0-0.1,0
			c-0.1,0-0.1,0.1-0.1,0.1c0,0-0.1,0-0.1,0c-0.1,0-0.1,0.1-0.1,0.1c0,0-0.1,0-0.1,0.1c0,0,0,0.1-0.1,0.1c0,0-0.1,0-0.1,0
			c0,0.1,0,0.2,0,0.3c-0.1,0.1-0.2,0.1-0.3,0.2c-0.1,0-0.1,0-0.2,0.1c0,0-0.1,0.1-0.1,0.1c-0.1,0.1-0.3,0.2-0.3,0.3c0,0,0,0.1,0,0.1
			c0,0,0,0.1,0,0.1c0,0.1,0,0.2,0,0.2c-0.1,0-0.2,0-0.2-0.1c0-0.1,0-0.1,0-0.2c0,0-0.1-0.1-0.1-0.1c0,0-0.1,0-0.1,0
			c0,0-0.1-0.1-0.1-0.1c-0.1,0-0.2,0-0.2,0c-0.1,0.1-0.1,0.1-0.2,0.1c0,0-0.1,0-0.1,0c0,0-0.1,0-0.2,0c-0.1,0-0.2,0.1-0.3,0.1
			c-0.1,0-0.2,0.1-0.2,0.2c0,0,0,0.1,0,0.2c0,0,0,0-0.1,0.1c-0.1,0.1-0.1,0.3-0.1,0.4c0,0,0.1,0.2,0.1,0.2c0,0,0.1,0.1,0.2,0.1
			c0,0,0.1,0,0.1,0c0.1,0,0.1,0,0.2,0c0.1,0,0.1-0.2,0.2-0.3c0.1,0,0.1,0,0.2,0c0,0,0,0.1,0,0.1c0,0,0,0.1-0.1,0.1c0,0,0,0.1,0,0.1
			c0,0-0.1,0.1-0.1,0.1c0,0,0,0.1,0,0.1c0,0-0.1,0.1,0,0.1c0.1,0.1,0.3,0,0.4,0c0,0,0.1,0.1,0.1,0.1c0,0.1,0,0.1,0,0.2
			c0,0.1,0,0.2,0,0.2c0,0.1,0.2,0.3,0.3,0.3c0.1,0,0.2-0.1,0.3,0c0,0,0.1,0.1,0.1,0.1c0,0,0.1-0.1,0.1-0.1c0-0.1,0-0.1,0.1-0.2
			c0.1,0,0.1,0,0.2,0c0,0,0.1,0,0.1-0.1c0,0,0.1-0.1,0.1,0c0,0.1-0.1,0.1,0,0.1c0.1,0,0.1-0.1,0.2-0.1c0,0,0.1,0,0.1,0.1
			c0,0,0.1,0.1,0.1,0.1c0,0,0.1,0,0.1,0c0.1,0,0.1,0.1,0.1,0.1c0.1,0,0.1-0.1,0.1-0.1c0.1,0,0.2,0,0.2,0.1c0.1,0,0.1-0.1,0.1,0
			c0,0.1,0,0.1,0,0.1c0,0,0,0.1,0,0.1c0,0,0.1,0,0.1,0.1c0,0,0.1,0.1,0.1,0.2c0.1,0.1,0.1,0.1,0.2,0.1c0.1,0,0.1,0,0.2,0
			c0.1,0,0.2,0.1,0.3,0.2c0.1,0,0.1,0.1,0.1,0.1c0,0,0,0.1,0,0.1c0,0.1,0.1,0.1,0.1,0.3c0,0,0.1,0.1,0.1,0.1c0,0,0.1,0.1,0.1,0.1
			c0,0,0.1,0,0.1,0c0.1,0,0.1,0,0.2,0.1c0,0,0.1,0,0.1,0c0,0,0,0.1,0.1,0.1c0,0,0.1,0,0.1,0c0.1,0,0.2,0.1,0.2,0.1c0,0,0.1,0,0.1,0
			c0.2,0,0.2,0.2,0.4,0.3c0,0,0.1,0,0.1,0C21.5,25.1,21.5,25.3,21.5,25.4L21.5,25.4z M18.7,17c0,0-0.1,0-0.1,0c0,0,0,0,0,0.1
			C18.6,17.1,18.7,17,18.7,17L18.7,17z M21.3,17.5c-0.2-0.2-0.4-0.3-0.5-0.5c-0.1-0.1,0-0.2,0-0.3c0-0.1,0.1-0.2,0.1-0.2
			c0-0.1,0.1-0.2,0.1-0.2c0,0,0-0.1,0-0.1c0-0.1,0-0.2-0.1-0.2c-0.1-0.2-0.2-0.3-0.3-0.5c0-0.1-0.1-0.2-0.1-0.2c-0.1,0-0.3,0-0.4,0
			c0,0-0.1,0.1-0.1,0.1c-0.1,0.1-0.3,0-0.3,0c0-0.1,0-0.2,0.1-0.2c0,0,0.1,0,0.2,0c0.1,0,0.1,0,0.2,0c0,0,0-0.1,0-0.1
			c-0.1,0-0.1,0-0.2,0c-0.1,0-0.1,0-0.2,0c0,0,0-0.1,0-0.1c0.1-0.1,0.2-0.1,0.2-0.1c0.1,0,0.2,0,0.3,0c0.1,0,0.1-0.1,0.1-0.1
			c0,0-0.1,0-0.1-0.1c0-0.1,0-0.1,0-0.2l0,0c0.3-0.1,0.6-0.1,0.8-0.2c0,0,0.1,0.1,0.1,0c0,0,0,0,0-0.1c0.1,0,0.2,0,0.3,0
			c0,0,0.1,0,0.1,0c0,0,0,0,0,0c0.2,0,0.4,0,0.6,0c0.3,0,0.7,0,1,0.1c0,0-0.1,0.1-0.1,0.1c0,0,0.1,0,0.1,0c0,0,0,0,0.1-0.1
			c0.2,0,0.3,0.1,0.5,0.1c0,0-0.1,0.1-0.1,0.1c0,0-0.1,0-0.2,0.1c0,0-0.1,0.1-0.1,0.1c0,0.1,0,0.2,0,0.2c0,0.1,0,0.2,0,0.2
			c0,0,0,0.1,0,0.1c0,0.1,0,0.1,0,0.2c0,0-0.1,0.1-0.1,0.1c-0.1,0-0.2-0.1-0.3,0c0,0.1,0.1,0.1,0.2,0.1c0,0.1,0,0.2,0,0.2
			c-0.1,0-0.1-0.1-0.2,0c0,0,0,0.1,0.1,0.1c0,0.1,0.1,0.1,0.1,0.2c0,0,0,0.1,0,0.1c0,0-0.1,0-0.1,0c-0.1,0-0.1-0.2-0.1-0.2
			c0,0-0.1,0-0.1,0c0,0,0,0.1,0,0.2c0,0,0.1,0,0.1,0c0,0,0.1,0,0.1,0c0,0,0,0.1,0,0.1c0,0-0.2,0.1-0.3,0.1c-0.1,0-0.3,0.1-0.3,0.1
			c-0.1,0-0.1,0-0.2,0c0,0,0,0.1,0,0.2c-0.1,0.1-0.2,0.1-0.3,0.2c0,0-0.1,0.1-0.1,0.1c-0.1,0-0.2,0-0.2,0c-0.1,0.1,0.1,0.2,0,0.3
			c-0.1,0.2-0.2,0.4-0.3,0.5C21.3,17.7,21.3,17.6,21.3,17.5L21.3,17.5z M20,16.5L20,16.5C20,16.5,20,16.5,20,16.5
			C20,16.4,19.9,16.5,20,16.5L20,16.5z M19.4,15.9L19.4,15.9C19.4,15.9,19.3,15.9,19.4,15.9C19.3,15.9,19.3,15.9,19.4,15.9
			C19.3,15.9,19.4,15.9,19.4,15.9L19.4,15.9z M17.8,19.2L17.8,19.2c0,0-0.1,0-0.2,0c0,0-0.1,0-0.1,0.1
			C17.6,19.3,17.8,19.3,17.8,19.2L17.8,19.2z M17.5,19.1L17.5,19.1c0.1,0,0-0.1,0-0.1c0,0,0,0-0.1,0c0,0-0.1,0-0.1,0
			c0,0-0.1,0-0.1,0.1c0,0,0,0,0,0.1c-0.1,0,0,0.2,0,0.2C17.3,19.3,17.3,19.1,17.5,19.1C17.4,19.1,17.5,19.1,17.5,19.1L17.5,19.1z
			 M17.4,23.3L17.4,23.3C17.4,23.3,17.4,23.2,17.4,23.3C17.3,23.2,17.3,23.3,17.4,23.3L17.4,23.3z M17.4,19.3L17.4,19.3
			c-0.1,0-0.2,0-0.2,0c0,0-0.1,0-0.1,0.1c0,0.1,0.1,0,0.1,0C17.3,19.4,17.3,19.4,17.4,19.3L17.4,19.3z M17.2,18.9L17.2,18.9
			c0.1-0.1,0-0.2-0.1-0.2c-0.1,0-0.2,0.1-0.4,0.1c-0.1,0-0.1,0-0.1,0.1c0,0.1,0.2,0,0.3,0c0,0,0.1,0.1,0.1,0.1
			C17,18.9,17.2,18.9,17.2,18.9L17.2,18.9z M17.1,19L17.1,19c0,0-0.2,0-0.2,0c0,0,0,0.1-0.1,0.1c0,0-0.1,0.1-0.1,0.1
			c0,0-0.2,0.2-0.1,0.2c0,0,0.1-0.1,0.1-0.1c0-0.1,0.1-0.2,0.2-0.3C17,19.1,17.1,19.1,17.1,19L17.1,19z M17.1,16.7L17.1,16.7
			C17.1,16.6,17.2,16.6,17.1,16.7c0-0.1-0.1,0-0.2,0c0-0.1-0.1-0.1-0.2,0.1C16.8,16.8,17,16.6,17.1,16.7L17.1,16.7z M16.4,18.4
			L16.4,18.4c0.1,0,0.1-0.2,0-0.2C16.3,18.2,16.3,18.4,16.4,18.4L16.4,18.4z M15.8,23L15.8,23C15.8,23,15.8,23,15.8,23
			C15.8,22.9,15.8,23,15.8,23L15.8,23z M15.9,17.5L15.9,17.5C16,17.4,16,17.4,15.9,17.5C16,17.4,16,17.4,15.9,17.5
			C15.9,17.4,15.9,17.4,15.9,17.5c-0.2,0-0.2,0-0.2,0.1C15.8,17.5,15.9,17.5,15.9,17.5L15.9,17.5z M28.5,19.7L28.5,19.7
			c0.2,0,0.1-0.2,0-0.2c-0.1,0-0.1-0.1-0.2-0.1c0,0-0.2-0.1-0.2-0.1c0-0.1,0.1-0.1,0.1-0.2c-0.1,0-0.3,0-0.3,0.1
			c0,0.1,0.1,0,0.1,0.1c-0.1,0-0.1,0.1-0.2,0c-0.1,0-0.1-0.1-0.1-0.2c-0.1,0-0.1-0.1-0.2-0.1c-0.1,0-0.1,0.1-0.1,0.2
			c0,0,0,0-0.1,0.1c0,0,0,0,0,0.1c0,0.1-0.1,0.1-0.1,0.2c0,0.1,0.1,0.1,0.1,0.1c0,0-0.1,0-0.1,0.1c0.1,0.1,0.1,0,0.2,0
			c0,0,0.1,0,0.2,0c0,0,0.1,0,0.1-0.1c0,0,0.1,0,0.1,0c0.2,0,0.3,0.1,0.5,0.2C28.3,19.7,28.4,19.7,28.5,19.7L28.5,19.7z M28.1,20.4
			L28.1,20.4c0-0.1,0-0.1,0-0.2c-0.1-0.1-0.2,0.1-0.3,0c-0.1,0-0.1-0.1-0.2-0.1c0,0-0.1,0.1-0.1,0.1c-0.1,0-0.1-0.1-0.2,0
			c-0.1-0.1-0.2-0.3-0.2-0.5c-0.1-0.1-0.2,0-0.2,0c0,0-0.1,0-0.1,0c0,0.1,0.2,0.1,0.2,0.2c0,0.1-0.1,0-0.1,0.1c0,0,0,0.1-0.1,0.1
			c-0.1,0-0.2-0.1-0.2-0.2c-0.1-0.1-0.1-0.1-0.2-0.2c0,0,0-0.1-0.1-0.1c0,0,0-0.1,0-0.1c0-0.1-0.1-0.1-0.2-0.2
			c-0.1,0-0.2-0.1-0.2-0.1c0,0-0.1-0.1-0.1-0.1c0,0-0.1,0-0.1,0c0,0,0-0.1-0.1-0.1c0,0-0.1,0-0.1,0c0,0.1,0.1,0.2,0.1,0.2
			c0,0,0.1,0.1,0.1,0.1c0,0,0.1,0,0.1,0.1c0,0,0.1,0.1,0.1,0.1c0.1,0,0.2,0.1,0.2,0.1c0,0-0.1,0-0.1,0c0,0,0,0.1,0,0.1
			c0,0.1-0.1,0.1-0.1,0.1c0,0,0-0.1,0-0.1c0-0.1-0.2-0.2-0.2-0.3c0,0-0.1,0-0.1,0c-0.1,0-0.2-0.1-0.2-0.2c0-0.1-0.1-0.2-0.2-0.2
			c0,0-0.1,0-0.1,0.1c0,0-0.1,0-0.1,0c0,0-0.1,0.1-0.1,0c-0.1,0-0.1-0.1-0.2-0.1c0,0,0,0-0.1,0.1c0,0,0,0.1,0,0.1c0,0-0.1,0-0.1,0.1
			c-0.1,0-0.1,0.1-0.2,0.2c0,0-0.1,0.1-0.1,0.1c0,0,0,0.1,0,0.1c0,0-0.1,0.1-0.1,0.1c0,0,0,0-0.1,0c0,0-0.1,0.1-0.1,0.1
			c-0.1,0-0.3,0-0.3,0.1c0,0.1,0.1,0.1,0.2,0.1c0.1,0,0.2,0,0.2,0c0,0,0.1,0,0.1-0.1c0,0,0,0,0.1,0c0,0,0.1,0,0.1-0.1
			c0.1,0,0.2,0,0.2,0c0.1,0,0.2,0,0.3,0c0,0,0.1,0,0.1,0c0.1,0,0.2,0,0.2,0c0,0,0.1,0,0.1,0c0,0,0.1,0,0.1,0.1c0,0,0,0,0,0.1
			c0,0,0,0.1,0,0.1c0,0-0.1,0.1-0.1,0.1c0,0,0.1,0.1,0.1,0.1c0,0,0.1,0.1,0.1,0.1c0,0,0.1,0,0.1,0c0.1,0,0.1,0,0.2,0.1
			c0.1,0,0.1,0.1,0.1,0.1c0,0,0.1,0,0.1,0c0.1,0,0.2,0.1,0.2,0.1c0.1,0,0.1-0.1,0.1-0.2c0-0.2,0.3-0.1,0.4,0c0,0,0.1,0,0.1,0
			c0,0,0.1,0,0.1,0.1c0,0,0.1,0,0.1,0c0.1,0,0.2,0.1,0.3,0.1c0.1,0,0.1-0.1,0.2-0.1c0.1,0,0.2,0.1,0.3,0.1c0.1,0,0.1-0.1,0.1-0.2
			C28.1,20.5,28.1,20.4,28.1,20.4L28.1,20.4z M28.1,25.7L28.1,25.7c0,0,0.1-0.2,0-0.2c0,0,0,0,0,0C28,25.6,28,25.7,28.1,25.7
			L28.1,25.7z M28,24.4L28,24.4c0,0,0.1-0.1,0.1-0.1c0-0.1-0.2,0-0.3,0c0,0.1,0,0.1,0,0.2C27.9,24.5,27.9,24.6,28,24.4
			C28,24.5,28,24.5,28,24.4L28,24.4z M27.6,25.1L27.6,25.1c0,0,0-0.1,0-0.1c0-0.1,0-0.1,0-0.1c0,0,0,0,0,0
			C27.5,24.9,27.6,25.1,27.6,25.1L27.6,25.1z M26.9,17.5L26.9,17.5c-0.1-0.1-0.3,0-0.5,0c-0.1,0-0.1-0.1-0.2-0.1c0,0,0,0,0-0.1
			c0,0,0-0.1,0-0.1c0-0.1,0.3-0.1,0.3-0.2c-0.1-0.1-0.2-0.1-0.2,0c0,0,0,0.1,0,0.1c0,0.1-0.2,0.1-0.3,0.2c0,0,0,0.1,0,0.1
			c0,0.1,0.1,0.1,0.1,0.2c0,0.1-0.1,0.1-0.2,0.2c0,0,0,0.1,0,0.1c0,0.1-0.1,0-0.1,0.1c0,0-0.1,0.1-0.1,0.1c0,0-0.1,0-0.1,0
			c0,0,0,0.1-0.1,0.1c0,0-0.1-0.1-0.1,0c0,0,0.1,0.1,0.1,0.1c0,0,0.1,0,0.1,0c0.1,0,0.1,0.1,0.2,0.1c0.1,0,0.2-0.1,0.3-0.1
			c0,0,0.1,0,0.1,0c0.1,0,0.1-0.1,0.1-0.1c0-0.1,0-0.2,0.1-0.2c0.1,0,0.2,0.1,0.2,0c0,0-0.1-0.1-0.1-0.1c0,0-0.1,0.1-0.1,0
			c0-0.1,0.1,0,0.1,0c0,0,0,0,0.1,0C26.7,17.4,26.9,17.6,26.9,17.5z"/>
		<g>
			<path class="st12" d="M22.5,15.1c0.5,0,0.5-0.9,1-0.8c3.6,0.7,6.2,3.8,6.2,7.6c0,4.3-3.5,7.8-7.8,7.8V16.6L22.5,15.1z"/>
			<path class="st13" d="M29.7,21C29.7,21,29.7,21,29.7,21c-0.1,0-0.2,0-0.2,0.1c0,0,0,0.1,0.1,0.1c0,0,0.1,0.1,0.1,0.1
				c0,0.2,0,0.3,0,0.5h0c0,0.1,0,0.1,0,0.2c0,0.2,0,0.5,0,0.7l0,0c0,0,0,0-0.1,0c0,0-0.1,0-0.1,0.1c0,0-0.1,0-0.1,0
				c-0.1,0-0.2,0.1-0.3,0.1c0-0.1-0.1-0.2-0.1-0.3c0,0-0.1-0.1-0.1-0.1c0,0,0,0,0-0.1c0-0.1-0.1-0.1-0.1-0.1c0,0,0-0.1,0-0.1
				c-0.1-0.1-0.2-0.2-0.3-0.3c0,0,0-0.1,0-0.1c0,0,0-0.1-0.1-0.1c0,0-0.1,0-0.1-0.1c0,0,0-0.1,0-0.1c-0.1-0.1-0.2-0.2-0.3-0.3
				c-0.1,0-0.1,0-0.1,0c0,0.1,0.1,0.1,0.1,0.2c0,0.1,0.1,0.1,0.1,0.2c0,0,0,0.1,0,0.1c0,0.1,0.2,0.1,0.2,0.2c0,0.1,0,0.1,0,0.2
				c0,0.1,0.1,0.1,0.2,0.2c0,0.1,0,0.1,0.1,0.2c0,0.1,0.1,0.1,0.2,0.2c0.1,0,0.1,0.1,0.2,0.2c0,0,0.1,0,0.1,0.1c0,0,0,0.1,0,0.1
				c0,0,0.1,0.1,0.2,0.1c0,0,0.1,0,0.1,0c0,0,0.1,0,0.1,0c0,0,0.1,0,0.1,0c0,0,0.1,0,0.1,0c0,0.3-0.1,0.6-0.2,0.9
				c0,0-0.1,0.1-0.1,0.1c0,0-0.1,0.1-0.2,0.1c-0.1,0.1-0.2,0.2-0.3,0.3c0,0,0,0.1-0.1,0.1c0,0-0.1,0.1-0.1,0.1c0,0,0,0.1-0.1,0.2
				c0,0.1-0.1,0.1-0.1,0.2c0,0,0,0.1,0,0.1c0,0.1,0,0.1,0,0.2c0,0.1,0.1,0.2,0.1,0.2c0,0.1,0,0.2,0,0.3c0,0,0,0.1,0,0.1
				c0,0.1-0.1,0.1-0.1,0.2c0,0-0.1,0.1-0.1,0.1c-0.1,0-0.1,0.1-0.2,0.1c0,0-0.1,0.1-0.1,0.1c-0.1,0.1-0.2,0.1-0.2,0.2
				c0,0,0,0.1,0,0.1c0,0,0,0.1,0,0.2c-0.1,0.1-0.2,0.2-0.3,0.3c0,0-0.1,0.1-0.1,0.1c-0.4,0.5-0.9,0.9-1.5,1.3
				c-0.1,0-0.1-0.1-0.1-0.2c0,0,0-0.1,0-0.1c0,0,0-0.1-0.1-0.2c0-0.1,0-0.1-0.1-0.2c0-0.1-0.1-0.1-0.1-0.1c0-0.1,0-0.2-0.1-0.3
				c0,0,0-0.1,0-0.1c0-0.1,0-0.1,0-0.2c0,0,0-0.1-0.1-0.1c0-0.1-0.1-0.2-0.1-0.2c0-0.1-0.1-0.1-0.1-0.2c0,0,0-0.1,0-0.2
				c0,0,0-0.1,0.1-0.1c0,0,0-0.1,0-0.1c0-0.2,0.2-0.2,0.2-0.4c0-0.1-0.1-0.1-0.1-0.2c0,0,0-0.1,0-0.1c0-0.1,0-0.1-0.1-0.2
				c-0.1-0.1-0.1-0.3-0.2-0.4c0-0.1-0.1-0.1-0.2-0.1c0,0-0.1-0.1-0.1-0.2c0,0,0-0.1,0-0.1c0,0,0-0.1,0-0.2c0,0,0-0.1,0-0.2
				c0-0.1-0.1-0.2-0.1-0.2c-0.1,0-0.2,0-0.3,0c-0.1-0.1-0.1-0.2-0.2-0.2c-0.2,0-0.4,0.1-0.5,0.1c-0.1,0-0.1,0.1-0.2,0.1
				c-0.1,0-0.1,0-0.2,0c-0.1,0-0.2,0-0.2,0c-0.1,0-0.1,0.1-0.2,0.1c-0.1,0-0.2-0.1-0.3-0.2c0,0-0.1-0.1-0.1-0.1c0,0-0.1-0.1-0.1-0.1
				c0-0.1,0-0.1-0.1-0.2c0-0.1-0.1-0.1-0.2-0.2c-0.1-0.1-0.2-0.1-0.2-0.2c0,0,0-0.1,0-0.1c0-0.1,0-0.1,0-0.1c0-0.1,0.1-0.1,0.1-0.2
				c0,0,0-0.1,0-0.1c0-0.1,0.1-0.1,0-0.2c0,0,0-0.1,0-0.1c0,0,0-0.1,0-0.1c0-0.1-0.1-0.1-0.1-0.1c0-0.1,0.1-0.1,0.1-0.2
				c0,0,0-0.1,0-0.1c0-0.1,0.1-0.1,0.1-0.1c0,0,0-0.1,0-0.1c0,0,0.1-0.1,0.1-0.1c0,0,0-0.1,0.1-0.1c0,0,0.1,0,0.1,0
				c0.1-0.1,0.2-0.1,0.3-0.2c0-0.1,0-0.2,0-0.2c0-0.1,0.1-0.1,0.1-0.2c0.1,0,0.2,0,0.2-0.1c0,0,0.1-0.1,0.1-0.2
				c0-0.1-0.1-0.1-0.1-0.2c-0.1,0-0.1,0-0.2,0c0,0,0-0.1,0-0.1c0,0,0-0.1,0-0.1c0-0.1,0.1-0.1,0.1-0.2c0-0.1,0-0.2,0-0.3
				c0.1-0.1,0.3-0.1,0.5,0c0,0,0.1,0,0.1,0c0.1,0,0.2,0,0.2-0.1c0,0,0-0.2,0-0.2c0,0-0.1-0.2-0.1-0.2c-0.1,0-0.1,0-0.2-0.1
				c0-0.1,0.2,0,0.2,0c0,0,0-0.1,0.1-0.1c0,0,0.1,0,0.1,0c0,0,0.1-0.1,0.2-0.1c0,0,0-0.1,0.1-0.1c0,0,0.1,0,0.1,0
				c0.1,0,0.1-0.1,0.1-0.1c0-0.1,0.1-0.1,0.1-0.2c0.1,0,0.3,0,0.3-0.1c0-0.1-0.1-0.2-0.1-0.3c0-0.1,0.1-0.1,0.2-0.1c0,0,0,0.1,0,0.2
				c0.1,0,0.2,0,0.2-0.1c0-0.1-0.1-0.1-0.1-0.2c0,0,0-0.1-0.1-0.1c-0.1,0-0.2,0.1-0.3,0.1c-0.1,0-0.2-0.1-0.2-0.1c0,0,0-0.1,0-0.1
				c0-0.1,0-0.1,0-0.2c0-0.1,0.1-0.1,0.2-0.1c0,0,0,0,0.1-0.1c0.1,0,0.1,0,0.2,0c0,0,0-0.1,0-0.1c0,0,0,0,0.1-0.1c0,0,0-0.1,0-0.1
				c0-0.1,0.1-0.1,0.2-0.1c0,0,0,0,0-0.1c0,0,0.1,0,0.1,0c0.1,0,0.1-0.1,0.2-0.1c0.1,0,0.1,0,0.2,0c0,0,0.1,0,0.1,0c0,0,0,0,0.1,0
				c0,0,0,0,0.1,0c0,0,0.1,0,0.1,0c0.1,0,0.2,0,0.3,0c0,0,0,0.1,0.1,0.1c0,0,0.1,0,0.1,0c0.1,0,0.1,0.1,0.2,0.1c0,0,0.1,0,0.1,0
				c0.1,0,0.2,0.1,0.3,0.1c0.1,0,0.2,0.1,0.2,0.2c0,0.1-0.1,0.1-0.2,0.1c-0.1,0-0.2-0.1-0.3-0.1c0,0.1,0.2,0.3,0.3,0.3
				c0-0.1-0.1,0-0.1-0.1c0.1,0,0.1,0.1,0.2,0.1c0,0,0-0.1,0-0.1c0.1,0,0.1-0.1,0.3,0c0,0,0,0,0,0v0c0.5,0.7,1,1.4,1.3,2.2
				c0,0,0,0,0,0c0,0-0.1,0-0.1,0.1c0,0-0.1,0.1,0,0.1c0,0,0.1,0.1,0.1,0.1c0,0,0,0.1,0,0.1c0,0.1,0.1,0.1,0.2,0.2
				c0,0,0.1,0.1,0.2,0.2c0,0,0,0,0,0.1c0,0,0,0.1,0,0.1c0,0.1,0.1,0.1,0.1,0.1C29.6,20.5,29.7,20.7,29.7,21L29.7,21z M27.8,20.3
				c0,0.1,0.1,0,0.1,0C27.9,20.3,27.8,20.3,27.8,20.3L27.8,20.3z M25.7,19.9c0,0.1,0.1,0.1,0.2,0.1c0,0,0-0.1,0.1-0.1
				C25.9,19.9,25.7,19.8,25.7,19.9L25.7,19.9z M25.2,19.5c0,0.1,0,0.1,0,0.2c0,0.1,0.1,0,0.1,0C25.4,19.5,25.3,19.4,25.2,19.5
				L25.2,19.5z M25.3,19.3C25.3,19.2,25.2,19.4,25.3,19.3C25.3,19.4,25.3,19.4,25.3,19.3L25.3,19.3z M24.6,18.1c0,0-0.1-0.1-0.1-0.1
				c0,0,0-0.1,0-0.1c0,0-0.1-0.1-0.1-0.1c0-0.1-0.1-0.1-0.1-0.2c0,0,0-0.1,0.1-0.1c0-0.1-0.1,0-0.1-0.1c0,0,0,0,0-0.1c0,0,0,0,0,0
				c0,0-0.1,0-0.1,0c0,0-0.1,0.1-0.1,0.1c0,0,0,0.1,0,0.2c0,0,0.1,0.1,0.1,0.1c0,0,0,0,0.1,0c0,0,0.1,0.1,0.1,0.1
				c0,0.1-0.1,0-0.1,0.1c0,0.1,0,0.1-0.1,0.1c0,0,0.1,0,0.1,0.1c0,0-0.1,0-0.1,0.1c0.1,0.1,0.1,0,0.2,0c0.1,0,0.3,0,0.4,0
				C24.5,18.2,24.6,18.2,24.6,18.1L24.6,18.1z M23.9,17.8c0-0.1-0.1-0.1-0.2-0.1c0,0-0.1,0.1-0.1,0.1c0,0-0.1,0-0.1,0.1
				c0,0,0,0.1,0,0.1c0,0-0.1,0.1-0.1,0.1c0.1,0.1,0.2,0,0.3,0c0,0,0.1,0,0.1,0c0,0,0-0.1,0-0.1C23.9,17.9,23.9,17.9,23.9,17.8
				L23.9,17.8z M22,14.2v2.6c0.1,0,0.2-0.1,0.2-0.1c0,0,0-0.1,0-0.2c0,0,0.1,0,0.2,0c0,0,0.2-0.1,0.3-0.1c0.1,0,0.3-0.1,0.3-0.1
				c0,0,0-0.1,0-0.1c0,0-0.1,0-0.1,0c0,0-0.1,0-0.1,0c0,0,0-0.1,0-0.2c0,0,0.1,0,0.1,0c0.1,0.1,0.1,0.2,0.1,0.2c0,0,0.1,0,0.1,0
				c0,0,0.1-0.1,0-0.1c0-0.1-0.1-0.1-0.1-0.2c0,0-0.1-0.1-0.1-0.1c0.1,0,0.1,0,0.2,0c0,0,0-0.1,0-0.2c0-0.1-0.2-0.1-0.2-0.1
				c0-0.1,0.2,0,0.3,0c0,0,0.1,0,0.1-0.1c0,0,0-0.1,0-0.2c0,0,0-0.1,0-0.1c0-0.1,0-0.2,0-0.2c0-0.1,0-0.2,0-0.2c0,0,0-0.1,0.1-0.1
				c0,0,0.1,0,0.2-0.1c0,0,0.1-0.1,0.1-0.1c-0.2,0-0.3-0.1-0.5-0.1c0,0-0.1,0.1-0.1,0.1c0,0-0.1,0-0.1,0c0,0,0.1,0,0.1-0.1
				C22.7,14.2,22.3,14.2,22,14.2L22,14.2z M28.5,19.7L28.5,19.7c0.2,0,0.1-0.2,0-0.2c-0.1,0-0.1-0.1-0.2-0.1c0,0-0.2-0.1-0.2-0.1
				c0-0.1,0.1-0.1,0.1-0.2c-0.1,0-0.3,0-0.3,0.1c0,0.1,0.1,0,0.1,0.1c-0.1,0-0.1,0.1-0.2,0c-0.1,0-0.1-0.1-0.1-0.2
				c-0.1,0-0.1-0.1-0.2-0.1c-0.1,0-0.1,0.1-0.1,0.2c0,0,0,0-0.1,0.1c0,0,0,0,0,0.1c0,0.1-0.1,0.1-0.1,0.2c0,0.1,0.1,0.1,0.1,0.1
				c0,0-0.1,0-0.1,0.1c0.1,0.1,0.1,0,0.2,0c0,0,0.1,0,0.2,0c0,0,0.1,0,0.1-0.1c0,0,0.1,0,0.1,0c0.2,0,0.3,0.1,0.5,0.2
				C28.3,19.7,28.4,19.7,28.5,19.7L28.5,19.7z M28.1,20.4L28.1,20.4c0-0.1,0-0.1,0-0.2c-0.1-0.1-0.2,0.1-0.3,0
				c-0.1,0-0.1-0.1-0.2-0.1c0,0-0.1,0.1-0.1,0.1c-0.1,0-0.1-0.1-0.2,0c-0.1-0.1-0.2-0.3-0.2-0.5c-0.1-0.1-0.2,0-0.2,0
				c0,0-0.1,0-0.1,0c0,0.1,0.2,0.1,0.2,0.2c0,0.1-0.1,0-0.1,0.1c0,0,0,0.1-0.1,0.1c-0.1,0-0.2-0.1-0.2-0.2c-0.1-0.1-0.1-0.1-0.2-0.2
				c0,0,0-0.1-0.1-0.1c0,0,0-0.1,0-0.1c0-0.1-0.1-0.1-0.2-0.2c-0.1,0-0.2-0.1-0.2-0.1c0,0-0.1-0.1-0.1-0.1c0,0-0.1,0-0.1,0
				c0,0,0-0.1-0.1-0.1c0,0-0.1,0-0.1,0c0,0.1,0.1,0.2,0.1,0.2c0,0,0.1,0.1,0.1,0.1c0,0,0.1,0,0.1,0.1c0,0,0.1,0.1,0.1,0.1
				c0.1,0,0.2,0.1,0.2,0.1c0,0-0.1,0-0.1,0c0,0,0,0.1,0,0.1c0,0.1-0.1,0.1-0.1,0.1c0,0,0-0.1,0-0.1c0-0.1-0.2-0.2-0.2-0.3
				c0,0-0.1,0-0.1,0c-0.1,0-0.2-0.1-0.2-0.2c0-0.1-0.1-0.2-0.2-0.2c0,0-0.1,0-0.1,0.1c0,0-0.1,0-0.1,0c0,0-0.1,0.1-0.1,0
				c-0.1,0-0.1-0.1-0.2-0.1c0,0,0,0-0.1,0.1c0,0,0,0.1,0,0.1c0,0-0.1,0-0.1,0.1c-0.1,0-0.1,0.1-0.2,0.2c0,0-0.1,0.1-0.1,0.1
				c0,0,0,0.1,0,0.1c0,0-0.1,0.1-0.1,0.1c0,0,0,0-0.1,0c0,0-0.1,0.1-0.1,0.1c-0.1,0-0.3,0-0.3,0.1c0,0.1,0.1,0.1,0.2,0.1
				c0.1,0,0.2,0,0.2,0c0,0,0.1,0,0.1-0.1c0,0,0,0,0.1,0c0,0,0.1,0,0.1-0.1c0.1,0,0.2,0,0.2,0c0.1,0,0.2,0,0.3,0c0,0,0.1,0,0.1,0
				c0.1,0,0.2,0,0.2,0c0,0,0.1,0,0.1,0c0,0,0.1,0,0.1,0.1c0,0,0,0,0,0.1c0,0,0,0.1,0,0.1c0,0-0.1,0.1-0.1,0.1c0,0,0.1,0.1,0.1,0.1
				c0,0,0.1,0.1,0.1,0.1c0,0,0.1,0,0.1,0c0.1,0,0.1,0,0.2,0.1c0.1,0,0.1,0.1,0.1,0.1c0,0,0.1,0,0.1,0c0.1,0,0.2,0.1,0.2,0.1
				c0.1,0,0.1-0.1,0.1-0.2c0-0.2,0.3-0.1,0.4,0c0,0,0.1,0,0.1,0c0,0,0.1,0,0.1,0.1c0,0,0.1,0,0.1,0c0.1,0,0.2,0.1,0.3,0.1
				c0.1,0,0.1-0.1,0.2-0.1c0.1,0,0.2,0.1,0.3,0.1c0.1,0,0.1-0.1,0.1-0.2C28.1,20.5,28.1,20.4,28.1,20.4L28.1,20.4z M28.1,25.7
				L28.1,25.7c0,0,0.1-0.2,0-0.2c0,0,0,0,0,0C28,25.6,28,25.7,28.1,25.7L28.1,25.7z M28,24.4L28,24.4c0,0,0.1-0.1,0.1-0.1
				c0-0.1-0.2,0-0.3,0c0,0.1,0,0.1,0,0.2C27.9,24.5,27.9,24.6,28,24.4C28,24.5,28,24.5,28,24.4L28,24.4z M27.6,25.1L27.6,25.1
				c0,0,0-0.1,0-0.1c0-0.1,0-0.1,0-0.1c0,0,0,0,0,0C27.5,24.9,27.6,25.1,27.6,25.1L27.6,25.1z M26.9,17.5L26.9,17.5
				c-0.1-0.1-0.3,0-0.5,0c-0.1,0-0.1-0.1-0.2-0.1c0,0,0,0,0-0.1c0,0,0-0.1,0-0.1c0-0.1,0.3-0.1,0.3-0.2c-0.1-0.1-0.2-0.1-0.2,0
				c0,0,0,0.1,0,0.1c0,0.1-0.2,0.1-0.3,0.2c0,0,0,0.1,0,0.1c0,0.1,0.1,0.1,0.1,0.2c0,0.1-0.1,0.1-0.2,0.2c0,0,0,0.1,0,0.1
				c0,0.1-0.1,0-0.1,0.1c0,0-0.1,0.1-0.1,0.1c0,0-0.1,0-0.1,0c0,0,0,0.1-0.1,0.1c0,0-0.1-0.1-0.1,0c0,0,0.1,0.1,0.1,0.1
				c0,0,0.1,0,0.1,0c0.1,0,0.1,0.1,0.2,0.1c0.1,0,0.2-0.1,0.3-0.1c0,0,0.1,0,0.1,0c0.1,0,0.1-0.1,0.1-0.1c0-0.1,0-0.2,0.1-0.2
				c0.1,0,0.2,0.1,0.2,0c0,0-0.1-0.1-0.1-0.1c0,0-0.1,0.1-0.1,0c0-0.1,0.1,0,0.1,0c0,0,0,0,0.1,0C26.7,17.4,26.9,17.6,26.9,17.5z"/>
		</g>
	</g>
</g>
</svg>
