<?xml version="1.0" encoding="utf-8"?>
<!-- Generator: Adobe Illustrator 25.0.0, SVG Export Plug-In . SVG Version: 6.00 Build 0)  -->
<svg version="1.1" id="Calque_1" xmlns="http://www.w3.org/2000/svg" xmlns:xlink="http://www.w3.org/1999/xlink" x="0px" y="0px"
	 viewBox="0 0 44 44" style="enable-background:new 0 0 44 44;" xml:space="preserve">
<style type="text/css">
	.st0{display:none;}
	.st1{display:inline;fill:none;}
	.st2{display:inline;}
	.st3{fill-rule:evenodd;clip-rule:evenodd;fill:#4878C0;stroke:#FFFFFF;}
	.st4{fill-rule:evenodd;clip-rule:evenodd;fill:#FFFFFF;}
	.st5{fill-rule:evenodd;clip-rule:evenodd;fill:#0098E9;stroke:#FFFFFF;}
	.st6{fill-rule:evenodd;clip-rule:evenodd;fill:#0098E9;}
	.st7{fill:none;}
	.st8{fill:#FFFFFF;}
	.st9{fill:#001F43;}
	.st10{fill:none;stroke:#965CA0;stroke-width:1.056;stroke-miterlimit:10;}
	.st11{fill:#523056;}
	.st12{fill:none;stroke:#E44B43;stroke-width:1.056;stroke-miterlimit:10;}
	.st13{fill:#8B3026;}
	.st14{fill:none;stroke:#00A1DD;stroke-width:1.056;stroke-miterlimit:10;}
</style>
<g id="Icon-Figures-default" class="st0">
	<rect id="Rectangle" class="st1" width="44" height="44"/>
	<g id="Group" transform="translate(7.413673, 7.413530)" class="st2">
		<path id="Combined-Shape" class="st3" d="M24.9,4.3L24.6,4c2.8,2.7,4.5,6.4,4.5,10.6v-0.4c0.1,3.9-1.3,7.7-4.3,10.7L14.6,14.6
			L24.9,4.3z"/>
		<path id="Combined-Shape_1_" class="st3" d="M4.3,4.3L4,4.5C6.7,1.7,10.4,0,14.6,0h-0.4c3.9-0.1,7.7,1.3,10.7,4.3L14.6,14.6
			L4.3,4.3z"/>
		<path id="Combined-Shape_2_" class="st3" d="M14.6,29.2c-0.1,0-0.2,0-0.4,0h0.1c-4.1-0.1-7.7-1.8-10.3-4.5L4.3,25l10.3-10.3
			L24.9,25c-2.9,2.9-6.8,4.4-10.7,4.3L14.6,29.2L14.6,29.2z"/>
		<path id="Combined-Shape_3_" class="st3" d="M4.3,4.3l10.3,10.3L4.3,24.9l0,0H4.2C1.6,22.3,0,18.6,0,14.6V15
			C-0.1,11.1,1.3,7.2,4.3,4.3z"/>
		<path id="Fill-54" class="st4" d="M23.2,14.6c0,4.8-3.9,8.6-8.6,8.6S6,19.3,6,14.6C6,9.8,9.8,6,14.6,6S23.2,9.8,23.2,14.6"/>
		<path id="Fill-55" class="st5" d="M16.4,17.5c-1.6,1-3.7,0.4-4.7-1.2s-0.4-3.7,1.2-4.7s3.7-0.4,4.7,1.2
			C18.5,14.4,18,16.6,16.4,17.5"/>
		<path id="Fill-59" class="st6" d="M26,7.8l-11.8,6c-0.5,0.2-0.7,0.8-0.4,1.3s0.9,0.6,1.3,0.3L26,7.8"/>
		<line id="Fill-60" class="st7" x1="11.2" y1="24.8" x2="18.1" y2="24.8"/>
	</g>
</g>
<g>
	<g>
		<path class="st8" d="M36.2,22.1c0,7.9-6.4,14.3-14.3,14.3S7.7,29.9,7.7,22.1c0-7.9,6.4-14.3,14.3-14.3S36.2,14.2,36.2,22.1z"/>
	</g>
	<g>
		<polygon class="st9" points="13.9,28.2 13.9,14.3 13.1,14.3 13.1,29 32,29 32,28.2 		"/>
		<g>
			<polyline class="st10" points="15.1,26 16.5,27.3 19.1,23.2 22.2,27 24.8,22.2 27.6,26.8 30.7,23.1 			"/>
			<path class="st11" d="M25.1,22.2c0,0.2-0.2,0.3-0.3,0.3c-0.2,0-0.3-0.2-0.3-0.3c0-0.2,0.2-0.3,0.3-0.3C25,21.9,25.1,22,25.1,22.2
				z"/>
			<path class="st11" d="M15.5,26.1c0,0.2-0.2,0.3-0.3,0.3c-0.2,0-0.3-0.2-0.3-0.3c0-0.2,0.2-0.3,0.3-0.3
				C15.4,25.7,15.5,25.9,15.5,26.1z"/>
			<circle class="st11" cx="22.2" cy="27" r="0.3"/>
			<path class="st11" d="M28,26.8c0,0.2-0.2,0.3-0.3,0.3c-0.2,0-0.3-0.2-0.3-0.3c0-0.2,0.2-0.3,0.3-0.3C27.8,26.5,28,26.6,28,26.8z"
				/>
			<path class="st11" d="M31,23.1c0,0.2-0.2,0.3-0.3,0.3c-0.2,0-0.3-0.2-0.3-0.3c0-0.2,0.2-0.3,0.3-0.3C30.9,22.7,31,22.9,31,23.1z"
				/>
			<path class="st11" d="M19.4,23.2c0,0.2-0.2,0.3-0.3,0.3c-0.2,0-0.3-0.2-0.3-0.3c0-0.2,0.2-0.3,0.3-0.3
				C19.3,22.9,19.4,23,19.4,23.2z"/>
		</g>
		<g>
			<polyline class="st12" points="15.1,23.9 20,18.7 24.6,25 28.8,20.7 			"/>
			<path class="st13" d="M15.5,23.8c0,0.2-0.2,0.3-0.3,0.3c-0.2,0-0.3-0.2-0.3-0.3c0-0.2,0.2-0.3,0.3-0.3
				C15.4,23.5,15.5,23.6,15.5,23.8z"/>
			<path class="st13" d="M20.3,18.7c0,0.2-0.2,0.3-0.3,0.3c-0.2,0-0.3-0.2-0.3-0.3c0-0.2,0.2-0.3,0.3-0.3
				C20.2,18.4,20.3,18.5,20.3,18.7z"/>
			<path class="st13" d="M25,25c0,0.2-0.2,0.3-0.3,0.3c-0.2,0-0.3-0.2-0.3-0.3c0-0.2,0.2-0.3,0.3-0.3C24.8,24.7,25,24.8,25,25z"/>
			<path class="st13" d="M29.1,20.7c0,0.2-0.2,0.3-0.3,0.3c-0.2,0-0.3-0.2-0.3-0.3c0-0.2,0.2-0.3,0.3-0.3
				C28.9,20.4,29.1,20.6,29.1,20.7z"/>
		</g>
		<g>
			<polyline class="st14" points="15.1,20.9 18,17.8 20.4,20.9 22.4,18.5 24.3,20.9 29.2,16.6 			"/>
			<path class="st9" d="M15.6,20.7c0,0.2-0.2,0.3-0.3,0.3c-0.2,0-0.3-0.2-0.3-0.3c0-0.2,0.2-0.3,0.3-0.3
				C15.4,20.3,15.6,20.5,15.6,20.7z"/>
			<path class="st9" d="M18.3,17.8c0,0.2-0.2,0.3-0.3,0.3c-0.2,0-0.3-0.2-0.3-0.3c0-0.2,0.2-0.3,0.3-0.3
				C18.1,17.5,18.3,17.6,18.3,17.8z"/>
			<path class="st9" d="M20.7,20.9c0,0.2-0.2,0.3-0.3,0.3c-0.2,0-0.3-0.2-0.3-0.3c0-0.2,0.2-0.3,0.3-0.3
				C20.6,20.5,20.7,20.7,20.7,20.9z"/>
			<path class="st9" d="M22.8,18.5c0,0.2-0.2,0.3-0.3,0.3c-0.2,0-0.3-0.2-0.3-0.3c0-0.2,0.2-0.3,0.3-0.3
				C22.6,18.2,22.8,18.4,22.8,18.5z"/>
			<path class="st9" d="M24.6,20.8c0,0.2-0.2,0.3-0.3,0.3c-0.2,0-0.3-0.2-0.3-0.3c0-0.2,0.2-0.3,0.3-0.3
				C24.5,20.5,24.6,20.7,24.6,20.8z"/>
			<path class="st9" d="M29.5,16.6c0,0.2-0.2,0.3-0.3,0.3c-0.2,0-0.3-0.2-0.3-0.3c0-0.2,0.2-0.3,0.3-0.3
				C29.4,16.3,29.5,16.5,29.5,16.6z"/>
		</g>
	</g>
</g>
</svg>
