<?xml version="1.0" encoding="UTF-8"?>
<svg width="44px" height="44px" viewBox="0 0 44 44" version="1.1" xmlns="http://www.w3.org/2000/svg" xmlns:xlink="http://www.w3.org/1999/xlink">
    <title>Icon-Figures-default</title>
    <g id="Icon-Figures-default" stroke="none" stroke-width="1" fill="none" fill-rule="evenodd">
        <rect id="Rectangle" x="0" y="0" width="44" height="44"></rect>
        <g id="Group" transform="translate(7.413673, 7.413530)">
            <path d="M24.9003268,4.27214376 L24.6419462,4.02014376 C27.4329981,6.67744587 29.1726535,10.4288468 29.1726535,14.5862311 L29.1681107,14.2251976 C29.2629358,18.0779749 27.840416,21.9603999 24.9004558,24.9007905 L14.5863268,14.5862311 L24.9003268,4.27214376 Z" id="Combined-Shape" stroke="#FFFFFF" fill="#70AF85"></path>
            <path d="M4.27219773,4.27214991 L4.02019157,4.53085073 C6.67715895,1.7396554 10.4285599,0 14.5863268,0 L14.2253411,0.00478190051 C18.077688,-0.0903779196 21.9604477,1.33223748 24.9004558,4.27214991 L14.5863268,14.5862311 L4.27219773,4.27214991 Z" id="Combined-Shape" stroke="#FFFFFF" fill="#70AF85"></path>
            <path d="M14.5863268,29.1727013 C14.4656794,29.1727013 14.3453668,29.1707886 14.2253411,29.1679194 L14.3279801,29.1704594 C10.2733139,29.1000368 6.62201475,27.3751159 4.02019157,24.6418506 L4.27219773,24.9005514 L14.5863268,14.5864702 L24.9004558,24.9005514 C21.9604477,27.8404638 18.077688,29.2630792 14.2253411,29.1679194 L14.5861916,29.1714702 L14.5863268,29.1727013 Z" id="Combined-Shape" stroke="#FFFFFF" fill="#70AF85"></path>
            <path d="M4.27219773,4.27214991 L14.5863268,14.5862311 L4.27219773,24.9007905 L4.314,24.9411499 L4.26391078,24.892246 C1.62922983,22.2530457 0,18.609969 0,14.5862311 L0.00454280548,14.9472646 C-0.0902344626,11.0949656 1.33223748,7.21206234 4.27219773,4.27214991 Z" id="Combined-Shape" stroke="#FFFFFF" fill="#70AF85"></path>
            <path d="M23.1991034,14.5862311 C23.1991034,19.3432657 19.3430266,23.1993903 14.5863268,23.1993903 C9.82962686,23.1993903 5.97359793,19.3432657 5.97359793,14.5862311 C5.97359793,9.82967468 9.82962686,5.97355011 14.5863268,5.97355011 C19.3430266,5.97355011 23.1991034,9.82967468 23.1991034,14.5862311" id="Fill-54" fill="#FFFFFF"></path>
            <path d="M16.3565385,17.5409674 C14.7248584,18.5183879 12.6096325,17.9885533 11.6319252,16.3564907 C10.6542656,14.7249062 11.1844349,12.6098716 12.816115,11.631973 C14.4477951,10.6545525 16.563021,11.1843871 17.5406805,12.8164497 C18.5183401,14.4480342 17.9881708,16.5630688 16.3565385,17.5409674" id="Fill-55" stroke="#FFFFFF" fill="#70AF85"></path>
            <path d="M25.9851821,7.75624262 L14.1415144,13.7699607 C13.6600248,14.0143158 13.4866809,14.6158789 13.7642224,15.0792451 C14.0418117,15.542133 14.6539428,15.6731571 15.0966512,15.3637681 L25.9851821,7.75624262" id="Fill-59" fill="#70AF85"></path>
            <line x1="11.1621513" y1="24.7988444" x2="18.0772576" y2="24.7988444" id="Fill-60" fill="#70AF85"></line>
        </g>
    </g>
</svg>